<?xml version="1.0" encoding="UTF-8"?>
<svg width="40px" height="40px" viewBox="0 0 40 40" version="1.1" xmlns="http://www.w3.org/2000/svg" xmlns:xlink="http://www.w3.org/1999/xlink">
    <!-- Generator: sketchtool 52.2 (67145) - http://www.bohemiancoding.com/sketch -->
    <title>EE4D6D4A-FFA8-4640-91C9-1951C01EBCA0</title>
    <desc>Created with sketchtool.</desc>
    <g id="Symbols" stroke="none" stroke-width="1" fill="none" fill-rule="evenodd" opacity="0.503850446">
        <g id="ic-/-citates" fill="#D3D9DD">
            <g id="&quot;">
                <path d="M26.9470199,34 C22.6379475,34 19.3885319,32.00002 17.1986755,28 L16.986755,26.137931 L16.986755,25.5172414 L17.410596,25.5172414 L17.410596,25.9310345 L17.6225166,25.7241379 L18.0463576,25.7241379 L18.0463576,26.7586207 L17.8344371,26.9655172 L17.8344371,27.1724138 C18.22296,27.1724138 18.6467968,28.0689566 19.1059603,29.862069 C20.3774898,31.1034545 21.154524,31.7241379 21.4370861,31.7241379 C20.6600403,30.7586159 19.8830061,28.9655303 19.1059603,26.3448276 L19.5298013,26.3448276 C19.6710824,27.3103497 19.9536403,27.7931034 20.3774834,27.7931034 L20.3774834,27.3793103 C20.0949213,27.1379298 19.8830029,26.1034574 19.7417219,24.2758621 L20.589404,24.2758621 L20.589404,24.0689655 L19.7417219,24.0689655 C19.3531989,25.310351 19.0000016,25.9310345 18.6821192,25.9310345 L18.6821192,25.7241379 L19.7417219,23.0344828 L19.5298013,22.8275862 L20.589404,22.2068966 L20.589404,22 L20.3774834,22 L19.5298013,22.2068966 L19.3178808,22 L18.4701987,24.0689655 L18.2582781,24.0689655 L17.8344371,23.6551724 C18.2582803,23.6551724 18.4701987,23.1034538 18.4701987,22 L20.589404,19.5172414 C19.8829987,19.5172414 19.5298013,19.3793117 19.5298013,19.1034483 L19.7417219,17.6551724 L20.3774834,18.0689655 L20.589404,18.0689655 L20.589404,17.6551724 L19.9536424,17.6551724 L19.9536424,17.4482759 L20.3774834,17.0344828 L21.013245,17.4482759 L21.2251656,16.6206897 L21.013245,16.6206897 L20.3774834,16.8275862 L20.1655629,16.6206897 L20.1655629,16.4137931 C20.6247264,14.7930953 21.8255974,13.0000098 23.7682119,11.0344828 L25.0397351,11.0344828 L25.0397351,10.8275862 L23.9801325,10.8275862 L23.9801325,10.6206897 C24.721858,9.24137241 25.7108106,8.55172414 26.9470199,8.55172414 L26.9470199,8.34482759 L26.3112583,8.34482759 L26.3112583,8.13793103 L29.4900662,5.65517241 L29.9139073,5.65517241 L30.1258278,5.86206897 L30.3377483,5.65517241 L33.7284768,5.65517241 L34.5761589,6.48275862 L33.9403974,6.89655172 L33.3046358,6.68965517 L33.5165563,6.89655172 L33.5165563,7.10344828 C32.9514321,7.7931069 32.3156768,8.13793103 31.6092715,8.13793103 L31.397351,7.93103448 L31.1854305,7.93103448 L30.7615894,8.34482759 L30.3377483,7.93103448 L30.1258278,8.55172414 L30.9735099,8.55172414 L30.9735099,8.75862069 L28.8543046,10.2068966 C28.8543046,10.6206917 28.4304678,10.8275862 27.5827815,10.8275862 L27.5827815,11.0344828 L28.218543,11.0344828 L28.218543,11.4482759 C27.6534188,11.4482759 27.1589425,12.0689593 26.7350993,13.3103448 L26.0993377,13.3103448 L26.3112583,13.5172414 L26.3112583,13.7241379 L26.0993377,13.9310345 L25.8874172,13.9310345 L26.0993377,14.137931 L26.0993377,14.3448276 L25.6754967,14.7586207 L25.2516556,14.7586207 C24.9337732,14.7586207 24.7218548,14.4137966 24.615894,13.7241379 L25.0397351,13.7241379 L25.0397351,14.3448276 L25.4635762,14.3448276 L25.6754967,13.3103448 L23.9801325,13.3103448 L24.4039735,13.9310345 L23.3443709,13.9310345 L23.7682119,14.5517241 L23.7682119,14.7586207 L22.4966887,14.9655172 L22.9205298,15.7931034 L24.4039735,14.7586207 C25.2516599,15.0344841 25.6754967,15.3103434 25.6754967,15.5862069 L25.0397351,16.2068966 L25.2516556,16.8275862 L24.8278146,17.2413793 L24.192053,17.0344828 L23.5562914,17.2413793 L23.1324503,16.8275862 L22.2847682,16.8275862 L21.4370861,17.2413793 L21.4370861,17.4482759 L22.7086093,17.4482759 C22.7086093,17.862071 22.8498882,18.0689655 23.1324503,18.0689655 L23.3443709,18.0689655 L23.1324503,17.862069 L23.1324503,17.4482759 L24.615894,17.4482759 C24.8984562,17.4482759 25.0397351,17.7241352 25.0397351,18.2758621 L25.2516556,18.0689655 L25.4635762,18.0689655 L25.6754967,18.2758621 L25.8874172,18.0689655 L26.5231788,18.0689655 L30.9735099,19.1034483 L30.9735099,19.5172414 L30.5496689,19.5172414 L30.3377483,19.3103448 L30.1258278,19.3103448 L30.1258278,19.5172414 L30.5496689,19.9310345 L32.4569536,19.9310345 C33.4459211,20.655176 33.9403974,21.2758595 33.9403974,21.7931034 L32.8807947,21.7931034 L32.6688742,21.5862069 L32.4569536,21.5862069 L32.4569536,22 L33.9403974,22.2068966 L34.5761589,22.2068966 L34.5761589,22.4137931 L34.1523179,23.0344828 C34.5761611,23.0344828 34.7880795,23.1724124 34.7880795,23.4482759 L34.5761589,23.4482759 L34.7880795,23.6551724 L34.7880795,23.862069 C34.7880795,24.4137959 34.4348821,24.6896552 33.7284768,24.6896552 L33.7284768,24.8965517 L34.7880795,24.8965517 L34.5761589,25.1034483 L34.7880795,25.3103448 L34.7880795,25.7241379 L34.1523179,25.7241379 C34.1523179,26.0000014 34.4348758,26.137931 35,26.137931 C34.2935947,28.6896679 33.7284789,30.1379293 33.3046358,30.4827586 L33.3046358,30.0689655 L33.5165563,29.4482759 C32.5275889,29.4482759 32.0331126,29.9310297 32.0331126,30.8965517 L31.8211921,31.1034483 L31.6092715,31.1034483 L31.397351,30.8965517 L30.1258278,32.7586207 L30.3377483,32.7586207 L30.7615894,32.3448276 L30.9735099,32.5517241 C31.5739544,32.4482753 32.2803491,31.8275919 33.0927152,30.6896552 L33.0927152,31.1034483 C33.0927152,32.241385 31.0441706,33.2068926 26.9470199,34 Z M27.1589404,33.5862069 L26.9470199,33.3793103 L26.9470199,33.1724138 C28.2891899,33.1724138 29.2781425,32.7586248 29.9139073,31.9310345 L29.9139073,31.7241379 C29.1015412,32.4137966 28.324507,32.7586207 27.5827815,32.7586207 L27.5827815,32.3448276 L29.4900662,31.7241379 L29.4900662,31.5172414 L28.4304636,31.3103448 L27.794702,31.5172414 L24.615894,31.1034483 L24.615894,30.6896552 L26.9470199,30.6896552 L26.5231788,30.2758621 L23.9801325,30.4827586 C23.4503285,30.4827586 22.3907364,29.517251 20.8013245,27.5862069 L20.8013245,28.2068966 L20.589404,28 L20.1655629,28 C20.448125,29.1379367 21.0132408,30.1034443 21.8609272,30.8965517 L21.6490066,30.8965517 L21.4370861,30.6896552 L21.2251656,30.6896552 C22.6026559,32.6206993 24.5805611,33.5862069 27.1589404,33.5862069 Z M26.7350993,33.1724138 L26.3112583,33.1724138 L25.8874172,32.7586207 L25.8874172,32.5517241 L26.5231788,32.5517241 L26.7350993,33.1724138 Z M24.615894,32.7586207 C24.615894,32.3793084 24.1920572,32.1034491 23.3443709,31.9310345 L23.5562914,31.7241379 L23.5562914,31.5172414 L23.3443709,31.3103448 L23.5562914,31.3103448 L25.2516556,32.5517241 L25.0397351,32.7586207 L24.615894,32.7586207 Z M29.2781457,31.1034483 L29.0662252,30.2758621 L28.6423841,30.2758621 L28.6423841,30.4827586 L28.8543046,30.6896552 L28.8543046,30.8965517 L28.6423841,31.1034483 L29.2781457,31.1034483 Z M22.4966887,31.3103448 L22.0728477,31.3103448 L22.0728477,31.1034483 L22.4966887,31.1034483 L22.4966887,31.3103448 Z M28.218543,30.4827586 L28.218543,30.2758621 L27.794702,30.6896552 L27.794702,30.8965517 L28.218543,30.4827586 Z M29.9139073,30.6896552 L29.9139073,30.2758621 L29.4900662,30.6896552 L29.9139073,30.6896552 Z M29.7019868,30.0689655 L29.2781457,29.6551724 L28.8543046,29.6551724 L28.8543046,30.0689655 L29.7019868,30.0689655 Z M22.2847682,30.2758621 L21.8609272,30.2758621 L21.8609272,29.862069 L22.2847682,30.2758621 Z M30.7615894,29.862069 L30.7615894,29.6551724 L30.1258278,29.6551724 L30.1258278,29.862069 L30.7615894,29.862069 Z M21.6490066,29.6551724 L21.013245,29.0344828 L21.013245,28.6206897 C21.3311274,28.6206897 21.5430458,28.9655138 21.6490066,29.6551724 Z M28.8543046,29.2413793 L28.6423841,29.0344828 L28.6423841,28.8275862 L27.794702,29.0344828 L27.794702,29.2413793 L28.8543046,29.2413793 Z M24.615894,29.2413793 L24.615894,29.0344828 L24.192053,29.0344828 L24.192053,29.2413793 L24.615894,29.2413793 Z M23.9801325,29.2413793 L23.9801325,29.0344828 L23.5562914,29.0344828 L23.5562914,29.2413793 L23.9801325,29.2413793 Z M29.4900662,29.0344828 L29.0662252,28.6206897 L29.0662252,29.0344828 L29.4900662,29.0344828 Z M33.9403974,28.6206897 L33.9403974,28.4137931 L33.0927152,28.4137931 L33.0927152,28.6206897 L33.9403974,28.6206897 Z M30.7615894,28.6206897 L30.7615894,28.4137931 L30.1258278,28.4137931 L30.1258278,28.6206897 L30.7615894,28.6206897 Z M28.8543046,28.6206897 L28.8543046,28.2068966 L28.218543,28.2068966 L28.218543,28.4137931 L28.8543046,28.6206897 Z M27.794702,28.6206897 L27.794702,28.4137931 L27.1589404,28.4137931 L27.1589404,28.6206897 L27.794702,28.6206897 Z M23.9801325,28.6206897 L23.9801325,28.4137931 L22.2847682,28.4137931 L22.2847682,28.6206897 L23.9801325,28.6206897 Z M24.192053,28.2068966 L24.192053,28 L23.7682119,28 L23.7682119,28.2068966 L24.192053,28.2068966 Z M22.4966887,28.2068966 L22.4966887,28 L22.0728477,28 L22.0728477,28.2068966 L22.4966887,28.2068966 Z M33.9403974,28 L33.9403974,27.5862069 L33.7284768,27.5862069 L33.7284768,28 L33.9403974,28 Z M25.6754967,26.9655172 L25.2516556,26.9655172 L25.0397351,27.1724138 L24.8278146,27.1724138 L25.0397351,28 C25.286977,28 25.4988954,27.6551759 25.6754967,26.9655172 Z M30.7615894,27.5862069 L30.7615894,27.3793103 L30.3377483,27.3793103 L30.3377483,27.5862069 L30.7615894,27.5862069 Z M30.5496689,26.9655172 L30.7615894,26.7586207 L30.7615894,26.5517241 L25.6754967,26.5517241 L26.0993377,26.9655172 L26.9470199,26.7586207 L27.1589404,26.9655172 L27.3708609,26.9655172 L27.5827815,26.7586207 L28.6423841,26.9655172 L29.4900662,26.7586207 L30.5496689,26.9655172 Z M25.2516556,26.7586207 L25.2516556,26.5517241 L22.4966887,26.5517241 L22.4966887,26.137931 L21.6490066,25.9310345 C21.2604837,25.9655174 20.9779258,26.3103416 20.8013245,26.9655172 L21.4370861,26.9655172 L21.2251656,26.7586207 L21.2251656,26.5517241 L21.4370861,26.3448276 L22.0728477,26.3448276 C22.0728477,26.7586228 22.426045,26.9655172 23.1324503,26.9655172 L23.7682119,26.9655172 L25.2516556,26.7586207 Z M18.6821192,26.3448276 L18.2582781,26.3448276 L18.2582781,26.9655172 L18.6821192,26.9655172 L18.6821192,26.3448276 Z M17.1986755,26.7586207 L17.1986755,26.5517241 L17.6225166,26.5517241 L17.6225166,26.7586207 L17.1986755,26.7586207 Z M33.7284768,25.9310345 L33.7284768,25.7241379 L32.2450331,25.7241379 L32.6688742,26.137931 L33.7284768,25.9310345 Z M30.1258278,25.9310345 L30.1258278,25.7241379 L29.0662252,25.7241379 L29.0662252,25.9310345 L30.1258278,25.9310345 Z M28.6423841,25.7241379 L28.6423841,25.3103448 L27.794702,25.1034483 L25.8874172,25.5172414 L22.4966887,25.5172414 L21.2251656,25.3103448 L20.3774834,25.5172414 L20.589404,25.7241379 L20.589404,25.9310345 L21.6490066,25.7241379 L23.7682119,25.7241379 L25.4635762,25.9310345 L27.1589404,25.7241379 L27.794702,25.7241379 L28.0066225,25.9310345 L28.6423841,25.7241379 Z M33.3046358,24.8965517 L32.8807947,24.4827586 L31.6092715,24.4827586 L31.1854305,24.8965517 L33.3046358,24.8965517 Z M30.3377483,24.8965517 L30.3377483,24.6896552 L29.7019868,24.6896552 L29.7019868,24.8965517 L30.3377483,24.8965517 Z M27.5827815,24.8965517 L27.5827815,24.6896552 L24.8278146,24.4827586 L24.4039735,24.4827586 L24.4039735,24.6896552 L25.8874172,24.8965517 L27.5827815,24.8965517 Z M23.5562914,24.8965517 L23.7682119,24.2758621 L22.9205298,24.2758621 C22.9205298,24.5517255 22.7086114,24.6896552 22.2847682,24.6896552 L22.2847682,24.8965517 L23.5562914,24.8965517 Z M18.2582781,24.6896552 C17.975716,24.6896552 17.8344371,24.4137959 17.8344371,23.862069 L17.410596,24.2758621 L17.410596,24.8965517 L18.0463576,25.1034483 L18.2582781,25.1034483 L18.2582781,24.6896552 Z M28.4304636,24.4827586 L28.4304636,24.0689655 L28.218543,24.0689655 L28.218543,24.4827586 L28.4304636,24.4827586 Z M22.0728477,24.4827586 L22.0728477,24.2758621 L21.6490066,24.2758621 L21.6490066,24.4827586 L22.0728477,24.4827586 Z M34.3642384,23.6551724 L34.3642384,23.4482759 L33.0927152,23.4482759 L33.0927152,23.6551724 L34.3642384,23.6551724 Z M32.8807947,23.6551724 L32.6688742,23.4482759 L32.6688742,23.2413793 L31.397351,23.4482759 L31.397351,23.6551724 L32.8807947,23.6551724 Z M29.4900662,23.6551724 L29.0662252,23.2413793 L27.794702,23.2413793 L27.794702,23.6551724 L29.4900662,23.6551724 Z M27.3708609,23.6551724 L27.3708609,23.2413793 L26.7350993,23.0344828 L25.6754967,23.4482759 L25.6754967,23.6551724 L26.5231788,23.6551724 L26.5231788,23.2413793 L26.7350993,23.2413793 L27.3708609,23.6551724 Z M24.192053,23.6551724 L24.192053,23.2413793 L23.9801325,23.4482759 L22.9205298,23.2413793 L21.4370861,23.2413793 L21.4370861,23.4482759 L22.9205298,23.6551724 L24.192053,23.6551724 Z M19.9536424,23.4482759 L19.9536424,23.2413793 L20.3774834,23.2413793 L20.3774834,23.4482759 L19.9536424,23.4482759 Z M26.3112583,23.0344828 L26.3112583,22.8275862 L25.8874172,22.8275862 L25.8874172,23.0344828 L26.3112583,23.0344828 Z M33.5165563,22.8275862 L33.5165563,22.6206897 L32.6688742,22.6206897 L32.6688742,22.8275862 L33.5165563,22.8275862 Z M32.0331126,22.8275862 L32.0331126,22.4137931 L30.9735099,22.4137931 L30.9735099,22.6206897 L32.0331126,22.8275862 Z M29.7019868,22.8275862 C29.7019868,22.5862057 29.0662315,22.2413816 27.794702,21.7931034 L27.5827815,21.5862069 L24.8278146,21.5862069 C24.8278146,21.3103434 24.5452567,21.1724138 23.9801325,21.1724138 L23.9801325,20.7586207 L27.5827815,20.7586207 L27.3708609,20.5517241 L27.3708609,20.3448276 L27.1589404,20.5517241 L23.3443709,20.5517241 L23.5562914,20.7586207 L23.5562914,20.9655172 L23.3443709,21.1724138 C23.9801356,21.1724138 24.5452514,21.4482731 25.0397351,22 L24.8278146,22 L25.0397351,22.6206897 L25.4635762,22.6206897 L25.4635762,22.2068966 L25.2516556,22 L25.2516556,21.7931034 L27.794702,21.7931034 L27.794702,22.6206897 L27.5827815,22.6206897 L27.5827815,22.2068966 L26.0993377,22.2068966 C26.0993377,22.6206917 27.0176509,22.8275862 28.8543046,22.8275862 L29.7019868,22.8275862 Z M30.3377483,22.6206897 L30.3377483,22.4137931 L29.9139073,22.4137931 L29.9139073,22.6206897 L30.3377483,22.6206897 Z M24.4039735,22.6206897 C24.4039735,22.2068945 23.6269393,22 22.0728477,22 L22.0728477,22.2068966 L21.8609272,22.4137931 L21.8609272,22.6206897 L24.4039735,22.6206897 Z M21.4370861,22.4137931 L21.4370861,22 L21.2251656,22 L20.8013245,22.4137931 L21.4370861,22.4137931 Z M31.397351,21.7931034 L31.397351,21.5862069 L30.7615894,21.5862069 L30.7615894,21.7931034 L31.397351,21.7931034 Z M23.5562914,21.7931034 L23.5562914,21.5862069 L22.9205298,21.5862069 L22.9205298,21.7931034 L23.5562914,21.7931034 Z M22.0728477,21.1724138 L22.0728477,20.9655172 L21.6490066,21.3793103 L21.6490066,21.5862069 L22.0728477,21.1724138 Z M32.4569536,20.5517241 L32.4569536,20.3448276 L30.9735099,20.137931 L30.9735099,20.5517241 L31.6092715,20.7586207 L32.4569536,20.5517241 Z M30.5496689,20.7586207 L30.5496689,20.5517241 L30.1258278,20.5517241 L30.1258278,20.7586207 L30.5496689,20.7586207 Z M29.0662252,20.7586207 L29.0662252,20.5517241 L28.0066225,20.5517241 L28.0066225,20.7586207 L29.0662252,20.7586207 Z M22.9205298,20.7586207 L22.9205298,20.3448276 L22.7086093,20.3448276 L22.7086093,20.7586207 L22.9205298,20.7586207 Z M21.6490066,20.7586207 L21.6490066,20.3448276 L20.8013245,20.3448276 L21.2251656,20.7586207 L21.6490066,20.7586207 Z M20.589404,20.3448276 L20.1655629,20.3448276 L20.1655629,20.7586207 L20.589404,20.3448276 Z M26.3112583,20.137931 L26.3112583,19.7241379 L28.0066225,19.9310345 L28.218543,19.9310345 L28.218543,19.7241379 L26.0993377,19.3103448 L23.7682119,19.5172414 L24.192053,19.9310345 L25.0397351,19.9310345 L25.2516556,19.7241379 L26.3112583,20.137931 Z M29.4900662,19.9310345 L28.8543046,19.3103448 L28.218543,19.3103448 L28.218543,19.5172414 L29.0662252,19.9310345 L29.4900662,19.9310345 Z M19.7417219,20.137931 L19.3178808,20.137931 L19.3178808,19.9310345 L19.7417219,19.9310345 L19.7417219,20.137931 Z M22.9205298,19.7241379 L22.9205298,19.5172414 L21.6490066,19.5172414 L21.6490066,19.7241379 L22.9205298,19.7241379 Z M21.4370861,19.7241379 L21.4370861,19.5172414 L21.013245,19.5172414 L21.013245,19.7241379 L21.4370861,19.7241379 Z M27.5827815,18.6896552 L27.5827815,18.4827586 L26.9470199,18.4827586 L26.9470199,18.6896552 L27.5827815,18.6896552 Z M21.8609272,16.6206897 L21.4370861,16.6206897 L21.4370861,17.0344828 L21.8609272,16.6206897 Z M22.0728477,14.3448276 L22.0728477,14.137931 L21.6490066,14.137931 L21.6490066,14.3448276 L22.0728477,14.3448276 Z M23.3443709,13.5172414 L23.3443709,13.3103448 L22.0728477,13.3103448 L22.0728477,13.5172414 L23.3443709,13.5172414 Z M26.9470199,12.0689655 L26.9470199,11.862069 L23.7682119,11.862069 L23.7682119,12.0689655 L26.9470199,12.0689655 Z M26.9470199,11.0344828 L26.9470199,10.8275862 L26.5231788,10.8275862 L26.5231788,11.0344828 L26.9470199,11.0344828 Z M26.3112583,11.0344828 L26.3112583,10.8275862 L25.4635762,10.4137931 L24.8278146,10.4137931 L24.8278146,10.6206897 L25.2516556,11.0344828 L26.3112583,11.0344828 Z M26.7350993,10.6206897 L26.7350993,10.4137931 L26.3112583,10.4137931 L26.3112583,10.6206897 L26.7350993,10.6206897 Z M29.0662252,8.55172414 L29.0662252,8.34482759 L28.6423841,8.34482759 L28.6423841,8.55172414 L29.0662252,8.55172414 Z M28.218543,8.55172414 L28.218543,8.34482759 L27.5827815,8.34482759 L27.5827815,8.55172414 L28.218543,8.55172414 Z M31.6092715,7.72413793 L31.6092715,7.31034483 L31.1854305,7.31034483 L31.6092715,7.72413793 Z M32.8807947,7.10344828 L32.8807947,6.89655172 L31.8211921,6.68965517 L31.8211921,7.10344828 L32.8807947,7.10344828 Z M33.0927152,5.03448276 L33.0927152,4.62068966 L32.8807947,4.62068966 L32.2450331,5.03448276 L31.1854305,5.03448276 L31.1854305,4.62068966 L32.8807947,4 L33.5165563,4.82758621 L33.3046358,5.03448276 L33.0927152,5.03448276 Z M12.9602649,34 C8.65119258,34 5.40177695,32.00002 3.21192053,28 L3,26.137931 L3,25.5172414 L3.42384106,25.5172414 L3.42384106,25.9310345 L3.63576159,25.7241379 L4.05960265,25.7241379 L4.05960265,26.7586207 L3.84768212,26.9655172 L3.84768212,27.1724138 C4.20088477,27.1724138 4.62472159,28.0689566 5.1192053,29.862069 C6.35541457,31.1034545 7.13244874,31.7241379 7.45033113,31.7241379 C6.6732853,30.7586159 5.89625113,28.9655303 5.1192053,26.3448276 L5.54304636,26.3448276 C5.68432742,27.3103497 5.9668853,27.7931034 6.39072848,27.7931034 L6.39072848,27.3793103 C6.10816636,27.1379298 5.89624795,26.1034574 5.75496689,24.2758621 L6.60264901,24.2758621 L6.60264901,24.0689655 L5.75496689,24.0689655 C5.36644397,25.310351 5.01324662,25.9310345 4.69536424,25.9310345 L4.69536424,25.7241379 L5.75496689,23.0344828 L5.54304636,22.8275862 L6.60264901,22.2068966 L6.60264901,22 L6.39072848,22 L5.54304636,22.2068966 L5.33112583,22 L4.48344371,24.0689655 L4.27152318,24.0689655 L3.84768212,23.6551724 C4.2715253,23.6551724 4.48344371,23.1034538 4.48344371,22 L6.60264901,19.5172414 C5.89624371,19.5172414 5.54304636,19.3793117 5.54304636,19.1034483 L5.75496689,17.6551724 L6.39072848,18.0689655 L6.60264901,18.0689655 L6.60264901,17.6551724 L5.96688742,17.6551724 L5.96688742,17.4482759 L6.39072848,17.0344828 L7.02649007,17.4482759 L7.2384106,16.6206897 L7.02649007,16.6206897 L6.39072848,16.8275862 L6.17880795,16.6206897 L6.17880795,16.4137931 C6.63797139,14.7930953 7.83884238,13.0000098 9.78145695,11.0344828 L11.0529801,11.0344828 L11.0529801,10.8275862 L9.99337748,10.8275862 L9.99337748,10.6206897 C10.735103,9.24137241 11.7240556,8.55172414 12.9602649,8.55172414 L12.9602649,8.34482759 L12.3245033,8.34482759 L12.3245033,8.13793103 L15.5033113,5.65517241 L15.9271523,5.65517241 L16.1390728,5.86206897 L16.3509934,5.65517241 L19.7417219,5.65517241 L20.589404,6.48275862 L19.9536424,6.89655172 L19.3178808,6.68965517 L19.5298013,6.89655172 L19.5298013,7.10344828 C18.9646771,7.7931069 18.3289219,8.13793103 17.6225166,8.13793103 L17.410596,7.93103448 L17.1986755,7.93103448 L16.7748344,8.34482759 L16.3509934,7.93103448 L16.1390728,8.55172414 L16.986755,8.55172414 L16.986755,8.75862069 L14.8675497,10.2068966 C14.8675497,10.6206917 14.4437128,10.8275862 13.5960265,10.8275862 L13.5960265,11.0344828 L14.2317881,11.0344828 L14.2317881,11.4482759 C13.6666638,11.4482759 13.1721875,12.0689593 12.7483444,13.3103448 L12.1125828,13.3103448 L12.3245033,13.5172414 L12.3245033,13.7241379 L12.1125828,13.9310345 L11.9006623,13.9310345 L12.1125828,14.137931 L12.1125828,14.3448276 L11.6887417,14.7586207 L11.2649007,14.7586207 C10.9470183,14.7586207 10.7350999,14.4137966 10.6291391,13.7241379 L11.0529801,13.7241379 L11.0529801,14.3448276 L11.4768212,14.3448276 L11.6887417,13.3103448 L9.99337748,13.3103448 L10.4172185,13.9310345 L9.35761589,13.9310345 L9.78145695,14.5517241 L9.78145695,14.7586207 L8.50993377,14.9655172 L8.93377483,15.7931034 L10.4172185,14.7586207 C11.2649049,15.0344841 11.6887417,15.3103434 11.6887417,15.5862069 L11.0529801,16.2068966 L11.2649007,16.8275862 L10.8410596,17.2413793 L10.205298,17.0344828 L9.56953642,17.2413793 L9.14569536,16.8275862 L8.29801325,16.8275862 L7.45033113,17.2413793 L7.45033113,17.4482759 L8.7218543,17.4482759 C8.7218543,17.862071 8.86313325,18.0689655 9.14569536,18.0689655 L9.35761589,18.0689655 L9.14569536,17.862069 L9.14569536,17.4482759 L10.6291391,17.4482759 C10.9117012,17.4482759 11.0529801,17.7241352 11.0529801,18.2758621 L11.2649007,18.0689655 L11.4768212,18.0689655 L11.6887417,18.2758621 L11.9006623,18.0689655 L12.5364238,18.0689655 L16.986755,19.1034483 L16.986755,19.5172414 L16.5629139,19.5172414 L16.3509934,19.3103448 L16.1390728,19.3103448 L16.1390728,19.5172414 L16.5629139,19.9310345 L18.4701987,19.9310345 C19.4591661,20.655176 19.9536424,21.2758595 19.9536424,21.7931034 L18.8940397,21.7931034 L18.6821192,21.5862069 L18.4701987,21.5862069 L18.4701987,22 L19.9536424,22.2068966 L20.589404,22.2068966 L20.589404,22.4137931 L20.1655629,23.0344828 C20.5894061,23.0344828 20.8013245,23.1724124 20.8013245,23.4482759 L20.589404,23.4482759 L20.8013245,23.6551724 L20.8013245,23.862069 C20.8013245,24.4137959 20.4481272,24.6896552 19.7417219,24.6896552 L19.7417219,24.8965517 L20.8013245,24.8965517 L20.589404,25.1034483 L20.8013245,25.3103448 L20.8013245,25.7241379 L20.1655629,25.7241379 C20.1655629,26.0000014 20.4481208,26.137931 21.013245,26.137931 C20.3068397,28.6896679 19.741724,30.1379293 19.3178808,30.4827586 L19.3178808,30.0689655 L19.5298013,29.4482759 C18.5408339,29.4482759 18.0463576,29.9310297 18.0463576,30.8965517 L17.8344371,31.1034483 L17.6225166,31.1034483 L17.410596,30.8965517 L16.1390728,32.7586207 L16.3509934,32.7586207 L16.7748344,32.3448276 L16.986755,32.5517241 C17.5871995,32.4482753 18.2935942,31.8275919 19.1059603,30.6896552 L19.1059603,31.1034483 C19.1059603,32.241385 17.0574156,33.2068926 12.9602649,34 Z M13.1721854,33.5862069 L12.9602649,33.3793103 L12.9602649,33.1724138 C14.302435,33.1724138 15.2913875,32.7586248 15.9271523,31.9310345 L15.9271523,31.7241379 C15.1147862,32.4137966 14.3377521,32.7586207 13.5960265,32.7586207 L13.5960265,32.3448276 L15.5033113,31.7241379 L15.5033113,31.5172414 L14.4437086,31.3103448 L13.807947,31.5172414 L10.6291391,31.1034483 L10.6291391,30.6896552 L12.9602649,30.6896552 L12.5364238,30.2758621 L9.99337748,30.4827586 C9.46357351,30.4827586 8.40398146,29.517251 6.81456954,27.5862069 L6.81456954,28.2068966 L6.60264901,28 L6.17880795,28 C6.46137007,29.1379367 7.02648583,30.1034443 7.87417219,30.8965517 L7.66225166,30.8965517 L7.45033113,30.6896552 L7.2384106,30.6896552 C8.58058066,32.6206993 10.5584858,33.5862069 13.1721854,33.5862069 Z M12.7483444,33.1724138 L12.3245033,33.1724138 L11.9006623,32.7586207 L11.9006623,32.5517241 L12.5364238,32.5517241 L12.7483444,33.1724138 Z M10.6291391,32.7586207 C10.6291391,32.3793084 10.2053023,32.1034491 9.35761589,31.9310345 L9.56953642,31.7241379 L9.56953642,31.5172414 L9.35761589,31.3103448 L9.56953642,31.3103448 L11.2649007,32.5517241 L11.0529801,32.7586207 L10.6291391,32.7586207 Z M15.2913907,31.1034483 L15.0794702,30.2758621 L14.6556291,30.2758621 L14.6556291,30.4827586 L14.8675497,30.6896552 L14.8675497,30.8965517 L14.6556291,31.1034483 L15.2913907,31.1034483 Z M8.50993377,31.3103448 L8.08609272,31.3103448 L8.08609272,31.1034483 L8.50993377,31.1034483 L8.50993377,31.3103448 Z M14.2317881,30.4827586 L14.2317881,30.2758621 L13.807947,30.6896552 L13.807947,30.8965517 L14.2317881,30.4827586 Z M15.9271523,30.6896552 L15.9271523,30.2758621 L15.5033113,30.6896552 L15.9271523,30.6896552 Z M15.7152318,30.0689655 L15.2913907,29.6551724 L14.8675497,29.6551724 L14.8675497,30.0689655 L15.7152318,30.0689655 Z M8.29801325,30.2758621 L7.87417219,30.2758621 L7.87417219,29.862069 L8.29801325,30.2758621 Z M16.7748344,29.862069 L16.7748344,29.6551724 L16.1390728,29.6551724 L16.1390728,29.862069 L16.7748344,29.862069 Z M7.66225166,29.6551724 L7.02649007,29.0344828 L7.02649007,28.6206897 C7.34437245,28.6206897 7.55629086,28.9655138 7.66225166,29.6551724 Z M14.8675497,29.2413793 L14.6556291,29.0344828 L14.6556291,28.8275862 L13.807947,29.0344828 L13.807947,29.2413793 L14.8675497,29.2413793 Z M10.6291391,29.2413793 L10.6291391,29.0344828 L10.205298,29.0344828 L10.205298,29.2413793 L10.6291391,29.2413793 Z M9.99337748,29.2413793 L9.99337748,29.0344828 L9.56953642,29.0344828 L9.56953642,29.2413793 L9.99337748,29.2413793 Z M15.5033113,29.0344828 L15.0794702,28.6206897 L15.0794702,29.0344828 L15.5033113,29.0344828 Z M19.9536424,28.6206897 L19.9536424,28.4137931 L19.1059603,28.4137931 L19.1059603,28.6206897 L19.9536424,28.6206897 Z M16.7748344,28.6206897 L16.7748344,28.4137931 L16.1390728,28.4137931 L16.1390728,28.6206897 L16.7748344,28.6206897 Z M14.8675497,28.6206897 L14.8675497,28.2068966 L14.2317881,28.2068966 L14.2317881,28.4137931 L14.8675497,28.6206897 Z M13.807947,28.6206897 L13.807947,28.4137931 L13.1721854,28.4137931 L13.1721854,28.6206897 L13.807947,28.6206897 Z M9.99337748,28.6206897 L9.99337748,28.4137931 L8.29801325,28.4137931 L8.29801325,28.6206897 L9.99337748,28.6206897 Z M10.205298,28.2068966 L10.205298,28 L9.78145695,28 L9.78145695,28.2068966 L10.205298,28.2068966 Z M8.50993377,28.2068966 L8.50993377,28 L8.08609272,28 L8.08609272,28.2068966 L8.50993377,28.2068966 Z M19.7417219,28 L19.7417219,27.5862069 L19.9536424,27.5862069 L19.9536424,28 L19.7417219,28 Z M11.6887417,26.9655172 L11.2649007,26.9655172 L11.0529801,27.1724138 L10.8410596,27.1724138 L11.0529801,28 C11.300222,28 11.5121404,27.6551759 11.6887417,26.9655172 Z M16.7748344,27.5862069 L16.7748344,27.3793103 L16.3509934,27.3793103 L16.3509934,27.5862069 L16.7748344,27.5862069 Z M16.5629139,26.9655172 L16.7748344,26.7586207 L16.7748344,26.5517241 L11.6887417,26.5517241 L12.1125828,26.9655172 L12.9602649,26.7586207 L13.1721854,26.9655172 L13.384106,26.9655172 L13.5960265,26.7586207 L14.6556291,26.9655172 L15.5033113,26.7586207 L16.5629139,26.9655172 Z M11.2649007,26.7586207 L11.2649007,26.5517241 L8.50993377,26.5517241 L8.50993377,26.137931 L7.66225166,25.9310345 C7.27372874,26.0000003 6.99117086,26.3448245 6.81456954,26.9655172 L7.45033113,26.9655172 L7.2384106,26.7586207 L7.2384106,26.5517241 L7.45033113,26.3448276 L8.08609272,26.3448276 C8.08609272,26.7586228 8.43929007,26.9655172 9.14569536,26.9655172 L9.78145695,26.9655172 L11.2649007,26.7586207 Z M4.69536424,26.9655172 L4.27152318,26.9655172 L4.27152318,26.3448276 L4.69536424,26.3448276 L4.69536424,26.9655172 Z M3.63576159,26.7586207 L3.63576159,26.5517241 L3.21192053,26.5517241 L3.21192053,26.7586207 L3.63576159,26.7586207 Z M19.7417219,25.9310345 L19.7417219,25.7241379 L18.2582781,25.7241379 L18.6821192,26.137931 L19.7417219,25.9310345 Z M16.1390728,25.9310345 L16.1390728,25.7241379 L15.0794702,25.7241379 L15.0794702,25.9310345 L16.1390728,25.9310345 Z M14.6556291,25.7241379 L14.6556291,25.3103448 L13.807947,25.1034483 L11.9006623,25.5172414 L8.50993377,25.5172414 L7.2384106,25.3103448 L6.39072848,25.5172414 L6.60264901,25.7241379 L6.60264901,25.9310345 L7.66225166,25.7241379 L9.78145695,25.7241379 L11.4768212,25.9310345 L13.1721854,25.7241379 L13.807947,25.7241379 L14.0198675,25.9310345 L14.6556291,25.7241379 Z M19.3178808,24.8965517 L18.8940397,24.4827586 L17.6225166,24.4827586 L17.1986755,24.8965517 L19.3178808,24.8965517 Z M16.3509934,24.8965517 L16.3509934,24.6896552 L15.7152318,24.6896552 L15.7152318,24.8965517 L16.3509934,24.8965517 Z M13.5960265,24.8965517 L13.5960265,24.6896552 L10.8410596,24.4827586 L10.4172185,24.4827586 L10.4172185,24.6896552 L11.9006623,24.8965517 L13.5960265,24.8965517 Z M9.56953642,24.8965517 L9.78145695,24.2758621 L8.93377483,24.2758621 C8.93377483,24.5517255 8.72185642,24.6896552 8.29801325,24.6896552 L8.29801325,24.8965517 L9.56953642,24.8965517 Z M4.27152318,25.1034483 L4.05960265,25.1034483 L3.42384106,24.8965517 L3.42384106,24.2758621 L3.84768212,23.862069 C3.84768212,24.4137959 3.98896106,24.6896552 4.27152318,24.6896552 L4.27152318,25.1034483 Z M14.4437086,24.4827586 L14.4437086,24.0689655 L14.2317881,24.0689655 L14.2317881,24.4827586 L14.4437086,24.4827586 Z M8.08609272,24.4827586 L8.08609272,24.2758621 L7.66225166,24.2758621 L7.66225166,24.4827586 L8.08609272,24.4827586 Z M20.3774834,23.6551724 L20.3774834,23.4482759 L19.1059603,23.4482759 L19.1059603,23.6551724 L20.3774834,23.6551724 Z M18.8940397,23.6551724 L18.6821192,23.4482759 L18.6821192,23.2413793 L17.410596,23.4482759 L17.410596,23.6551724 L18.8940397,23.6551724 Z M15.5033113,23.6551724 L15.0794702,23.2413793 L13.807947,23.2413793 L13.807947,23.6551724 L15.5033113,23.6551724 Z M13.384106,23.6551724 L13.384106,23.2413793 L12.7483444,23.0344828 L11.6887417,23.4482759 L11.6887417,23.6551724 L12.5364238,23.6551724 L12.5364238,23.2413793 L12.7483444,23.2413793 L13.384106,23.6551724 Z M10.205298,23.6551724 L10.205298,23.2413793 L9.99337748,23.4482759 L8.93377483,23.2413793 L7.45033113,23.2413793 L7.45033113,23.4482759 L8.93377483,23.6551724 L10.205298,23.6551724 Z M6.39072848,23.4482759 L6.39072848,23.2413793 L5.96688742,23.2413793 L5.96688742,23.4482759 L6.39072848,23.4482759 Z M12.3245033,23.0344828 L12.3245033,22.8275862 L11.9006623,22.8275862 L11.9006623,23.0344828 L12.3245033,23.0344828 Z M19.5298013,22.8275862 L19.5298013,22.6206897 L18.6821192,22.6206897 L18.6821192,22.8275862 L19.5298013,22.8275862 Z M18.0463576,22.8275862 L18.0463576,22.4137931 L16.986755,22.4137931 L16.986755,22.6206897 L18.0463576,22.8275862 Z M15.7152318,22.8275862 C15.7152318,22.5862057 15.0794766,22.2413816 13.807947,21.7931034 L13.5960265,21.5862069 L10.8410596,21.5862069 C10.8410596,21.3103434 10.5585017,21.1724138 9.99337748,21.1724138 L9.99337748,20.7586207 L13.5960265,20.7586207 L13.384106,20.5517241 L13.384106,20.3448276 L13.1721854,20.5517241 L9.35761589,20.5517241 L9.56953642,20.7586207 L9.56953642,20.9655172 L9.35761589,21.1724138 C9.9580604,21.1724138 10.5231762,21.4482731 11.0529801,22 L10.8410596,22 L11.0529801,22.6206897 L11.4768212,22.6206897 L11.4768212,22.2068966 L11.2649007,22 L11.2649007,21.7931034 L13.807947,21.7931034 L13.807947,22.6206897 L13.5960265,22.6206897 L13.5960265,22.2068966 L12.1125828,22.2068966 C12.1125828,22.6206917 13.0308959,22.8275862 14.8675497,22.8275862 L15.7152318,22.8275862 Z M16.3509934,22.6206897 L16.3509934,22.4137931 L15.9271523,22.4137931 L15.9271523,22.6206897 L16.3509934,22.6206897 Z M10.4172185,22.6206897 C10.4172185,22.2068945 9.64018437,22 8.08609272,22 L8.08609272,22.2068966 L7.87417219,22.4137931 L7.87417219,22.6206897 L10.4172185,22.6206897 Z M7.45033113,22.4137931 L7.45033113,22 L7.2384106,22 L6.81456954,22.4137931 L7.45033113,22.4137931 Z M17.410596,21.7931034 L17.410596,21.5862069 L16.7748344,21.5862069 L16.7748344,21.7931034 L17.410596,21.7931034 Z M9.56953642,21.7931034 L9.56953642,21.5862069 L8.93377483,21.5862069 L8.93377483,21.7931034 L9.56953642,21.7931034 Z M8.08609272,21.1724138 L8.08609272,20.9655172 L7.66225166,21.3793103 L7.66225166,21.5862069 L8.08609272,21.1724138 Z M18.4701987,20.5517241 L18.4701987,20.3448276 L16.986755,20.137931 L16.986755,20.5517241 L17.6225166,20.7586207 L18.4701987,20.5517241 Z M16.5629139,20.7586207 L16.5629139,20.5517241 L16.1390728,20.5517241 L16.1390728,20.7586207 L16.5629139,20.7586207 Z M15.0794702,20.7586207 L15.0794702,20.5517241 L14.0198675,20.5517241 L14.0198675,20.7586207 L15.0794702,20.7586207 Z M8.93377483,20.7586207 L8.93377483,20.3448276 L8.7218543,20.3448276 L8.7218543,20.7586207 L8.93377483,20.7586207 Z M7.66225166,20.7586207 L7.66225166,20.3448276 L6.81456954,20.3448276 L7.2384106,20.7586207 L7.66225166,20.7586207 Z M6.60264901,20.3448276 L6.17880795,20.3448276 L6.17880795,20.7586207 L6.60264901,20.3448276 Z M12.3245033,20.137931 L12.3245033,19.7241379 L14.0198675,19.9310345 L14.2317881,19.9310345 L14.2317881,19.7241379 L12.1125828,19.3103448 L9.78145695,19.5172414 L10.205298,19.9310345 L11.0529801,19.9310345 L11.2649007,19.7241379 L12.3245033,20.137931 Z M15.5033113,19.9310345 L14.8675497,19.3103448 L14.2317881,19.3103448 L14.2317881,19.5172414 L15.0794702,19.9310345 L15.5033113,19.9310345 Z M5.75496689,20.137931 L5.33112583,20.137931 L5.33112583,19.9310345 L5.75496689,19.9310345 L5.75496689,20.137931 Z M8.93377483,19.7241379 L8.93377483,19.5172414 L7.66225166,19.5172414 L7.66225166,19.7241379 L8.93377483,19.7241379 Z M7.45033113,19.7241379 L7.45033113,19.5172414 L7.02649007,19.5172414 L7.02649007,19.7241379 L7.45033113,19.7241379 Z M13.5960265,18.6896552 L13.5960265,18.4827586 L12.9602649,18.4827586 L12.9602649,18.6896552 L13.5960265,18.6896552 Z M7.87417219,16.6206897 L7.45033113,16.6206897 L7.45033113,17.0344828 L7.87417219,16.6206897 Z M8.08609272,14.3448276 L8.08609272,14.137931 L7.66225166,14.137931 L7.66225166,14.3448276 L8.08609272,14.3448276 Z M9.35761589,13.5172414 L9.35761589,13.3103448 L8.08609272,13.3103448 L8.08609272,13.5172414 L9.35761589,13.5172414 Z M12.9602649,12.0689655 L12.9602649,11.862069 L9.78145695,11.862069 L9.78145695,12.0689655 L12.9602649,12.0689655 Z M12.9602649,11.0344828 L12.9602649,10.8275862 L12.5364238,10.8275862 L12.5364238,11.0344828 L12.9602649,11.0344828 Z M12.3245033,11.0344828 L12.3245033,10.8275862 L11.4768212,10.4137931 L10.8410596,10.4137931 L10.8410596,10.6206897 L11.2649007,11.0344828 L12.3245033,11.0344828 Z M12.7483444,10.6206897 L12.7483444,10.4137931 L12.3245033,10.4137931 L12.3245033,10.6206897 L12.7483444,10.6206897 Z M15.0794702,8.55172414 L15.0794702,8.34482759 L14.6556291,8.34482759 L14.6556291,8.55172414 L15.0794702,8.55172414 Z M14.2317881,8.55172414 L14.2317881,8.34482759 L13.5960265,8.34482759 L13.5960265,8.55172414 L14.2317881,8.55172414 Z M17.6225166,7.72413793 L17.6225166,7.31034483 L17.1986755,7.31034483 L17.6225166,7.72413793 Z M18.8940397,7.10344828 L18.8940397,6.89655172 L17.8344371,6.68965517 L17.8344371,7.10344828 L18.8940397,7.10344828 Z M19.1059603,5.03448276 L19.1059603,4.62068966 L18.8940397,4.62068966 L18.2582781,5.03448276 L17.1986755,5.03448276 L17.1986755,4.62068966 L18.8940397,4 L19.5298013,4.82758621 L19.3178808,5.03448276 L19.1059603,5.03448276 Z"></path>
            </g>
        </g>
    </g>
</svg>