<?xml version="1.0" encoding="UTF-8"?>
<svg width="56px" height="56px" viewBox="0 0 56 56" version="1.1" xmlns="http://www.w3.org/2000/svg" xmlns:xlink="http://www.w3.org/1999/xlink">
    <!-- Generator: sketchtool 52.2 (67145) - http://www.bohemiancoding.com/sketch -->
    <title>1D98C83E-F3E4-493E-B096-1F5C2E24A57F</title>
    <desc>Created with sketchtool.</desc>
    <g id="Symbols" stroke="none" stroke-width="1" fill="none" fill-rule="evenodd">
        <g id="ic-/-footer-/-facebook" fill="#FFFFFF">
            <g>
                <path d="M1.94736842,28 C1.94736842,42.3905709 13.6104074,54.0526316 28,54.0526316 C42.3905709,54.0526316 54.0526316,42.3895926 54.0526316,28 C54.0526316,13.6094291 42.3895926,1.94736842 28,1.94736842 C13.6094291,1.94736842 1.94736842,13.6104074 1.94736842,28 Z M1,28 C1,13.0872081 13.0861942,1 28,1 C42.9127919,1 55,13.0861942 55,28 C55,42.9127919 42.9138058,55 28,55 C13.0872081,55 1,42.9138058 1,28 Z" id="Rectangle-7-Copy" fill-rule="nonzero"></path>
                <g id="facebook-logo-button" transform="translate(21.000000, 13.000000)">
                    <path d="M13.1316327,14.7132653 L9.01020408,14.7132653 L9.01020408,29.4030612 L2.90306122,29.4030612 L2.90306122,14.7132653 L0,14.7132653 L0,9.52142857 L2.90306122,9.52142857 L2.90306122,6.16326531 C2.90306122,3.75816327 4.04591837,1.77635684e-15 9.06632653,1.77635684e-15 L13.5918367,0.0173469388 L13.5918367,5.05714286 L10.3071429,5.05714286 C9.77244898,5.05714286 9.0122449,5.3244898 9.0122449,6.47142857 L9.0122449,9.52244898 L13.6653061,9.52244898 L13.1316327,14.7132653 Z" id="Path"></path>
                </g>
            </g>
        </g>
    </g>
</svg>