<?xml version="1.0" encoding="UTF-8"?>
<svg width="56px" height="56px" viewBox="0 0 56 56" version="1.1" xmlns="http://www.w3.org/2000/svg" xmlns:xlink="http://www.w3.org/1999/xlink">
    <!-- Generator: sketchtool 52.2 (67145) - http://www.bohemiancoding.com/sketch -->
    <title>BDB82C53-5540-4AB0-8383-D6DD45832102</title>
    <desc>Created with sketchtool.</desc>
    <g id="Symbols" stroke="none" stroke-width="1" fill="none" fill-rule="evenodd">
        <g id="ic-/-footer-/-github" fill="#FFFFFF" fill-rule="nonzero">
            <g>
                <path d="M1.96428571,28 C1.96428571,42.3812562 13.6197215,54.0357143 28,54.0357143 C42.3812562,54.0357143 54.0357143,42.3802785 54.0357143,28 C54.0357143,13.6187438 42.3802785,1.96428571 28,1.96428571 C13.6187438,1.96428571 1.96428571,13.6197215 1.96428571,28 Z M1,28 C1,13.0883118 13.0850331,1 28,1 C42.9116882,1 55,13.0850331 55,28 C55,42.9116882 42.9149669,55 28,55 C13.0883118,55 1,42.9149669 1,28 Z" id="Rectangle-7-Copy-3"></path>
                <g id="github" transform="translate(12.000000, 18.000000)">
                    <path d="M22.813184,35.9547661 C22.6657755,33.921106 22.8228588,29.8933189 22.813184,28.8732773 C22.7491545,28.0903592 22.6657755,26.0989852 20.8018841,24.8271894 C28.2018636,24.1986068 31.7233096,20.0501044 31.9764371,14.5680719 C32.1878752,11.4462127 30.9642787,8.70100358 28.7913219,6.48553093 C28.9017903,4.11572278 28.7207839,1.30717362 28.5703849,0.0728464989 C26.9017483,-0.414425452 23.0103737,1.66954979 21.9229278,2.56130563 C19.6296519,1.65813075 14.0168691,1.34143074 10.6058916,2.56130563 C8.18772297,0.836316538 5.43498266,-0.229222858 3.9345114,0.0680290904 C2.54925803,3.18185922 3.4396901,6.1251174 3.71023228,6.47589611 C1.92620185,8.12951619 -0.562328858,10.1647821 0.113498879,14.4285455 C1.19760256,20.6804712 5.53419319,24.0526572 12.516222,24.877683 C11.0270086,25.186354 10.7754642,26.3136276 10.6505715,26.8025053 C5.9616428,28.764618 4.62142116,25.5908379 4.02879658,24.7640278 C2.06076932,22.2934109 0.294329413,23.0097774 0.185444101,23.0486735 C0.0797250825,23.0875696 -0.000311778592,23.2435109 0.0109461535,23.31827 C0.11015668,23.8510397 1.18159519,24.3920168 1.23436674,24.4357303 C2.68681589,25.5337426 3.22490986,27.5170876 3.55631524,28.0823302 C5.6397363,31.5567522 10.4824062,30.1159903 10.5288451,30.1452516 C10.5320114,30.4489267 10.67942,33.964998 10.6505715,35.9547661 C11.8029828,35.9547661 14.152183,37 16.5973214,37 C19.0424599,37 21.4886121,35.9547661 22.813184,35.9547661 Z" id="Shape"></path>
                </g>
            </g>
        </g>
    </g>
</svg>