<?xml version="1.0" encoding="UTF-8"?>
<svg width="56px" height="56px" viewBox="0 0 56 56" version="1.1" xmlns="http://www.w3.org/2000/svg" xmlns:xlink="http://www.w3.org/1999/xlink">
    <!-- Generator: sketchtool 52.2 (67145) - http://www.bohemiancoding.com/sketch -->
    <title>5E00C07A-3EBB-459D-9398-FD63179B863E</title>
    <desc>Created with sketchtool.</desc>
    <g id="Symbols" stroke="none" stroke-width="1" fill="none" fill-rule="evenodd">
        <g id="ic-/-footer-/-linkedin" fill="#FFFFFF">
            <g>
                <path d="M1.96428571,28 C1.96428571,42.3812562 13.6197215,54.0357143 28,54.0357143 C42.3812562,54.0357143 54.0357143,42.3802785 54.0357143,28 C54.0357143,13.6187438 42.3802785,1.96428571 28,1.96428571 C13.6187438,1.96428571 1.96428571,13.6197215 1.96428571,28 Z M1,28 C1,13.0883118 13.0850331,1 28,1 C42.9116882,1 55,13.0850331 55,28 C55,42.9116882 42.9149669,55 28,55 C13.0883118,55 1,42.9149669 1,28 Z" id="Rectangle-7-Copy-3" fill-rule="nonzero"></path>
                <g id="linkedin-logo-button" transform="translate(14.000000, 13.000000)">
                    <path d="M22.069378,8.71189337 C26.1187628,8.71189337 29.1561859,11.3586808 29.1592618,17.0428913 L29.1592618,27.6623377 L29.1577239,27.6623377 L23.002905,27.6623377 L23.002905,17.7549556 C23.002905,15.2634997 22.1124402,13.5656186 19.8855092,13.5656186 C18.1845523,13.5656186 17.1725906,14.7113807 16.7265892,15.8186945 C16.5604921,16.213944 16.5251196,16.7691388 16.5251196,17.3212577 L16.5251196,27.6669515 L10.3703008,27.6669515 C10.3703008,27.6669515 10.4502734,10.8834586 10.3703008,9.14866712 L16.5251196,9.14866712 L16.5251196,11.7693096 C17.3417635,10.5082023 18.8012645,8.71189337 22.069378,8.71189337 Z M0.804340396,9.14866712 L6.95915926,9.14866712 L6.95915926,27.6669515 L0.804340396,27.6669515 L0.804340396,9.14866712 Z M3.92327409,0.220950103 C6.03024607,0.220950103 7.32365003,1.60355434 7.3651743,3.41985646 C7.3651743,5.19617225 6.02870813,6.61876282 3.88174983,6.61876282 L3.8417635,6.61876282 C1.77785373,6.61876282 0.44138756,5.19617225 0.44138756,3.41985646 C0.44138756,1.6020164 1.81937799,0.220950103 3.92327409,0.220950103 Z" id="Combined-Shape"></path>
                </g>
            </g>
        </g>
    </g>
</svg>