<?xml version="1.0" encoding="utf-8"?>
<!-- Generator: Adobe Illustrator 22.0.1, SVG Export Plug-In . SVG Version: 6.00 Build 0)  -->
<svg version="1.1" id="Слой_1" xmlns="http://www.w3.org/2000/svg" xmlns:xlink="http://www.w3.org/1999/xlink" x="0px" y="0px"
	 viewBox="0 0 56 56" style="enable-background:new 0 0 56 56;" xml:space="preserve">
<style type="text/css">
	.st0{fill:#FFFFFF;}
</style>
<title>C48651A9-004C-44E6-9A69-C035D6889A57</title>
<desc>Created with sketchtool.</desc>
<g id="Symbols">
	<g id="ic-_x2F_-footer-_x2F_-medium">
		<g>
			<g id="Rectangle-7-Copy-3">
				<path class="st0" d="M28,56C12.6,56,0,43.4,0,28S12.6,0,28,0s28,12.6,28,28S43.4,56,28,56z M28,1C13.1,1,1,13.1,1,28
					s12.1,27,27,27s27-12.1,27-27S42.9,1,28,1z"/>
			</g>
			<g id="medium" transform="translate(12.000000, 14.000000)">
				<g id="Combined-Shape">
					<path class="st0" d="M32.9,5.1c0,0,0.1,0.1,0,0.2l-10,16.3L15.7,9.9l5.7-9.3C21.7,0.2,22,0,22.4,0c0.1,0,0.2,0,0.3,0
						c0.1,0,0.1,0,0.2,0.1L32.9,5.1L32.9,5.1C32.9,5.1,32.9,5.1,32.9,5.1z M12.6,7.7L22,23.1l-9.4-4.7V7.7z M23.4,23.8L33,8.2v18.7
						c0,0.9-0.8,1.3-1.8,0.8L23.4,23.8z M10.9,5.1C11,5.2,11,5.2,10.9,5.1L11,26.9c0,0.7-0.4,1.1-0.9,1.1c-0.2,0-0.4-0.1-0.6-0.2
						l-8.6-4.3C0.4,23.3,0,22.6,0,22.1V1c0-0.6,0.3-0.9,0.7-0.9c0.2,0,0.3,0,0.5,0.1L10.9,5.1z"/>
				</g>
			</g>
		</g>
	</g>
</g>
</svg>
