<?xml version="1.0" encoding="UTF-8"?>
<svg width="24px" height="24px" viewBox="0 0 24 24" version="1.1" xmlns="http://www.w3.org/2000/svg" xmlns:xlink="http://www.w3.org/1999/xlink">
    <!-- Generator: sketchtool 52.2 (67145) - http://www.bohemiancoding.com/sketch -->
    <title>6133C4E3-266C-4041-8678-E0A8AF769CC8</title>
    <desc>Created with sketchtool.</desc>
    <g id="Symbols" stroke="none" stroke-width="1" fill="none" fill-rule="evenodd">
        <g id="ic-/-skype" fill="#FFFFFF" fill-rule="nonzero">
            <g id="Combined-Shape">
                <path d="M20.4821702,14.9722128 C21.4386383,15.7175319 22,16.8520851 22,18.071617 C22,20.2377021 20.2377447,22 18.0716596,22 C16.8049787,22 15.6125957,21.3778298 14.8809787,20.3554043 C13.9399149,20.6720426 12.9724255,20.832383 12,20.832383 C9.57770213,20.832383 7.30080851,19.8894894 5.58885106,18.1774468 C3.87689362,16.4654468 2.93408511,14.1886383 2.93408511,11.7664681 C2.93408511,10.8051915 3.09012766,9.85234043 3.39821277,8.92961702 C2.51731915,8.18595745 2,7.08642553 2,5.92838298 C2,3.76229787 3.76225532,2 5.92834043,2 C7.04110638,2 8.07851064,2.4612766 8.82119149,3.27604255 C9.83412766,2.894 10.9018723,2.70055319 12,2.70055319 C14.4221702,2.70055319 16.6989787,3.64340426 18.4109787,5.3553617 C20.1230638,7.06740426 21.0659149,9.34421277 21.0659149,11.7664681 C21.0659149,12.8701702 20.8696596,13.9468511 20.4821702,14.9722128 Z M12.6299574,10.4312766 C9.68582979,9.85906383 9.49519149,8.95965957 10.2035319,8.33251064 C10.9127234,7.70587234 13.0190213,7.42353191 13.6110213,8.52340426 C14.1839149,9.58608511 14.5930213,10.022383 15.3829787,9.83148936 C16.1377872,9.64948936 16.2464255,8.60502128 15.9285106,7.97812766 C15.6720851,7.47187234 14.5108511,6.17880851 12.2208085,6.17880851 C9.93114894,6.17880851 7.53212766,7.02395745 7.53212766,9.12293617 C7.53212766,11.2219149 9.71314894,12.1486809 11.8121277,12.4488085 C13.9106383,12.7484681 14.4014043,13.6483404 14.129617,14.3028511 C13.8572766,14.9564681 12.9568936,15.5831489 11.5941277,15.447234 C10.2308511,15.3113191 9.60187234,14.1697021 9.41302128,13.5931915 C9.23148936,13.0394894 8.59570213,12.9664681 8.29557447,12.9934043 C7.99544681,13.021234 7.04131915,13.4034468 7.47731915,14.7384255 C7.91378723,16.0743404 9.33178723,17.1374894 12.1664681,17.1374894 C15.0011489,17.1374894 16.6640426,15.3924681 16.6641277,13.7300426 C16.6641277,12.0668511 15.5745106,11.0041277 12.6299574,10.4312766 Z"></path>
            </g>
        </g>
    </g>
</svg>