<?xml version="1.0" encoding="UTF-8"?>
<svg width="56px" height="56px" viewBox="0 0 56 56" version="1.1" xmlns="http://www.w3.org/2000/svg" xmlns:xlink="http://www.w3.org/1999/xlink">
    <!-- Generator: sketchtool 52.2 (67145) - http://www.bohemiancoding.com/sketch -->
    <title>17E89218-4EE8-42E2-8862-64BD0F046A76</title>
    <desc>Created with sketchtool.</desc>
    <g id="Symbols" stroke="none" stroke-width="1" fill="none" fill-rule="evenodd">
        <g id="ic-/-footer-/-twiter" fill="#FFFFFF">
            <g>
                <path d="M1.96428571,28 C1.96428571,42.3812562 13.6197215,54.0357143 28,54.0357143 C42.3812562,54.0357143 54.0357143,42.3802785 54.0357143,28 C54.0357143,13.6187438 42.3802785,1.96428571 28,1.96428571 C13.6187438,1.96428571 1.96428571,13.6197215 1.96428571,28 Z M1,28 C1,13.0883118 13.0850331,1 28,1 C42.9116882,1 55,13.0850331 55,28 C55,42.9116882 42.9149669,55 28,55 C13.0883118,55 1,42.9149669 1,28 Z" id="Rectangle-7-Copy-2" fill-rule="nonzero"></path>
                <g id="twitter-logo-button" transform="translate(14.000000, 17.000000)">
                    <path d="M25.9304593,6.12965094 C25.9414993,6.37654585 25.9475211,6.62544804 25.9475211,6.87435023 C25.9475211,14.4528197 20.180618,23.1884835 9.62937327,23.1884835 C6.39063392,23.1884835 3.37570581,22.242053 0.838509317,20.6141524 C1.28713544,20.6673452 1.74379066,20.6944435 2.20646771,20.6944435 C4.89420988,20.6944435 7.36616991,19.7771185 9.32928555,18.2395453 C6.82019092,18.1933779 4.70151141,16.5353682 3.97186669,14.2561066 C4.32113267,14.3223467 4.68143865,14.3594813 5.04977375,14.3594813 C5.57266907,14.3594813 6.08050982,14.291234 6.56125235,14.1597574 C3.93774301,13.6338512 1.96158007,11.3164514 1.96158007,8.53637451 C1.96158007,8.5122872 1.96158007,8.48719626 1.96258371,8.46411259 C2.73538486,8.89266595 3.61958981,9.15160452 4.55899484,9.18071001 C3.02142165,8.15398849 2.00875105,6.39762225 2.00875105,4.40841202 C2.00875105,3.35659955 2.29077329,2.37102718 2.78456311,1.52395684 C5.61181094,4.99453653 9.83913358,7.27680901 14.6044061,7.51768209 C14.5060496,7.09715783 14.4568713,6.66057537 14.4568713,6.20994197 C14.4568713,3.04346454 17.024177,0.47515528 20.1906544,0.47515528 C21.840635,0.47515528 23.32903,1.17167995 24.3768279,2.28571797 C25.684568,2.02878668 26.9090062,1.55306233 28.0200333,0.893672264 C27.588469,2.2335288 26.682184,3.35659955 25.4948804,4.06717515 C26.6560894,3.92867313 27.7641056,3.62155995 28.7888199,3.16490472 C28.0240478,4.31306643 27.0515228,5.32372975 25.9304593,6.12965094 Z" id="Shape"></path>
                </g>
            </g>
        </g>
    </g>
</svg>