<?xml version="1.0" encoding="UTF-8"?>
<svg width="96px" height="96px" viewBox="0 0 96 96" version="1.1" xmlns="http://www.w3.org/2000/svg" xmlns:xlink="http://www.w3.org/1999/xlink">
    <!-- Generator: sketchtool 52.2 (67145) - http://www.bohemiancoding.com/sketch -->
    <title>E1D97E3F-6892-48C5-95D6-7EE59B70E271</title>
    <desc>Created with sketchtool.</desc>
    <defs>
        <linearGradient x1="50%" y1="-23.4178113%" x2="50%" y2="118.071158%" id="linearGradient-1">
            <stop stop-color="#4AC2FF" offset="0%"></stop>
            <stop stop-color="#4BB7FF" stop-opacity="0" offset="100%"></stop>
        </linearGradient>
    </defs>
    <g id="01.-Index-Page" stroke="none" stroke-width="1" fill="none" fill-rule="evenodd">
        <g id="bba/-web-1-/-00-landing-design" transform="translate(-1108.000000, -353.000000)" fill-rule="nonzero">
            <g id="1.-Title">
                <g id="for" transform="translate(200.000000, 331.000000)">
                    <g id="#8" transform="translate(908.000000, 22.000000)">
                        <g id="Path">
                            <g id="Group-18">
                                <g id="wave" transform="translate(57.000000, 67.000000)" fill="#89969F">
                                    <path d="M9.80966234,5.06028519 C10.726026,4.11295185 12.217039,4.11295185 13.1336104,5.06028519 C15.6703377,7.68274444 19.798026,7.68274444 22.3347532,5.06028519 C22.7787013,4.60133333 23.3689351,4.3486037 23.9967792,4.3486037 C24.6246234,4.3486037 25.2148571,4.60144074 25.6588052,5.06028519 C28.1955325,7.68274444 32.3232208,7.68274444 34.8599481,5.06028519 C35.3038961,4.60133333 35.8941299,4.3486037 36.521974,4.3486037 C37.1498182,4.3486037 37.7400519,4.60144074 38.184,5.06028519 C39.4128831,6.3307 41.0467532,7.03035185 42.7845195,7.03035185 C44.5224935,7.03035185 46.1562597,6.3307 47.3851429,5.06028519 C48.1966753,4.22132593 48.1965714,2.86122593 47.385039,2.02237407 C46.5735065,1.18341481 45.2578701,1.18341481 44.4464416,2.02237407 C44.0025974,2.48132593 43.4123636,2.73405556 42.7845195,2.73405556 C42.1566753,2.73405556 41.5664416,2.48121852 41.1225974,2.02248148 C39.8938182,0.752066667 38.2598442,0.0524148148 36.5220779,0.0523074074 C36.5218701,0.0523074074 36.5220779,0.0523074074 36.521974,0.0523074074 C34.7842078,0.0523074074 33.1502338,0.752066667 31.9213506,2.02237407 C31.004987,2.96981481 29.5136623,2.9696 28.5975065,2.02248148 C27.3687273,0.752066667 25.7347532,0.0524148148 23.996987,0.0523074074 C23.9967792,0.0523074074 23.996987,0.0523074074 23.9968831,0.0523074074 C22.2591169,0.0523074074 20.6251429,0.752066667 19.3962597,2.02237407 C18.4798961,2.96981481 16.9885714,2.96970741 16.0724156,2.02237407 C13.5355844,-0.600192593 9.4078961,-0.600192593 6.87116883,2.02237407 C5.95480519,2.96970741 4.46368831,2.96970741 3.54711688,2.02237407 C2.73558442,1.18341481 1.41994805,1.18341481 0.608519481,2.02237407 C-0.202909091,2.86133333 -0.202909091,4.22143333 0.608623377,5.06028519 C3.14514286,7.68274444 7.27272727,7.68274444 9.80966234,5.06028519 Z" id="Shape"></path>
                                    <path d="M9.80987013,16.0158407 C10.7262338,15.0685074 12.2172468,15.0685074 13.1338182,16.0158407 C15.6705455,18.6383 19.7982338,18.6383 22.334961,16.0158407 C22.7789091,15.5568889 23.3691429,15.3041593 23.996987,15.3041593 C24.6248312,15.3041593 25.2150649,15.5569963 25.659013,16.0158407 C28.1957403,18.6383 32.3234286,18.6383 34.8601558,16.0158407 C35.3041039,15.5568889 35.8943377,15.3041593 36.5221818,15.3041593 C37.150026,15.3041593 37.7402597,15.5569963 38.1842078,16.0158407 C39.4130909,17.2862556 41.046961,17.9859074 42.7847273,17.9859074 C44.5227013,17.9859074 46.1564675,17.2862556 47.3853506,16.0158407 C48.1968831,15.1768815 48.1967792,13.8167815 47.3852468,12.9779296 C46.5735065,12.1389704 45.2578701,12.1389704 44.4464416,12.9779296 C44.0025974,13.4368815 43.4123636,13.6896111 42.7845195,13.6896111 C42.1566753,13.6896111 41.5664416,13.4367741 41.1225974,12.978037 C39.8938182,11.7076222 38.2598442,11.0079704 36.5220779,11.007863 C36.5218701,11.007863 36.5220779,11.007863 36.521974,11.007863 C34.7842078,11.007863 33.1502338,11.7076222 31.9213506,12.9779296 C31.004987,13.9253704 29.5136623,13.9251556 28.5975065,12.978037 C27.3687273,11.7076222 25.7347532,11.0079704 23.996987,11.007863 C23.9967792,11.007863 23.996987,11.007863 23.9968831,11.007863 C22.2591169,11.007863 20.6251429,11.7076222 19.3962597,12.9779296 C18.4798961,13.9253704 16.9885714,13.925263 16.0724156,12.9779296 C13.5355844,10.355363 9.4078961,10.355363 6.87116883,12.9779296 C5.95480519,13.925263 4.46368831,13.925263 3.54711688,12.9779296 C2.73558442,12.1389704 1.41994805,12.1389704 0.608519481,12.9779296 C-0.202909091,13.8168889 -0.202909091,15.1769889 0.608623377,16.0158407 C3.14535065,18.6383 7.27293506,18.6383 9.80987013,16.0158407 Z" id="Shape"></path>
                                    <path d="M44.4464416,23.9334852 C44.0025974,24.392437 43.4123636,24.6451667 42.7845195,24.6451667 C42.1566753,24.6451667 41.5664416,24.3923296 41.1225974,23.9335926 C39.8938182,22.6631778 38.2598442,21.9635259 36.5220779,21.9634185 C36.5218701,21.9634185 36.5220779,21.9634185 36.521974,21.9634185 C34.7842078,21.9634185 33.1502338,22.6631778 31.9213506,23.9334852 C31.004987,24.8809259 29.5136623,24.8807111 28.5975065,23.9335926 C27.3687273,22.6631778 25.7347532,21.9635259 23.996987,21.9634185 C23.9967792,21.9634185 23.996987,21.9634185 23.9968831,21.9634185 C22.2591169,21.9634185 20.6251429,22.6631778 19.3962597,23.9334852 C18.4798961,24.8808185 16.9885714,24.8809259 16.0724156,23.9334852 C13.5355844,21.3109185 9.4078961,21.3109185 6.87116883,23.9334852 C5.95480519,24.8808185 4.46368831,24.8808185 3.54711688,23.9334852 C2.73558442,23.0945259 1.41994805,23.0945259 0.608519481,23.9334852 C-0.202909091,24.7724444 -0.202909091,26.1325444 0.608623377,26.9713963 C3.14535065,29.5938556 7.27293506,29.5938556 9.80987013,26.9713963 C10.7262338,26.024063 12.2172468,26.024063 13.1338182,26.9713963 C15.6705455,29.5938556 19.7982338,29.5938556 22.334961,26.9713963 C22.7789091,26.5124444 23.3691429,26.2597148 23.996987,26.2597148 C24.6248312,26.2597148 25.2150649,26.5125519 25.659013,26.9713963 C28.1957403,29.5938556 32.3234286,29.5938556 34.8601558,26.9713963 C35.3041039,26.5124444 35.8943377,26.2597148 36.5221818,26.2597148 C37.150026,26.2597148 37.7402597,26.5125519 38.1842078,26.9713963 C39.4130909,28.2418111 41.046961,28.941463 42.7847273,28.941463 C44.5227013,28.941463 46.1564675,28.2418111 47.3853506,26.9713963 C48.1968831,26.132437 48.1967792,24.772337 47.3852468,23.9334852 C46.5735065,23.0945259 45.2578701,23.0945259 44.4464416,23.9334852 Z" id="Shape"></path>
                                </g>
                                <path d="M40.1573276,51.687334 C40.6899044,52.1141515 40.9998031,52.75989 40.9998031,53.4424435 C40.9998031,54.124997 40.6899044,54.7705387 40.1573276,55.197553 L26.0500464,66.5056556 C25.6430828,66.8318717 25.1449611,67 24.6427047,67 C24.3119361,67 23.9793955,66.9269607 23.6696937,66.7785196 C22.8898279,66.4042668 22.393675,65.6157964 22.393675,64.750743 L22.393675,48.6025543 L15.6637151,54.0425079 C15.247498,54.3789613 14.7476042,54.5427584 14.2508606,54.5427584 C13.5950331,54.5427584 12.9447184,54.2572947 12.5001496,53.7074326 C11.7191026,52.7413841 11.8693266,51.3250904 12.8354466,50.5441012 L22.1648934,43.0027411 L12.8354466,35.4613811 C11.8693266,34.6803918 11.7191026,33.2640982 12.5001496,32.2980497 C13.2811967,31.3318043 14.697792,31.1819851 15.6637151,31.9627775 L22.393675,37.4027311 L22.393675,21.2492269 C22.393675,20.3841735 22.8898279,19.5957031 23.6696937,19.2214503 C24.4497563,18.8471976 25.3753178,18.9533113 26.0502433,19.4943142 L40.1575245,30.8028106 C40.6901013,31.229628 41,31.8753666 41,32.5577232 C41,33.2400799 40.6901013,33.8858184 40.1575245,34.3128327 L29.3197335,42.9997881 L40.1573276,51.687334 Z" id="Path" fill="url(#linearGradient-1)"></path>
                            </g>
                        </g>
                    </g>
                </g>
            </g>
        </g>
    </g>
</svg>