<?xml version="1.0" encoding="UTF-8"?>
<svg width="24px" height="24px" viewBox="0 0 24 24" version="1.1" xmlns="http://www.w3.org/2000/svg" xmlns:xlink="http://www.w3.org/1999/xlink">
    <!-- Generator: sketchtool 52.2 (67145) - http://www.bohemiancoding.com/sketch -->
    <title>626F8400-DAC6-4BCA-B79D-41CB53C40DBC</title>
    <desc>Created with sketchtool.</desc>
    <g id="Symbols" stroke="none" stroke-width="1" fill="none" fill-rule="evenodd">
        <g id="ic/-arrow-/-right" fill="#89969F">
            <g id="Shape">
                <path d="M18.7451458,11.3250574 L14.8699829,7.30448347 C14.6423005,7.05407556 14.296111,6.94703563 13.9663828,7.02509512 C13.6366546,7.10315461 13.3755851,7.35395635 13.2849568,7.67972079 C13.1943286,8.00548524 13.2884885,8.35464241 13.5307267,8.59106714 L15.8930259,11.0652665 L5.93003909,11.0652665 C5.41639268,11.0652665 5,11.4806678 5,11.9930913 C5,12.5055147 5.41639268,12.920916 5.93003909,12.920916 L16.0108309,12.920916 L13.4005212,15.3085184 C13.1025232,15.5136915 12.9509734,15.8727508 13.0121017,16.2287811 C13.07323,16.5848114 13.3359232,16.8730858 13.6853797,16.9676236 C14.0348363,17.0621613 14.4075245,16.9457752 14.6405733,16.669328 L18.6707427,12.958029 C18.9048684,12.7576668 19.0215221,12.4527618 18.9807557,12.1477287 C19.0422975,11.8515487 18.9542441,11.5440958 18.7451458,11.3250574 Z"></path>
            </g>
        </g>
    </g>
</svg>