<?xml version="1.0" encoding="UTF-8"?>
<svg width="1440px" height="614px" viewBox="0 0 1440 614" version="1.1" xmlns="http://www.w3.org/2000/svg" xmlns:xlink="http://www.w3.org/1999/xlink">
    <!-- Generator: sketchtool 52.2 (67145) - http://www.bohemiancoding.com/sketch -->
    <title>3CBAA31C-D698-49C7-AFF3-E0A6BCB4342D</title>
    <desc>Created with sketchtool.</desc>
    <defs>
        <path d="M0,100 C66.27417,100 120,153.72583 120,220 C120,286.27417 66.27417,340 0,340 L0,440 C121.502645,440 220,341.502645 220,220 C220,98.497355 121.502645,0 0,0 L0,100 Z" id="path-1"></path>
    </defs>
    <g id="01.-Index-Page" stroke="none" stroke-width="1" fill="none" fill-rule="evenodd">
        <g id="bba/-web-1-/-00-landing-design" transform="translate(0.000000, -3473.000000)">
            <g id="5.-Advantages" transform="translate(0.000000, 3472.000000)">
                <g id="background">
                    <g id="Group-19" transform="translate(0.000000, 1.000000)">
                        <path d="M949,520 C946.238576,520 944,517.761424 944,515 C944,512.238576 946.238576,510 949,510 C951.761424,510 954,512.238576 954,515 C954,517.761424 951.761424,520 949,520 Z M1076,520 C1073.23858,520 1071,517.761424 1071,515 C1071,512.238576 1073.23858,510 1076,510 C1078.76142,510 1081,512.238576 1081,515 C1081,517.761424 1078.76142,520 1076,520 Z M991,520 C988.238576,520 986,517.761424 986,515 C986,512.238576 988.238576,510 991,510 C993.761424,510 996,512.238576 996,515 C996,517.761424 993.761424,520 991,520 Z M1118,520 C1115.23858,520 1113,517.761424 1113,515 C1113,512.238576 1115.23858,510 1118,510 C1120.76142,510 1123,512.238576 1123,515 C1123,517.761424 1120.76142,520 1118,520 Z M1033,520 C1030.23858,520 1028,517.761424 1028,515 C1028,512.238576 1030.23858,510 1033,510 C1035.76142,510 1038,512.238576 1038,515 C1038,517.761424 1035.76142,520 1033,520 Z M1160,520 C1157.23858,520 1155,517.761424 1155,515 C1155,512.238576 1157.23858,510 1160,510 C1162.76142,510 1165,512.238576 1165,515 C1165,517.761424 1162.76142,520 1160,520 Z M949,564 C946.238576,564 944,561.761424 944,559 C944,556.238576 946.238576,554 949,554 C951.761424,554 954,556.238576 954,559 C954,561.761424 951.761424,564 949,564 Z M1076,564 C1073.23858,564 1071,561.761424 1071,559 C1071,556.238576 1073.23858,554 1076,554 C1078.76142,554 1081,556.238576 1081,559 C1081,561.761424 1078.76142,564 1076,564 Z M991,564 C988.238576,564 986,561.761424 986,559 C986,556.238576 988.238576,554 991,554 C993.761424,554 996,556.238576 996,559 C996,561.761424 993.761424,564 991,564 Z M1118,564 C1115.23858,564 1113,561.761424 1113,559 C1113,556.238576 1115.23858,554 1118,554 C1120.76142,554 1123,556.238576 1123,559 C1123,561.761424 1120.76142,564 1118,564 Z M1033,564 C1030.23858,564 1028,561.761424 1028,559 C1028,556.238576 1030.23858,554 1033,554 C1035.76142,554 1038,556.238576 1038,559 C1038,561.761424 1035.76142,564 1033,564 Z M1160,564 C1157.23858,564 1155,561.761424 1155,559 C1155,556.238576 1157.23858,554 1160,554 C1162.76142,554 1165,556.238576 1165,559 C1165,561.761424 1162.76142,564 1160,564 Z M1012,542 C1009.23858,542 1007,539.761424 1007,537 C1007,534.238576 1009.23858,532 1012,532 C1014.76142,532 1017,534.238576 1017,537 C1017,539.761424 1014.76142,542 1012,542 Z M1139,542 C1136.23858,542 1134,539.761424 1134,537 C1134,534.238576 1136.23858,532 1139,532 C1141.76142,532 1144,534.238576 1144,537 C1144,539.761424 1141.76142,542 1139,542 Z M970,542 C967.238576,542 965,539.761424 965,537 C965,534.238576 967.238576,532 970,532 C972.761424,532 975,534.238576 975,537 C975,539.761424 972.761424,542 970,542 Z M1097,542 C1094.23858,542 1092,539.761424 1092,537 C1092,534.238576 1094.23858,532 1097,532 C1099.76142,532 1102,534.238576 1102,537 C1102,539.761424 1099.76142,542 1097,542 Z M928,542 C925.238576,542 923,539.761424 923,537 C923,534.238576 925.238576,532 928,532 C930.761424,532 933,534.238576 933,537 C933,539.761424 930.761424,542 928,542 Z M1055,542 C1052.23858,542 1050,539.761424 1050,537 C1050,534.238576 1052.23858,532 1055,532 C1057.76142,532 1060,534.238576 1060,537 C1060,539.761424 1057.76142,542 1055,542 Z M949,608 C946.238576,608 944,605.761424 944,603 C944,600.238576 946.238576,598 949,598 C951.761424,598 954,600.238576 954,603 C954,605.761424 951.761424,608 949,608 Z M1076,608 C1073.23858,608 1071,605.761424 1071,603 C1071,600.238576 1073.23858,598 1076,598 C1078.76142,598 1081,600.238576 1081,603 C1081,605.761424 1078.76142,608 1076,608 Z M991,608 C988.238576,608 986,605.761424 986,603 C986,600.238576 988.238576,598 991,598 C993.761424,598 996,600.238576 996,603 C996,605.761424 993.761424,608 991,608 Z M1118,608 C1115.23858,608 1113,605.761424 1113,603 C1113,600.238576 1115.23858,598 1118,598 C1120.76142,598 1123,600.238576 1123,603 C1123,605.761424 1120.76142,608 1118,608 Z M1033,608 C1030.23858,608 1028,605.761424 1028,603 C1028,600.238576 1030.23858,598 1033,598 C1035.76142,598 1038,600.238576 1038,603 C1038,605.761424 1035.76142,608 1033,608 Z M1160,608 C1157.23858,608 1155,605.761424 1155,603 C1155,600.238576 1157.23858,598 1160,598 C1162.76142,598 1165,600.238576 1165,603 C1165,605.761424 1162.76142,608 1160,608 Z M1012,586 C1009.23858,586 1007,583.761424 1007,581 C1007,578.238576 1009.23858,576 1012,576 C1014.76142,576 1017,578.238576 1017,581 C1017,583.761424 1014.76142,586 1012,586 Z M1139,586 C1136.23858,586 1134,583.761424 1134,581 C1134,578.238576 1136.23858,576 1139,576 C1141.76142,576 1144,578.238576 1144,581 C1144,583.761424 1141.76142,586 1139,586 Z M970,586 C967.238576,586 965,583.761424 965,581 C965,578.238576 967.238576,576 970,576 C972.761424,576 975,578.238576 975,581 C975,583.761424 972.761424,586 970,586 Z M1097,586 C1094.23858,586 1092,583.761424 1092,581 C1092,578.238576 1094.23858,576 1097,576 C1099.76142,576 1102,578.238576 1102,581 C1102,583.761424 1099.76142,586 1097,586 Z M928,586 C925.238576,586 923,583.761424 923,581 C923,578.238576 925.238576,576 928,576 C930.761424,576 933,578.238576 933,581 C933,583.761424 930.761424,586 928,586 Z M1055,586 C1052.23858,586 1050,583.761424 1050,581 C1050,578.238576 1052.23858,576 1055,576 C1057.76142,576 1060,578.238576 1060,581 C1060,583.761424 1057.76142,586 1055,586 Z M1203,520 C1200.23858,520 1198,517.761424 1198,515 C1198,512.238576 1200.23858,510 1203,510 C1205.76142,510 1208,512.238576 1208,515 C1208,517.761424 1205.76142,520 1203,520 Z M1330,520 C1327.23858,520 1325,517.761424 1325,515 C1325,512.238576 1327.23858,510 1330,510 C1332.76142,510 1335,512.238576 1335,515 C1335,517.761424 1332.76142,520 1330,520 Z M1245,520 C1242.23858,520 1240,517.761424 1240,515 C1240,512.238576 1242.23858,510 1245,510 C1247.76142,510 1250,512.238576 1250,515 C1250,517.761424 1247.76142,520 1245,520 Z M1372,520 C1369.23858,520 1367,517.761424 1367,515 C1367,512.238576 1369.23858,510 1372,510 C1374.76142,510 1377,512.238576 1377,515 C1377,517.761424 1374.76142,520 1372,520 Z M1287,520 C1284.23858,520 1282,517.761424 1282,515 C1282,512.238576 1284.23858,510 1287,510 C1289.76142,510 1292,512.238576 1292,515 C1292,517.761424 1289.76142,520 1287,520 Z M1414,520 C1411.23858,520 1409,517.761424 1409,515 C1409,512.238576 1411.23858,510 1414,510 C1416.76142,510 1419,512.238576 1419,515 C1419,517.761424 1416.76142,520 1414,520 Z M1203,564 C1200.23858,564 1198,561.761424 1198,559 C1198,556.238576 1200.23858,554 1203,554 C1205.76142,554 1208,556.238576 1208,559 C1208,561.761424 1205.76142,564 1203,564 Z M1330,564 C1327.23858,564 1325,561.761424 1325,559 C1325,556.238576 1327.23858,554 1330,554 C1332.76142,554 1335,556.238576 1335,559 C1335,561.761424 1332.76142,564 1330,564 Z M1245,564 C1242.23858,564 1240,561.761424 1240,559 C1240,556.238576 1242.23858,554 1245,554 C1247.76142,554 1250,556.238576 1250,559 C1250,561.761424 1247.76142,564 1245,564 Z M1372,564 C1369.23858,564 1367,561.761424 1367,559 C1367,556.238576 1369.23858,554 1372,554 C1374.76142,554 1377,556.238576 1377,559 C1377,561.761424 1374.76142,564 1372,564 Z M1287,564 C1284.23858,564 1282,561.761424 1282,559 C1282,556.238576 1284.23858,554 1287,554 C1289.76142,554 1292,556.238576 1292,559 C1292,561.761424 1289.76142,564 1287,564 Z M1414,564 C1411.23858,564 1409,561.761424 1409,559 C1409,556.238576 1411.23858,554 1414,554 C1416.76142,554 1419,556.238576 1419,559 C1419,561.761424 1416.76142,564 1414,564 Z M1266,542 C1263.23858,542 1261,539.761424 1261,537 C1261,534.238576 1263.23858,532 1266,532 C1268.76142,532 1271,534.238576 1271,537 C1271,539.761424 1268.76142,542 1266,542 Z M1393,542 C1390.23858,542 1388,539.761424 1388,537 C1388,534.238576 1390.23858,532 1393,532 C1395.76142,532 1398,534.238576 1398,537 C1398,539.761424 1395.76142,542 1393,542 Z M1224,542 C1221.23858,542 1219,539.761424 1219,537 C1219,534.238576 1221.23858,532 1224,532 C1226.76142,532 1229,534.238576 1229,537 C1229,539.761424 1226.76142,542 1224,542 Z M1351,542 C1348.23858,542 1346,539.761424 1346,537 C1346,534.238576 1348.23858,532 1351,532 C1353.76142,532 1356,534.238576 1356,537 C1356,539.761424 1353.76142,542 1351,542 Z M1182,542 C1179.23858,542 1177,539.761424 1177,537 C1177,534.238576 1179.23858,532 1182,532 C1184.76142,532 1187,534.238576 1187,537 C1187,539.761424 1184.76142,542 1182,542 Z M1309,542 C1306.23858,542 1304,539.761424 1304,537 C1304,534.238576 1306.23858,532 1309,532 C1311.76142,532 1314,534.238576 1314,537 C1314,539.761424 1311.76142,542 1309,542 Z M1203,608 C1200.23858,608 1198,605.761424 1198,603 C1198,600.238576 1200.23858,598 1203,598 C1205.76142,598 1208,600.238576 1208,603 C1208,605.761424 1205.76142,608 1203,608 Z M1330,608 C1327.23858,608 1325,605.761424 1325,603 C1325,600.238576 1327.23858,598 1330,598 C1332.76142,598 1335,600.238576 1335,603 C1335,605.761424 1332.76142,608 1330,608 Z M1245,608 C1242.23858,608 1240,605.761424 1240,603 C1240,600.238576 1242.23858,598 1245,598 C1247.76142,598 1250,600.238576 1250,603 C1250,605.761424 1247.76142,608 1245,608 Z M1372,608 C1369.23858,608 1367,605.761424 1367,603 C1367,600.238576 1369.23858,598 1372,598 C1374.76142,598 1377,600.238576 1377,603 C1377,605.761424 1374.76142,608 1372,608 Z M1287,608 C1284.23858,608 1282,605.761424 1282,603 C1282,600.238576 1284.23858,598 1287,598 C1289.76142,598 1292,600.238576 1292,603 C1292,605.761424 1289.76142,608 1287,608 Z M1414,608 C1411.23858,608 1409,605.761424 1409,603 C1409,600.238576 1411.23858,598 1414,598 C1416.76142,598 1419,600.238576 1419,603 C1419,605.761424 1416.76142,608 1414,608 Z M1266,586 C1263.23858,586 1261,583.761424 1261,581 C1261,578.238576 1263.23858,576 1266,576 C1268.76142,576 1271,578.238576 1271,581 C1271,583.761424 1268.76142,586 1266,586 Z M1393,586 C1390.23858,586 1388,583.761424 1388,581 C1388,578.238576 1390.23858,576 1393,576 C1395.76142,576 1398,578.238576 1398,581 C1398,583.761424 1395.76142,586 1393,586 Z M1224,586 C1221.23858,586 1219,583.761424 1219,581 C1219,578.238576 1221.23858,576 1224,576 C1226.76142,576 1229,578.238576 1229,581 C1229,583.761424 1226.76142,586 1224,586 Z M1351,586 C1348.23858,586 1346,583.761424 1346,581 C1346,578.238576 1348.23858,576 1351,576 C1353.76142,576 1356,578.238576 1356,581 C1356,583.761424 1353.76142,586 1351,586 Z M1182,586 C1179.23858,586 1177,583.761424 1177,581 C1177,578.238576 1179.23858,576 1182,576 C1184.76142,576 1187,578.238576 1187,581 C1187,583.761424 1184.76142,586 1182,586 Z M1309,586 C1306.23858,586 1304,583.761424 1304,581 C1304,578.238576 1306.23858,576 1309,576 C1311.76142,576 1314,578.238576 1314,581 C1314,583.761424 1311.76142,586 1309,586 Z" id="Combined-Shape" fill="#176AA2" fill-rule="nonzero"></path>
                        <rect id="Rectangle-11" fill="#176AA2" fill-rule="nonzero" x="0" y="54" width="707" height="100" rx="2"></rect>
                        <g id="Group-2" transform="translate(0.000000, 54.000000)">
                            <mask id="mask-2" fill="white">
                                <use xlink:href="#path-1"></use>
                            </mask>
                            <use id="Oval-3" fill="#176AA2" fill-rule="nonzero" xlink:href="#path-1"></use>
                            <path d="M-78.5,88.5 L76.5241917,-66.5241917" id="Line-2" stroke="#1A6292" stroke-width="16" stroke-linecap="square" fill-rule="nonzero" mask="url(#mask-2)"></path>
                            <path d="M34.5,166.5 L189.524192,11.4758083" id="Line-2-Copy-4" stroke="#1A6292" stroke-width="16" stroke-linecap="square" fill-rule="nonzero" mask="url(#mask-2)"></path>
                            <path d="M-53.5,111.5 L101.524192,-43.5241917" id="Line-2-Copy" stroke="#1A6292" stroke-width="16" stroke-linecap="square" fill-rule="nonzero" mask="url(#mask-2)"></path>
                            <path d="M59.5,189.5 L214.524192,34.4758083" id="Line-2-Copy-5" stroke="#1A6292" stroke-width="16" stroke-linecap="square" fill-rule="nonzero" mask="url(#mask-2)"></path>
                            <path d="M-24.5,129.5 L130.524192,-25.5241917" id="Line-2-Copy-2" stroke="#1A6292" stroke-width="16" stroke-linecap="square" fill-rule="nonzero" mask="url(#mask-2)"></path>
                            <path d="M88.5,207.5 L243.524192,52.4758083" id="Line-2-Copy-6" stroke="#1A6292" stroke-width="16" stroke-linecap="square" fill-rule="nonzero" mask="url(#mask-2)"></path>
                            <path d="M11.5,140.5 L166.524192,-14.5241917" id="Line-2-Copy-3" stroke="#1A6292" stroke-width="16" stroke-linecap="square" fill-rule="nonzero" mask="url(#mask-2)"></path>
                            <path d="M-27.5109638,374.510964 L257.524192,89.4758083" id="Line-2-Copy-7" stroke="#1A6292" stroke-width="16" stroke-linecap="square" fill-rule="nonzero" mask="url(#mask-2)"></path>
                            <path d="M-15.0019192,411.001919 L245.524192,150.475808" id="Line-2-Copy-8" stroke="#1A6292" stroke-width="16" stroke-linecap="square" fill-rule="nonzero" mask="url(#mask-2)"></path>
                            <path d="M-3.0019192,451.001919 L257.524192,190.475808" id="Line-2-Copy-9" stroke="#1A6292" stroke-width="16" stroke-linecap="square" fill-rule="nonzero" mask="url(#mask-2)"></path>
                            <path d="M46.9980808,451.001919 L307.524192,190.475808" id="Line-2-Copy-10" stroke="#1A6292" stroke-width="16" stroke-linecap="square" fill-rule="nonzero" mask="url(#mask-2)"></path>
                        </g>
                    </g>
                </g>
            </g>
        </g>
    </g>
</svg>