<?xml version="1.0" encoding="UTF-8"?>
<svg width="96px" height="96px" viewBox="0 0 96 96" version="1.1" xmlns="http://www.w3.org/2000/svg" xmlns:xlink="http://www.w3.org/1999/xlink">
    <!-- Generator: sketchtool 52.2 (67145) - http://www.bohemiancoding.com/sketch -->
    <title>30F766C4-4A65-4D1D-8B83-ADCB9DE18FA1</title>
    <desc>Created with sketchtool.</desc>
    <defs>
        <linearGradient x1="66.1820023%" y1="0%" x2="66.1820023%" y2="135.558712%" id="linearGradient-1">
            <stop stop-color="#4AC2FF" offset="0%"></stop>
            <stop stop-color="#4BB7FF" stop-opacity="0" offset="100%"></stop>
        </linearGradient>
    </defs>
    <g id="01.-Index-Page" stroke="none" stroke-width="1" fill="none" fill-rule="evenodd">
        <g id="bba/-web-1-/-00-landing-design" transform="translate(-337.000000, -331.000000)" fill-rule="nonzero">
            <g id="1.-Title">
                <g id="for" transform="translate(200.000000, 331.000000)">
                    <g id="#1" transform="translate(66.000000, 0.000000)">
                        <g id="Group-6" transform="translate(71.000000, 0.000000)">
                            <g id="Group">
                                <rect id="Rectangle-3" stroke="#89969F" stroke-width="4" x="16" y="24" width="65" height="41" rx="7"></rect>
                                <path d="M21.4673319,59.2451964 C24.6471139,57.6896849 28.2215909,56.8165476 32,56.8165476 C35.6640497,56.8165476 39.1363252,57.637631 42.2428657,59.1058371 L48.865429,52.4832738 C49.5044687,51.8442341 50.5405569,51.8442341 51.1795966,52.4832738 C51.8186364,53.1223136 51.8186364,54.1584017 51.1795966,54.7974415 L45.2045998,60.7724382 C51.7086926,65.0658382 56,72.4400487 56,80.8165476 L56,84.8665476 C24,84.8665476 8,84.8665476 8,84.8665476 C8,83.5165476 8,82.1665476 8,80.8165476 C8,72.5509118 12.1784679,65.2612095 18.5383223,60.9445222 L12.3912416,54.7974415 C11.7522019,54.1584017 11.7522019,53.1223136 12.3912416,52.4832738 C13.0302814,51.8442341 14.0663695,51.8442341 14.7054093,52.4832738 L21.4673319,59.2451964 Z M8,88.3 L56,88.3 L56,96 L8,96 L8,88.3 Z M43.4545455,78.8165476 C45.563269,78.8165476 47.2727273,77.0928439 47.2727273,74.9665476 C47.2727273,72.8402513 45.563269,71.1165476 43.4545455,71.1165476 C41.3458219,71.1165476 39.6363636,72.8402513 39.6363636,74.9665476 C39.6363636,77.0928439 41.3458219,78.8165476 43.4545455,78.8165476 Z M21.6363636,78.8165476 C23.7450872,78.8165476 25.4545455,77.0928439 25.4545455,74.9665476 C25.4545455,72.8402513 23.7450872,71.1165476 21.6363636,71.1165476 C19.52764,71.1165476 17.8181818,72.8402513 17.8181818,74.9665476 C17.8181818,77.0928439 19.52764,78.8165476 21.6363636,78.8165476 Z" id="Combined-Shape" fill="url(#linearGradient-1)"></path>
                            </g>
                        </g>
                    </g>
                </g>
            </g>
        </g>
    </g>
</svg>