<?xml version="1.0" encoding="UTF-8"?>
<svg width="96px" height="96px" viewBox="0 0 96 96" version="1.1" xmlns="http://www.w3.org/2000/svg" xmlns:xlink="http://www.w3.org/1999/xlink">
    <!-- Generator: sketchtool 52.2 (67145) - http://www.bohemiancoding.com/sketch -->
    <title>9840AFCA-E3DC-49B8-9947-1DFD08E955DE</title>
    <desc>Created with sketchtool.</desc>
    <defs>
        <linearGradient x1="66.1820023%" y1="0%" x2="66.1820023%" y2="135.558712%" id="linearGradient-1">
            <stop stop-color="#4AC2FF" offset="0%"></stop>
            <stop stop-color="#4BB7FF" stop-opacity="0" offset="100%"></stop>
        </linearGradient>
    </defs>
    <g id="01.-Index-Page" stroke="none" stroke-width="1" fill="none" fill-rule="evenodd">
        <g id="bba/-web-1-/-00-landing-design" transform="translate(-545.000000, -379.000000)" fill-rule="nonzero">
            <g id="1.-Title">
                <g id="for" transform="translate(200.000000, 331.000000)">
                    <g id="#4" transform="translate(345.000000, 48.000000)">
                        <g id="Group-8">
                            <g id="Group-14">
                                <rect id="Rectangle-3" stroke="#89969F" stroke-width="4" x="10" y="23" width="76" height="51" rx="7"></rect>
                                <path d="M39.7867386,73.5523036 C42.7245061,68.4843992 48.0532178,65.284296 53.6926049,65.2019942 C53.7487171,65.2009197 53.8056959,65.2002751 53.8635414,65.2002751 C56.2889328,65.2002751 58.5800015,66.1019426 60.6013415,66.8976706 C62.1129053,67.4924789 63.4182187,68.0062747 64.4241224,68.0062747 C65.3193182,68.0062747 66.6172655,67.4987107 68.1199466,66.9109936 C70.296841,66.0596098 73.0064766,65 75.8350528,65 C76.1972908,65 76.5580123,65.0174059 76.9074679,65.0520028 C79.315744,65.1547189 85.2974374,66.0084666 89.2001619,71.6733282 C89.2824887,71.7928056 89.3128197,71.9406481 89.2837886,72.0826887 C89.2547576,72.2249441 89.169181,72.3493639 89.0463408,72.4277978 L88.9934783,72.4604607 C87.8595347,73.1562661 82.2054154,76.9952295 82.277993,84.2446708 C82.3562035,93.1676551 89.7963814,96.4414647 90.6445643,96.7854994 C90.6517137,96.7885078 90.6772784,96.7990373 90.6842112,96.8022606 C90.9357412,96.9167956 91.0596648,97.2008767 90.9719217,97.4611054 L90.9532899,97.5193399 C90.4924763,98.9835826 89.1267177,102.81524 86.4040832,106.761647 C83.794973,110.541301 80.837707,114.825726 76.0211547,114.91469 C73.7697329,114.956593 72.2460368,114.299897 70.7667538,113.665119 C69.2658059,113.020887 67.7137288,112.354521 65.2816212,112.354521 C62.7251568,112.354521 61.0953025,113.043235 59.5193938,113.709386 C58.1157216,114.302261 56.6639531,114.915764 54.6549621,114.995272 C54.572202,114.998496 54.4913917,115 54.4107981,115 C50.1347864,115 47.0128668,111.029526 43.9292941,106.606283 C37.7517496,97.7589393 34.2004306,83.1674403 39.7867386,73.5523036 Z M76.3811544,49.000414 C76.6564758,48.9894247 76.9009459,49.1984372 76.9315845,49.47985 C77.3205238,53.0709869 76.0347686,57.0801489 73.4919817,60.2041321 C71.0760044,63.162629 67.5383157,65 64.2589271,65 C64.0287124,64.9997845 63.7976467,64.9907345 63.5712618,64.9728499 C63.3208342,64.9532415 63.1182794,64.7586659 63.0853004,64.506558 C62.5593386,60.4771412 64.555738,56.479615 66.5993718,54.0820042 C69.0040725,51.2295219 73.027297,49.1387502 76.3811544,49.000414 Z" id="Combined-Shape" fill="url(#linearGradient-1)"></path>
                            </g>
                        </g>
                    </g>
                </g>
            </g>
        </g>
    </g>
</svg>