<?xml version="1.0" encoding="UTF-8"?>
<svg width="156px" height="9px" viewBox="0 0 156 9" version="1.1" xmlns="http://www.w3.org/2000/svg" xmlns:xlink="http://www.w3.org/1999/xlink">
    <!-- Generator: sketchtool 52.2 (67145) - http://www.bohemiancoding.com/sketch -->
    <title>864CE15A-F99F-4A76-880C-3D489B7AC70E</title>
    <desc>Created with sketchtool.</desc>
    <defs>
        <linearGradient x1="98.4215778%" y1="50%" x2="-6.52386209%" y2="50%" id="linearGradient-1">
            <stop stop-color="#4AC2FF" offset="0%"></stop>
            <stop stop-color="#4BB7FF" stop-opacity="0" offset="100%"></stop>
        </linearGradient>
    </defs>
    <g id="01.-Index-Page" stroke="none" stroke-width="1" fill="none" fill-rule="evenodd">
        <g id="bba/-web-1-/-00-landing-design" transform="translate(-374.000000, -1617.000000)" fill-rule="nonzero">
            <g id="3.-Workflow" transform="translate(184.000000, 1430.000000)">
                <g id="Group-4" transform="translate(0.000000, 187.000000)">
                    <g id="arrow-4" transform="translate(190.000000, 0.000000)">
                        <path d="M29.5,3 L50.5,3 C51.3284271,3 52,3.67157288 52,4.5 C52,5.32842712 51.3284271,6 50.5,6 L29.5,6 C28.6715729,6 28,5.32842712 28,4.5 C28,3.67157288 28.6715729,3 29.5,3 Z M1.5,3 L22.5,3 C23.3284271,3 24,3.67157288 24,4.5 C24,5.32842712 23.3284271,6 22.5,6 L1.5,6 C0.671572875,6 1.01453063e-16,5.32842712 0,4.5 C-1.01453063e-16,3.67157288 0.671572875,3 1.5,3 Z M57.5,3 L154.5,3 C155.328427,3 156,3.67157288 156,4.5 C156,5.32842712 155.328427,6 154.5,6 L57.5,6 C56.6715729,6 56,5.32842712 56,4.5 C56,3.67157288 56.6715729,3 57.5,3 Z" id="arrow-2" fill="url(#linearGradient-1)"></path>
                        <g id="Group-3" transform="translate(148.000000, 0.000000)" fill="#4AC2FF">
                            <g id="Group-5">
                                <path d="M7.80361511,5.24981217 C7.39933932,5.96719121 6.50396354,6.21298342 5.80373734,5.79880444 L0.732250523,2.79905488 C0.0320243165,2.3848759 -0.2078909,1.46756687 0.196384889,0.750187831 C0.600660678,0.0328087885 1.49603646,-0.212983424 2.19626266,0.20119556 L7.26774948,3.20094512 C7.96797568,3.6151241 8.2078909,4.53243313 7.80361511,5.24981217 Z" id="Rectangle-15"></path>
                                <path d="M7.80361511,8.24981217 C7.39933932,8.96719121 6.50396354,9.21298342 5.80373734,8.79880444 L0.732250523,5.79905488 C0.0320243165,5.3848759 -0.2078909,4.46756687 0.196384889,3.75018783 C0.600660678,3.03280879 1.49603646,2.78701658 2.19626266,3.20119556 L7.26774948,6.20094512 C7.96797568,6.6151241 8.2078909,7.53243313 7.80361511,8.24981217 Z" id="Rectangle-15" transform="translate(4.000000, 6.000000) scale(-1, 1) translate(-4.000000, -6.000000) "></path>
                            </g>
                        </g>
                    </g>
                </g>
            </g>
        </g>
    </g>
</svg>