<?xml version="1.0" encoding="UTF-8"?>
<svg width="186px" height="9px" viewBox="0 0 186 9" version="1.1" xmlns="http://www.w3.org/2000/svg" xmlns:xlink="http://www.w3.org/1999/xlink">
    <!-- Generator: sketchtool 52.2 (67145) - http://www.bohemiancoding.com/sketch -->
    <title>DC406408-B269-45C0-8B1C-05ABBCBA8BEA</title>
    <desc>Created with sketchtool.</desc>
    <defs>
        <linearGradient x1="98.4215778%" y1="50%" x2="-6.52386209%" y2="50%" id="linearGradient-1">
            <stop stop-color="#4AC2FF" offset="0%"></stop>
            <stop stop-color="#4BB7FF" stop-opacity="0" offset="100%"></stop>
        </linearGradient>
    </defs>
    <g id="01.-Index-Page" stroke="none" stroke-width="1" fill="none" fill-rule="evenodd">
        <g id="bba/-web-1-/-00-landing-design" transform="translate(-184.000000, -1617.000000)" fill-rule="nonzero">
            <g id="3.-Workflow" transform="translate(184.000000, 1430.000000)">
                <g id="Group-4" transform="translate(0.000000, 187.000000)">
                    <g id="arrow-5">
                        <path d="M3.5,3 L24.5,3 C25.3284271,3 26,3.67157288 26,4.5 C26,5.32842712 25.3284271,6 24.5,6 L3.5,6 C2.67157288,6 2,5.32842712 2,4.5 C2,3.67157288 2.67157288,3 3.5,3 Z M59.5,3 L80.5,3 C81.3284271,3 82,3.67157288 82,4.5 C82,5.32842712 81.3284271,6 80.5,6 L59.5,6 C58.6715729,6 58,5.32842712 58,4.5 C58,3.67157288 58.6715729,3 59.5,3 Z M31.5,3 L52.5,3 C53.3284271,3 54,3.67157288 54,4.5 C54,5.32842712 53.3284271,6 52.5,6 L31.5,6 C30.6715729,6 30,5.32842712 30,4.5 C30,3.67157288 30.6715729,3 31.5,3 Z M87.5,3 L184.5,3 C185.328427,3 186,3.67157288 186,4.5 C186,5.32842712 185.328427,6 184.5,6 L87.5,6 C86.6715729,6 86,5.32842712 86,4.5 C86,3.67157288 86.6715729,3 87.5,3 Z" id="arrow-3" fill="url(#linearGradient-1)"></path>
                        <g id="Group-3" transform="translate(178.000000, 0.000000)" fill="#4AC2FF">
                            <g id="Group-5">
                                <path d="M7.80361511,5.24981217 C7.39933932,5.96719121 6.50396354,6.21298342 5.80373734,5.79880444 L0.732250523,2.79905488 C0.0320243165,2.3848759 -0.2078909,1.46756687 0.196384889,0.750187831 C0.600660678,0.0328087885 1.49603646,-0.212983424 2.19626266,0.20119556 L7.26774948,3.20094512 C7.96797568,3.6151241 8.2078909,4.53243313 7.80361511,5.24981217 Z" id="Rectangle-15"></path>
                                <path d="M7.80361511,8.24981217 C7.39933932,8.96719121 6.50396354,9.21298342 5.80373734,8.79880444 L0.732250523,5.79905488 C0.0320243165,5.3848759 -0.2078909,4.46756687 0.196384889,3.75018783 C0.600660678,3.03280879 1.49603646,2.78701658 2.19626266,3.20119556 L7.26774948,6.20094512 C7.96797568,6.6151241 8.2078909,7.53243313 7.80361511,8.24981217 Z" id="Rectangle-15" transform="translate(4.000000, 6.000000) scale(-1, 1) translate(-4.000000, -6.000000) "></path>
                            </g>
                        </g>
                    </g>
                </g>
            </g>
        </g>
    </g>
</svg>