<?xml version="1.0" encoding="UTF-8"?>
<svg width="48px" height="48px" viewBox="0 0 48 48" version="1.1" xmlns="http://www.w3.org/2000/svg" xmlns:xlink="http://www.w3.org/1999/xlink">
    <!-- Generator: sketchtool 52.2 (67145) - http://www.bohemiancoding.com/sketch -->
    <title>F279A596-B0EC-4DE6-80C9-D8A2099F9C5C</title>
    <desc>Created with sketchtool.</desc>
    <g id="Symbols" stroke="none" stroke-width="1" fill="none" fill-rule="evenodd">
        <g id="ic-/-AZ-product-development" fill-rule="nonzero">
            <g id="network">
                <g>
                    <g id="Group" transform="translate(0.748538, 0.748538)">
                        <g fill="#C2D6E1" id="Shape">
                            <path d="M16.0274152,17.8326082 L16.0274152,18.8705497 C16.027883,18.9659883 15.9900819,19.0575906 15.9226199,19.1250526 C15.8551579,19.1925146 15.763462,19.2302222 15.668117,19.229848 L0.417871345,19.229848 C0.322432749,19.2303158 0.230830409,19.1925146 0.163368421,19.1250526 C0.0959064327,19.0575906 0.0581988304,18.9658947 0.0585730994,18.8705497 L0.0585730994,17.7607485 C0.0601637427,16.6960468 0.641590643,15.7167719 1.57557895,15.2057076 L4.80926316,13.4411228 C5.23621053,13.2124444 5.50306433,12.7677193 5.50390643,12.2834152 L5.50390643,11.3173333 C4.87850292,10.5152749 4.42956725,9.59017544 4.18647953,8.60266667 C3.87929825,8.40140351 3.69347368,8.05960234 3.6914152,7.69244444 L3.6914152,6.23925146 C3.6900117,5.93132164 3.82091228,5.6377076 4.05071345,5.43279532 L4.05071345,3.3328655 C4.05071345,3.3328655 3.69936842,0.69005848 6.84528655,0.155040936 C7.24154386,0.0944093567 7.6420117,0.0650292398 8.04294737,0.0671812865 C12.4663392,0.0671812865 12.0351813,3.33277193 12.0351813,3.33277193 L12.0351813,5.43270175 C12.2649825,5.63761404 12.395883,5.93122807 12.3944795,6.23915789 L12.3944795,7.69235088 C12.3920468,8.16645614 12.0814035,8.58385965 11.6279766,8.72233918 C11.3827368,9.49745029 11.0191345,10.2300819 10.5500819,10.8941287 C10.4303158,11.0618012 10.3185029,11.2055205 10.2226901,11.3173333 L10.2226901,12.3154152 C10.220538,12.8154386 10.5020819,13.2733567 10.9492398,13.497076 L14.4145029,15.2296608 C15.4021988,15.7213567 16.0267602,16.7293567 16.0274152,17.8326082 Z"></path>
                            <path d="M31.1977544,44.9795556 L31.1977544,46.0174971 C31.1982222,46.1129357 31.1604211,46.204538 31.0929591,46.272 C31.0254971,46.339462 30.9338012,46.3771696 30.8384561,46.3767953 L15.5882105,46.3767953 C15.4927719,46.3772632 15.4011696,46.339462 15.3337076,46.272 C15.2662456,46.204538 15.228538,46.1128421 15.2289123,46.0174971 L15.2289123,44.9076959 C15.2305029,43.8429942 15.8119298,42.8637193 16.7459181,42.352655 L19.9796023,40.5880702 C20.4065497,40.3593918 20.6734035,39.9146667 20.6742456,39.4303626 L20.6742456,38.4642807 C20.0488421,37.6622222 19.5999064,36.7371228 19.3568187,35.749614 C19.0496374,35.5483509 18.8638129,35.2065497 18.8617544,34.8393918 L18.8617544,33.3861988 C18.8603509,33.078269 18.9912515,32.784655 19.2210526,32.5797427 L19.2210526,30.4798129 C19.2210526,30.4798129 18.8697076,27.8370058 22.0156257,27.3019883 C22.411883,27.2413567 22.8123509,27.2119766 23.2132865,27.2141287 C27.6366784,27.2141287 27.2055205,30.4797193 27.2055205,30.4797193 L27.2055205,32.5796491 C27.4353216,32.7845614 27.5662222,33.0781754 27.5648187,33.3861053 L27.5648187,34.8392982 C27.562386,35.3134035 27.2517427,35.730807 26.7983158,35.8692865 C26.553076,36.6443977 26.1894737,37.3770292 25.7204211,38.041076 C25.600655,38.2087485 25.4888421,38.3524678 25.3930292,38.4642807 L25.3930292,39.4623626 C25.3908772,39.962386 25.6724211,40.4203041 26.1195789,40.6440234 L29.5848421,42.3766082 C30.572538,42.8683041 31.1970994,43.8763041 31.1977544,44.9795556 Z"></path>
                            <path d="M46.3680936,17.8326082 L46.3680936,18.8705497 C46.3685614,18.9659883 46.3307602,19.0575906 46.2632982,19.1250526 C46.1958363,19.1925146 46.1041404,19.2302222 46.0087953,19.229848 L30.7586433,19.229848 C30.6632047,19.2303158 30.5716023,19.1925146 30.5041404,19.1250526 C30.4366784,19.0575906 30.3989708,18.9658947 30.399345,18.8705497 L30.399345,17.7607485 C30.4009357,16.6960468 30.9823626,15.7167719 31.9163509,15.2057076 L35.1500351,13.4411228 C35.5769825,13.2124444 35.8438363,12.7677193 35.8446784,12.2834152 L35.8446784,11.3173333 C35.2192749,10.5152749 34.7703392,9.59017544 34.5272515,8.60266667 C34.2200702,8.40140351 34.0342456,8.05960234 34.0321871,7.69244444 L34.0321871,6.23925146 C34.0307836,5.93132164 34.1616842,5.6377076 34.3914854,5.43279532 L34.3914854,3.3328655 C34.3914854,3.3328655 34.0401404,0.69005848 37.1860585,0.155040936 C37.5823158,0.0944093567 37.9827836,0.0650292398 38.3837193,0.0671812865 C42.8071111,0.0671812865 42.3759532,3.33277193 42.3759532,3.33277193 L42.3759532,5.43270175 C42.6057544,5.63761404 42.736655,5.93122807 42.7352515,6.23915789 L42.7352515,7.69235088 C42.7328187,8.16645614 42.4221754,8.58385965 41.9687485,8.72233918 C41.7235088,9.49745029 41.3599064,10.2300819 40.8908538,10.8941287 C40.7710877,11.0618012 40.6592749,11.2055205 40.563462,11.3173333 L40.563462,12.3154152 C40.5613099,12.8154386 40.8428538,13.2733567 41.2900117,13.497076 L44.7552749,15.2296608 C45.7428772,15.7213567 46.3675322,16.7293567 46.3680936,17.8326082 Z"></path>
                        </g>
                        <g transform="translate(0.000000, 0.093567)" fill="#F8FDFF" id="Shape">
                            <path d="M13.6320936,17.7390409 L13.6320936,18.7769825 C13.6325614,18.8724211 13.5947602,18.9640234 13.5272982,19.0314854 C13.4598363,19.0989474 13.3681404,19.136655 13.2727953,19.1362807 L0.417871345,19.1362807 C0.322432749,19.1367485 0.230830409,19.0989474 0.163368421,19.0314854 C0.0959064327,18.9640234 0.0581988304,18.8723275 0.0585730994,18.7769825 L0.0585730994,17.6671813 C0.0601637427,16.6024795 0.641590643,15.6232047 1.57557895,15.1121404 L4.80926316,13.3475556 C5.23621053,13.1188772 5.50306433,12.674152 5.50390643,12.189848 L5.50390643,11.2237661 C4.87850292,10.4217076 4.42956725,9.49660819 4.18647953,8.50909942 C3.87929825,8.30783626 3.69347368,7.96603509 3.6914152,7.59887719 L3.6914152,6.14568421 C3.6900117,5.83775439 3.82091228,5.54414035 4.05071345,5.33922807 L4.05071345,3.23929825 C4.05071345,3.23929825 3.69936842,0.596491228 6.84528655,0.0614736842 C9.99111111,0.596397661 9.63985965,3.23929825 9.63985965,3.23929825 L9.63985965,5.33922807 C9.86966082,5.54414035 10.0005614,5.83775439 9.99915789,6.14568421 L9.99915789,7.59887719 C9.99672515,8.07298246 9.68608187,8.49038596 9.23265497,8.6288655 C8.9874152,9.40397661 8.62381287,10.1366082 8.15476023,10.800655 C8.03499415,10.9683275 7.92318129,11.1120468 7.82736842,11.2238596 L7.82736842,12.2219415 C7.82521637,12.7219649 8.10676023,13.179883 8.55391813,13.4036023 L12.0191813,15.1361871 C13.0068772,15.6277895 13.6314386,16.6357895 13.6320936,17.7390409 Z"></path>
                            <path d="M28.8024327,44.8859883 L28.8024327,45.9239298 C28.8029006,46.0193684 28.7650994,46.1109708 28.6976374,46.1784327 C28.6301754,46.2458947 28.5384795,46.2836023 28.4431345,46.2832281 L15.5882105,46.2832281 C15.4927719,46.2836959 15.4011696,46.2458947 15.3337076,46.1784327 C15.2662456,46.1109708 15.228538,46.0192749 15.2289123,45.9239298 L15.2289123,44.8141287 C15.2305029,43.7494269 15.8119298,42.770152 16.7459181,42.2590877 L19.9796023,40.4945029 C20.4065497,40.2658246 20.6734035,39.8210994 20.6742456,39.3367953 L20.6742456,38.3707135 C20.0488421,37.568655 19.5999064,36.6435556 19.3568187,35.6560468 C19.0496374,35.4547836 18.8638129,35.1129825 18.8617544,34.7458246 L18.8617544,33.2926316 C18.8603509,32.9847018 18.9912515,32.6910877 19.2210526,32.4861754 L19.2210526,30.3862456 C19.2210526,30.3862456 18.8697076,27.7434386 22.0156257,27.2084211 C25.1614503,27.743345 24.8101988,30.3862456 24.8101988,30.3862456 L24.8101988,32.4861754 C25.04,32.6910877 25.1709006,32.9847018 25.1694971,33.2926316 L25.1694971,34.7458246 C25.1670643,35.2199298 24.8564211,35.6373333 24.4029942,35.7758129 C24.1577544,36.550924 23.794152,37.2835556 23.3250994,37.9476023 C23.2053333,38.1152749 23.0935205,38.2589942 22.9977076,38.370807 L22.9977076,39.3688889 C22.9955556,39.8689123 23.2770994,40.3268304 23.7242573,40.5505497 L27.1895205,42.2831345 C28.1772164,42.7747368 28.8017778,43.7827368 28.8024327,44.8859883 Z"></path>
                            <path d="M43.9727719,17.7390409 L43.9727719,18.7769825 C43.9732398,18.8724211 43.9354386,18.9640234 43.8679766,19.0314854 C43.8005146,19.0989474 43.7088187,19.136655 43.6134737,19.1362807 L30.7586433,19.1362807 C30.6632047,19.1367485 30.5716023,19.0989474 30.5041404,19.0314854 C30.4366784,18.9640234 30.3989708,18.8723275 30.399345,18.7769825 L30.399345,17.6671813 C30.4009357,16.6024795 30.9823626,15.6232047 31.9163509,15.1121404 L35.1500351,13.3475556 C35.5769825,13.1188772 35.8438363,12.674152 35.8446784,12.189848 L35.8446784,11.2237661 C35.2192749,10.4217076 34.7703392,9.49660819 34.5272515,8.50909942 C34.2200702,8.30783626 34.0342456,7.96603509 34.0321871,7.59887719 L34.0321871,6.14568421 C34.0307836,5.83775439 34.1616842,5.54414035 34.3914854,5.33922807 L34.3914854,3.23929825 C34.3914854,3.23929825 34.0401404,0.596491228 37.1860585,0.0614736842 C40.331883,0.596397661 39.9806316,3.23929825 39.9806316,3.23929825 L39.9806316,5.33922807 C40.2104327,5.54414035 40.3413333,5.83775439 40.3399298,6.14568421 L40.3399298,7.59887719 C40.3374971,8.07298246 40.0268538,8.49038596 39.5734269,8.6288655 C39.3281871,9.40397661 38.9645848,10.1366082 38.4955322,10.800655 C38.3757661,10.9683275 38.2639532,11.1120468 38.1681404,11.2238596 L38.1681404,12.2219415 C38.1659883,12.7219649 38.4475322,13.179883 38.8946901,13.4036023 L42.3599532,15.1361871 C43.3475556,15.6277895 43.9722105,16.6357895 43.9727719,17.7390409 Z"></path>
                        </g>
                        <g fill="#FFFFFF" id="Shape">
                            <path d="M0.417871345,19.229848 L2.81319298,19.229848 C2.71775439,19.2303158 2.62615205,19.1925146 2.55869006,19.1250526 C2.49122807,19.0575906 2.45352047,18.9658947 2.45389474,18.8705497 L2.45389474,17.7607485 C2.45548538,16.6960468 3.03691228,15.7167719 3.97090058,15.2057076 L7.2045848,13.4411228 C7.63153216,13.2124444 7.89838596,12.7677193 7.89922807,12.2834152 L7.89922807,11.3173333 C7.27382456,10.5152749 6.82488889,9.59017544 6.58180117,8.60266667 C6.27461988,8.40140351 6.08879532,8.05960234 6.08673684,7.69244444 L6.08673684,6.23925146 C6.08533333,5.93132164 6.21623392,5.6377076 6.44603509,5.43279532 L6.44603509,3.3328655 C6.44603509,3.3328655 6.10030409,0.714760234 9.20224561,0.163836257 C8.81918129,0.0993684211 8.43134503,0.066994152 8.04294737,0.0671812865 C7.6420117,0.0650292398 7.24154386,0.0944093567 6.84528655,0.155040936 C3.69946199,0.69005848 4.05080702,3.3328655 4.05080702,3.3328655 L4.05080702,5.43279532 C3.82100585,5.6377076 3.69010526,5.93132164 3.69150877,6.23925146 L3.69150877,7.69244444 C3.69356725,8.05960234 3.87939181,8.40140351 4.1865731,8.60266667 C4.42966082,9.59026901 4.87859649,10.5153684 5.504,11.3173333 L5.504,12.2834152 C5.50315789,12.7677193 5.23630409,13.212538 4.80935673,13.4411228 L1.57567251,15.2057076 C0.641684211,15.7167719 0.0602573099,16.6960468 0.0586666667,17.7607485 L0.0586666667,18.8705497 C0.0581988304,18.9659883 0.096,19.0575906 0.163461988,19.1250526 C0.230830409,19.1925146 0.322432749,19.2303158 0.417871345,19.229848 Z"></path>
                            <path d="M32.7946667,18.8705497 L32.7946667,17.7607485 C32.7962573,16.6960468 33.3776842,15.7167719 34.3116725,15.2057076 L37.5453567,13.4411228 C37.9723041,13.2124444 38.2391579,12.7677193 38.24,12.2834152 L38.24,11.3173333 C37.6145965,10.5152749 37.1656608,9.59017544 36.9225731,8.60266667 C36.6153918,8.40140351 36.4295673,8.05960234 36.4275088,7.69244444 L36.4275088,6.23925146 C36.4261053,5.93132164 36.5570058,5.6377076 36.786807,5.43279532 L36.786807,3.3328655 C36.786807,3.3328655 36.441076,0.714760234 39.5430175,0.163836257 C39.1599532,0.0993684211 38.772117,0.066994152 38.3837193,0.0671812865 C37.9827836,0.0650292398 37.5823158,0.0944093567 37.1860585,0.155040936 C34.0402339,0.689964912 34.3914854,3.3328655 34.3914854,3.3328655 L34.3914854,5.43279532 C34.1616842,5.6377076 34.0307836,5.93132164 34.0321871,6.23925146 L34.0321871,7.69244444 C34.0342456,8.05960234 34.2200702,8.40140351 34.5272515,8.60266667 C34.7703392,9.59026901 35.2192749,10.5153684 35.8446784,11.3173333 L35.8446784,12.2834152 C35.8438363,12.7677193 35.5769825,13.212538 35.1500351,13.4411228 L31.9163509,15.2057076 C30.9823626,15.7167719 30.4009357,16.6960468 30.399345,17.7607485 L30.399345,18.8705497 C30.3988772,18.9659883 30.4366784,19.0575906 30.5041404,19.1250526 C30.5716023,19.1925146 30.6632982,19.2302222 30.7586433,19.229848 L33.1539649,19.229848 C33.0585263,19.2303158 32.966924,19.1925146 32.899462,19.1250526 C32.8319064,19.0575906 32.7941988,18.9659883 32.7946667,18.8705497 Z"></path>
                            <path d="M19.9796959,40.5881637 L16.7460117,42.3527485 C15.8120234,42.8638129 15.2305965,43.8430877 15.2290058,44.9077895 L15.2290058,46.0175906 C15.228538,46.1130292 15.2663392,46.2046316 15.3338012,46.2720936 C15.4012632,46.3395556 15.4929591,46.3772632 15.5883041,46.3768889 L17.9836257,46.3768889 C17.8881871,46.3773567 17.7965848,46.3395556 17.7291228,46.2720936 C17.6616608,46.2046316 17.6239532,46.1129357 17.6243275,46.0175906 L17.6243275,44.9077895 C17.6259181,43.8430877 18.207345,42.8638129 19.1413333,42.3527485 L22.3750175,40.5881637 C22.8019649,40.3594854 23.0688187,39.9147602 23.0696608,39.4304561 L23.0696608,38.4643743 C22.4442573,37.6623158 21.9953216,36.7372164 21.7522339,35.7497076 C21.4450526,35.5484444 21.2592281,35.2066433 21.2571696,34.8394854 L21.2571696,33.3862924 C21.2557661,33.0783626 21.3866667,32.7847485 21.6164678,32.5798363 L21.6164678,30.4799064 C21.6164678,30.4799064 21.2707368,27.8618012 24.3726784,27.3108772 C23.989614,27.2464094 23.6017778,27.2140351 23.2133801,27.2142222 C22.8124444,27.2120702 22.4119766,27.2414503 22.0157193,27.3020819 C18.8698947,27.8370058 19.2211462,30.4799064 19.2211462,30.4799064 L19.2211462,32.5798363 C18.991345,32.7847485 18.8604444,33.0783626 18.861848,33.3862924 L18.861848,34.8394854 C18.8639064,35.2066433 19.049731,35.5484444 19.3569123,35.7497076 C19.6,36.7373099 20.0489357,37.6624094 20.6743392,38.4643743 L20.6743392,39.4304561 C20.6734971,39.9147602 20.4066433,40.3594854 19.9796959,40.5881637 Z"></path>
                        </g>
                    </g>
                    <g id="Group">
                        <polygon id="Shape" fill="#FFFFFF" points="16.3407719 46.326924 26.7204678 46.326924 31.5829708 46.326924 31.5829708 47.9238363 26.7204678 47.9238363 16.3407719 47.9238363"></polygon>
                        <g fill="#4AC2FF" id="Shape">
                            <path d="M25.9220585,46.326924 C25.481076,46.326924 25.1236491,46.6843509 25.1236491,47.1253333 C25.1236491,47.5663158 25.4811696,47.9237427 25.9220585,47.9237427 L31.5829708,47.9237427 C32.2240936,47.9232749 32.7438596,47.403883 32.7447018,46.7628538 L32.7447018,45.7304327 C32.7487251,44.3247719 31.9535906,43.0389708 30.694269,42.4145029 L27.2266667,40.681076 C27.049076,40.5924678 26.937076,40.4108538 26.9376374,40.2123977 L26.9376374,39.5001637 C26.9959298,39.4251228 27.0565614,39.3404444 27.1188772,39.2550175 C27.5648187,38.6220351 27.9245848,37.932538 28.1888187,37.2045848 C28.763883,36.8685848 29.1169123,36.2521637 29.1157895,35.586152 L29.1157895,34.1329591 C29.1145731,33.7354854 28.9873216,33.3485848 28.7524678,33.0279298 L28.7524678,31.2713918 C28.8240468,30.3010058 28.5127485,29.341193 27.8853801,28.5974269 C26.8509006,27.5675322 25.4165146,27.0436491 23.9618246,27.1642573 C22.5076023,27.0425263 21.0731228,27.5652865 20.038269,28.5942456 C19.410807,29.3376374 19.0995088,30.2972632 19.1711813,31.267462 L19.1711813,33.024 C18.9363275,33.344655 18.8091696,33.7315556 18.8078596,34.1290292 L18.8078596,35.5806316 C18.8074854,36.0990877 19.0220351,36.5946199 19.4003275,36.9491462 C19.6587602,37.8565614 20.0723275,38.7123275 20.6227836,39.4786433 L20.6227836,40.1732865 C20.6231579,40.3650994 20.518269,40.5416608 20.3497544,40.6331696 L17.1120468,42.399345 C15.9189708,43.0496374 15.1771696,44.300538 15.1790409,45.6594152 L15.1790409,46.7628538 C15.179883,47.4039766 15.6996491,47.9233684 16.3407719,47.9237427 L19.5345029,47.9237427 C19.9754854,47.9237427 20.3329123,47.5662222 20.3329123,47.1253333 C20.3329123,46.6844444 19.9753918,46.326924 19.5345029,46.326924 L16.7758596,46.326924 L16.7758596,45.6594152 C16.7753918,44.8863626 17.1979415,44.1749708 17.8768655,43.8054737 L21.1145731,42.0392982 C21.7957427,41.6683041 22.2196959,40.9545731 22.2196023,40.1789006 L22.2196023,39.2135673 C22.2190409,39.0270877 22.1538246,38.8465029 22.0351813,38.7025965 C21.4923041,37.9957895 21.1014737,37.1842807 20.8870175,36.3192515 C20.8404211,36.1162105 20.7163509,35.939462 20.5412865,35.8266199 C20.4581988,35.7750643 20.4068304,35.6848655 20.4047719,35.5870877 L20.4047719,34.1331462 C20.4068304,34.051462 20.4430409,33.9744561 20.5046082,33.9207485 C20.6722807,33.7694503 20.768,33.554152 20.7680936,33.3282807 L20.7680936,31.229193 C20.7680936,31.1941988 20.7657544,31.1592982 20.7608889,31.1245848 C20.7238363,30.588538 20.8955322,30.0590409 21.2399532,29.6466901 C21.9797895,28.9774035 22.9698246,28.6552515 23.9618246,28.7611696 C24.9475556,28.6575906 25.9313216,28.9741287 26.6717193,29.6330292 C27.0207251,30.0487485 27.196538,30.5827368 27.1627602,31.1244912 C27.1579883,31.1591111 27.1555556,31.1941053 27.1555556,31.2290994 L27.1555556,33.3281871 C27.1556491,33.5540585 27.2513684,33.7692632 27.4190409,33.920655 C27.4806082,33.9743626 27.5168187,34.0513684 27.5188772,34.1330526 L27.5188772,35.584655 C27.5154152,35.7115322 27.4306433,35.8217544 27.3089123,35.8576842 C27.0604912,35.9345965 26.8650292,36.1276257 26.7851228,36.3751111 C26.5637427,37.0727485 26.236538,37.7322105 25.8150175,38.3304795 C25.7295906,38.4535205 25.6378947,38.5721637 25.5403977,38.6857544 C25.4118363,38.8315322 25.3409123,39.0191345 25.3408187,39.2135673 L25.3408187,40.210807 C25.3387602,41.0157661 25.7949942,41.7517661 26.5169591,42.107883 L29.9838129,43.8413099 C30.6997895,44.1980819 31.1510643,44.9304327 31.1479766,45.7304327 L31.1479766,46.3268304 L25.9220585,46.3268304 L25.9220585,46.326924 Z"></path>
                            <path d="M22.1614035,46.5585029 L22.0647485,46.678269 C22.0345263,46.722807 22.0102924,46.7710877 21.9928889,46.8219883 C21.9696842,46.8670877 21.9537778,46.9156491 21.9458246,46.9657076 C21.9365614,47.0184795 21.9312281,47.0718129 21.9298246,47.1254269 C21.932538,47.3368889 22.0152515,47.539462 22.1614035,47.6923509 C22.4791579,47.9931696 22.976655,47.9931696 23.2944094,47.6923509 C23.3665497,47.616 23.4235322,47.5265497 23.4620819,47.4288655 C23.5032515,47.3329591 23.5252398,47.229848 23.5267368,47.1254269 C23.5286082,46.8010292 23.3340819,46.5077895 23.0344795,46.383345 C22.7348772,46.2589006 22.3898012,46.3281404 22.1614035,46.5585029 Z"></path>
                            <path d="M1.17043275,20.7767953 L8.88888889,20.7767953 C8.82732164,21.3069474 8.79476023,21.84 8.79148538,22.3737076 C8.7891462,23.2491228 8.86774269,24.1228538 9.02624561,24.9837661 C9.6314386,28.441731 11.4214737,31.581193 14.0891696,33.8632047 L13.7122807,33.9015673 C13.2712982,33.9236491 12.9317427,34.2989474 12.953731,34.7399298 C12.9758129,35.1809123 13.3511111,35.5204678 13.7920936,35.4984795 C13.8192281,35.4984795 13.8472047,35.4984795 13.8719064,35.4984795 L16.2544094,35.2517427 C16.3059649,35.2413567 16.3563041,35.2255439 16.4044912,35.2046784 C16.4390175,35.196538 16.4728889,35.1858713 16.5059181,35.1727719 C16.591345,35.1219649 16.6716257,35.0628304 16.7454503,34.9963041 C16.7914854,34.9439064 16.8304094,34.885614 16.861193,34.8230175 C16.8775673,34.7973801 16.8922573,34.7707135 16.905076,34.7432047 C16.9289357,34.6752749 16.9431579,34.6043509 16.9473684,34.5323977 C16.9473684,34.5060117 16.9625263,34.4829006 16.9625263,34.4525848 C16.9625263,34.4406082 16.9585029,34.4302222 16.9577544,34.4182456 C16.9569123,34.406269 16.964117,34.390269 16.9625263,34.3743626 L16.7157895,31.9918596 C16.6923041,31.7034854 16.5147135,31.4502924 16.2514152,31.3302456 C15.9882105,31.2101053 15.6805614,31.2418246 15.4472982,31.4131462 C15.2141287,31.5844678 15.0918363,31.8684444 15.1276725,32.1556023 L15.1859649,32.7200936 C12.761076,30.6714386 11.1339415,27.8351345 10.5893801,24.7077427 C10.4490292,23.9378713 10.3816608,23.1564912 10.3882105,22.3738947 C10.3922339,21.8399064 10.4288187,21.3065731 10.4975906,20.7769825 L16.4124444,20.7769825 C17.0535673,20.7765146 17.5733333,20.2571228 17.5741754,19.6160936 L17.5741754,18.5836725 C17.5781988,17.1780117 16.7830643,15.8922105 15.5237427,15.2677427 L12.0561404,13.5343158 C11.8785497,13.4457076 11.7665497,13.2640936 11.7671111,13.0656374 L11.7671111,12.3534035 C11.8254035,12.2783626 11.8860351,12.1936842 11.9483509,12.1082573 C12.3942924,11.4752749 12.7540585,10.7857778 13.0182924,10.0578246 C13.5933567,9.72182456 13.946386,9.10540351 13.9452632,8.43939181 L13.9452632,6.98619883 C13.9440468,6.58872515 13.8167953,6.20182456 13.5819415,5.88116959 L13.5819415,4.12453801 C13.6545497,3.15274854 13.3432515,2.19134503 12.7148538,1.44654971 C11.6799064,0.418152047 10.245614,-0.104233918 8.79148538,0.0174035088 C7.33726316,-0.104421053 5.90287719,0.418432749 4.86802339,1.44739181 C4.2405614,2.19078363 3.92926316,3.15040936 4.00093567,4.12060819 L4.00093567,5.88116959 C3.76608187,6.20182456 3.63892398,6.58872515 3.63761404,6.98619883 L3.63761404,8.43780117 C3.63723977,8.95625731 3.85178947,9.45178947 4.23008187,9.80631579 C4.48851462,10.713731 4.90208187,11.5694971 5.45253801,12.3358129 L5.45253801,13.0304561 C5.45291228,13.222269 5.34802339,13.3988304 5.17950877,13.4903392 L1.94180117,15.2565146 C0.74994152,15.906152 0.00842105263,17.1551813 0.00879532164,18.5125614 L0.00879532164,19.616 C0.00954385965,20.2570292 0.529309942,20.7764211 1.17043275,20.7767953 Z M1.60552047,18.5124678 C1.60505263,17.7394152 2.02760234,17.0280234 2.70652632,16.6585263 L5.94423392,14.8923509 C6.62540351,14.5213567 7.04935673,13.8076257 7.04926316,13.0319532 L7.04926316,12.0666199 C7.04870175,11.8800468 6.98348538,11.6995556 6.86484211,11.5556491 C6.32196491,10.8488421 5.9311345,10.0373333 5.71667836,9.17230409 C5.67008187,8.96926316 5.5460117,8.79251462 5.37094737,8.67967251 C5.28785965,8.62811696 5.23649123,8.53791813 5.23443275,8.44014035 L5.23443275,6.98619883 C5.23649123,6.90451462 5.27270175,6.82750877 5.33426901,6.77380117 C5.50194152,6.62250292 5.59766082,6.40720468 5.59775439,6.18133333 L5.59775439,4.08224561 C5.59775439,4.04725146 5.5954152,4.01235088 5.59054971,3.97763743 C5.55349708,3.44159064 5.72519298,2.91209357 6.06961404,2.49974269 C6.80945029,1.83045614 7.79948538,1.50830409 8.79148538,1.61431579 C9.77721637,1.51073684 10.7609825,1.82727485 11.5013801,2.48617544 C11.850386,2.90189474 12.0261988,3.43588304 11.9924211,3.97763743 C11.9876491,4.01225731 11.9852164,4.04725146 11.9852164,4.08224561 L11.9852164,6.18133333 C11.9853099,6.40720468 12.0810292,6.62240936 12.2487018,6.77380117 C12.310269,6.82750877 12.3464795,6.90451462 12.348538,6.98619883 L12.348538,8.43780117 C12.345076,8.56467836 12.2603041,8.67490058 12.1385731,8.71083041 C11.890152,8.78774269 11.6946901,8.98077193 11.6147836,9.22825731 C11.3934035,9.92589474 11.0661988,10.5853567 10.6446784,11.1836257 C10.5592515,11.3066667 10.4675556,11.4253099 10.3700585,11.5389006 C10.2414971,11.6846784 10.1705731,11.8722807 10.1704795,12.0667135 L10.1704795,13.0639532 C10.1684211,13.8689123 10.624655,14.6049123 11.3466199,14.9610292 L14.8134737,16.6944561 C15.5294503,17.0512281 15.9807251,17.7835789 15.9776374,18.5835789 L15.9776532,19.1799766 L1.6057076,19.1799766 L1.60552047,18.5124678 Z"></path>
                            <path d="M45.8647018,15.2675556 L42.397848,13.532538 C42.2199766,13.4442105 42.107883,13.2624094 42.1088187,13.0638596 L42.1088187,12.3508772 C42.1671111,12.2765848 42.2269942,12.1911579 42.2884678,12.1065731 C42.7352515,11.4739649 43.0953918,10.7843743 43.3591579,10.0561404 C43.9340351,9.72004678 44.2867836,9.10362573 44.2853801,8.4377076 L44.2853801,6.98619883 C44.2844444,6.58881871 44.1574737,6.20191813 43.9229006,5.88116959 L43.9229006,4.12453801 C43.9951345,3.15274854 43.6835556,2.19125146 43.0549708,1.44654971 C42.020117,0.418245614 40.5861053,-0.104233918 39.1322573,0.0174035088 C37.6780351,-0.104327485 36.2435556,0.418432749 35.2087018,1.44739181 C34.5812398,2.19078363 34.2699415,3.15040936 34.341614,4.12060819 L34.341614,5.88116959 C34.1067602,6.20182456 33.9796023,6.58872515 33.9782924,6.98619883 L33.9782924,8.43780117 C33.9779181,8.95625731 34.1924678,9.45178947 34.5707602,9.80631579 C34.829193,10.713731 35.2427602,11.5694971 35.7932164,12.3358129 L35.7932164,13.0304561 C35.7935906,13.222269 35.6887018,13.3988304 35.5201871,13.4903392 L32.2824795,15.2565146 C31.0906199,15.906152 30.3490994,17.1551813 30.3494737,18.5125614 L30.3494737,19.616 C30.3503158,20.2571228 30.8700819,20.7765146 31.5112047,20.7768889 L37.4260585,20.7768889 C37.4948304,21.3064795 37.5314152,21.8397193 37.5354386,22.3738012 C37.5379649,23.1611696 37.4668538,23.9470409 37.3230409,24.7212164 C36.7726784,27.8356959 35.1512515,30.6599298 32.7391813,32.7055906 L32.7974737,32.1467135 C32.832655,31.7138713 32.515462,31.3323041 32.0835556,31.2877661 C31.6515556,31.2432281 31.2632515,31.5521871 31.2094503,31.9830643 L30.9627135,34.3655673 C30.9627135,34.378386 30.9667368,34.3895205 30.9627135,34.4023392 C30.9586901,34.4151579 30.9570994,34.4294737 30.9570994,34.443883 C30.9614035,34.4748538 30.9677661,34.5055439 30.9762807,34.5356725 C30.9806784,34.6015439 30.9938713,34.6664795 31.0153918,34.7288889 C31.0289591,34.7581754 31.0442105,34.7867135 31.0608655,34.8143158 C31.0926784,34.8780351 31.1329123,34.9371696 31.1806316,34.9899415 C31.1989708,35.0091228 31.2213333,35.0234386 31.2413567,35.0410292 C31.2973099,35.0916491 31.3601871,35.133848 31.4282105,35.1664094 C31.455345,35.178386 31.4840702,35.1831579 31.5128889,35.1927953 C31.5641637,35.2150643 31.6176842,35.2317193 31.6726082,35.2422924 L34.0551111,35.4890292 C34.0830877,35.4890292 34.1102222,35.4890292 34.134924,35.4890292 C34.5759064,35.5111111 34.9512047,35.171462 34.9732865,34.7304795 C34.9953684,34.2894971 34.6557193,33.9141988 34.2147368,33.892117 L33.833076,33.8530058 C36.4901053,31.5774503 38.2778012,28.4524912 38.8928187,25.008655 C39.0539415,24.1396959 39.1341287,23.2576374 39.1323509,22.3738012 C39.129076,21.8400936 39.0965146,21.3070409 39.0349474,20.7768889 L46.7542456,20.7768889 C47.3951813,20.7764211 47.9147602,20.2569357 47.9151345,19.616 L47.9151345,18.5835789 C47.9190643,17.1778246 47.1240234,15.892117 45.8647018,15.2675556 Z M46.318238,19.1799766 L31.9462921,19.1799766 L31.9462924,18.5124678 C31.9459181,17.7394152 32.3683743,17.0280234 33.0472982,16.6585263 L36.2850058,14.8923509 C36.9661754,14.5213567 37.3901287,13.8076257 37.3900351,13.0319532 L37.3900351,12.0666199 C37.3894737,11.8800468 37.3242573,11.6995556 37.205614,11.5556491 C36.6627368,10.8488421 36.2719064,10.0373333 36.0574503,9.17230409 C36.0108538,8.96926316 35.8867836,8.79251462 35.7117193,8.67967251 C35.6286316,8.62811696 35.5772632,8.53791813 35.5752047,8.44014035 L35.5752047,6.98619883 C35.5772632,6.90451462 35.6134737,6.82750877 35.6750409,6.77380117 C35.8427135,6.62250292 35.9384327,6.40720468 35.9385263,6.18133333 L35.9385263,4.08224561 C35.9385263,4.04725146 35.9361871,4.01235088 35.9313216,3.97763743 C35.894269,3.44159064 36.0659649,2.91209357 36.410386,2.49974269 C37.1502222,1.83054971 38.1402573,1.50849123 39.1322573,1.61431579 C40.1178012,1.51092398 41.1013801,1.82708772 41.842152,2.4854269 C42.1911579,2.90152047 42.3668772,3.43569591 42.333193,3.97773099 C42.3284211,4.01235088 42.3259883,4.04734503 42.3259883,4.08233918 L42.3259883,6.1814269 C42.3260819,6.40692398 42.4215205,6.62175439 42.5886316,6.77305263 C42.6502924,6.82694737 42.6865029,6.90432749 42.6884678,6.98619883 L42.6884678,8.43780117 C42.6849123,8.56439766 42.6006082,8.67443275 42.4792515,8.71083041 C42.2303626,8.78764912 42.0345263,8.98105263 41.9547135,9.22900585 C41.7335205,9.92692398 41.4063158,10.5866667 40.9846082,11.1852164 C40.8840234,11.327345 40.7898012,11.4478596 40.7091462,11.5413333 C40.5819883,11.6868304 40.5119064,11.8734971 40.5119064,12.0667135 L40.5119064,13.0639532 C40.5097544,13.8687251 40.965614,14.6046316 41.6872047,14.9610292 L45.1540585,16.6944561 C45.8700351,17.0512281 46.3213099,17.7835789 46.3182222,18.5835789 L46.318238,19.1799766 Z"></path>
                            <path d="M16.9355789,7.36299415 C16.7329123,7.30133333 16.5140585,7.32266667 16.3272047,7.42240936 C16.1403509,7.52215205 16.0007485,7.69207018 15.9391813,7.89473684 L15.2429474,10.1862924 L15.2429474,10.1958363 C15.2204912,10.268538 15.2086082,10.3441404 15.2078596,10.4202105 C15.2078596,10.4353684 15.2150643,10.447345 15.2158129,10.4617544 C15.2214269,10.5088187 15.2309708,10.5553216 15.244538,10.6007018 C15.2546433,10.6572164 15.2712047,10.7124211 15.2940351,10.765193 C15.2940351,10.7747368 15.2940351,10.7859649 15.3028304,10.7947602 C15.3220117,10.8230175 15.343345,10.8496842 15.3667368,10.8745731 C15.421193,10.9687953 15.5026901,11.0444912 15.600655,11.0917427 C15.6422924,11.1199064 15.6866433,11.1437661 15.7332398,11.1627602 C15.7483977,11.1683743 15.7596257,11.1803509 15.7755322,11.1851228 L18.0670877,11.8813567 C18.1424094,11.9043743 18.2207251,11.9159766 18.2994152,11.9156959 C18.6951111,11.9156959 19.0311111,11.625731 19.0891228,11.2343392 C19.1471345,10.8428538 18.9096608,10.4680234 18.5309006,10.3532164 L17.9999064,10.1934971 C21.7646784,8.33871345 26.1778713,8.34021053 29.9414269,10.1975205 L29.4224094,10.3572398 C29.0436491,10.4720468 28.8061754,10.8469708 28.8641871,11.2383626 C28.9221988,11.629848 29.2581988,11.9197193 29.6538947,11.9197193 C29.7325848,11.92 29.8109942,11.9083977 29.8862222,11.8853801 L32.1785263,11.1891462 C32.191345,11.1891462 32.2008889,11.1755789 32.213614,11.170807 C32.2600234,11.1516257 32.3044678,11.1277661 32.3461988,11.0997895 C32.431345,11.0608655 32.5033918,10.9981754 32.5538246,10.9192982 C32.5903158,10.8836491 32.6226901,10.8439766 32.6504795,10.8011228 C32.6592749,10.7859649 32.6584327,10.7676257 32.6656374,10.7523743 C32.6734971,10.7306667 32.6801404,10.7085848 32.6855673,10.6861287 C32.7151345,10.607345 32.7317895,10.5242573 32.7350643,10.4402339 L32.7350643,10.4266667 C32.7329123,10.3866199 32.7275789,10.3468538 32.7190643,10.3077427 C32.7181287,10.269193 32.714386,10.2307368 32.7079298,10.1927485 L32.0108538,7.90119298 C31.9324444,7.62283041 31.7095673,7.40865497 31.4283977,7.34128655 C31.1471345,7.27391813 30.851462,7.36383626 30.6554386,7.57642105 C30.4594152,7.78900585 30.3936374,8.09094737 30.483462,8.36584795 L30.5984561,8.74432749 C26.4209591,6.70166082 21.5354386,6.69698246 17.3539181,8.73150877 L17.4648889,8.36584795 C17.5286082,8.16271345 17.5085848,7.94245614 17.4091228,7.75410526 C17.309848,7.56584795 17.1393684,7.42502924 16.9355789,7.36299415 Z"></path>
                        </g>
                    </g>
                </g>
            </g>
        </g>
    </g>
</svg>