<svg width="24px" height="24px" viewBox="0 0 24 24" version="1.1" xmlns="http://www.w3.org/2000/svg" xmlns:xlink="http://www.w3.org/1999/xlink">
    <!-- Generator: sketchtool 52.2 (67145) - http://www.bohemiancoding.com/sketch -->
    <title>AF07659D-BE31-4ECC-BE05-FEBAB83BB56D</title>
    <desc>Created with sketchtool.</desc>
    <g id="Symbols" stroke="none" stroke-width="1" fill="none" fill-rule="evenodd">
        <g id="ic-/-clip" fill="#D3D9DD" fill-rule="nonzero">
            <g id="Shape">
                <path d="M5.20562657,23.9999648 C3.50493295,24.0011367 1.97120529,22.975793 1.32019253,21.4023867 C0.669179762,19.8289805 1.02937125,18.0177773 2.2324904,16.8141211 L12.850533,6.18099609 C13.9455713,5.08735547 15.7183032,5.08857422 16.8118436,6.18371484 C17.905384,7.27885547 17.906601,9.05405859 16.8145585,10.1506523 L8.88650742,18.0899648 C8.78535423,18.1912617 8.63795423,18.2307773 8.4997287,18.1937461 C8.36159678,18.156668 8.25365636,18.0485742 8.21663083,17.9102461 C8.17960529,17.771918 8.21911168,17.6242617 8.32026487,17.522918 L16.2483159,9.58360547 C17.028801,8.80032422 17.0281457,7.53198047 16.2468181,6.74954297 C15.4654904,5.96710547 14.1989457,5.96640234 13.4167755,6.74804297 L2.79877976,17.381168 C1.4729287,18.7128398 1.47452019,20.8681523 2.80224359,22.1979023 C4.129967,23.5276523 6.28222232,23.5293867 7.61214572,22.201793 L20.7786308,9.01660547 C22.6529372,7.13701172 22.6518606,4.09201172 20.7762436,2.21373047 C18.9006266,0.335449219 15.8599925,0.334230469 13.9830181,2.21124609 L3.50652444,12.702668 C3.35018402,12.8592305 3.09662232,12.8592305 2.94028189,12.702668 C2.78394146,12.5461055 2.78394146,12.2921836 2.94028189,12.1356211 L13.4168223,1.64429297 C15.6061032,-0.548097656 19.1556393,-0.548097656 21.3448734,1.64429297 C23.5341074,3.83668359 23.5341542,7.39126172 21.3448734,9.58360547 L8.17834146,22.7687461 C7.39046061,23.5588711 6.32060529,24.0019805 5.20562657,23.9999648 Z"></path>
            </g>
        </g>
    </g>
</svg>
