<?xml version="1.0" encoding="UTF-8"?>
<svg width="48px" height="48px" viewBox="0 0 48 48" version="1.1" xmlns="http://www.w3.org/2000/svg" xmlns:xlink="http://www.w3.org/1999/xlink">
    <!-- Generator: sketchtool 52.2 (67145) - http://www.bohemiancoding.com/sketch -->
    <title>C6F586DE-0706-40E0-AE5A-A93AB4D5648B</title>
    <desc>Created with sketchtool.</desc>
    <g id="Symbols" stroke="none" stroke-width="1" fill="none" fill-rule="evenodd">
        <g id="ic-/-engineers">
            <g id="startup3">
                <g>
                    <g id="Group" transform="translate(0.761905, 0.855446)">
                        <path d="M14.4093333,46.3403406 L0.859904762,46.3402455 C0.62447619,46.343002 0.399904762,46.241299 0.247047619,46.0625109 C0.0941904762,45.8837228 0.0287619048,45.6464792 0.0685714286,45.4148436 C0.580190476,42.8938455 3.11419048,40.5642772 5.99990476,40.0456871 C6.3927619,39.9725941 6.79142857,39.9351446 7.19095238,39.934004 C10.9080952,39.934004 14.4093333,43.1411644 14.4093333,46.3403406 Z" id="Path" fill="#C5EBFF"></path>
                        <path d="M12.0112381,46.3403406 L0.859904762,46.3402455 C0.62447619,46.343002 0.399904762,46.241299 0.247047619,46.0625109 C0.0941904762,45.8837228 0.0287619048,45.6464792 0.0685714286,45.4148436 C0.580190476,42.8938455 3.11419048,40.5642772 5.99990476,40.0456871 C9.23742857,40.6361347 12.0112381,43.4921822 12.0112381,46.3403406 Z" id="Path" fill="#FFFFFF"></path>
                        <path d="M32.0595238,46.3403406 L14.4093333,46.3403406 C14.4093333,43.5241188 17.7267619,40.0856079 21.6197143,39.2958416 C22.1515238,39.1906218 22.6922857,39.137204 23.2344762,39.1362535 C27.7749524,39.1362535 32.0595238,43.1411644 32.0595238,46.3403406 Z" id="Path" fill="#C5EBFF"></path>
                        <path d="M29.6294286,46.3403406 L14.4093333,46.3403406 C14.4093333,43.5241188 17.9105714,40.0856079 22.0194286,39.2958416 C26.1280952,40.0856079 29.6294286,43.5241188 29.6294286,46.3403406 Z" id="Path" fill="#FFFFFF"></path>
                        <path d="M45.6089524,46.3403406 L32.0595238,46.3404356 C32.0595238,43.4922772 34.8333333,40.6361347 38.0708571,40.0457822 C38.4690476,39.9723089 38.8730476,39.9348594 39.2779048,39.934099 C42.6352381,39.934099 45.8167619,42.5508119 46.400381,45.4149386 C46.4401905,45.6465743 46.3747619,45.8839129 46.2219048,46.0626059 C46.0689524,46.2413941 45.8444762,46.343097 45.6089524,46.3403406 Z" id="Path" fill="#C5EBFF"></path>
                        <g transform="translate(20.000000, 0.000000)" id="Path">
                            <path d="M23.2108571,46.3403406 L12.0595238,46.3404356 C12.0595238,43.4922772 14.8333333,40.6361347 18.0708571,40.0457822 C20.9565714,40.5643723 23.4906667,42.8939406 24.0021905,45.4149386 C24.042,45.6465743 23.9765714,45.8839129 23.8237143,46.0626059 C23.6708571,46.2413941 23.4462857,46.343097 23.2108571,46.3403406 Z" fill="#FFFFFF"></path>
                            <path d="M6.432,4.82319208 L0.036952381,4.82319208 C0.036952381,2.27025743 3.23447619,0.0364039604 3.23447619,0.0364039604 C3.23447619,0.0364039604 6.432,2.27025743 6.432,4.82319208 Z" fill="#C5EBFF"></path>
                        </g>
                        <rect id="Rectangle" fill="#C5EBFF" x="20.0369524" y="4.82319208" width="6.39504762" height="9.57348119"></rect>
                        <rect id="Rectangle" fill="#F5F5F5" x="20.0369524" y="4.82319208" width="3.99685714" height="9.57348119"></rect>
                        <g transform="translate(16.761905, 10.360396)" fill="#E3E7F2" id="Path">
                            <polygon points="3.27504762 0.0473346535 3.27504762 7.17167525 0.0775238095 10.4186614 0.0775238095 3.23852673"></polygon>
                            <polygon points="12.8675238 3.23852673 12.8675238 10.4186614 9.67009524 7.17167525 9.67009524 0.0473346535"></polygon>
                            <path d="M9.67009524,8.01733069 C9.67009524,9.29384554 6.47257143,13.6098535 6.47257143,13.6098535 C6.47257143,13.6098535 3.27504762,9.2937505 3.27504762,8.01733069 C3.274,7.74748515 3.33990476,7.48163168 3.46685714,7.24343762 L9.47819048,7.24343762 C9.60514286,7.48163168 9.67104762,7.74748515 9.67009524,8.01733069 Z"></path>
                        </g>
                        <rect id="Rectangle" fill="#C5EBFF" x="20.0369524" y="14.3966733" width="6.39504762" height="3.19119208"></rect>
                        <rect id="Rectangle" fill="#E3E7F2" x="20.0369524" y="14.3966733" width="3.99685714" height="3.19119208"></rect>
                        <g transform="translate(16.761905, 26.328713)" fill="#C5EBFF" id="Path">
                            <path d="M28.0557143,8.02873663 C28.0567619,9.51017822 27.467619,10.9312634 26.418,11.978804 C25.368381,13.0263446 23.9444762,13.6143208 22.4600952,13.6132752 C22.0570476,13.6119446 21.6552381,13.5691723 21.2610476,13.4856238 C18.6935238,12.9224554 16.8644762,10.6522931 16.8644762,8.02873663 C16.8644762,5.4051802 18.6935238,3.13501782 21.2610476,2.5718495 C21.6552381,2.48830099 22.0570476,2.44552871 22.4600952,2.44419802 C23.9444762,2.44315248 25.368381,3.03112871 26.418,4.07866931 C27.467619,5.1262099 28.0567619,6.54729505 28.0557143,8.02873663 Z"></path>
                            <path d="M12.8675238,6.43314059 C12.868,8.12597228 12.194381,9.74960792 10.9949524,10.9466614 C9.79552381,12.1437149 8.16866667,12.816 6.47247619,12.8155248 C6.07019048,12.8150495 5.66885714,12.777695 5.27342857,12.7038416 C2.25819048,12.128697 0.0774285714,9.49696634 0.0774285714,6.43323564 C0.0774285714,3.36950495 2.25819048,0.737679208 5.27342857,0.162629703 C5.66885714,0.0887762376 6.07019048,0.0514217822 6.47247619,0.0509465347 C8.16866667,0.0504712871 9.79552381,0.722756436 10.9949524,1.9198099 C12.194381,3.11686337 12.868,4.74030891 12.8675238,6.43314059 Z"></path>
                        </g>
                        <ellipse id="Oval" fill="#FFFFFF" cx="22.0354286" cy="32.7618535" rx="5.19590476" ry="6.27060594"></ellipse>
                        <path d="M12.8425714,34.3574495 C12.843619,35.8388911 12.2544762,37.2599762 11.2048571,38.3075168 C10.1552381,39.3550574 8.73133333,39.9430337 7.24695238,39.9419881 C6.84390476,39.9406574 6.44209524,39.8978851 6.04790476,39.8143366 C3.48038095,39.2511683 1.65133333,36.9810059 1.65133333,34.3574495 C1.65133333,31.7338931 3.48038095,29.4637307 6.04790476,28.9005624 C6.44209524,28.8170139 6.84390476,28.7742416 7.24695238,28.7729109 C8.73133333,28.7718653 10.1552381,29.3598416 11.2048571,30.4073822 C12.2544762,31.4549228 12.843619,32.8760079 12.8425714,34.3574495 Z" id="Path" fill="#C5EBFF"></path>
                        <g transform="translate(1.619048, 28.895050)" fill="#FFFFFF" id="Oval">
                            <ellipse cx="36.4038095" cy="5.4624" rx="4.39657143" ry="5.45688713"></ellipse>
                            <ellipse cx="4.42885714" cy="5.4624" rx="4.39657143" ry="5.45688713"></ellipse>
                        </g>
                    </g>
                    <g id="Group" transform="translate(0.761905, 0.855446)" fill="#FFFFFF">
                        <polygon id="Path" points="22.4389638 17.6077644 22.4389638 17.5489644 22.3809489 17.6077644"></polygon>
                        <path d="M19.237619,13.6148911 L22.4351429,10.423699 L22.4351429,4.8391604 C22.4351429,3.34707327 23.5258095,1.96790495 24.433619,1.07605545 C24.059619,0.705932673 23.6588571,0.363754455 23.2345714,0.0523722772 C23.2345714,0.0523722772 20.0370476,2.28622574 20.0370476,4.8391604 L20.0370476,10.423699 L16.8395238,13.6148911 L16.8395238,20.7950257 L19.237619,18.3597624 L19.237619,13.6148911 Z" id="Path"></path>
                        <path d="M0.859904762,46.3563089 L3.258,46.3563089 C3.02257143,46.3590653 2.798,46.2573624 2.64514286,46.0785743 C2.49228571,45.8997861 2.42685714,45.6625426 2.46666667,45.4309069 C2.97638095,42.9187485 5.49466667,40.5978297 8.36780952,40.068499 C8.014,40.0023446 7.65542857,39.9646099 7.29552381,39.9556752 C7.67990476,39.9522535 8.06295238,39.9094812 8.43866667,39.8281188 C5.87457143,39.2623842 4.04933333,36.9938376 4.04952381,34.3730376 C4.04971429,31.7522376 5.87533333,29.4839762 8.43952381,28.9186218 C8.04780952,28.8330772 7.648,28.7895446 7.24704762,28.7889743 C6.844,28.790305 6.44219048,28.8330772 6.048,28.9166257 C3.48047619,29.4797941 1.65142857,31.7499564 1.65142857,34.3735129 C1.65142857,36.9970693 3.48047619,39.2672317 6.048,39.8304 C6.4087619,39.9049188 6.77571429,39.9457901 7.144,39.9523485 C6.76019048,39.9556752 6.37742857,39.9922693 6,40.0617505 C3.11428571,40.5803406 0.580190476,42.9099089 0.0686666667,45.4309069 C0.0288571429,45.6625426 0.0942857143,45.8998812 0.247142857,46.0785743 C0.399904762,46.2572673 0.62447619,46.3590653 0.859904762,46.3563089 Z" id="Path"></path>
                    </g>
                    <path d="M1.6232381,47.9927762 L46.3695238,47.9927762 C46.8558095,47.9934416 47.316381,47.7752079 47.6232381,47.3987168 C47.9201905,47.0395248 48.0390476,46.565798 47.9468571,46.1092752 C47.3078095,43.6644119 45.5571429,41.6600079 43.217619,40.694495 C45.5800952,39.3154218 46.7991429,36.5871208 46.2482857,33.9115723 C45.6974286,31.2360238 43.4992381,29.2084277 40.7833333,28.8708119 L40.7833333,21.6352634 C40.7807619,19.4332515 38.9927619,17.6488871 36.7864762,17.6463208 L31.1908571,17.6463208 L31.1908571,14.4551287 C31.1907619,14.2435485 31.1065714,14.0407129 30.9566667,13.891105 L27.9933333,10.9336396 L27.9933333,5.67939802 C27.9933333,2.74797624 24.5999048,0.340182178 24.4550476,0.239334653 C24.1797143,0.0468594059 23.8131429,0.0468594059 23.5378095,0.239334653 C23.3930476,0.340182178 19.9995238,2.74797624 19.9995238,5.67939802 L19.9995238,10.9336396 L17.0361905,13.8910099 C16.8862857,14.0406178 16.802,14.2434535 16.802,14.4550337 L16.802,17.6462257 L11.206381,17.6462257 C9,17.6487921 7.21209524,19.4332515 7.20952381,21.6351683 L7.20952381,28.8707168 C4.49361905,29.2083327 2.29533333,31.2359287 1.74447619,33.9114772 C1.19361905,36.5870257 2.41266667,39.3154218 4.7752381,40.694495 C2.43552381,41.660198 0.684857143,43.664697 0.0459047619,46.1097505 C-0.0462857143,46.5660832 0.0725714286,47.0396198 0.36952381,47.3987168 C0.676380952,47.7752079 1.13695238,47.9934416 1.6232381,47.9927762 Z M16.0752381,46.3971802 C16.7231429,43.7953901 20.3231429,40.7877386 23.996381,40.7877386 C27.669619,40.7877386 31.269619,43.7953901 31.9175238,46.3971802 L16.0752381,46.3971802 Z M21.5981905,16.0507248 L26.3944762,16.0507248 L26.3944762,17.6463208 L21.5981905,17.6463208 L21.5981905,16.0507248 Z M26.3944762,11.2639366 L26.3944762,14.4551287 L21.5981905,14.4551287 L21.5981905,6.47724356 L26.3944762,6.47724356 L26.3944762,11.2639366 Z M26.3933333,19.2570297 C26.3531429,19.8183921 25.2227619,21.7076911 23.996381,23.4594535 C22.769619,21.7076911 21.6392381,19.8187723 21.5994286,19.2570297 L26.3933333,19.2570297 Z M23.996381,28.0176475 C27.0867619,28.0176475 29.592,30.5179248 29.592,33.6021861 C29.592,36.6864475 27.0867619,39.1867248 23.996381,39.1867248 C20.906,39.1867248 18.4007619,36.6864475 18.4007619,33.6021861 C18.4041905,30.5193505 20.9074286,28.0210693 23.996381,28.0176475 Z M46.3855238,46.3890059 C46.3813333,46.3935683 46.3757143,46.3965149 46.3695238,46.3971802 L33.701619,46.3971802 C34.220381,43.8659168 37.1052381,41.5882455 40.0392381,41.5882455 C42.8909524,41.5882455 45.8539048,43.8495683 46.3855238,46.3890059 Z M44.7800952,35.1977822 C44.7800952,37.8413941 42.6327619,39.9845703 39.9838095,39.9845703 C37.3349524,39.9845703 35.1875238,37.8414891 35.1875238,35.1977822 C35.1875238,32.5541703 37.3348571,30.4109941 39.9838095,30.4109941 C42.6315238,30.4138455 44.7772381,32.5553109 44.7800952,35.1977822 Z M36.786381,19.2419168 C38.1101905,19.2433426 39.1830476,20.3140752 39.1844762,21.6352634 L39.1844762,28.8708119 C36.4605714,29.2096634 34.2584762,31.248 33.7151429,33.9332436 C33.1718095,36.6185822 34.4088571,39.3499248 36.7874286,40.7171168 C35.088381,41.4655366 33.68,42.7460436 32.7754286,44.3647366 C31.5519048,42.328301 29.6880952,40.7526653 27.4741905,39.8830574 C30.2169524,38.3728158 31.6642857,35.2641267 31.0520952,32.1981149 C30.4399048,29.132103 27.9090476,26.8146059 24.7957143,26.469101 L24.7957143,25.0876515 C25.9738095,23.5499406 26.9773333,21.8864792 27.7878095,20.1277782 L29.8211429,22.1942495 C30.0485714,22.425505 30.3935238,22.4964119 30.694,22.373798 C30.9944762,22.2511842 31.1907619,21.9592871 31.1907619,21.6352634 L31.1907619,19.2419168 L36.786381,19.2419168 Z M29.592,14.7854257 L29.592,19.6843723 L27.9932381,18.059596 L27.9932381,13.1898297 L29.592,14.7854257 Z M23.9975238,1.9004198 C24.9959048,2.68134653 25.7726667,3.70902178 26.2506667,4.88164752 L21.7431429,4.88164752 C22.2237143,3.71006733 23.0004762,2.68296238 23.9975238,1.9004198 Z M18.4007619,14.7854257 L19.9995238,13.1898297 L19.9995238,18.059596 L18.4007619,19.6843723 L18.4007619,14.7854257 Z M11.206381,19.2419168 L16.802,19.2419168 L16.802,21.6352634 C16.802,21.9592871 16.9982857,22.2510891 17.2987619,22.373703 C17.5992381,22.4963168 17.9441905,22.4254099 18.171619,22.1942495 L20.2049524,20.1277782 C21.0154286,21.8864792 22.0188571,23.5499406 23.1970476,25.0876515 L23.1970476,26.469101 C20.0837143,26.8146059 17.5528571,29.132103 16.9406667,32.1981149 C16.3284762,35.2641267 17.7758095,38.3729109 20.5185714,39.8830574 C18.3046667,40.7526653 16.4408571,42.328301 15.2173333,44.3647366 C14.3127619,42.7460436 12.904381,41.4655366 11.2053333,40.7171168 C13.584,39.3499248 14.8210476,36.6184871 14.2777143,33.9332436 C13.734381,31.247905 11.5322857,29.2096634 8.80838095,28.8708119 L8.80838095,21.6352634 C8.80971429,20.3140752 9.88247619,19.2433426 11.206381,19.2419168 Z M3.21257143,35.1977822 C3.21257143,32.5541703 5.35990476,30.4109941 8.00885714,30.4109941 C10.6578095,30.4109941 12.8051429,32.5540752 12.8051429,35.1977822 C12.8051429,37.8413941 10.6578095,39.9845703 8.00885714,39.9845703 C5.36114286,39.9816238 3.21552381,37.8402535 3.21257143,35.1977822 Z M7.95342857,41.5882455 C10.8882857,41.5882455 13.7739048,43.8670574 14.2914286,46.3991762 L1.61266667,46.4279762 C2.13885714,43.8495683 5.10171429,41.5882455 7.95342857,41.5882455 Z" id="Shape" fill="#4AC2FF" fill-rule="nonzero"></path>
                </g>
            </g>
        </g>
    </g>
</svg>