<?xml version="1.0" encoding="UTF-8"?>
<svg width="56px" height="56px" viewBox="0 0 56 56" version="1.1" xmlns="http://www.w3.org/2000/svg" xmlns:xlink="http://www.w3.org/1999/xlink">
    <!-- Generator: sketchtool 52.2 (67145) - http://www.bohemiancoding.com/sketch -->
    <title>30AB8DCA-40AD-4A7F-A307-AA6C82CA18FE</title>
    <desc>Created with sketchtool.</desc>
    <defs>
        <linearGradient x1="38.5608598%" y1="50%" x2="100%" y2="50%" id="linearGradient-1">
            <stop stop-color="#4AC2FF" offset="0%"></stop>
            <stop stop-color="#4BB7FF" stop-opacity="0" offset="100%"></stop>
        </linearGradient>
        <linearGradient x1="0%" y1="50%" x2="124.564707%" y2="50%" id="linearGradient-2">
            <stop stop-color="#4AC2FF" offset="0%"></stop>
            <stop stop-color="#4BB7FF" stop-opacity="0" offset="100%"></stop>
        </linearGradient>
    </defs>
    <g id="Symbols" stroke="none" stroke-width="1" fill="none" fill-rule="evenodd">
        <g id="ic-/-growth" fill-rule="nonzero">
            <g id="Group-3">
                <g transform="translate(4.000000, 8.000000)">
                    <path d="M3.3126377,32.55609 C2.29056404,31.0736794 1.50187677,29.416365 1,27.6378448 L3.72180617,24.9020847 C5.21417558,23.4020643 7.63378447,23.4020643 9.12615388,24.9020847 L14.5445632,30.3482727 L30.8094502,14 C31.8001274,15.5253202 32.5485998,17.2240228 33,19.040959 L17.2467371,34.8749847 C15.7543677,36.3750051 13.3347588,36.3750051 11.8423894,34.8749847 L6.42398003,29.4287966 L3.3126377,32.55609 Z" id="Combined-Shape" fill="url(#linearGradient-1)"></path>
                    <rect id="Rectangle-14-Copy" stroke="#D3D9DD" stroke-width="3.25" x="1.625" y="10.625" width="28.75" height="28.75" rx="14.375"></rect>
                    <path d="M40.1137616,5.05263158 L35.3637892,5.05263158 C33.9818391,5.05263158 32.8615471,3.92156147 32.8615471,2.52631579 C32.8615471,1.13107011 33.9818391,0 35.3637892,0 L47.875,0 L47.875,12 C47.875,13.3952457 46.754708,14.5263158 45.3727578,14.5263158 C43.9908077,14.5263158 42.8705157,13.3952457 42.8705157,12 L42.8705157,9.41485532 L17.2715945,35.2600592 C16.2944082,36.2466469 14.7100761,36.2466469 13.7328898,35.2600592 C12.7557034,34.2734716 12.7557034,32.6738969 13.7328898,31.6873092 L40.1137616,5.05263158 Z" id="Combined-Shape" fill="url(#linearGradient-2)"></path>
                </g>
            </g>
        </g>
    </g>
</svg>