<?xml version="1.0" encoding="UTF-8"?>
<svg width="48px" height="48px" viewBox="0 0 48 48" version="1.1" xmlns="http://www.w3.org/2000/svg" xmlns:xlink="http://www.w3.org/1999/xlink">
    <!-- Generator: sketchtool 52.2 (67145) - http://www.bohemiancoding.com/sketch -->
    <title>FC97C5D7-E847-498D-8499-FEDA87A234D6</title>
    <desc>Created with sketchtool.</desc>
    <g id="Symbols" stroke="none" stroke-width="1" fill="none" fill-rule="evenodd">
        <g id="ic-/-hassle-free-trial" fill-rule="nonzero">
            <g>
                <path d="M47.203125,2.4 L47.203125,5.596875 L5.596875,40.003125 L2.4,40.003125 C1.51875,40.003125 0.80625,39.28125 0.796875,38.4 L0.796875,2.4 C0.796875,1.51875 1.51875,0.80625 2.4,0.796875 L45.6,0.796875 C46.48125,0.80625 47.19375,1.51875 47.203125,2.4 Z" id="Shape" fill="#C2D6E1"></path>
                <path d="M44.803125,2.4 L44.803125,5.596875 L0.796875,5.596875 L0.796875,2.4 C0.796875,1.51875 1.51875,0.80625 2.4,0.796875 L43.2,0.796875 C44.08125,0.80625 44.79375,1.51875 44.803125,2.4 Z" id="Shape" fill="#F8FDFF"></path>
                <path d="M47.203125,5.596875 L47.203125,38.4 C47.203125,39.28125 46.48125,39.99375 45.6,40.003125 L5.596875,40.003125 L5.596875,5.596875 L47.203125,5.596875 Z" id="Shape" fill="#C2D6E1"></path>
                <path d="M44.8035115,5.596875 L44.803125,38.4 C44.821875,39.253125 44.15625,39.975 43.29375,40.003125 L5.60625,40.003125 L5.60625,5.596875 L44.8035115,5.596875 Z" id="Shape" fill="#F8FDFF"></path>
                <path d="M5.596875,0.796875 L5.596875,5.596875 L0.796875,5.596875 L0.796875,2.4 C0.796875,1.51875 1.51875,0.80625 2.4,0.796875 L5.596875,0.796875 Z" id="Shape" fill="#FFFFFF"></path>
                <g id="Group" transform="translate(8.718750, 8.718750)" fill="#C2D6E1">
                    <path d="M0.88125,0.084375 L8.878125,0.084375 C9.31875,0.084375 9.675,0.440625 9.675,0.88125 L9.675,4.078125 C9.675,4.51875 9.31875,4.875 8.878125,4.875 L0.88125,4.875 C0.440625,4.875 0.084375,4.51875 0.084375,4.078125 L0.084375,0.88125 C0.084375,0.440625 0.440625,0.084375 0.88125,0.084375 Z" id="Shape"></path>
                    <path d="M13.678125,0.084375 L21.675,0.084375 C22.115625,0.084375 22.471875,0.440625 22.471875,0.88125 L22.471875,4.078125 C22.471875,4.51875 22.115625,4.875 21.675,4.875 L13.678125,4.875 C13.2375,4.875 12.88125,4.51875 12.88125,4.078125 L12.88125,0.88125 C12.88125,0.440625 13.2375,0.084375 13.678125,0.084375 Z" id="Shape"></path>
                    <path d="M26.484375,0.084375 L34.48125,0.084375 C34.921875,0.084375 35.278125,0.440625 35.278125,0.88125 L35.278125,4.078125 C35.278125,4.51875 34.921875,4.875 34.48125,4.875 L26.484375,4.875 C26.04375,4.875 25.6875,4.51875 25.6875,4.078125 L25.6875,0.88125 C25.678125,0.440625 26.04375,0.084375 26.484375,0.084375 Z" id="Shape"></path>
                    <path d="M0.88125,8.08125 L8.878125,8.08125 C9.31875,8.08125 9.675,8.4375 9.675,8.878125 L9.675,12.075 C9.675,12.515625 9.31875,12.871875 8.878125,12.871875 L0.88125,12.871875 C0.440625,12.871875 0.084375,12.515625 0.084375,12.075 L0.084375,8.878125 C0.084375,8.4375 0.440625,8.08125 0.88125,8.08125 Z" id="Shape"></path>
                    <path d="M0.88125,16.078125 L8.878125,16.078125 C9.31875,16.078125 9.675,16.434375 9.675,16.875 L9.675,20.071875 C9.675,20.5125 9.31875,20.86875 8.878125,20.86875 L0.88125,20.86875 C0.440625,20.86875 0.084375,20.5125 0.084375,20.071875 L0.084375,16.875 C0.084375,16.44375 0.440625,16.078125 0.88125,16.078125 Z" id="Shape"></path>
                    <path d="M26.484375,16.078125 L34.48125,16.078125 C34.921875,16.078125 35.278125,16.434375 35.278125,16.875 L35.278125,20.071875 C35.278125,20.5125 34.921875,20.86875 34.48125,20.86875 L26.484375,20.86875 C26.04375,20.86875 25.6875,20.5125 25.6875,20.071875 L25.6875,16.875 C25.678125,16.44375 26.04375,16.078125 26.484375,16.078125 Z" id="Shape"></path>
                    <path d="M13.678125,8.08125 L21.675,8.08125 C22.115625,8.08125 22.471875,8.4375 22.471875,8.878125 L22.471875,12.075 C22.471875,12.515625 22.115625,12.871875 21.675,12.871875 L13.678125,12.871875 C13.2375,12.871875 12.88125,12.515625 12.88125,12.075 L12.88125,8.878125 C12.88125,8.4375 13.2375,8.08125 13.678125,8.08125 Z" id="Shape"></path>
                    <path d="M26.484375,8.08125 L34.48125,8.08125 C34.921875,8.08125 35.278125,8.4375 35.278125,8.878125 L35.278125,12.075 C35.278125,12.515625 34.921875,12.871875 34.48125,12.871875 L26.484375,12.871875 C26.04375,12.871875 25.6875,12.515625 25.6875,12.075 L25.6875,8.878125 C25.678125,8.4375 26.04375,8.08125 26.484375,8.08125 Z" id="Shape"></path>
                </g>
                <g id="Group" transform="translate(8.718750, 8.718750)" fill="#FFFFFF">
                    <path d="M0.88125,0.084375 L6.478125,0.084375 C6.91875,0.084375 7.275,0.440625 7.275,0.88125 L7.275,4.078125 C7.275,4.51875 6.91875,4.875 6.478125,4.875 L0.88125,4.875 C0.440625,4.875 0.084375,4.51875 0.084375,4.078125 L0.084375,0.88125 C0.084375,0.440625 0.440625,0.084375 0.88125,0.084375 Z" id="Shape"></path>
                    <path d="M13.678125,0.084375 L19.275,0.084375 C19.715625,0.084375 20.071875,0.440625 20.071875,0.88125 L20.071875,4.078125 C20.071875,4.51875 19.715625,4.875 19.275,4.875 L13.678125,4.875 C13.2375,4.875 12.88125,4.51875 12.88125,4.078125 L12.88125,0.88125 C12.88125,0.440625 13.2375,0.084375 13.678125,0.084375 Z" id="Shape"></path>
                    <path d="M26.484375,0.084375 L32.08125,0.084375 C32.521875,0.084375 32.878125,0.440625 32.878125,0.88125 L32.878125,4.078125 C32.878125,4.51875 32.521875,4.875 32.08125,4.875 L26.484375,4.875 C26.04375,4.875 25.6875,4.51875 25.6875,4.078125 L25.6875,0.88125 C25.678125,0.440625 26.04375,0.084375 26.484375,0.084375 Z" id="Shape"></path>
                    <path d="M0.88125,8.08125 L6.478125,8.08125 C6.91875,8.08125 7.275,8.4375 7.275,8.878125 L7.275,12.075 C7.275,12.515625 6.91875,12.871875 6.478125,12.871875 L0.88125,12.871875 C0.440625,12.871875 0.084375,12.515625 0.084375,12.075 L0.084375,8.878125 C0.084375,8.4375 0.440625,8.08125 0.88125,8.08125 Z" id="Shape"></path>
                    <path d="M0.88125,16.078125 L6.478125,16.078125 C6.91875,16.078125 7.275,16.434375 7.275,16.875 L7.275,20.071875 C7.275,20.5125 6.91875,20.86875 6.478125,20.86875 L0.88125,20.86875 C0.440625,20.86875 0.084375,20.5125 0.084375,20.071875 L0.084375,16.875 C0.084375,16.44375 0.440625,16.078125 0.88125,16.078125 Z" id="Shape"></path>
                    <path d="M26.484375,16.078125 L32.08125,16.078125 C32.521875,16.078125 32.878125,16.434375 32.878125,16.875 L32.878125,20.071875 C32.878125,20.5125 32.521875,20.86875 32.08125,20.86875 L26.484375,20.86875 C26.04375,20.86875 25.6875,20.5125 25.6875,20.071875 L25.6875,16.875 C25.678125,16.44375 26.04375,16.078125 26.484375,16.078125 Z" id="Shape"></path>
                    <path d="M13.678125,8.08125 L19.275,8.08125 C19.715625,8.08125 20.071875,8.4375 20.071875,8.878125 L20.071875,12.075 C20.071875,12.515625 19.715625,12.871875 19.275,12.871875 L13.678125,12.871875 C13.2375,12.871875 12.88125,12.515625 12.88125,12.075 L12.88125,8.878125 C12.88125,8.4375 13.2375,8.08125 13.678125,8.08125 Z" id="Shape"></path>
                    <path d="M26.484375,8.08125 L32.08125,8.08125 C32.521875,8.08125 32.878125,8.4375 32.878125,8.878125 L32.878125,12.075 C32.878125,12.515625 32.521875,12.871875 32.08125,12.871875 L26.484375,12.871875 C26.04375,12.871875 25.6875,12.515625 25.6875,12.075 L25.6875,8.878125 C25.678125,8.4375 26.04375,8.08125 26.484375,8.08125 Z" id="Shape"></path>
                </g>
                <path d="M39.196875,34.396875 C39.1875,41.465625 33.459375,47.19375 26.4,47.19375 C25.996875,47.19375 25.603125,47.175 25.2,47.1375 C18.61875,46.528125 13.59375,41.00625 13.59375,34.396875 C13.59375,27.7875 18.61875,22.275 25.2,21.65625 C25.603125,21.61875 25.996875,21.6 26.4,21.6 C33.46875,21.609375 39.196875,27.3375 39.196875,34.396875 Z" id="Shape" fill="#C2D6E1"></path>
                <path d="M36.796875,34.396875 C36.7875,40.996875 31.771875,46.51875 25.2,47.1375 C18.61875,46.528125 13.59375,41.00625 13.59375,34.396875 C13.59375,27.7875 18.61875,22.275 25.2,21.65625 C31.771875,22.284375 36.796875,27.796875 36.796875,34.396875 Z" id="Shape" fill="#F8FDFF"></path>
                <path d="M36,34.396875 C36,34.66875 35.990625,34.93125 35.971875,35.19375 C35.878125,36.3375 35.5875,37.44375 35.1,38.484375 L35.1,38.49375 C34.6125,39.4875 33.975,40.396875 33.196875,41.184375 C32.79375,41.5875 32.353125,41.9625 31.884375,42.290625 C31.44375,42.6 30.984375,42.8625 30.496875,43.096875 L30.4875,43.096875 C29.45625,43.584375 28.340625,43.875 27.196875,43.96875 C26.934375,43.996875 26.671875,43.996875 26.4,43.996875 C26.128125,43.996875 25.865625,43.9875 25.603125,43.96875 C25.471875,43.959375 25.33125,43.940625 25.2,43.921875 C24.196875,43.8 23.221875,43.528125 22.3125,43.096875 L22.303125,43.096875 C21.309375,42.609375 20.4,41.971875 19.6125,41.19375 C18.825,40.40625 18.178125,39.496875 17.7,38.49375 C17.2125,37.4625 16.921875,36.346875 16.828125,35.203125 C16.8,34.940625 16.8,34.678125 16.8,34.40625 C16.8,34.134375 16.809375,33.871875 16.828125,33.609375 C16.921875,32.465625 17.2125,31.359375 17.7,30.31875 C18.178125,29.325 18.825,28.40625 19.603125,27.61875 C20.00625,27.215625 20.446875,26.840625 20.915625,26.5125 C21.35625,26.203125 21.815625,25.940625 22.303125,25.70625 L22.3125,25.70625 C23.221875,25.275 24.196875,25.003125 25.2,24.88125 C25.33125,24.853125 25.4625,24.84375 25.603125,24.834375 C25.865625,24.80625 26.128125,24.80625 26.4,24.80625 C26.671875,24.80625 26.934375,24.815625 27.196875,24.834375 C28.340625,24.928125 29.446875,25.21875 30.4875,25.70625 L30.496875,25.70625 C31.490625,26.19375 32.4,26.83125 33.1875,27.609375 C33.590625,28.0125 33.965625,28.453125 34.29375,28.921875 C34.603125,29.3625 34.865625,29.821875 35.1,30.309375 L35.1,30.31875 C35.5875,31.35 35.878125,32.465625 35.971875,33.609375 C35.990625,33.8625 36,34.125 36,34.396875 Z" id="Shape" fill="#C2D6E1"></path>
                <path d="M33.6,34.396875 C33.6,34.66875 33.590625,34.93125 33.571875,35.19375 C33.478125,36.3375 33.1875,37.44375 32.7,38.484375 L32.7,38.49375 C32.2125,39.4875 31.575,40.396875 30.796875,41.184375 C30.39375,41.5875 29.953125,41.9625 29.484375,42.290625 C29.04375,42.6 28.584375,42.8625 28.096875,43.096875 L28.0875,43.096875 C27.178125,43.528125 26.203125,43.8 25.2,43.921875 C24.196875,43.8 23.221875,43.528125 22.3125,43.096875 L22.303125,43.096875 C21.309375,42.609375 20.4,41.971875 19.6125,41.19375 C18.825,40.40625 18.178125,39.496875 17.7,38.49375 C17.2125,37.4625 16.921875,36.346875 16.828125,35.203125 C16.8,34.940625 16.8,34.678125 16.8,34.40625 C16.8,34.134375 16.809375,33.871875 16.828125,33.609375 C16.921875,32.465625 17.2125,31.359375 17.7,30.31875 C18.178125,29.325 18.825,28.40625 19.603125,27.61875 C20.00625,27.215625 20.446875,26.840625 20.915625,26.5125 C21.35625,26.203125 21.815625,25.940625 22.303125,25.70625 L22.3125,25.70625 C23.221875,25.275 24.196875,25.003125 25.2,24.88125 C26.203125,25.003125 27.178125,25.275 28.0875,25.70625 L28.096875,25.70625 C29.090625,26.19375 30,26.83125 30.7875,27.609375 C31.190625,28.0125 31.565625,28.453125 31.89375,28.921875 C32.203125,29.3625 32.465625,29.821875 32.7,30.309375 L32.7,30.31875 C33.1875,31.35 33.478125,32.465625 33.571875,33.609375 C33.590625,33.8625 33.6,34.125 33.6,34.396875 Z" id="Shape" fill="#FFFFFF"></path>
                <g id="Group" transform="translate(0.000000, 0.750000)" fill="#FFFFFF">
                    <path d="M2.4,39.253125 L4.8,39.253125 C3.91875,39.253125 3.20625,38.53125 3.196875,37.65 L3.196875,1.65 C3.196875,0.76875 3.91875,0.05625 4.8,0.046875 L2.4,0.046875 C1.51875,0.046875 0.80625,0.76875 0.796875,1.65 L0.796875,37.65 C0.80625,38.53125 1.51875,39.24375 2.4,39.253125 Z" id="Shape"></path>
                    <polygon id="Shape" points="0 37.65 0 27.253125 0 1.65 1.603125 1.65 1.603125 27.253125 1.603125 37.65"></polygon>
                </g>
                <g id="Group" fill="#4AC2FF">
                    <path d="M0.496875,32.7375 C0.54375,32.75625 0.590625,32.775 0.6375,32.784375 C0.69375,32.79375 0.740625,32.803125 0.796875,32.803125 C1.0125,32.803125 1.209375,32.71875 1.36875,32.56875 C1.44375,32.49375 1.5,32.4 1.5375,32.30625 C1.659375,32.00625 1.59375,31.66875 1.36875,31.434375 C1.29375,31.359375 1.2,31.303125 1.10625,31.265625 C1.0125,31.228125 0.909375,31.2 0.80625,31.2 C0.590625,31.2 0.39375,31.284375 0.234375,31.434375 C-0.075,31.753125 -0.075,32.259375 0.234375,32.56875 L0.35625,32.6625 C0.39375,32.690625 0.440625,32.71875 0.496875,32.7375 Z" id="Shape"></path>
                    <path d="M45.6,0 L2.4,0 C1.078125,0 0,1.078125 0,2.4 L0,28.8 C0,29.240625 0.35625,29.596875 0.796875,29.596875 C1.2375,29.596875 1.59375,29.240625 1.59375,28.8 L1.59375,6.403125 L4.790625,6.403125 L4.790625,39.20625 L2.4,39.20625 C1.959375,39.20625 1.603125,38.85 1.603125,38.409375 L1.603125,35.2125 C1.603125,34.771875 1.246875,34.415625 0.80625,34.415625 C0.365625,34.415625 0,34.7625 0,35.203125 L0,38.4 C0,39.721875 1.078125,40.8 2.4,40.8 L14.409375,40.8 C16.771875,45.234375 21.375,48 26.4,48 C31.425,48 36.028125,45.234375 38.390625,40.8 L45.6,40.8 C46.921875,40.8 48,39.721875 48,38.4 L48,2.4 C48,1.078125 46.921875,0 45.6,0 Z M46.396875,2.4 L46.396875,4.8 L6.403125,4.8 L6.403125,1.603125 L45.6,1.603125 C46.040625,1.603125 46.396875,1.959375 46.396875,2.4 Z M1.603125,4.8 L1.603125,2.4 C1.603125,1.959375 1.959375,1.603125 2.4,1.603125 L4.8,1.603125 L4.8,4.8 C4.8,4.8 1.603125,4.8 1.603125,4.8 Z M26.4,46.396875 C19.771875,46.396875 14.4,41.025 14.4,34.396875 C14.4,27.76875 19.771875,22.396875 26.4,22.396875 C33.028125,22.396875 38.4,27.76875 38.4,34.396875 C38.390625,41.025 33.028125,46.396875 26.4,46.396875 Z M22.396875,20.803125 L22.396875,17.60625 L30.39375,17.60625 L30.39375,20.803125 L22.396875,20.803125 Z M45.6,39.196875 L39.1125,39.196875 C41.7375,32.334375 38.4,24.628125 31.6125,21.834375 C31.865625,21.54375 32.00625,21.178125 32.00625,20.79375 L32.00625,17.596875 C32.00625,16.715625 31.29375,15.99375 30.403125,15.99375 L22.40625,15.99375 C21.525,15.99375 20.803125,16.70625 20.803125,17.596875 L20.803125,20.79375 C20.803125,21.178125 20.94375,21.54375 21.196875,21.834375 C14.4,24.628125 11.071875,32.334375 13.696875,39.196875 L6.403125,39.196875 L6.403125,6.403125 L46.40625,6.403125 L46.40625,38.4 C46.396875,38.840625 46.040625,39.196875 45.6,39.196875 Z" id="Shape"></path>
                    <path d="M17.596875,7.996875 L9.6,7.996875 C8.71875,7.996875 7.996875,8.709375 7.996875,9.6 L7.996875,12.796875 C7.996875,13.678125 8.709375,14.4 9.6,14.4 L17.596875,14.4 C18.478125,14.4 19.2,13.6875 19.2,12.796875 L19.2,9.6 C19.2,8.71875 18.4875,7.996875 17.596875,7.996875 Z M9.6,12.796875 L9.6,9.6 L17.596875,9.6 L17.596875,12.796875 L9.6,12.796875 Z" id="Shape"></path>
                    <path d="M30.403125,7.996875 L22.40625,7.996875 C21.525,7.996875 20.803125,8.709375 20.803125,9.6 L20.803125,12.796875 C20.803125,13.678125 21.515625,14.4 22.40625,14.4 L30.403125,14.4 C31.284375,14.4 32.00625,13.6875 32.00625,12.796875 L32.00625,9.6 C31.996875,8.71875 31.284375,7.996875 30.403125,7.996875 Z M22.396875,12.796875 L22.396875,9.6 L30.39375,9.6 L30.39375,12.796875 L22.396875,12.796875 Z" id="Shape"></path>
                    <path d="M43.2,7.996875 L35.203125,7.996875 C34.321875,7.996875 33.6,8.709375 33.6,9.6 L33.6,12.796875 C33.6,13.678125 34.3125,14.4 35.203125,14.4 L43.2,14.4 C44.08125,14.4 44.803125,13.6875 44.803125,12.796875 L44.803125,9.6 C44.803125,8.71875 44.08125,7.996875 43.2,7.996875 Z M35.203125,12.796875 L35.203125,9.6 L43.2,9.6 L43.2,12.796875 L35.203125,12.796875 Z" id="Shape"></path>
                    <path d="M17.596875,16.003125 L9.6,16.003125 C8.71875,16.003125 7.996875,16.715625 7.996875,17.60625 L7.996875,20.803125 C7.996875,21.684375 8.709375,22.40625 9.6,22.40625 L17.596875,22.40625 C18.478125,22.40625 19.2,21.69375 19.2,20.803125 L19.2,17.60625 C19.2,16.715625 18.4875,16.003125 17.596875,16.003125 Z M9.6,20.803125 L9.6,17.60625 L17.596875,17.60625 L17.596875,20.803125 L9.6,20.803125 Z" id="Shape"></path>
                    <path d="M43.2,16.003125 L35.203125,16.003125 C34.321875,16.003125 33.6,16.715625 33.6,17.60625 L33.6,20.803125 C33.6,21.684375 34.3125,22.40625 35.203125,22.40625 L43.2,22.40625 C44.08125,22.40625 44.803125,21.69375 44.803125,20.803125 L44.803125,17.60625 C44.803125,16.715625 44.08125,16.003125 43.2,16.003125 Z M35.203125,20.803125 L35.203125,17.60625 L43.2,17.60625 L43.2,20.803125 L35.203125,20.803125 Z" id="Shape"></path>
                    <path d="M14.4,24 L9.6,24 C8.71875,24 7.996875,24.7125 7.996875,25.603125 L7.996875,28.8 C7.996875,29.68125 8.709375,30.403125 9.6,30.403125 L11.203125,30.403125 C11.64375,30.403125 12,30.046875 12,29.60625 C12,29.165625 11.64375,28.809375 11.203125,28.809375 L9.6,28.809375 L9.6,25.6125 L14.4,25.6125 C14.840625,25.6125 15.196875,25.25625 15.196875,24.815625 C15.196875,24.375 14.840625,24 14.4,24 Z" id="Shape"></path>
                    <path d="M43.2,24 L38.4,24 C37.959375,24 37.603125,24.35625 37.603125,24.796875 C37.603125,25.2375 37.959375,25.59375 38.4,25.59375 L43.2,25.59375 L43.2,28.790625 L41.596875,28.790625 C41.15625,28.790625 40.8,29.146875 40.8,29.5875 C40.8,30.028125 41.15625,30.384375 41.596875,30.384375 L43.2,30.384375 C44.08125,30.384375 44.803125,29.671875 44.803125,28.78125 L44.803125,25.584375 C44.803125,24.7125 44.08125,24 43.2,24 Z" id="Shape"></path>
                    <path d="M28.003125,33.6 L27.20625,33.6 L27.20625,30.403125 C27.20625,29.9625 26.85,29.60625 26.409375,29.60625 C25.96875,29.60625 25.6125,29.9625 25.6125,30.403125 L25.6125,34.40625 C25.6125,34.846875 25.96875,35.203125 26.409375,35.203125 L28.0125,35.203125 C28.453125,35.203125 28.809375,34.846875 28.809375,34.40625 C28.809375,33.965625 28.44375,33.6 28.003125,33.6 Z" id="Shape"></path>
                    <path d="M35.41875,39.571875 C37.265625,36.375 37.265625,32.428125 35.41875,29.23125 C35.409375,29.221875 35.409375,29.2125 35.409375,29.203125 C35.4,29.19375 35.390625,29.184375 35.38125,29.175 C34.48125,27.61875 33.1875,26.315625 31.63125,25.425 C31.621875,25.415625 31.6125,25.40625 31.603125,25.396875 C31.59375,25.3875 31.584375,25.3875 31.575,25.3875 C28.378125,23.540625 24.43125,23.540625 21.234375,25.3875 C21.225,25.396875 21.215625,25.396875 21.20625,25.396875 C21.196875,25.396875 21.1875,25.415625 21.178125,25.425 C19.621875,26.325 18.31875,27.61875 17.428125,29.175 C17.41875,29.184375 17.409375,29.19375 17.4,29.203125 C17.390625,29.2125 17.390625,29.221875 17.390625,29.23125 C15.54375,32.428125 15.54375,36.375 17.390625,39.571875 C17.4,39.58125 17.4,39.590625 17.4,39.6 C17.409375,39.61875 17.41875,39.628125 17.4375,39.646875 C18.3375,41.203125 19.621875,42.4875 21.178125,43.3875 C21.1875,43.396875 21.196875,43.40625 21.20625,43.415625 C21.215625,43.425 21.234375,43.425 21.24375,43.434375 C24.440625,45.271875 28.36875,45.271875 31.55625,43.434375 C31.575,43.425 31.584375,43.425 31.603125,43.415625 C31.6125,43.40625 31.621875,43.396875 31.63125,43.3875 C33.1875,42.496875 34.48125,41.203125 35.371875,39.646875 C35.38125,39.628125 35.4,39.61875 35.409375,39.6 C35.41875,39.58125 35.409375,39.58125 35.41875,39.571875 Z M31.471875,41.5875 L31.096875,40.93125 C30.95625,40.678125 30.69375,40.528125 30.403125,40.528125 C30.1125,40.528125 29.85,40.678125 29.709375,40.93125 C29.56875,41.184375 29.56875,41.484375 29.709375,41.7375 L30.084375,42.39375 C29.175,42.815625 28.2,43.078125 27.196875,43.171875 L27.196875,42.4125 C27.196875,41.971875 26.840625,41.615625 26.4,41.615625 C25.959375,41.615625 25.603125,41.971875 25.603125,42.4125 L25.603125,43.171875 C24.6,43.078125 23.625,42.815625 22.715625,42.39375 L23.090625,41.7375 C23.30625,41.353125 23.175,40.865625 22.790625,40.65 C22.40625,40.434375 21.91875,40.55625 21.703125,40.940625 L21.328125,41.596875 C20.915625,41.30625 20.53125,40.9875 20.175,40.640625 C19.81875,40.284375 19.5,39.9 19.21875,39.4875 L19.875,39.1125 C20.25,38.8875 20.38125,38.4 20.165625,38.025 C19.95,37.640625 19.4625,37.509375 19.078125,37.725 L18.421875,38.1 C18,37.190625 17.7375,36.215625 17.64375,35.2125 L18.403125,35.2125 C18.84375,35.2125 19.2,34.85625 19.2,34.415625 C19.2,33.975 18.84375,33.61875 18.403125,33.61875 L17.64375,33.61875 C17.7375,32.615625 18,31.640625 18.421875,30.73125 L19.078125,31.10625 C19.321875,31.246875 19.63125,31.25625 19.884375,31.10625 C20.1375,30.965625 20.2875,30.69375 20.2875,30.4125 C20.2875,30.13125 20.128125,29.859375 19.884375,29.71875 L19.228125,29.34375 C19.51875,28.93125 19.8375,28.546875 20.184375,28.190625 C20.540625,27.834375 20.925,27.515625 21.3375,27.234375 L21.7125,27.890625 C21.9375,28.265625 22.425,28.396875 22.8,28.18125 C23.184375,27.965625 23.315625,27.478125 23.1,27.09375 L22.725,26.4375 C23.634375,26.015625 24.609375,25.753125 25.6125,25.659375 L25.6125,26.41875 C25.6125,26.859375 25.96875,27.215625 26.409375,27.215625 C26.85,27.215625 27.20625,26.859375 27.20625,26.41875 L27.20625,25.659375 C28.209375,25.753125 29.184375,26.015625 30.09375,26.4375 L29.71875,27.09375 C29.578125,27.3375 29.56875,27.646875 29.71875,27.9 C29.859375,28.153125 30.13125,28.303125 30.4125,28.303125 C30.69375,28.303125 30.965625,28.14375 31.10625,27.9 L31.48125,27.24375 C31.89375,27.534375 32.278125,27.853125 32.634375,28.2 C32.990625,28.55625 33.309375,28.940625 33.590625,29.353125 L32.934375,29.728125 C32.68125,29.86875 32.53125,30.13125 32.53125,30.421875 C32.53125,30.7125 32.68125,30.975 32.934375,31.115625 C33.1875,31.25625 33.4875,31.25625 33.740625,31.115625 L34.396875,30.740625 C34.81875,31.65 35.08125,32.625 35.175,33.628125 L34.415625,33.628125 C33.975,33.628125 33.61875,33.984375 33.61875,34.425 C33.61875,34.865625 33.975,35.221875 34.415625,35.221875 L35.175,35.221875 C35.08125,36.225 34.81875,37.2 34.396875,38.109375 L33.740625,37.734375 C33.35625,37.51875 32.86875,37.65 32.653125,38.034375 C32.4375,38.41875 32.559375,38.90625 32.94375,39.121875 L33.6,39.496875 C33.309375,39.909375 32.990625,40.29375 32.64375,40.65 C32.26875,40.978125 31.884375,41.296875 31.471875,41.5875 Z" id="Shape"></path>
                </g>
            </g>
        </g>
    </g>
</svg>