<?xml version="1.0" encoding="UTF-8"?>
<svg width="96px" height="96px" viewBox="0 0 96 96" version="1.1" xmlns="http://www.w3.org/2000/svg" xmlns:xlink="http://www.w3.org/1999/xlink">
    <!-- Generator: sketchtool 52.2 (67145) - http://www.bohemiancoding.com/sketch -->
    <title>61C1883E-367E-4600-99E4-50ACB854D145</title>
    <desc>Created with sketchtool.</desc>
    <defs>
        <linearGradient x1="50%" y1="-10.4546441%" x2="50%" y2="160.064019%" id="linearGradient-1">
            <stop stop-color="#4AC2FF" offset="0%"></stop>
            <stop stop-color="#4BB7FF" stop-opacity="0" offset="100%"></stop>
        </linearGradient>
    </defs>
    <g id="01.-Index-Page" stroke="none" stroke-width="1" fill="none" fill-rule="evenodd" stroke-linecap="round" stroke-linejoin="round">
        <g id="bba/-web-1-/-00-landing-design" transform="translate(-750.000000, -468.000000)">
            <g id="1.-Title">
                <g id="for" transform="translate(200.000000, 331.000000)">
                    <g id="#5" transform="translate(520.000000, 137.000000)">
                        <g id="Home" transform="translate(30.000000, 0.000000)">
                            <g id="Group-15">
                                <polygon id="Home" stroke="#89969F" stroke-width="4" points="86 15 107.955412 34.8970921 118 44 108 44 108 77.9042 64 77.9042 64 44 54 44"></polygon>
                                <path d="M36.5887172,28 C41.2047648,33.288499 44,40.1998051 44,47.7612086 C44,55.5536062 41.0317729,62.6539961 36.1625904,68 M25.8902963,38.9449318 C27.9808587,41.3396686 29.2465334,44.4683236 29.2465334,47.8923002 C29.2465334,51.4195906 27.9026703,54.6349903 25.6977574,57.0550682 M12.95471,49.9498051 C11.8750585,49.9498051 11,49.0765107 11,48.0004873 C11,46.9238142 11.8750585,46.0511696 12.95471,46.0511696 C14.0343614,46.0511696 14.9094199,46.9238142 14.9094199,48.0004873 C14.9094199,49.0765107 14.0343614,49.9498051 12.95471,49.9498051" id="Signal" stroke="url(#linearGradient-1)" stroke-width="4.44445527"></path>
                            </g>
                        </g>
                    </g>
                </g>
            </g>
        </g>
    </g>
</svg>