<?xml version="1.0" encoding="UTF-8"?>
<svg width="96px" height="96px" viewBox="0 0 96 96" version="1.1" xmlns="http://www.w3.org/2000/svg" xmlns:xlink="http://www.w3.org/1999/xlink">
    <!-- Generator: sketchtool 52.2 (67145) - http://www.bohemiancoding.com/sketch -->
    <title>666FE030-9BE9-4714-BC61-03835429A65C</title>
    <desc>Created with sketchtool.</desc>
    <defs>
        <linearGradient x1="66.1820023%" y1="0%" x2="66.1820023%" y2="135.558712%" id="linearGradient-1">
            <stop stop-color="#4AC2FF" offset="0%"></stop>
            <stop stop-color="#4BB7FF" stop-opacity="0" offset="100%"></stop>
        </linearGradient>
    </defs>
    <g id="01.-Index-Page" stroke="none" stroke-width="1" fill="none" fill-rule="evenodd">
        <g id="bba/-web-1-/-00-landing-design" transform="translate(-433.000000, -556.000000)" fill-rule="nonzero">
            <g id="1.-Title">
                <g id="for" transform="translate(200.000000, 331.000000)">
                    <g id="#3" transform="translate(233.000000, 205.000000)">
                        <g id="Group-9" transform="translate(0.000000, 20.000000)">
                            <g id="Group-13">
                                <rect id="Rectangle-3" stroke="#D3D9DD" stroke-width="4" opacity="0.556305804" transform="translate(69.500000, 48.500000) rotate(-90.000000) translate(-69.500000, -48.500000) " x="28" y="18" width="83" height="61" rx="7"></rect>
                                <path d="M16,15 L16,16.5 C16,17.8807119 17.1192881,19 18.5,19 L33.5,19 C34.8807119,19 36,17.8807119 36,16.5 L36,15 L38,15 C41.3137085,15 44,18.4474074 44,22.7 L44,73.3 C44,77.5525926 41.3137085,81 38,81 L14,81 C10.6862915,81 8,77.5525926 8,73.3 L8,22.7 C8,18.4474074 10.6862915,15 14,15 L16,15 Z" id="Combined-Shape" fill="url(#linearGradient-1)"></path>
                            </g>
                        </g>
                    </g>
                </g>
            </g>
        </g>
    </g>
</svg>