<?xml version="1.0" encoding="UTF-8"?>
<svg width="48px" height="48px" viewBox="0 0 48 48" version="1.1" xmlns="http://www.w3.org/2000/svg" xmlns:xlink="http://www.w3.org/1999/xlink">
    <!-- Generator: sketchtool 52.2 (67145) - http://www.bohemiancoding.com/sketch -->
    <title>73D446B6-2DDF-4AD8-A67C-611C9901C162</title>
    <desc>Created with sketchtool.</desc>
    <g id="Symbols" stroke="none" stroke-width="1" fill="none" fill-rule="evenodd">
        <g id="ic-/-product-growth" fill-rule="nonzero">
            <g id="Group">
                <g transform="translate(0.000000, 2.380952)">
                    <g transform="translate(2.380952, 18.666667)" fill="#C2D6E1" id="Shape">
                        <path d="M1.94095238,0.06 L5.62085714,0.06 L5.62085714,12.85 L1.94095238,12.85 C0.882857143,12.85 0.0251428571,11.9922857 0.0251428571,10.9341905 L0.0251428571,1.97571429 C0.0251428571,0.917714286 0.882857143,0.06 1.94095238,0.06 Z"></path>
                        <path d="M31.2008571,26.1155238 L12.0158095,26.1155238 C12.0158095,23.2617143 15.6769524,20.903619 20.4092381,20.5679048 C20.8009524,20.5359048 21.2005714,20.5199048 21.6082857,20.5199048 C26.9081905,20.5199048 31.2008571,23.0219048 31.2008571,26.1155238 Z"></path>
                    </g>
                    <path d="M31.183619,44.7821905 L14.3967619,44.7821905 C14.3967619,41.928381 18.0579048,39.5702857 22.7901905,39.2345714 C27.5224762,39.5702857 31.183619,41.9284762 31.183619,44.7821905 Z" id="Shape" fill="#C2D6E1"></path>
                    <path d="M14.3967619,18.7266667 L16.8919048,21.2218095 C17.341619,21.6715238 17.951619,21.9241905 18.587619,21.9241905 L21.5911429,21.9241905 C22.915619,21.9241905 23.9892381,22.9979048 23.9892381,24.3222857 C23.9892381,25.6466667 22.9155238,26.720381 21.5911429,26.720381 L16.9888571,26.720381 C16.3528571,26.720381 15.7428571,26.4677143 15.2931429,26.018 L8.00171429,18.7266667 L14.3967619,18.7266667 Z" id="Shape" fill="#C2D6E1"></path>
                    <path d="M23.9892381,24.3261905 C23.9872381,25.6498095 22.9147619,26.7222857 21.5911429,26.7242857 L19.1930476,26.7242857 C20.5175238,26.7242857 21.5911429,25.6505714 21.5911429,24.3261905 C21.5911429,23.0018095 20.5174286,21.9280952 19.1930476,21.9280931 L21.5911429,21.9280952 C22.2274286,21.9272381 22.8379048,22.179619 23.2878095,22.6295238 C23.7377143,23.0794286 23.9900952,23.6899048 23.9892381,24.3261905 Z" id="Shape" fill="#C2D6E1"></path>
                    <g transform="translate(8.000000, 18.666667)" fill="#C2D6E1" id="Shape">
                        <path d="M6.3967619,12.71 L6.3967619,23.2458095 C6.3952381,24.8300952 5.11133333,26.114 3.52704762,26.1155238 L2.87152381,26.1155238 C1.2872381,26.114 0.00333333333,24.8300952 0.00180952381,23.2458095 L0.00180952381,12.71 L6.3967619,12.71 Z"></path>
                        <polygon points="6.3967619 6.45885714 6.3967619 12.71 0.00171428571 12.71 0.00171428571 0.0639047619"></polygon>
                    </g>
                    <path d="M42.3748571,3.95009524 L36.7792381,3.95009524 L36.7792381,0.752571429 C36.7607619,0.329142857 36.4033333,0.000285714286 35.9799048,0.0171428571 L24.7886667,0.0171428571 C24.3651429,0.000285714286 24.0077143,0.329142857 23.9893333,0.752571429 L23.9893333,6.47609524 C24.0078095,6.89952381 24.3652381,7.22828571 24.7886667,7.21152381 L31.1837143,7.21152381 L31.1837143,11.208381 C31.1818095,11.4304762 31.2748571,11.6428571 31.4395238,11.7919048 C31.586381,11.9308571 31.7809524,12.0080952 31.9831429,12.0077143 L42.3750476,12.0077143 C42.816,12.006381 43.1731429,11.6492381 43.174381,11.208381 L43.174381,4.74952381 C43.1729524,4.30857143 42.8158095,3.95142857 42.3748571,3.95009524 Z" id="Shape" fill="#C2D6E1"></path>
                    <path d="M36.7792381,0.752571429 L36.7792381,7.21152381 L24.7886667,7.21152381 C24.3651429,7.22828571 24.0078095,6.89952381 23.9893333,6.47609524 L23.9893333,0.752571429 C24.0078095,0.329142857 24.3651429,0.000285714286 24.7886667,0.0171428571 L35.9799048,0.0171428571 C36.4034286,0.000380952381 36.7607619,0.329142857 36.7792381,0.752571429 Z" id="Shape" fill="#C2D6E1"></path>
                    <path d="M43.1742857,4.74952381 L43.1742857,11.2084762 C43.1729524,11.6494286 42.8158095,12.0065714 42.3749524,12.0078095 L31.9830476,12.0078095 C31.7808571,12.0081905 31.5862857,11.9309524 31.4394286,11.792 L36.7792381,7.21161905 L36.7792381,3.95009524 L42.3748571,3.95009524 C42.8158095,3.95142857 43.1729524,4.30857143 43.1742857,4.74952381 Z" id="Shape" fill="#C2D6E1"></path>
                    <path d="M40.7760952,4.74952381 L40.7760952,11.2084762 C40.7747619,11.6494286 40.417619,12.0065714 39.9767619,12.0078095 L31.9830476,12.0078095 C31.7808571,12.0081905 31.5862857,11.9309524 31.4394286,11.792 L36.7792381,7.21161905 L36.7792381,3.95009524 L39.9767619,3.95009524 C40.4177143,3.95142857 40.7748571,4.30857143 40.7760952,4.74952381 Z" id="Shape" fill="#C2D6E1"></path>
                    <path d="M18.393619,11.4721905 C18.3938095,13.4165714 17.6071429,15.278381 16.2127619,16.6335238 C14.818381,17.9887619 12.9350476,18.722 10.9913333,18.6664762 C7.19647619,18.5168571 4.15447619,15.4747619 4.0047619,11.6799048 C3.89285714,7.79495238 6.88771429,4.524 10.7675238,4.29371429 C10.9114286,4.28571429 11.0553333,4.27771429 11.1991429,4.27771429 L11.1991429,9.87333333 C11.1990476,10.2974286 11.3674286,10.7040952 11.6672381,11.004 C11.9670476,11.3038095 12.3738095,11.4722857 12.7979048,11.4720952 L18.393619,11.4720952 L18.393619,11.4721905 Z" id="Shape" fill="#C2D6E1"></path>
                    <path d="M11.1992381,4.28047619 L11.1992381,9.87619048 C11.1992381,10.7591429 11.9150476,11.4749524 12.798,11.4749524 L18.393619,11.4749524 C18.393619,7.50152381 15.1725714,4.28047619 11.1992381,4.28047619 Z" id="Shape" fill="#F8FDFF"></path>
                    <path d="M47.1711429,45.581619 L0.807333333,45.581619 C0.365809524,45.581619 0.008,45.2237143 0.008,44.7822857 C0.008,44.3407619 0.365904762,43.9829524 0.807333333,43.9829524 L47.1711429,43.9829524 C47.6126667,43.9829524 47.9704762,44.3408571 47.9704762,44.7822857 C47.9704762,45.2237143 47.6126667,45.581619 47.1711429,45.581619 Z" id="Shape" fill="#4AC2FF"></path>
                    <g transform="translate(9.523810, 4.000000)" id="Shape">
                        <path d="M8.07047619,7.20847619 C8.07047619,7.29638095 8.07047619,7.38438095 8.06247619,7.47228571 L6.46371429,7.47228571 C6.47171429,7.38438095 6.47171429,7.29638095 6.47171429,7.20847619 C6.47447619,4.15971429 4.55142857,1.44171429 1.67542857,0.429809524 L1.67542857,0.277904762 C1.53152381,0.277904762 1.38761905,0.285904762 1.24380952,0.293904762 C0.862952381,0.179904762 0.472190476,0.102285714 0.0767619048,0.0620952381 C0.342,0.0299047619 0.608952381,0.0139047619 0.876095238,0.0140952381 C4.8492381,0.0143809524 8.07009524,3.2352381 8.07047619,7.20847619 Z" fill="#C2D6E1"></path>
                        <path d="M1.67542857,0.429714286 C1.53514286,0.373619048 1.39085714,0.328190476 1.24380952,0.293809524 C1.38771429,0.285809524 1.53161905,0.277809524 1.67542857,0.277809524 L1.67542857,0.429714286 Z" fill="#A4C2F7"></path>
                        <path d="M8.86980952,7.47219048 C8.86980952,12.804 4.76104762,14.4027619 0.876095238,14.4027619 C0.608952381,14.4029524 0.342,14.3869524 0.0767619048,14.3547619 C3.61714286,13.9602857 6.33447619,11.0320952 6.46380952,7.47209524 L8.86980952,7.47209524 L8.86980952,7.47219048 Z" fill="#C2D6E1"></path>
                    </g>
                </g>
                <g transform="translate(0.000000, 2.380952)" fill="#FFFFFF">
                    <path d="M10.3999048,41.9284762 L10.3999048,31.5326667 L8.00180952,31.5326667 L8.00180952,41.9284762 C8.00266667,42.7117143 8.3252381,43.4602857 8.894,43.9988571 L11.2920952,43.9988571 C10.7233333,43.4602857 10.4007619,42.7117143 10.3999048,41.9284762 Z" id="Shape"></path>
                    <path d="M2.40609524,20.658381 L2.40609524,29.6168571 C2.40609524,30.6749524 3.26380952,31.5326667 4.32190476,31.5326667 L6.72,31.5326667 C5.66190476,31.5326667 4.80419048,30.6749524 4.80419048,29.6168571 L4.80419048,20.658381 C4.80419048,19.600381 5.66190476,18.7426667 6.72,18.7426667 L4.32190476,18.7426667 C3.26390476,18.7426667 2.40609524,19.6002857 2.40609524,20.658381 Z" id="Shape"></path>
                    <path d="M4.00485714,11.6960952 C4.06285714,13.782381 5.02457143,15.740381 6.64019048,17.0615238 C8.25580952,18.3826667 10.3658095,18.9365714 12.4220952,18.5792381 C9.04733333,17.9847619 6.54209524,15.12 6.40295238,11.6960952 C6.29914286,8.0412381 8.95457143,4.89047619 12.5740952,4.37371429 C11.8714286,4.14733333 11.138,4.03142857 10.3998095,4.03009524 C10.1326667,4.02990476 9.86571429,4.04590476 9.60047619,4.07809524 C9.996,4.11828571 10.3867619,4.19590476 10.7675238,4.30990476 C6.88790476,4.54009524 3.89304762,7.81114286 4.00485714,11.6960952 Z" id="Shape"></path>
                    <path d="M27.1867619,0.0331428571 L24.7886667,0.0331428571 C24.3651429,0.0162857143 24.0077143,0.345142857 23.9893333,0.768571429 L23.9893333,6.49209524 C24.0078095,6.91552381 24.3652381,7.24428571 24.7886667,7.22752381 L27.1867619,7.22752381 C26.7632381,7.24428571 26.4059048,6.91552381 26.3874286,6.49209524 L26.3874286,0.768571429 C26.4058095,0.345142857 26.7632381,0.0162857143 27.1867619,0.0331428571 Z" id="Shape"></path>
                    <path d="M2.40609524,44.7981905 C2.406,44.5861905 2.49028571,44.3828571 2.64019048,44.2328571 C2.79009524,44.0829524 2.99342857,43.9987619 3.20552381,43.9987619 L0.807333333,43.9987619 C0.365809524,43.9987619 0.008,44.3566667 0.008,44.7980952 C0.008,45.239619 0.365904762,45.5974286 0.807333333,45.5974286 L3.20542857,45.5974286 C2.99342857,45.5975238 2.79009524,45.5132381 2.64009524,45.3633333 C2.49028571,45.2135238 2.40609524,45.0101905 2.40609524,44.7981905 Z" id="Shape"></path>
                </g>
                <g>
                    <polygon id="Shape" fill="#FFFFFF" points="7.20238095 44.2894286 7.20238095 33.8975238 7.20238095 21.1075238 8.80114286 21.1075238 8.80114286 33.8975238 8.80114286 44.2894286"></polygon>
                    <g fill="#4AC2FF" id="Shape">
                        <path d="M47.1711429,46.3638095 L34.2954286,46.3638095 C33.7046667,43.3297143 29.7948571,41.0172381 24.7885714,40.7922857 L24.7885714,10.3919048 L30.3841905,10.3919048 L30.3841905,13.5894286 C30.3852381,14.472 31.100381,15.1871429 31.9829524,15.1881905 L42.3748571,15.1881905 C43.2574286,15.1871429 43.9725714,14.472 43.973619,13.5894286 L43.973619,7.13266667 C43.9725714,6.25009524 43.2574286,5.53495238 42.3748571,5.53390476 L37.5785714,5.53390476 L37.5785714,3.13580952 C37.5600952,2.27047619 36.8451429,1.58314286 35.9798095,1.5987619 L24.7886667,1.5987619 L24.7886667,0.799333333 C24.7886667,0.357809524 24.4307619,0 23.9893333,0 C23.5478095,0 23.19,0.357904762 23.19,0.799333333 L23.19,23.9505714 C22.7061905,23.6625714 22.1542857,23.5090476 21.5912381,23.5058095 L18.5873333,23.5058095 C18.1635238,23.5046667 17.7573333,23.336381 17.4569524,23.0374286 L15.2297143,20.8101905 C15.7890476,20.4849524 16.3069524,20.0934286 16.772381,19.644 C18.8385714,17.6344762 19.6629524,14.6682857 18.93,11.8808571 C18.1970476,9.09342857 16.0201905,6.91638095 13.2328571,6.18314286 C10.4455238,5.44990476 7.47904762,6.274 5.46933333,8.34 C3.95733333,9.88447619 3.14085714,11.9790476 3.20866667,14.1393333 C3.29942857,16.5853333 4.50057143,18.8564762 6.47114286,20.308381 L4.32180952,20.308381 C2.82295238,20.31 1.60828571,21.5245714 1.6067619,23.0234286 L1.6067619,31.981619 C1.60828571,33.4805714 2.82285714,34.6953333 4.32180952,34.6971429 L7.20238095,34.6971429 C7.20580952,35.1361905 7.5627619,35.4902857 8.00180952,35.4902857 C8.44085714,35.4902857 8.79771429,35.1360952 8.80104762,34.6970476 L8.80104762,34.5579048 L13.5973333,34.5579048 L13.5973333,44.2897143 C13.596,45.4346667 12.6681905,46.3625714 11.5231429,46.3639048 L10.8752381,46.3639048 C9.73028571,46.3625714 8.80238095,45.4347619 8.80104762,44.2897143 L8.80095238,44.289619 L8.80104762,44.289619 L8.80104762,41.0920952 C8.80104762,40.6505714 8.44314286,40.2927619 8.00171429,40.2927619 C7.56019048,40.2927619 7.20238095,40.6506667 7.20238095,41.0920952 L7.20238095,44.289619 L7.20247619,44.289619 L7.20238095,44.2897143 C7.20219048,45.0306667 7.42761905,45.7541905 7.84866667,46.3639048 L0.807333333,46.3639048 C0.365809524,46.3639048 0.008,46.7218095 0.008,47.1632381 C0.008,47.6047619 0.365904762,47.9625714 0.807333333,47.9625714 L47.1711429,47.9625714 C47.6126667,47.9625714 47.9704762,47.6046667 47.9704762,47.1632381 C47.9704762,46.7217143 47.6126667,46.3638095 47.1711429,46.3638095 Z M15.1960952,43.7202857 L15.1960952,29.3472381 C15.7253333,29.705619 16.3492381,29.898381 16.9884762,29.9007619 L21.5911429,29.9007619 C22.1541905,29.8975238 22.7060952,29.744 23.1899048,29.4560952 L23.1899048,40.7921905 C19.7842857,40.9452381 16.8887619,42.0638095 15.1960952,43.7202857 Z M34.62,10.3919048 L31.9829524,12.6538095 L31.9829524,10.3919048 L34.62,10.3919048 Z M42.3748571,7.13266667 L42.3748571,13.5893333 L33.3477143,13.5893333 L37.3,10.1990476 C37.3090476,10.1912381 37.3140952,10.1806667 37.3226667,10.1725714 C37.3866667,10.1030476 37.442381,10.026381 37.4886667,9.944 C37.502381,9.91657143 37.5144762,9.88828571 37.5248571,9.85933333 C37.5497143,9.78914286 37.5644762,9.71580952 37.5688571,9.64152381 C37.5699048,9.62447619 37.5786667,9.60990476 37.5786667,9.59257143 L37.5786667,7.13266667 L42.3748571,7.13266667 Z M35.9799048,3.13580952 L35.9799048,8.79314286 L31.183619,8.79314286 C31.1338095,8.79819048 31.0846667,8.80809524 31.0368571,8.8227619 L24.7886667,8.85485714 L24.7886667,3.19752381 L35.9799048,3.13580952 Z M18.5872381,25.1045714 L21.5911429,25.1045714 C22.4740952,25.1045714 23.1899048,25.820381 23.1899048,26.7033333 C23.1899048,27.5862857 22.4740952,28.3020952 21.5911429,28.3020952 L16.9884762,28.3020952 C16.5646667,28.3009524 16.1584762,28.1326667 15.8580952,27.8337143 L14.9619048,26.9375238 L9.93142857,21.9070476 L14.0657143,21.9070476 L16.3264762,24.1678095 C16.9273333,24.7655238 17.7397143,25.1021905 18.5872381,25.1045714 Z M17.5442857,13.114 L12.798,13.114 C12.3566667,13.1135238 11.9990476,12.7559048 11.9986667,12.3146667 L11.9986667,7.568 C14.8947619,7.93742857 17.1749524,10.2178095 17.5442857,13.114 Z M4.80733333,14.0947619 C4.71447619,10.8040952 7.13390476,7.98019048 10.3998095,7.56704762 L10.3998095,12.3145714 C10.4012381,13.638381 11.4740952,14.7112381 12.7979048,14.7126667 L17.5449524,14.7126667 C17.1324762,17.9789524 14.3081905,20.3988571 11.0172381,20.3055238 C7.64419048,20.1722857 4.94028571,17.4680952 4.80733333,14.0947619 Z M3.20552381,31.981619 L3.20552381,23.0234286 C3.20609524,22.4071429 3.70552381,21.9077143 4.32180952,21.9071429 L7.20238095,21.9071429 L7.20238095,33.098381 L4.32180952,33.098381 C3.70542857,33.0977143 3.20590476,32.5980952 3.20552381,31.981619 Z M8.80114286,32.9590476 L8.80114286,23.0374286 L13.5974286,27.8337143 L13.5974286,32.9590476 L8.80114286,32.9590476 Z M15.3241905,46.3638095 C16.0455238,44.1284762 19.7207619,42.3669524 23.9893333,42.3669524 C28.2579048,42.3669524 31.9331429,44.1284762 32.6544762,46.3638095 L15.3241905,46.3638095 Z"></path>
                        <path d="M7.69809524,38.6301905 C7.74342857,38.6532381 7.792,38.6692381 7.84209524,38.6778095 C7.89485714,38.6867619 7.94819048,38.6921905 8.00171429,38.6938095 C8.21333333,38.6908571 8.41609524,38.6080952 8.5692381,38.462 C8.76314286,38.2751429 8.84828571,38.0021905 8.79495238,37.7382857 C8.74161905,37.474381 8.55714286,37.2559048 8.30580952,37.1591429 C8.20961905,37.1180952 8.10628571,37.096381 8.00171429,37.0951429 C7.67847619,37.096381 7.38752381,37.2914286 7.26361905,37.59 C7.13971429,37.8885714 7.20685714,38.2322857 7.43419048,38.4620952 L7.554,38.5580952 C7.59857143,38.588381 7.64704762,38.6126667 7.69809524,38.6301905 Z"></path>
                    </g>
                </g>
            </g>
        </g>
    </g>
</svg>