<?xml version="1.0" encoding="UTF-8"?>
<svg width="48px" height="48px" viewBox="0 0 48 48" version="1.1" xmlns="http://www.w3.org/2000/svg" xmlns:xlink="http://www.w3.org/1999/xlink">
    <!-- Generator: sketchtool 52.2 (67145) - http://www.bohemiancoding.com/sketch -->
    <title>38B4F701-F3C8-42D6-B970-8881AD01C974</title>
    <desc>Created with sketchtool.</desc>
    <g id="Symbols" stroke="none" stroke-width="1" fill="none" fill-rule="evenodd">
        <g id="ic-/-product-strategy" fill-rule="nonzero">
            <g id="Group">
                <g transform="translate(0.840467, 0.750000)">
                    <polygon id="Rectangle-path" fill="#F8FDFF" points="0.0498677043 5.65003125 46.2692918 5.65003125 46.2692918 42.45 0.0498677043 42.45"></polygon>
                    <polygon id="Rectangle-path" fill="#FFFFFF" points="0.0498677043 5.65003125 43.8786304 5.65003125 43.8786304 42.45 0.0498677043 42.45"></polygon>
                    <path d="M46.2692918,41.6500312 L46.2692918,44.85 C46.266677,45.7325625 45.5546148,46.4474062 44.6754864,46.4500312 L1.64357977,46.4500312 C0.764451362,46.4474062 0.0523891051,45.7325625 0.0497743191,44.85 L0.0497743191,41.6500312 L46.2692918,41.6500312 Z" id="Shape" fill="#C2D6E1"></path>
                    <path d="M43.8791405,41.6500312 L43.8787237,44.85 C43.8983346,45.7095937 43.2234397,46.4240625 42.3673774,46.4500312 L1.56121401,46.4500312 C0.705151751,46.4240625 0.0302568093,45.7095937 0.0498677043,44.85 L0.0494509307,41.6500312 L43.8791405,41.6500312 Z" id="Shape" fill="#F8FDFF"></path>
                    <path d="M46.2692918,1.65 L46.2692918,6.45 L0.0498677043,6.45 L0.0498677043,1.65 C0.0524824903,0.7674375 0.764451362,0.05259375 1.64367315,0.04996875 L44.6755798,0.04996875 C45.5547082,0.05259375 46.2667704,0.7674375 46.2692918,1.65 Z" id="Shape" fill="#C2D6E1"></path>
                    <g id="Shape">
                        <path d="M43.8786304,1.65 L43.8786304,6.45 L0.0498677043,6.45 L0.0498677043,1.65 C0.0524824903,0.7674375 0.764451362,0.05259375 1.64367315,0.04996875 L42.2849183,0.04996875 C43.1640467,0.05259375 43.8761089,0.7674375 43.8786304,1.65 Z" fill="#F8FDFF"></path>
                        <path d="M37.5035953,32.394 L37.5035953,31.2499688 C37.5469261,30.4167188 36.9146148,29.703375 36.0851673,29.6499375 L26.1718599,29.6499375 C25.3424125,29.703375 24.7101012,30.416625 24.7534319,31.2499688 L24.7534319,32.85 C24.7101012,33.68325 25.3424125,34.3965938 26.1718599,34.4500312 L36.0851673,34.4500312 C36.5139922,34.4459063 36.9145214,34.2344062 37.160965,33.882" fill="#FFFFFF"></path>
                    </g>
                    <polygon id="Shape" fill="#F5F5F5" points="21.6359533 23.2364062 21.0725603 29.459625 14.8735564 35.682 14.8735564 30.0252188 11.4931984 31.1564062 8.112 27.762 9.23878599 24.3684375 3.60401556 24.3684375 9.80217899 18.1452188 16.0011829 17.579625"></polygon>
                    <g transform="translate(3.642023, 17.531250)" fill="#C5EBFF" id="Shape">
                        <path d="M7.48473152,13.257375 C7.38705058,13.4697187 7.25210895,13.66275 7.08625681,13.8270937 C6.28445136,14.6320312 2.77961089,15.322125 2.77961089,15.322125 C2.77961089,15.322125 3.46701946,11.8035937 4.2688249,10.9986562 C4.43252918,10.83225 4.62480934,10.6966875 4.83632685,10.598625"></path>
                        <polygon points="11.2315331 12.4932187 11.22593 18.03075 11.2315331 18.036375 11.3048405 18.0764062 17.430537 11.927625 17.99393 5.70440625 12.3591595 0.047625 6.16015564 0.61396875 0.0352996109 6.76275 0.0750817121 6.83634375 0.0806848249 6.84196875 5.59676265 6.83634375"></polygon>
                    </g>
                    <path d="M27.270537,17.5791563 L21.6356732,11.9222813 C21.7145837,11.8430625 21.7934942,11.7638438 21.8780078,11.6903438 C23.7882023,10.0215 26.9436887,9.70471875 28.538428,9.65390625 C29.1470195,9.64265625 29.5244825,9.65953125 29.5244825,9.65953125 C29.5244825,9.65953125 29.8174319,15.0222188 27.270537,17.5791563 Z" id="Shape" fill="#C2D6E1"></path>
                    <path d="M25.5800778,15.8820937 L21.6356732,11.9222812 C21.7145837,11.8430625 21.7934942,11.7638437 21.8780078,11.6903437 C23.7882023,10.0215 26.9436887,9.70471875 28.538428,9.65390625 C28.2452918,11.0794687 27.4508638,14.004 25.5800778,15.8820937 Z" id="Shape" fill="#C5EBFF"></path>
                    <polygon id="Rectangle-path" fill="#F8FDFF" transform="translate(18.252617, 20.970743) rotate(135.000000) translate(-18.252617, -20.970743) " points="9.48691108 16.97075 27.0183227 16.97075 27.0183227 24.9707358 9.48691108 24.9707358"></polygon>
                    <polygon id="Rectangle-path" fill="#F5F5F5" transform="translate(17.409734, 20.125021) rotate(135.000000) translate(-17.409734, -20.125021) " points="8.64402796 17.3250171 26.1754396 17.3250171 26.1754396 22.9250259 8.64402796 22.9250259"></polygon>
                    <polygon id="Rectangle-path" fill="#C2D6E1" transform="translate(15.438087, 27.762612) rotate(135.000000) translate(-15.438087, -27.762612) " points="13.4458731 26.5626232 17.4303019 26.5626232 17.4303019 28.9626002 13.4458731 28.9626002"></polygon>
                    <polygon id="Rectangle-path" fill="#C5EBFF" transform="translate(12.621005, 24.933199) rotate(135.000000) translate(-12.621005, -24.933199) " points="10.6287907 22.1331947 14.6132194 22.1331947 14.6132194 27.7332035 10.6287907 27.7332035"></polygon>
                    <path d="M1.64367315,46.4660625 L3.95187549,46.4660625 C3.09581323,46.4400937 2.42091829,45.725625 2.44052918,44.8660312 L2.44052918,1.66603125 C2.44314397,0.78346875 3.15511284,0.068625 4.03433463,0.066 L1.64367315,0.066 C0.764451362,0.068625 0.0524824903,0.78346875 0.0498677043,1.66603125 L0.0498677043,44.8660312 C0.0302568093,45.725625 0.705151751,46.4400937 1.56121401,46.4660625 L1.64367315,46.4660625 Z" id="Shape" fill="#FFFFFF"></path>
                </g>
                <g>
                    <polygon id="Shape" fill="#FFFFFF" points="0.0934785992 42.4000312 0.0934785992 32.0000625 0.0934785992 2.4 1.68719066 2.4 1.68719066 32.0000625 1.68719066 42.4000312"></polygon>
                    <g fill="#4AC2FF">
                        <path d="M0.587579767,36.7364063 C0.63277821,36.7594688 0.681151751,36.7755 0.73111284,36.7840313 C0.783688716,36.7930313 0.836918288,36.798375 0.890241245,36.8000625 C1.10119844,36.7971563 1.30328405,36.7142812 1.45606226,36.5680313 C1.75685603,36.2495625 1.75685603,35.7505313 1.45606226,35.4320625 C1.37995331,35.3597812 1.29077043,35.3027812 1.19336965,35.2640625 C1.09746304,35.223 0.994459144,35.20125 0.890241245,35.2000313 C0.679284047,35.2032188 0.477291829,35.2860938 0.324420233,35.4320625 C0.0162490272,35.7475313 0.0162490272,36.2525625 0.324420233,36.5680313 L0.443859922,36.664125 C0.488498054,36.6945 0.53677821,36.7187812 0.587579767,36.7364063 Z" id="Shape"></path>
                        <path d="M45.5160467,0 L2.48414008,0 C1.16442023,0.0015 0.0948793774,1.075125 0.0934785992,2.4 L0.0934785992,32.8000313 C0.0934785992,33.241875 0.450303502,33.6 0.89033463,33.6 C1.33036576,33.6 1.68719066,33.2417813 1.68719066,32.8000313 L1.68719066,8.0000625 L46.3129027,8.0000625 L46.3129027,41.6000625 L1.68719066,41.6000625 L1.68719066,39.2000625 C1.68719066,38.7582187 1.33036576,38.4000937 0.89033463,38.4000937 C0.450303502,38.4000937 0.0934785992,38.7582187 0.0934785992,39.2000625 L0.0934785992,45.6 C0.0948793774,46.924875 1.16442023,47.9985937 2.48414008,48 L45.5160467,48 C46.8357665,47.9985937 47.9053074,46.924875 47.9067082,45.6 L47.9067082,2.4 C47.905214,1.075125 46.8357665,0.0015 45.5160467,0 Z M1.68719066,6.40003125 L1.68719066,2.4 C1.68775097,1.9584375 2.04420233,1.60059375 2.48404669,1.60003125 L45.5159533,1.60003125 C45.9557977,1.60059375 46.312249,1.9584375 46.3128093,2.4 L46.3128093,6.40003125 L1.68719066,6.40003125 Z M45.5160467,46.4000625 L2.48414008,46.4000625 C2.04429572,46.3995 1.68784436,46.0416563 1.68728405,45.6000937 L1.68728405,43.2000937 L46.3129961,43.2000937 L46.3129961,45.6000937 C46.3123424,46.0416562 45.9558911,46.3995 45.5160467,46.4000625 Z" id="Shape"></path>
                        <path d="M36.9257276,29.6000625 L27.0121401,29.6000625 C25.7417276,29.6519062 24.7518444,30.7245 24.7969494,32.0000625 L24.7969494,33.6 C24.7518444,34.8755625 25.7417276,35.9481562 27.0121401,36 L36.9257276,36 C37.1205292,35.9975625 37.31393,35.9675625 37.5003268,35.9108437 L38.3677821,39.394125 C38.4374475,39.6736875 38.6515798,39.894 38.9281868,39.970875 C39.2048872,40.04775 39.5012918,39.969375 39.7043113,39.7655625 L41.1331051,38.3311875 L42.5618988,39.7655625 C42.8738988,40.0731562 43.3744436,40.0708125 43.683642,39.7605 C43.9928405,39.4500937 43.9950817,38.9475937 43.6886848,38.634375 L42.2598911,37.2 L43.6886848,35.765625 C43.875642,35.5779375 43.9577276,35.3094375 43.9077665,35.0488125 C43.8578054,34.7881875 43.6822412,34.569375 43.4392529,34.4648437 L39.1408249,32.6155312 L39.1408249,32.0000625 C39.1860233,30.7244062 38.1961401,29.6519062 36.9257276,29.6000625 Z M36.9257276,34.4000625 L27.0121401,34.4000625 C26.6264591,34.341 26.3538677,33.9899063 26.3907549,33.6000937 L26.3907549,32.0000625 C26.3538677,31.6101563 26.6264591,31.2591563 27.0121401,31.2000938 L36.9257276,31.2000938 C37.3114086,31.2591563 37.584,31.61025 37.5471128,32.0000625 L37.5471128,32.0074688 C37.3585681,32.0046563 37.1751595,32.0698125 37.0304125,32.191125 C36.7999377,32.3881875 36.7005759,32.6993438 36.7739767,32.9942813 L37.1118444,34.3510312 C37.0537588,34.3797188 36.9904436,34.3964062 36.9257276,34.4000625 Z M39.5728249,37.6351875 L38.7097588,34.17075 L41.7296498,35.4699375 L39.5728249,37.6351875 Z" id="Shape"></path>
                        <path d="M43.1253852,26.4 L26.3907549,26.4 C25.9506304,26.4 25.5938988,26.7582188 25.5938988,27.1999688 C25.5938988,27.6417187 25.9507237,27.9999375 26.3907549,27.9999375 L43.1253852,27.9999375 C43.5655097,27.9999375 43.9222412,27.6418125 43.9222412,27.1999688 C43.9222412,26.758125 43.5655097,26.4 43.1253852,26.4 Z" id="Shape"></path>
                        <path d="M27.9844669,24 C27.9844669,24.4418438 28.3411984,24.7999687 28.781323,24.7999687 L43.1252918,24.7999687 C43.5654163,24.7999687 43.9221479,24.44175 43.9221479,24 C43.9221479,23.5581562 43.565323,23.2000312 43.1252918,23.2000312 L28.781323,23.2000312 C28.3412918,23.2000312 27.9844669,23.55825 27.9844669,24 Z" id="Shape"></path>
                        <path d="M43.1253852,21.6 C43.5655097,21.6 43.9222412,21.241875 43.9222412,20.8000312 C43.9222412,20.3581875 43.5654163,20.0000625 43.1253852,20.0000625 L32.7657899,20.0000625 C32.3256654,20.0000625 31.9689339,20.3582812 31.9689339,20.8000312 C31.9689339,21.2417812 32.3257588,21.6 32.7657899,21.6 L43.1253852,21.6 Z" id="Shape"></path>
                        <path d="M30.4086537,9.61134375 C30.17407,9.59653125 24.6790973,9.32971875 21.9129339,12.1074375 L16.4823969,17.559 L10.5704591,18.0988125 C10.3849027,18.1159688 10.2111128,18.1977188 10.0794397,18.3300938 L3.88136965,24.552375 C3.65341634,24.781125 3.58524514,25.1251875 3.708607,25.4241563 C3.83196887,25.723125 4.12249027,25.9180313 4.44476265,25.9180313 L8.97394553,25.9180313 L8.19651362,28.2590625 C8.14814008,28.4074688 8.1442179,28.56675 8.18521401,28.7174063 C7.28311284,29.6278125 6.65201556,32.5690313 6.47981323,33.4497188 C6.43405447,33.684375 6.49531518,33.9272813 6.64669261,34.1119688 C6.79807004,34.2966563 7.0237821,34.403625 7.2619144,34.403625 C7.31336965,34.4035313 7.36473152,34.3985625 7.41525292,34.3888125 C8.29344747,34.21575 11.2288249,33.5809688 12.1323268,32.6739375 L12.1376498,32.6675625 C12.2823969,32.720625 12.4414319,32.719875 12.5856187,32.6653125 L14.9175409,31.885125 L14.9175409,36.4317188 C14.9175409,36.75525 15.1116887,37.047 15.4094008,37.17075 C15.7072062,37.2945938 16.04993,37.2260625 16.2777899,36.9973125 L22.4758599,30.7750313 C22.6076265,30.64275 22.6891518,30.468375 22.7062412,30.2820938 L23.2439533,24.3470625 L28.6743035,18.8953125 C31.4404669,16.1188125 31.1736654,10.6000313 31.1607782,10.3664063 C31.1385525,9.95896875 30.8145058,9.63365625 30.4086537,9.61134375 Z M6.36849805,24.318 L11.0023658,19.6660312 L14.7215253,19.3266562 L12.3337588,21.7236563 L12.3334786,21.7238438 L12.3332918,21.724125 L9.74941634,24.318 L6.36849805,24.318 Z M12.5487315,30.9910313 L9.86428016,28.2960938 L10.4277665,26.5989375 L14.239284,30.4253438 L12.5487315,30.9910313 Z M15.7144903,29.64375 L11.2063191,25.1179688 L12.8970584,23.4207188 L17.4051362,27.9464063 L15.7144903,29.64375 Z M9.24522957,29.9371875 L10.9141167,31.6125937 C10.0947549,32.04075 9.22094942,32.3543437 8.31688716,32.5445625 C8.5060856,31.636875 8.81845914,30.7595625 9.24522957,29.9371875 Z M21.145214,29.8485 L16.5113463,34.5004687 L16.5113463,31.10625 L19.0951284,28.5122812 L19.0954086,28.5120937 L19.0955953,28.5118125 L21.4832685,26.1147187 L21.145214,29.8485 Z M18.5319222,26.8152187 L14.0238444,22.2895312 L22.4763268,13.8043125 L26.9841245,18.3297188 L18.5319222,26.8152187 Z M28.0530117,17.1403125 L23.6612918,12.7314375 C25.4765136,11.4525938 28.253323,11.229375 29.5755642,11.2039688 C29.551284,12.5303438 29.3308949,15.3151875 28.0530117,17.1403125 Z" id="Shape"></path>
                        <path d="M21.9129339,16.6328438 C21.7634241,16.7828438 21.6794708,16.9862813 21.6794708,17.1984375 C21.6794708,17.4105938 21.7634241,17.614125 21.9129339,17.7640313 L23.0398132,18.8953125 C23.3509728,19.2076875 23.8554397,19.2076875 24.1666926,18.8953125 C24.4778521,18.5829375 24.4778521,18.0765 24.1666926,17.7640313 L23.0398132,16.63275 C22.8903969,16.4826563 22.687751,16.398375 22.4764202,16.398375 C22.2649961,16.3984688 22.0623502,16.48275 21.9129339,16.6328438 Z" id="Shape"></path>
                        <path d="M20.7856809,18.8957812 C20.4745214,18.5834062 19.9699611,18.5834062 19.6588016,18.8957812 C19.347642,19.2081562 19.347642,19.7146875 19.6588016,20.0270625 L20.7856809,21.1583438 C21.0968405,21.4707188 21.6014008,21.4707188 21.9125603,21.1583438 C22.2237198,20.8459688 22.2237198,20.3394375 21.9125603,20.0270625 L20.7856809,18.8957812 Z" id="Shape"></path>
                        <ellipse id="Oval" cx="4.87480156" cy="4.00003125" rx="1" ry="1"></ellipse>
                        <ellipse id="Oval" cx="8.06231907" cy="4.00003125" rx="1" ry="1"></ellipse>
                        <ellipse id="Oval" cx="11.2498366" cy="4.00003125" rx="1" ry="1"></ellipse>
                    </g>
                </g>
            </g>
        </g>
    </g>
</svg>