<?xml version="1.0" encoding="UTF-8"?>
<svg width="48px" height="48px" viewBox="0 0 48 48" version="1.1" xmlns="http://www.w3.org/2000/svg" xmlns:xlink="http://www.w3.org/1999/xlink">
    <!-- Generator: sketchtool 52.2 (67145) - http://www.bohemiancoding.com/sketch -->
    <title>AA34482A-C2EA-4598-9F05-8AC3A9427D3A</title>
    <desc>Created with sketchtool.</desc>
    <g id="Symbols" stroke="none" stroke-width="1" fill="none" fill-rule="evenodd">
        <g id="ic-/-product-building" fill-rule="nonzero">
            <g id="Group">
                <g transform="translate(0.748538, 0.750000)">
                    <g transform="translate(0.000000, 32.156250)" fill="#C2D6E1" id="Shape">
                        <path d="M10.8112281,14.277 C10.2539415,13.5312188 9.53160234,12.925125 8.70100585,12.5063438 C8.72168421,12.296625 8.73309942,12.0840938 8.73309942,11.8689375 C8.73207018,8.80321875 6.55859649,6.1700625 3.55340351,5.59378125 C3.61244444,5.29171875 3.64247953,4.98478125 3.64304094,4.677 C3.64163743,2.48971875 2.16392982,0.5803125 0.0500584795,0.0343125 L0.0500584795,14.2868438 L10.8112281,14.277 Z"></path>
                        <path d="M35.6318129,14.277 C36.1890994,13.5312188 36.9114386,12.925125 37.7420351,12.5063438 C37.7213567,12.296625 37.7099415,12.0840938 37.7099415,11.8689375 C37.7109708,8.80321875 39.8844444,6.1700625 42.8896374,5.59378125 C42.4012164,3.1029375 43.9385263,0.663375 46.3929825,0.0343125 L46.3929825,14.2868438 L35.6318129,14.277 Z"></path>
                    </g>
                    <rect id="Rectangle-path" fill="#F8FDFF" x="16.8174035" y="10.4430937" width="12.7750175" height="20.8000312"></rect>
                    <rect id="Rectangle-path" fill="#F5F5F5" x="16.8174035" y="10.4430937" width="10.3796959" height="20.8000312"></rect>
                    <path d="M29.5924211,10.4430938 L16.8174035,10.4430938 C16.7598596,9.82303125 16.7921404,9.19790625 16.9132164,8.587125 C16.9196725,8.57484375 16.922386,8.56096875 16.9211696,8.54709375 C17.2725146,6.60309375 18.4941287,3.43509375 22.5581287,0.4910625 C22.7657544,0.3470625 22.9813333,0.19509375 23.2048655,0.04303125 C30.3908304,4.843125 29.5924211,10.4430938 29.5924211,10.4430938 Z" id="Shape" fill="#C2D6E1"></path>
                    <path d="M27.2290058,10.4430937 L16.8413567,10.4430937 C16.7969123,9.8236875 16.8210526,9.2011875 16.9132164,8.587125 C16.9196725,8.57484375 16.922386,8.56096875 16.9211696,8.54709375 C17.2725146,6.60309375 18.4941287,3.43509375 22.5581287,0.4910625 C27.835883,5.18709375 27.2290058,10.4430937 27.2290058,10.4430937 Z" id="Shape" fill="#F8FDFF"></path>
                    <polygon id="Rectangle-path" fill="#C2D6E1" points="16.8174035 31.243125 29.5924211 31.243125 29.5924211 36.043125 16.8174035 36.043125"></polygon>
                    <g transform="translate(11.228070, 16.781250)">
                        <polygon id="Rectangle-path" fill="#F8FDFF" points="5.58933333 14.461875 15.9690292 14.461875 15.9690292 19.261875 5.58933333 19.261875"></polygon>
                        <path d="M5.58933333,5.66184375 L0.395321637,11.6094375 C0.140631579,11.9010937 0.000187134503,12.2755312 0.000187134503,12.663 L0.000187134503,22.3224375 C0.000187134503,22.6349062 0.181707602,22.9186875 0.46502924,23.0492812 C0.748350877,23.179875 1.08154386,23.1331875 1.31826901,22.9298437 L5.58933333,19.2617812 L5.58933333,5.66184375 Z" id="Shape" fill="#C5EBFF"></path>
                        <path d="M18.3643509,5.66184375 L23.5583626,11.6094375 C23.8130526,11.9010937 23.9534971,12.2755312 23.9534971,12.663 L23.9534971,22.3224375 C23.9534971,22.6349062 23.7719766,22.9186875 23.488655,23.0492812 C23.2053333,23.179875 22.8721404,23.1331875 22.6354152,22.9298437 L18.3643509,19.2617812 L18.3643509,5.66184375 Z" id="Shape" fill="#C5EBFF"></path>
                        <ellipse id="Oval" fill="#C5EBFF" cx="11.9767953" cy="3.26184375" rx="3.19373099" ry="3.19996875"></ellipse>
                    </g>
                    <polygon id="Shape" fill="#C5EBFF" points="29.1931696 36.043125 25.9994386 40.0431563 22.8057076 40.0431563 23.604117 40.0431563 20.410386 40.0431563 17.2165614 36.043125"></polygon>
                    <path d="M26.0261988,40.0431563 C26.5293099,40.1054063 26.9552281,40.4445938 27.1294503,40.9215 C27.3036725,41.3985 27.1967251,41.9329688 26.8524912,42.3059062 L23.8033216,45.7644375 C23.6517427,45.936375 23.4338246,46.0348125 23.2049591,46.0348125 C22.9760936,46.0348125 22.7580819,45.936375 22.6065965,45.7644375 L19.5574269,42.3059062 C19.2132865,41.9330625 19.1063392,41.3985 19.2805614,40.9215937 C19.4547836,40.4445937 19.8807018,40.1055 20.3838129,40.04325 L26.0261988,40.04325 L26.0261988,40.0431563 Z" id="Shape" fill="#C5EBFF"></path>
                    <g fill="#FFFFFF" id="Shape">
                        <path d="M22.7789474,40.0590938 L22.805614,40.0590938 L19.611883,36.0590625 L19.2126316,36.0590625 L18.028538,37.0760625 L20.4102924,40.0590938 L20.3836257,40.0590938 C19.8805146,40.1213438 19.4545029,40.4604375 19.2803743,40.9374375 C19.106152,41.4144375 19.2130994,41.9489063 19.5572398,42.3218438 L22.6065029,45.780375 C22.7580819,45.9523125 22.976,46.05075 23.2048655,46.05075 C23.433731,46.05075 23.6517427,45.9523125 23.8032281,45.780375 L24.4024327,45.1005938 L21.9524678,42.32175 C21.6083275,41.9489063 21.5013801,41.4143438 21.6756023,40.9374375 C21.8499181,40.4605313 22.2759298,40.1213438 22.7789474,40.0590938 Z"></path>
                        <path d="M2.44547368,33.6998437 C1.81492398,32.97225 0.980210526,32.4519375 0.0501520468,32.2065 L0.0501520468,46.4590312 L2.44547368,46.456875 L2.44547368,33.6998437 Z"></path>
                        <path d="M12.5463392,39.727125 L13.6235789,38.802 L13.6235789,29.4602812 C13.6235789,29.0727187 13.7640234,28.698375 14.0187135,28.4067187 L19.2126316,22.459125 L19.2126316,10.459125 C19.1550877,9.8390625 19.1873684,9.2139375 19.3084444,8.60315625 C19.3149006,8.590875 19.3177076,8.577 19.3163977,8.563125 C19.6511813,6.710625 20.7823158,3.74690625 24.4043041,0.92446875 C24.0309708,0.634125 23.6329357,0.3451875 23.2047719,0.05915625 C22.9812398,0.211125 22.7656608,0.3631875 22.5580351,0.5071875 C18.4941287,3.451125 17.2725146,6.619125 16.9211696,8.563125 C16.922386,8.57690625 16.9196725,8.590875 16.9132164,8.60315625 C16.7921404,9.2139375 16.7598596,9.8390625 16.8174035,10.459125 L16.8174035,22.459125 L11.6234854,28.4067187 C11.3687953,28.698375 11.2283509,29.0728125 11.2283509,29.460375 L11.2283509,39.1198125 C11.2283509,39.4322812 11.4098713,39.7160625 11.693193,39.8466562 C11.9764211,39.9770625 12.309614,39.9304688 12.5463392,39.727125 Z"></path>
                    </g>
                </g>
                <g>
                    <polygon id="Shape" fill="#FFFFFF" points="18.3643509 11.1930937 18.3643509 21.5931562 18.3643509 31.993125 16.7674386 31.993125 16.7674386 21.5931562 16.7674386 11.1930937"></polygon>
                    <g fill="#4AC2FF" id="Shape">
                        <path d="M35.7101287,46.7009062 C35.4470175,47.0535 35.5176608,47.5528125 35.8681637,47.8183125 C36.2187602,48.0838125 36.7174737,48.0155625 36.9842339,47.6656875 C37.4676959,47.019375 38.0933801,46.4935312 38.8126316,46.1289375 C38.8172164,46.1266875 38.8197427,46.1221875 38.8243275,46.1198438 C38.8780351,46.0875937 38.9276257,46.048875 38.9721637,46.0047187 C39.0060351,45.9807188 39.0381287,45.9540937 39.0679766,45.9252187 C39.1189708,45.837375 39.1680936,45.7484062 39.2152515,45.6584062 C39.2232982,45.6194062 39.228538,45.5798437 39.2308772,45.5400937 C39.245193,45.4770937 39.2517427,45.4126875 39.2502456,45.3480937 C39.2498713,45.3432187 39.252117,45.3389062 39.2516491,45.3339375 C39.2336842,45.1499062 39.2235789,44.963625 39.2235789,44.775 C39.2248889,42.0935625 41.1258012,39.7905 43.7541988,39.2859375 L43.7548538,39.2856562 L43.7561637,39.2854687 C43.8014503,39.2715937 43.8453333,39.2535 43.887345,39.231375 C43.9432982,39.2149687 43.9973801,39.19275 44.048655,39.1649062 C44.0875789,39.1330312 44.1234152,39.0974062 44.1555088,39.0585937 C44.1956491,39.0256875 44.2324211,38.9888437 44.2654503,38.9488125 C44.2909942,38.9023125 44.3119532,38.853375 44.3279532,38.8028437 C44.3514386,38.7594375 44.370807,38.7139687 44.3856842,38.6669062 C44.3914854,38.6136562 44.3921404,38.5599375 44.3875556,38.5065 C44.3935439,38.4546562 44.3941053,38.40225 44.3893333,38.3503125 L44.3889591,38.349375 L44.3889591,38.3484375 C44.3397427,38.0963437 44.3145731,37.840125 44.313731,37.58325 C44.314386,35.7604688 45.5461053,34.16925 47.307883,33.7149375 C47.5840936,33.6435 47.8012632,33.4298437 47.877614,33.1544063 C47.9539649,32.8789687 47.8778947,32.58375 47.6780351,32.3798437 C47.4781754,32.1759375 47.1849357,32.0942813 46.9087251,32.1657188 C44.4418246,32.802375 42.7174737,35.0309063 42.7169123,37.5833437 C42.7169123,37.686375 42.726269,37.791375 42.7323509,37.895625 C39.7036725,38.8112813 37.6301287,41.6054063 37.6268538,44.7750937 C37.6268538,44.8390312 37.6346199,44.9009062 37.6363977,44.964375 C36.8906667,45.4163437 36.2370994,46.0055625 35.7101287,46.7009062 Z"></path>
                        <path d="M46.9881637,42.2939062 C44.5410994,42.7065 42.6188538,44.6189063 42.1897544,47.06775 C42.1208889,47.5041562 42.4178713,47.9139375 42.8533333,47.9834062 C42.8949708,47.989875 42.937076,47.9931562 42.9792749,47.9931562 C43.3716023,47.9926875 43.7055439,47.70675 43.7672047,47.3185312 C44.0921637,45.5603437 45.471345,44.1885937 47.2284444,43.8759375 C47.6644678,43.8094687 47.9641637,43.4014687 47.8978246,42.9645937 C47.8313918,42.5277187 47.4241871,42.2274375 46.9881637,42.2939062 Z"></path>
                        <path d="M0.599017544,33.7150312 C2.36079532,34.1693437 3.59251462,35.7606562 3.59316959,37.5833437 C3.59232749,37.8402187 3.56715789,38.0964375 3.51794152,38.348625 L3.51794152,38.3495625 L3.51756725,38.3505 C3.51279532,38.4025312 3.51335673,38.4548437 3.51934503,38.5066875 C3.51476023,38.560125 3.5154152,38.6138437 3.52121637,38.6670937 C3.53618713,38.7141562 3.55546199,38.759625 3.57894737,38.8030312 C3.59494737,38.8536562 3.61590643,38.9025 3.64145029,38.949 C3.67447953,38.989125 3.71125146,39.025875 3.75139181,39.0587812 C3.78348538,39.0975937 3.81932164,39.1332187 3.85824561,39.1650937 C3.90952047,39.1929375 3.96360234,39.2151562 4.01955556,39.2315625 C4.06147368,39.2536875 4.10535673,39.2717812 4.15073684,39.2856562 L4.15204678,39.2858437 L4.15270175,39.286125 C6.78109942,39.7906875 8.6820117,42.09375 8.68332164,44.7751875 C8.68332164,44.9638125 8.67321637,45.1501875 8.65525146,45.334125 C8.65478363,45.3390937 8.65702924,45.3433125 8.65665497,45.3482812 C8.65515789,45.412875 8.6617076,45.4772812 8.67602339,45.5402812 C8.67836257,45.5800312 8.68360234,45.6195937 8.69164912,45.6585937 C8.73880702,45.7485937 8.78792982,45.8375625 8.83892398,45.9254062 C8.86877193,45.9542812 8.9008655,45.9809062 8.93473684,46.0049062 C8.97918129,46.0490625 9.0288655,46.0877812 9.0825731,46.1200312 C9.08706433,46.122375 9.08968421,46.1267812 9.09426901,46.129125 C9.81361404,46.4937187 10.4392982,47.0195625 10.9226667,47.665875 C11.1894269,48.01575 11.6881404,48.0839062 12.0387368,47.8185 C12.3893333,47.553 12.459883,47.0536875 12.1967719,46.7010937 C11.6698012,46.0056562 11.0163275,45.4164375 10.2706901,44.9645625 C10.2723743,44.9010937 10.2802339,44.8392187 10.2802339,44.7752812 C10.2769591,41.6055 8.2034152,38.8114687 5.17473684,37.8958125 C5.18081871,37.7914687 5.19017544,37.6864687 5.19017544,37.5835312 C5.18961404,35.0310937 3.46526316,32.8025625 0.998362573,32.1659062 C0.571415205,32.0554687 0.135859649,32.3127187 0.0256374269,32.7405 C-0.0846783626,33.1681875 0.172070175,33.6045937 0.599017544,33.7150312 Z"></path>
                        <path d="M0.918736842,42.2939062 C0.48271345,42.2274375 0.0755087719,42.5277187 0.00916959064,42.9645937 C-0.0571695906,43.4014687 0.242526316,43.8094688 0.678549708,43.8759375 C2.43564912,44.1885 3.81483041,45.5603438 4.13978947,47.3185312 C4.20145029,47.70675 4.53539181,47.9925937 4.9277193,47.9931563 C4.96991813,47.9931563 5.01202339,47.989875 5.05366082,47.9834063 C5.48912281,47.9139375 5.78610526,47.5041563 5.71723977,47.06775 C5.28804678,44.6189063 3.36580117,42.7065 0.918736842,42.2939062 Z"></path>
                        <path d="M17.5659415,18.3930937 C17.8887485,18.3917812 18.1793684,18.1965937 18.3031579,17.8979062 C18.4269474,17.599125 18.3598596,17.2551562 18.1328655,17.0250937 L18.013193,16.929 C17.968655,16.898625 17.9202807,16.8743437 17.8692865,16.8567187 C17.824,16.8336562 17.7755322,16.817625 17.7254737,16.8090937 C17.6727018,16.8000937 17.619462,16.79475 17.5659415,16.7931562 C17.3545731,16.7960625 17.1520936,16.8789375 16.9990175,17.0251875 C16.8053333,17.212125 16.7202807,17.4853125 16.773614,17.7495 C16.8269474,18.0136875 17.0111813,18.2322187 17.2622222,18.3291562 C17.3583158,18.370125 17.4614269,18.391875 17.5659415,18.3930937 Z"></path>
                        <path d="M11.6431345,42.3200625 C11.9265497,42.4504687 12.2597427,42.4037812 12.4965614,42.2005312 L17.4586199,37.9390312 L19.456,40.4406563 C19.1662222,40.6669688 18.9400702,40.9649062 18.7998129,41.3052188 C18.4621287,42.0985313 18.6447719,43.0182187 19.259883,43.6215938 L23.3890058,47.7586875 C23.5387135,47.9087812 23.7417544,47.9930625 23.9534971,47.9930625 C24.1652398,47.9930625 24.3682807,47.9087812 24.5179883,47.7586875 L28.6470175,43.6215938 C29.1563041,43.1117812 29.372538,42.3779062 29.2214269,41.672625 C29.0703158,40.9674375 28.5723509,40.3872187 27.8991345,40.13175 L29.9260819,37.5930938 L30.0454737,37.5930938 L35.4103392,42.2005313 C35.6470643,42.4039688 35.9803509,42.4506563 36.2636725,42.3200625 C36.5469942,42.1894687 36.7285146,41.9055938 36.7284211,41.593125 L36.7284211,29.593125 C36.7284211,29.39925 36.658152,29.2120313 36.5307135,29.0661563 L31.1392749,22.8924375 L31.1392749,11.2380938 C31.2163743,10.5387188 31.5856842,4.92984375 24.3961637,0.1275 L24.3952281,0.127125 C24.3077427,0.0688125 24.2094971,0.02840625 24.106386,0.00815625 C24.0042105,0.007125 23.9019415,0.007125 23.7997661,0.00815625 C23.696655,0.02840625 23.5985965,0.06890625 23.5111111,0.12721875 L23.5104561,0.1275 C16.3209357,4.92984375 16.6902456,10.5387187 16.767345,11.2380938 L16.767345,14.3931563 C16.767345,14.835 17.1247719,15.193125 17.5657544,15.193125 C18.0067368,15.193125 18.3641637,14.8349062 18.3641637,14.3931563 L18.3641637,11.9931563 L29.5423626,11.9931563 L29.5423626,31.1931563 L18.3643509,31.1931563 L18.3643509,20.7930938 C18.3643509,20.35125 18.0068304,19.993125 17.5659415,19.993125 C17.1250526,19.993125 16.7675322,20.3513438 16.7675322,20.7930938 L16.7675322,22.8924375 L11.3760936,29.0661562 C11.248655,29.2120312 11.1784795,29.39925 11.178386,29.593125 L11.178386,41.593125 C11.1784795,41.9055 11.3599064,42.1892812 11.6431345,42.3200625 Z M27.5179415,42.4904062 L23.9534035,46.0619062 L20.3888655,42.4904062 C20.2386901,42.340125 20.1937778,42.1140938 20.2749006,41.9175938 C20.356117,41.7211875 20.5473684,41.5930313 20.7595789,41.593125 L27.1471345,41.593125 C27.359345,41.5930313 27.5506901,41.7211875 27.6318129,41.9175938 C27.7131228,42.114 27.668117,42.340125 27.5179415,42.4904062 Z M25.9650994,39.9930937 L21.1432982,39.9930937 L19.2269474,37.5930937 L27.8814503,37.5930937 L25.9650994,39.9930937 Z M35.1316023,29.893875 L35.1316023,39.8535937 L31.1393684,36.4250625 L31.1393684,25.3224375 L35.1316023,29.893875 Z M18.3458246,10.393125 C18.412538,8.9015625 19.1197193,5.20125 23.9538713,1.77778125 C28.8109474,5.21484375 29.5075556,8.8955625 29.565848,10.393125 L18.3458246,10.393125 Z M29.5425497,35.9931562 L18.3643509,35.9931562 L18.3643509,32.7931875 L29.5425497,32.7931875 L29.5425497,35.9931562 Z M12.7752982,29.893875 L16.7675322,25.3223438 L16.7675322,36.4250625 L12.7752982,39.8535938 L12.7752982,29.893875 Z"></path>
                        <path d="M27.9456374,20.7930938 C27.9456374,18.5839688 26.1582222,16.7930625 23.9534035,16.7930625 C21.7485848,16.7930625 19.9611696,18.5839688 19.9611696,20.7930938 C19.9611696,23.0022188 21.7485848,24.793125 23.9534035,24.793125 C26.157193,24.7905 27.9430175,23.0011875 27.9456374,20.7930938 Z M21.5580819,20.7930938 C21.5580819,19.4675625 22.6305497,18.3930938 23.9534035,18.3930938 C25.2763509,18.3930938 26.3487251,19.4676563 26.3487251,20.7930938 C26.3487251,22.1185313 25.2763509,23.1930938 23.9534035,23.1930938 C22.6311111,23.1916875 21.5595789,22.1179688 21.5580819,20.7930938 Z"></path>
                    </g>
                </g>
            </g>
        </g>
    </g>
</svg>