<?xml version="1.0" encoding="UTF-8"?>
<svg width="56px" height="56px" viewBox="0 0 56 56" version="1.1" xmlns="http://www.w3.org/2000/svg" xmlns:xlink="http://www.w3.org/1999/xlink">
    <!-- Generator: sketchtool 52.2 (67145) - http://www.bohemiancoding.com/sketch -->
    <title>9D842407-106F-4D76-9327-D8E6E57D5994</title>
    <desc>Created with sketchtool.</desc>
    <defs>
        <linearGradient x1="0%" y1="50%" x2="100%" y2="50%" id="linearGradient-1">
            <stop stop-color="#4AC2FF" offset="0%"></stop>
            <stop stop-color="#4BB7FF" stop-opacity="0" offset="100%"></stop>
        </linearGradient>
    </defs>
    <g id="Symbols" stroke="none" stroke-width="1" fill="none" fill-rule="evenodd">
        <g id="ic-/-release" fill-rule="nonzero">
            <g id="Group-8">
                <g transform="translate(7.000000, 6.000000)">
                    <rect id="Rectangle-14" stroke="#D3D9DD" stroke-width="3.25" x="18.625" y="19.625" width="22.75" height="22.75" rx="8.125"></rect>
                    <path d="M16.999759,29.4915105 L8.72176013,32.8368899 C7.56513268,33.3043165 6.25366413,32.7328489 5.79251315,31.5604811 C5.6682512,31.2445744 5.61511786,30.9045383 5.6369881,30.5651715 L6.21787357,21.5514078 L0.520903428,14.6052022 C-0.275094756,13.634657 -0.144159838,12.1938091 0.813354751,11.3869783 C1.07136707,11.1695693 1.37399958,11.0132719 1.69918149,10.9294847 L10.3361874,8.70405169 L15.0932651,1.0656812 C15.7579386,-0.00157540947 17.1503294,-0.320600735 18.2032569,0.35311819 C18.4869792,0.534658799 18.7271498,0.778097745 18.906253,1.0656812 L23.6633307,8.70405169 L32.3003366,10.9294847 C33.5071256,11.2404291 34.2367355,12.4841085 33.9299659,13.7073204 C33.8473036,14.0369277 33.6931047,14.3436786 33.4786146,14.6052022 L27.7816445,21.5514078 L28.3625299,30.5651715 C28.4436931,31.8246023 27.502226,32.9122638 26.2597044,32.9945314 C25.924894,33.0166993 25.5894233,32.9628429 25.2777579,32.8368899 L16.999759,29.4915105 Z" id="Star" fill="url(#linearGradient-1)"></path>
                </g>
            </g>
        </g>
    </g>
</svg>