<?xml version="1.0" encoding="UTF-8"?>
<svg width="56px" height="56px" viewBox="0 0 56 56" version="1.1" xmlns="http://www.w3.org/2000/svg" xmlns:xlink="http://www.w3.org/1999/xlink">
    <!-- Generator: sketchtool 52.2 (67145) - http://www.bohemiancoding.com/sketch -->
    <title>15EDA53E-F702-44B3-9CBB-235B4E686030</title>
    <desc>Created with sketchtool.</desc>
    <defs>
        <linearGradient x1="0%" y1="50%" x2="100%" y2="50%" id="linearGradient-1">
            <stop stop-color="#4AC2FF" offset="0%"></stop>
            <stop stop-color="#4BB7FF" stop-opacity="0" offset="100%"></stop>
        </linearGradient>
    </defs>
    <g id="Symbols" stroke="none" stroke-width="1" fill="none" fill-rule="evenodd">
        <g id="ic-/-strategy" fill-rule="nonzero">
            <g id="Group-5">
                <g transform="translate(5.000000, 10.000000)">
                    <path d="M37.5814755,20.0459415 L45.35965,27.8241161 C46.3359608,28.8004269 46.3359608,30.3833393 45.35965,31.35965 C44.3833393,32.3359608 42.8004269,32.3359608 41.8241161,31.35965 L34.0459415,23.5814755 L26.267767,31.35965 C25.2914562,32.3359608 23.7085438,32.3359608 22.732233,31.35965 C21.7559223,30.3833393 21.7559223,28.8004269 22.732233,27.8241161 L30.5104076,20.0459415 L22.732233,12.267767 C21.7559223,11.2914562 21.7559223,9.70854378 22.732233,8.73223305 C23.7085438,7.75592232 25.2914562,7.75592232 26.267767,8.73223305 L34.0459415,16.5104076 L41.8241161,8.73223305 C42.8004269,7.75592232 44.3833393,7.75592232 45.35965,8.73223305 C46.3359608,9.70854378 46.3359608,11.2914562 45.35965,12.267767 L37.5814755,20.0459415 Z" id="Combined-Shape" fill="#D3D9DD"></path>
                    <rect id="Rectangle-14-Copy" fill="url(#linearGradient-1)" x="0" y="0" width="36" height="36" rx="18"></rect>
                </g>
            </g>
        </g>
    </g>
</svg>