<?xml version="1.0" encoding="UTF-8"?>
<svg width="48px" height="48px" viewBox="0 0 48 48" version="1.1" xmlns="http://www.w3.org/2000/svg" xmlns:xlink="http://www.w3.org/1999/xlink">
    <!-- Generator: sketchtool 52.2 (67145) - http://www.bohemiancoding.com/sketch -->
    <title>35F76A72-C82F-46CC-BB45-CBD67414B588</title>
    <desc>Created with sketchtool.</desc>
    <g id="Symbols" stroke="none" stroke-width="1" fill="none" fill-rule="evenodd">
        <g id="ic-/-time-and-money">
            <g id="time-is-money">
                <g>
                    <path d="M27.9462719,14.3735381 C27.9462719,21.8702485 21.869152,27.9470029 14.372807,27.9470029 C13.9729533,27.9488304 13.5730994,27.93019 13.1750731,27.8914474 C6.184576,27.2547514 0.832236819,21.3932749 0.832236819,14.3735381 C0.832236819,7.35416664 6.184576,1.49232458 13.1750731,0.855994199 C13.5730994,0.817251462 13.9729533,0.798611088 14.372807,0.800073076 C21.869152,0.800073076 27.9462719,6.87719298 27.9462719,14.3735381 Z" id="Path" fill="#C2D6E1"></path>
                    <path d="M25.5508041,14.3735381 C25.5508041,6.90826021 20.0102339,0.855994199 13.1750731,0.855994199 C6.3402778,0.855994199 0.799342129,6.90826021 0.799342129,14.3735381 C0.799342129,21.8391813 6.3402778,27.8914474 13.1750731,27.8914474 C20.0102339,27.8914474 25.5508041,21.8391813 25.5508041,14.3735381 Z" id="Path" fill="#C5EBFF"></path>
                    <path d="M47.1089181,35.1330409 C47.1067251,41.7467105 41.7459795,47.1074562 35.1323099,47.1096491 C34.7401316,47.1129386 34.3479532,47.0913742 33.9586989,47.0456871 C33.942617,47.0456871 33.9265351,47.0537281 33.9108187,47.0456871 C27.8070175,46.4130116 23.1692252,41.2693713 23.1692252,35.1330409 C23.1692252,28.9967105 27.8070175,23.8534357 33.9108187,23.2203948 C33.9265351,23.2123538 33.942617,23.2203948 33.9586989,23.2203948 C34.3479532,23.1747076 34.7401316,23.1535088 35.1323099,23.1564327 C41.7459795,23.1586257 47.1067251,28.5193713 47.1089181,35.1330409 Z" id="Path" fill="#C2D6E1"></path>
                    <path d="M44.7134503,35.1330409 C44.7083333,41.2722953 40.065424,46.4152047 33.9586989,47.0456871 C33.942617,47.0456871 33.9265351,47.0537281 33.9108187,47.0456871 C27.8070175,46.4130116 23.1692252,41.2693713 23.1692252,35.1330409 C23.1692252,28.9967105 27.8070175,23.8534357 33.9108187,23.2203948 C33.9265351,23.2123538 33.942617,23.2203948 33.9586989,23.2203948 C40.065424,23.8508772 44.7083333,28.9937866 44.7134503,35.1330409 Z" id="Path" fill="#C5EBFF"></path>
                    <path d="M7.65409357,2.59804916 L7.55409357,2.64961166 C7.56363553,2.63906476 7.57508597,2.63008036 7.58729971,2.62383036 C7.61249052,2.61523666 7.62928442,2.59804916 7.65409357,2.59804916 Z" id="Path" fill="#5E5F62"></path>
                    <path d="M2.64850258,7.55482461 L2.59733078,7.65482461 C2.59733078,7.62972958 2.61451818,7.61299953 2.62311198,7.58828471 C2.62936198,7.5757371 2.63795578,7.56433029 2.64850258,7.55482461 Z" id="Path" fill="#5E5F62"></path>
                    <path d="M26.154716,7.65482461 L26.1035442,7.55482461 C26.114091,7.56433029 26.1226848,7.5757371 26.1289348,7.58828471 C26.1375286,7.61299953 26.154716,7.62972958 26.154716,7.65482461 Z" id="Path" fill="#5E5F62"></path>
                    <path d="M21.2152778,2.6741856 C21.1783626,2.6437169 21.1381578,2.6179356 21.0957603,2.5972325 C21.1195176,2.5972325 21.1355994,2.61442 21.1597222,2.6230137 C21.1820175,2.6347325 21.2010234,2.6523106 21.2152778,2.6741856 Z" id="Path" fill="#5E5F62"></path>
                    <path d="M3.19480992,14.3735381 C3.19480992,14.814693 2.83735382,15.1721491 2.39619883,15.1721491 L0.823099415,15.1721491 C0.807383018,14.9086258 0.799342129,14.6451023 0.799342129,14.3735381 C0.799342129,14.1023392 0.807383018,13.8388158 0.823099415,13.5752924 L2.39619883,13.5752924 C2.83735382,13.5752924 3.19480992,13.9327485 3.19480992,14.3735381 Z" id="Path" fill="#A5A5A4"></path>
                    <path d="M16.7682749,14.3735381 C16.7682749,15.6966374 15.695541,16.7690058 14.372807,16.7690058 C13.0500731,16.7690058 11.9773391,15.6966374 11.9773391,14.3735381 C11.9773391,13.0508041 13.0500731,11.9784356 14.372807,11.9784356 C15.695541,11.9784356 16.7682749,13.0508041 16.7682749,14.3735381 Z" id="Path" fill="#C5EBFF"></path>
                    <path d="M24.7525585,35.1330409 C24.752924,35.561769 24.4144737,35.9144737 23.9861111,35.931652 C23.9619883,35.6681287 23.9539473,35.4046053 23.9539473,35.1330409 C23.9539473,34.8614766 23.9619883,34.5983187 23.9861111,34.3347953 C24.4144737,34.3519737 24.752924,34.7043129 24.7525585,35.1330409 Z" id="Path" fill="#F29C1F"></path>
                    <path d="M26.1418129,29.9433479 C26.0010965,30.1900585 25.7390351,30.3421053 25.4550438,30.3424707 C25.3238305,30.3428362 25.1948099,30.3099415 25.0800439,30.2467105 C25.313231,29.7679093 25.5800439,29.3062866 25.8782895,28.8654971 C26.2397661,29.0968567 26.3556286,29.571272 26.1418129,29.9433479 Z" id="Path" fill="#F29C1F"></path>
                    <g id="Group" transform="translate(0.748538, 0.000000)" fill="#FFFFFF">
                        <path d="M32.5529971,17.002924 C32.2397661,16.7002924 31.7415935,16.7046784 31.4334795,17.0127924 C31.125731,17.3205409 31.121345,17.8187135 31.4239766,18.1319444 L33.8190789,20.5274123 C34.0471491,20.7547514 34.3892544,20.8230994 34.6871345,20.7006579 C34.7741229,20.6619152 34.8538012,20.6078217 34.9217836,20.5409357 C34.9290936,20.5343568 34.9385965,20.5321637 34.9459064,20.5248538 L35.5789474,19.8918129 L33.816886,18.1293859 C33.6684941,17.9798976 33.5851608,17.7781433 33.5851608,17.5672515 L33.5851608,18.0354532 L32.5529971,17.002924 Z" id="Path"></path>
                        <path d="M33.5851608,17.5672515 C33.5855263,17.2445175 33.7799708,16.9535818 34.0782164,16.8300439 C34.376462,16.7065058 34.7200292,16.7744883 34.9480994,17.002924 L35.1820175,17.2368421 L35.1820175,10.3815789 L33.5851608,10.3815789 L33.5851608,17.5672515 Z" id="Path"></path>
                        <polygon id="Path" points="35.9806287 18.0354532 35.9806287 17.2368421 35.5815059 17.6359649"></polygon>
                        <path d="M10.4305555,27.6140351 C5.27412285,25.428728 2.44627191,20.3165204 2.44627191,14.3735381 C2.45760234,6.9071637 8.18019004,0.690789427 15.6202485,0.0625000234 C15.2211257,0.0296052398 14.8267544,0.0018274807 14.4228801,0.0018274807 C6.48903504,0.0109649591 0.0599415205,6.44005848 0.050804117,14.3735381 C0.050804117,20.3165204 2.87902044,25.428728 8.03508772,27.6140351" id="Path"></path>
                        <path d="M35.4535818,47.1513158 C30.3176169,46.6440058 26.1016082,42.8687865 25.0325292,37.81981 C23.5248538,31.4722222 27.941155,24.9130116 34.9842836,22.6980995 C34.5921053,22.7620614 34.1999269,22.8307748 33.8062866,22.9243421 C26.0968567,24.7532895 21.1144006,31.684576 22.7017544,38.3731725 C23.7711989,43.4221491 27.9872076,47.1973684 33.1231725,47.7046784" id="Path"></path>
                    </g>
                    <path d="M8.78362573,27.6140351 L8.78362573,34.3347953 C8.78362573,35.2167397 9.49853801,35.931652 10.3804824,35.931652 L18.0343568,35.931652 L17.002193,36.9638158 C16.7945907,37.1644736 16.7112573,37.4612574 16.7843567,37.740497 C16.8574561,38.0197369 17.0752924,38.2375731 17.3545321,38.3106725 C17.633772,38.3837719 17.9305555,38.3004386 18.1312135,38.0928363 L20.5263158,35.6977339 C20.6008772,35.6231725 20.6597222,35.5347222 20.6995614,35.4375 C20.7803363,35.2419591 20.7803363,35.0226609 20.6995614,34.8274854 C20.6597222,34.7298976 20.6008772,34.6414474 20.5263158,34.566886 L18.1312135,32.1717837 C17.8176169,31.869152 17.31981,31.8735381 17.0116959,32.1812865 C16.7039474,32.4894006 16.6995614,32.9875731 17.002193,33.3008041 L18.0343568,34.3347953 L10.3804824,34.3347953 L10.3804824,28.1699561 C15.4093567,29.6392544 20.8395468,28.2496345 24.5442251,24.5449562 C28.2489035,20.8402778 29.6385234,15.4104532 28.1692252,10.3815789 L34.3336988,10.3815789 L34.3336988,18.0354532 L33.3015351,17.002924 C32.9883041,16.7002924 32.4901316,16.7046784 32.1820175,17.0127924 C31.874269,17.3205409 31.869883,17.8187135 32.1725146,18.1319444 L34.5676169,20.5274123 C34.7956871,20.7547514 35.1377924,20.8230994 35.4356725,20.7006579 C35.5226609,20.6619152 35.6023392,20.6078217 35.6703216,20.5409357 C35.6776316,20.5343568 35.6871345,20.5321637 35.6944444,20.5248538 L38.0895468,18.1293859 C38.3921783,17.8161549 38.3877924,17.318348 38.0800439,17.0102339 C37.7719298,16.7021199 37.2741229,16.6980995 36.9605263,17.0003655 L35.9305555,18.0354532 L35.9305555,10.3815789 C35.9305555,9.49963453 35.2156433,8.78472225 34.3336988,8.78472225 L27.6133041,8.78472225 C25.0932018,2.81396201 18.8885234,-0.731725099 12.4649123,0.128654971 C6.04130115,0.989035041 0.988304094,6.04203219 0.127924023,12.4656432 C-0.73245614,18.8892544 2.8128655,25.0939327 8.78362573,27.6140351 Z M7.30994152,3.73757305 L7.69298246,4.40131574 C7.91520468,4.77960524 8.40095027,4.90826021 8.78106723,4.68896196 C9.16118419,4.46929825 9.29276313,3.9842836 9.07602339,3.60270465 L8.69663738,2.94554096 C10.2185673,2.18749998 11.877193,1.74305553 13.5741959,1.63925436 L13.5741959,2.39692987 C13.5741959,2.83808477 13.9320176,3.19554096 14.372807,3.19554096 C14.813962,3.19554096 15.1714181,2.83808477 15.1714181,2.39692987 L15.1714181,1.63925436 C16.8684211,1.74305553 18.5270467,2.18749998 20.0489767,2.94554096 L19.6695906,3.60270465 C19.5248538,3.84978068 19.5233918,4.15570171 19.6659357,4.40423972 C19.808845,4.65277773 20.0738304,4.80555556 20.3603801,4.80482451 C20.6465643,4.80445904 20.9108187,4.65021932 21.0526316,4.40131574 L21.4356725,3.73757305 C22.8508772,4.68128655 24.0650584,5.89583336 25.0087719,7.31067247 L24.3453947,7.69407897 C24.0961258,7.83552636 23.9422514,8.09978068 23.9415205,8.38633039 C23.9407895,8.67288009 24.0939327,8.93749998 24.3424707,9.08040936 C24.5906433,9.22295317 24.8965643,9.22185675 25.1436403,9.07675434 L25.8008041,8.69773389 C26.5592105,10.2192982 27.0032895,11.8782895 27.1070906,13.5752924 L26.3494152,13.5752924 C25.9086258,13.5752924 25.5508041,13.9327485 25.5508041,14.3735381 C25.5508041,14.814693 25.9086258,15.1721491 26.3494152,15.1721491 L27.1070906,15.1721491 C27.0032895,16.869152 26.5592105,18.5281433 25.8008041,20.0497076 L25.1436403,19.6706872 C24.7620614,19.4535818 24.2770468,19.5851608 24.0577486,19.9652778 C23.8380848,20.3453947 23.9667397,20.8315059 24.3453947,21.0533625 L25.0087719,21.436769 C24.0650584,22.8516081 22.8508772,24.0657895 21.4356725,25.0098684 L21.0526316,24.3461258 C20.8307748,23.9674708 20.3446638,23.8391813 19.9645468,24.0584795 C19.5844298,24.2781433 19.4528509,24.7631579 19.6695906,25.1447368 L20.0489767,25.8019005 C18.5270467,26.5599415 16.8684211,27.0040205 15.1714181,27.1078217 L15.1714181,26.3501462 C15.1714181,25.9093567 14.813962,25.5519006 14.372807,25.5519006 C13.9320176,25.5519006 13.5741959,25.9093567 13.5741959,26.3501462 L13.5741959,27.1078217 C11.877193,27.0040205 10.2185673,26.5599415 8.69663738,25.8019005 L9.07602339,25.1447368 C9.29276313,24.7631579 9.16118419,24.2781433 8.78106723,24.0584795 C8.40095027,23.8391813 7.91520468,23.9674708 7.69298246,24.3461258 L7.30994152,25.0098684 C5.89473684,24.0657895 4.6805556,22.8516081 3.73684211,21.436769 L4.40021932,21.0533625 C4.64948828,20.9119152 4.80336262,20.6476608 4.80409357,20.3611111 C4.80482451,20.0745614 4.65168131,19.809576 4.40350877,19.6670321 C4.15497076,19.5241228 3.84904973,19.5255848 3.60197371,19.6706872 L2.94480992,20.0497076 C2.18640356,18.5281433 1.74232458,16.869152 1.63852342,15.1721491 L2.39619883,15.1721491 C2.83735382,15.1721491 3.19480992,14.814693 3.19480992,14.3735381 C3.19480992,13.9327485 2.83735382,13.5752924 2.39619883,13.5752924 L1.63852342,13.5752924 C1.74232458,11.8782895 2.18640356,10.2192982 2.94480992,8.69773389 L3.60197371,9.07675434 C3.72295317,9.14729535 3.86074564,9.18421053 4.00109651,9.18384505 C4.3625731,9.18384505 4.67872805,8.94115499 4.7722953,8.59210526 C4.86586255,8.24305553 4.71308482,7.87463448 4.40021932,7.69407897 L3.73684211,7.31067247 C4.6805556,5.89583336 5.89473684,4.68128655 7.30994152,3.73757305 Z" id="Shape" fill="#4AC2FF" fill-rule="nonzero"></path>
                    <path d="M14.372807,17.5672515 C15.8245614,17.5621345 17.0902778,16.5778509 17.4532164,15.1721491 L20.7602339,15.1721491 C21.2013889,15.1721491 21.558845,14.814693 21.558845,14.3735381 C21.558845,13.9327485 21.2013889,13.5752924 20.7602339,13.5752924 L17.4532164,13.5752924 C17.1622807,12.4572369 16.2894737,11.5840644 15.1714181,11.2931286 L15.1714181,5.59064327 C15.1714181,5.14985375 14.813962,4.79239766 14.372807,4.79239766 C13.9320176,4.79239766 13.5741959,5.14985375 13.5741959,5.59064327 L13.5741959,11.2931286 C12.0186404,11.6937134 11.0040205,13.188962 11.2068714,14.7825292 C11.4097222,16.375731 12.7664473,17.5694445 14.372807,17.5672515 Z M14.372807,12.7766813 C15.2547514,12.7766813 15.9696637,13.4915935 15.9696637,14.3735381 C15.9696637,15.2554825 15.2547514,15.9703948 14.372807,15.9703948 C13.4908626,15.9703948 12.7759503,15.2554825 12.7759503,14.3735381 C12.7759503,13.4915935 13.4908626,12.7766813 14.372807,12.7766813 Z" id="Shape" fill="#4AC2FF" fill-rule="nonzero"></path>
                    <path d="M38.3260234,31.9393274 C38.3260234,32.3804824 38.6834796,32.7379386 39.1246345,32.7379386 C39.565424,32.7379386 39.9228801,32.3804824 39.9228801,31.9393274 C39.9228801,29.9656432 38.192617,28.3256579 35.9305555,28.0069445 L35.9305555,27.1487573 C35.9305555,26.7076023 35.5730994,26.3501462 35.1323099,26.3501462 C34.691155,26.3501462 34.3336988,26.7076023 34.3336988,27.1487573 L34.3336988,28.0069445 C32.0720029,28.3263889 30.3417398,29.9656432 30.3417398,31.9393274 C30.3417398,33.9130116 32.0720029,35.5529971 34.3336988,35.8717105 L34.3336988,40.6374269 C32.9605263,40.369152 31.9385965,39.4400585 31.9385965,38.3267544 C31.9385965,37.8859649 31.5811404,37.5285088 31.1399854,37.5285088 C30.6991959,37.5285088 30.3417398,37.8859649 30.3417398,38.3267544 C30.3417398,40.3008041 32.0720029,41.9407895 34.3336988,42.2591374 L34.3336988,43.11769 C34.3336988,43.5584795 34.691155,43.9159356 35.1323099,43.9159356 C35.5730994,43.9159356 35.9305555,43.5584795 35.9305555,43.11769 L35.9305555,42.2591374 C38.192617,41.939693 39.9228801,40.3008041 39.9228801,38.3267544 C39.9228801,36.3530702 38.192617,34.7130848 35.9305555,34.3947368 L35.9305555,29.628655 C37.3040936,29.8969299 38.3260234,30.8263889 38.3260234,31.9393274 Z M31.9385965,31.9393274 C31.9385965,30.8263889 32.9605263,29.8969299 34.3336988,29.628655 L34.3336988,34.25 C32.9605263,33.9817252 31.9385965,33.0522661 31.9385965,31.9393274 Z M38.3260234,38.3267544 C38.3260234,39.4400585 37.3040936,40.369152 35.9305555,40.6374269 L35.9305555,36.0160819 C37.3040936,36.2843567 38.3260234,37.2138158 38.3260234,38.3267544 Z" id="Shape" fill="#4AC2FF" fill-rule="nonzero"></path>
                    <path d="M46.195541,28.745614 C46.1783626,28.7240497 46.1604532,28.7032164 46.1410818,28.6834796 C45.0336257,26.8011696 43.4645468,25.2320907 41.5822368,24.125 C41.5625,24.1052632 41.5416666,24.0869884 41.5197369,24.06981 C41.4992691,24.0614035 41.4780702,24.054459 41.4568713,24.0482456 C37.5416666,21.7945907 32.7229532,21.7945907 28.8077485,24.0482456 C28.7865497,24.054459 28.7653509,24.0614035 28.7448831,24.06981 C28.7229532,24.0869884 28.7021199,24.1052632 28.6823831,24.125 C26.8004386,25.2324561 25.2317251,26.8015351 24.124269,28.6834796 C24.1045322,28.7028509 24.0862573,28.7236842 24.0690789,28.745614 C24.0606726,28.7660819 24.0533625,28.7872807 24.0475146,28.808845 C21.7938596,32.7236842 21.7938596,37.5423977 24.0475146,41.4576023 C24.0533625,41.4791667 24.0606726,41.5 24.0690789,41.5204678 C24.0928363,41.5570175 24.1195176,41.5913742 24.1487573,41.623538 C25.2554825,43.4875731 26.8150585,45.0416666 28.683114,46.1410818 C28.7028509,46.1608187 28.7236842,46.1790935 28.745614,46.1962719 C28.7737573,46.2105263 28.8029971,46.2225877 28.8326024,46.2331872 C32.7361112,48.4663743 37.5299707,48.4663743 41.4334795,46.2331872 C41.4630848,46.2225877 41.491959,46.2105263 41.5197369,46.1962719 C41.5416666,46.1790935 41.5625,46.1608187 41.5822368,46.1410818 C43.4502924,45.0416666 45.0098684,43.4875731 46.1165936,41.623538 C46.1458334,41.5913742 46.1725146,41.5570175 46.1962719,41.5204678 C46.2046784,41.5 46.2119883,41.4791667 46.2178363,41.4576023 C48.4714912,37.5423977 48.4714912,32.7236842 46.2178363,28.808845 C46.2116228,28.7872807 46.2039474,28.7660819 46.195541,28.745614 Z M41.3910819,44.3896198 C41.1648392,44.0321637 40.6977339,43.9155702 40.3300439,44.125 C39.9623538,44.3344298 39.8241959,44.7956871 40.0164473,45.1728801 C38.7350146,45.7986111 37.3450292,46.1717837 35.9228801,46.2711989 C35.9038742,45.8486842 35.5555556,45.5157164 35.1323099,45.5157164 C34.7090643,45.5157164 34.3607456,45.8486842 34.3417398,46.2711989 C32.9192252,46.1717837 31.5296052,45.7986111 30.2481725,45.1728801 C30.4400585,44.7956871 30.3019005,44.3344298 29.934576,44.125 C29.566886,43.9155702 29.0997807,44.0321637 28.8731725,44.3896198 C27.6937134,43.5888158 26.6765351,42.5720029 25.8760965,41.3921783 C26.2331872,41.1655702 26.3497807,40.6984649 26.1403509,40.3307748 C25.9309211,39.9634503 25.4696637,39.8252924 25.0928363,40.0171784 C24.4667397,38.7361112 24.0935673,37.3461258 23.994152,35.9236111 C24.4166667,35.9046053 24.7496345,35.5562865 24.7496345,35.1330409 C24.7496345,34.7097954 24.4166667,34.3618422 23.994152,34.3428362 C24.0935673,32.9210526 24.4663743,31.5317983 25.0917398,30.251462 C25.4703948,30.4506579 25.9385965,30.313962 26.1502193,29.9422514 C26.3618422,29.5705409 26.240497,29.0979532 25.8760965,28.874269 C26.6761695,27.6948099 27.692617,26.6779971 28.8717105,25.8775585 C29.0975877,26.2364766 29.5665205,26.3541666 29.9349416,26.1440058 C30.3037281,25.9342105 30.4418859,25.4711257 30.2481725,25.0935673 C31.5296052,24.4674708 32.9192252,24.0946638 34.3417398,23.994883 C34.3607456,24.4177632 34.7090643,24.750731 35.1323099,24.750731 C35.5555556,24.750731 35.9038742,24.4177632 35.9228801,23.994883 C37.3450292,24.0946638 38.7350146,24.4674708 40.0164473,25.0935673 C39.8227339,25.4711257 39.9608918,25.9342105 40.3296784,26.1440058 C40.6980995,26.3541666 41.1666667,26.2364766 41.3929094,25.8775585 C42.5720029,26.6779971 43.5884502,27.6948099 44.3885234,28.874269 C44.0241228,29.0979532 43.9024123,29.5705409 44.1140351,29.9422514 C44.3256579,30.313962 44.7942251,30.4506579 45.1725146,30.251462 C45.7982456,31.5317983 46.1710526,32.9210526 46.2704678,34.3428362 C45.8475877,34.3618422 45.5146199,34.7097954 45.5146199,35.1330409 C45.5146199,35.5562865 45.8475877,35.9046053 46.2704678,35.9236111 C46.1710526,37.3461258 45.7978801,38.7361112 45.1717837,40.0171784 C44.7949562,39.8252924 44.3336988,39.9634503 44.124269,40.3307748 C43.9148392,40.6984649 44.0310672,41.1655702 44.3885234,41.3921783 C43.5884502,42.5720029 42.571272,43.5891813 41.3910819,44.3896198 Z" id="Shape" fill="#4AC2FF" fill-rule="nonzero"></path>
                </g>
            </g>
        </g>
    </g>
</svg>