<?xml version="1.0" encoding="UTF-8"?>
<svg width="48px" height="48px" viewBox="0 0 48 48" version="1.1" xmlns="http://www.w3.org/2000/svg" xmlns:xlink="http://www.w3.org/1999/xlink">
    <!-- Generator: sketchtool 52.2 (67145) - http://www.bohemiancoding.com/sketch -->
    <title>C91CB34C-FB21-43B1-8166-6341AC2E2D5C</title>
    <desc>Created with sketchtool.</desc>
    <g id="Symbols" stroke="none" stroke-width="1" fill="none" fill-rule="evenodd">
        <g id="ic-/-transparent-workflow" fill-rule="nonzero">
            <g id="tasks">
                <g>
                    <g id="Group" transform="translate(0.748538, 0.748538)">
                        <path d="M46.3674386,4.84051462 L46.3674386,31.987462 C46.3648187,32.8683041 45.6513684,33.5817544 44.7705263,33.5843743 L1.65473684,33.5843743 C0.773894737,33.5817544 0.0604444444,32.8683041 0.0578245614,31.987462 L0.0578245614,4.84051462 L46.3674386,4.84051462 Z" id="Shape" fill="#F8FDFF"></path>
                        <path d="M43.972117,4.84051462 L43.972117,31.987462 C43.9694971,32.8683041 43.2560468,33.5817544 42.3752047,33.5843743 L1.65473684,33.5843743 C0.773894737,33.5817544 0.0604444444,32.8683041 0.0578245614,31.987462 L0.0578245614,4.84051462 L43.972117,4.84051462 Z" id="Shape" fill="#FFFFFF"></path>
                        <path d="M46.3674386,1.64678363 L46.3674386,6.4374269 L0.0578245614,6.4374269 L0.0578245614,1.64678363 C0.0604444444,0.76594152 0.773894737,0.0524912281 1.65473684,0.049871345 L44.7705263,0.049871345 C45.6513684,0.0524912281 46.3647251,0.76594152 46.3674386,1.64678363 Z" id="Shape" fill="#C2D6E1"></path>
                        <path d="M43.972117,1.64678363 L43.972117,6.4374269 L0.0578245614,6.4374269 L0.0578245614,1.64678363 C0.0604444444,0.76594152 0.773894737,0.0524912281 1.65473684,0.049871345 L42.3752047,0.049871345 C43.2560468,0.0524912281 43.9694035,0.76594152 43.972117,1.64678363 Z" id="Shape" fill="#F8FDFF"></path>
                        <g transform="translate(3.181287, 11.228070)" fill="#C2D6E1" id="Shape">
                            <path d="M4.06250292,0 L4.06250292,9.58128655 L0.86877193,9.58128655 C0.427789474,9.58128655 0.0703625731,9.22376608 0.0703625731,8.78287719 L0.0703625731,0.798502924 C0.0703625731,0.357520468 0.427883041,9.35672515e-05 0.86877193,9.35672515e-05 L4.06250292,0 Z"></path>
                            <path d="M17.6360234,0.798409357 L17.6360234,8.78278363 C17.6360234,9.22376608 17.2785029,9.58119298 16.837614,9.58119298 L4.06250292,9.58119298 L4.06250292,0 L16.8375205,0 C17.2785029,0 17.6360234,0.357520468 17.6360234,0.798409357 Z"></path>
                            <path d="M26.4189006,0 L26.4189006,9.58128655 L23.2251696,9.58128655 C22.7841871,9.58128655 22.4267602,9.22376608 22.4267602,8.78287719 L22.4267602,0.798502924 C22.4267602,0.357520468 22.7842807,9.35672515e-05 23.2251696,9.35672515e-05 L26.4189006,0 Z"></path>
                            <path d="M39.9923275,0.798409357 L39.9923275,8.78278363 C39.9923275,9.22376608 39.6349006,9.58119298 39.1939181,9.58119298 L26.4189006,9.58119298 L26.4189006,0 L39.1939181,0 C39.6349006,0 39.9923275,0.357520468 39.9923275,0.798409357 Z"></path>
                        </g>
                        <g transform="translate(7.204678, 11.228070)" fill="#F8FDFF" id="Shape">
                            <path d="M11.2173099,0.798409357 L11.2173099,8.78278363 C11.2173099,9.22376608 10.859883,9.58119298 10.4189006,9.58119298 L0.0391111111,9.58119298 L0.0391111111,0 L10.418807,0 C10.8597895,0 11.2173099,0.357520468 11.2173099,0.798409357 Z"></path>
                            <path d="M33.573614,0.798409357 L33.573614,8.78278363 C33.573614,9.22376608 33.2160936,9.58119298 32.7752047,9.58119298 L22.3955088,9.58119298 L22.3955088,0 L32.7752047,0 C33.2161871,0 33.573614,0.357520468 33.573614,0.798409357 Z"></path>
                        </g>
                        <path d="M35.9876491,33.5843743 C35.9819415,40.6374737 30.265731,46.3536842 23.2126316,46.3593918 C22.8127251,46.361076 22.4130058,46.3423626 22.0149708,46.3035322 C15.4507602,45.6874854 10.4335906,40.1774035 10.4335906,33.5843743 C10.4335906,26.991345 15.4507602,21.4812632 22.0149708,20.8652164 C22.4130058,20.8262924 22.8127251,20.8076725 23.2126316,20.8093567 C30.265731,20.8150643 35.9819415,26.5312749 35.9876491,33.5843743 Z" id="Shape" fill="#C2D6E1"></path>
                        <path d="M33.5923275,33.5843743 C33.5865263,40.1736608 28.5746901,45.6798129 22.0149708,46.3035322 C15.4507602,45.6874854 10.4335906,40.1774035 10.4335906,33.5843743 C10.4335906,26.991345 15.4507602,21.4812632 22.0149708,20.8652164 C28.5746901,21.4889357 33.5865263,26.9950877 33.5923275,33.5843743 Z" id="Shape" fill="#F8FDFF"></path>
                        <path d="M32.7939181,33.5843743 C32.7939181,33.8558129 32.7859649,34.1192982 32.7620117,34.3827836 C32.6690994,35.5196257 32.3743626,36.6308304 31.8917427,37.6643743 L31.8917427,37.6723275 C31.4082807,38.6638596 30.7664094,39.5699649 29.9914854,40.3550877 C29.5870877,40.7588304 29.1490058,41.1274854 28.6820117,41.4569357 C28.2440234,41.7625263 27.7820819,42.0321871 27.3006784,42.2633918 L27.2927251,42.2633918 C26.2591813,42.7461053 25.1479766,43.0407485 24.0111345,43.1336608 C23.7476491,43.157614 23.4841637,43.1655673 23.2127251,43.1655673 C22.9412865,43.1655673 22.6778012,43.157614 22.4143158,43.1336608 C22.2804211,43.125614 22.1470877,43.109614 22.0150643,43.0857544 C21.0165146,42.9673918 20.0434152,42.6896842 19.1327251,42.2633918 L19.1247719,42.2633918 C18.1332398,41.7799298 17.2271345,41.1380585 16.4420117,40.3631345 C15.6541754,39.5810994 15.0084678,38.667883 14.5337076,37.6643743 C14.0510877,36.6308304 13.7563509,35.5196257 13.6634386,34.3827836 C13.6394854,34.1192982 13.6315322,33.8558129 13.6315322,33.5843743 C13.6315322,33.3129357 13.6394854,33.0494503 13.6634386,32.7859649 C13.7563509,31.6491228 14.0510877,30.5379181 14.5337076,29.5043743 C15.0143626,28.5088187 15.6565146,27.5995322 16.4339649,26.8136608 C16.8383626,26.4099181 17.2764444,26.0412632 17.7434386,25.7118129 C18.1814269,25.4062222 18.6433684,25.1365614 19.1247719,24.9053567 L19.1327251,24.9053567 C20.0434152,24.4789708 21.0165146,24.2013567 22.0150643,24.0829942 C22.1470877,24.0591345 22.2804211,24.0431345 22.4143158,24.0350877 C22.6778012,24.0111345 22.9412865,24.0031813 23.2127251,24.0031813 C23.4841637,24.0031813 23.7476491,24.0111345 24.0111345,24.0350877 C25.1479766,24.128 26.2591813,24.4227368 27.2927251,24.9053567 L27.3006784,24.9053567 C28.2922105,25.3888187 29.1983158,26.0306901 29.9834386,26.805614 C30.3871813,27.2100117 30.7558363,27.6480936 31.0852865,28.1150877 C31.3908772,28.553076 31.660538,29.0150175 31.8917427,29.4964211 L31.8917427,29.5043743 C32.3743626,30.5379181 32.6690994,31.6491228 32.7620117,32.7859649 C32.7859649,33.0494503 32.7939181,33.3129357 32.7939181,33.5843743 Z" id="Shape" fill="#C2D6E1"></path>
                        <path d="M30.3985965,33.5843743 C30.3985965,33.8558129 30.3906433,34.1192982 30.3666901,34.3827836 C30.2737778,35.5196257 29.9790409,36.6308304 29.4964211,37.6643743 L29.4964211,37.6723275 C29.0129591,38.6638596 28.3710877,39.5699649 27.5961637,40.3550877 C27.1917661,40.7588304 26.7536842,41.1274854 26.2866901,41.4569357 C25.8487018,41.7625263 25.3867602,42.0321871 24.9053567,42.2633918 L24.8974035,42.2633918 C23.9867135,42.6897778 23.013614,42.9673918 22.0150643,43.0857544 C21.0165146,42.9673918 20.0434152,42.6896842 19.1327251,42.2633918 L19.1247719,42.2633918 C18.1332398,41.7799298 17.2271345,41.1380585 16.4420117,40.3631345 C15.6541754,39.5810994 15.0084678,38.667883 14.5337076,37.6643743 C14.0510877,36.6308304 13.7563509,35.5196257 13.6634386,34.3827836 C13.6394854,34.1192982 13.6315322,33.8558129 13.6315322,33.5843743 C13.6315322,33.3129357 13.6394854,33.0494503 13.6634386,32.7859649 C13.7563509,31.6491228 14.0510877,30.5379181 14.5337076,29.5043743 C15.0143626,28.5088187 15.6565146,27.5995322 16.4339649,26.8136608 C16.8383626,26.4099181 17.2764444,26.0412632 17.7434386,25.7118129 C18.1814269,25.4062222 18.6433684,25.1365614 19.1247719,24.9053567 L19.1327251,24.9053567 C20.0434152,24.4789708 21.0165146,24.2013567 22.0150643,24.0829942 C23.013614,24.2013567 23.9867135,24.4790643 24.8974035,24.9053567 L24.9053567,24.9053567 C25.8968889,25.3888187 26.8029942,26.0306901 27.588117,26.805614 C27.9918596,27.2100117 28.3605146,27.6480936 28.6899649,28.1150877 C28.9955556,28.553076 29.2652164,29.0150175 29.4964211,29.4964211 L29.4964211,29.5043743 C29.9790409,30.5379181 30.2737778,31.6491228 30.3666901,32.7859649 C30.3906433,33.0494503 30.3985965,33.3129357 30.3985965,33.5843743 Z" id="Shape" fill="#F4F4F4"></path>
                        <path d="M1.65473684,33.5843743 L4.05005848,33.5843743 C3.16921637,33.5817544 2.45576608,32.8683041 2.4531462,31.987462 L2.4531462,1.64678363 C2.45576608,0.76594152 3.16921637,0.0524912281 4.05005848,0.049871345 L1.65473684,0.049871345 C0.773894737,0.0524912281 0.0604444444,0.76594152 0.0578245614,1.64678363 L0.0578245614,31.9875556 C0.0604444444,32.8683977 0.773894737,33.5817544 1.65473684,33.5843743 Z" id="Shape" fill="#FFFFFF"></path>
                    </g>
                    <g id="Group">
                        <polygon id="Shape" fill="#FFFFFF" points="1.6048655 7.18596491 1.6048655 17.5656608 1.6048655 32.7360936 0.00795321637 32.7360936 0.00795321637 17.5656608 0.00795321637 7.18596491"></polygon>
                        <g fill="#4AC2FF" id="Shape">
                            <path d="M0.806362573,14.3719298 C1.01773099,14.3688421 1.22011696,14.2861287 1.37328655,14.1403509 C1.68205848,13.8254971 1.68205848,13.3214503 1.37328655,13.0065965 L1.25352047,12.9107836 C1.20898246,12.8805614 1.16070175,12.8564211 1.10980117,12.838924 C1.06451462,12.8159064 1.01614035,12.7997193 0.966081871,12.7910175 C0.913309942,12.7821287 0.859883041,12.7767953 0.806362573,12.7750175 C0.594994152,12.7781053 0.392608187,12.8608187 0.239438596,13.0065965 C0.167298246,13.0829474 0.110315789,13.1723977 0.0717660819,13.2700819 C-0.0486549708,13.5679064 0.0169356725,13.9086784 0.239438596,14.1403509 C0.315789474,14.2124912 0.405239766,14.2694737 0.502923977,14.3080234 C0.598923977,14.3490058 0.702035088,14.3707135 0.806362573,14.3719298 Z"></path>
                            <path d="M11.186152,15.9688421 L18.372117,15.9688421 C18.8130994,15.9688421 19.1705263,15.6113216 19.1705263,15.1704327 C19.1705263,14.7294503 18.8130994,14.3720234 18.372117,14.3720234 L11.186152,14.3720234 C10.7451696,14.3720234 10.3877427,14.7295439 10.3877427,15.1704327 C10.3876491,15.6113216 10.7451696,15.9688421 11.186152,15.9688421 Z"></path>
                            <path d="M15.1782924,17.5656608 L11.1860585,17.5656608 C10.745076,17.5656608 10.3876491,17.9231813 10.3876491,18.3640702 C10.3876491,18.8049591 10.7451696,19.1624795 11.1860585,19.1624795 L15.1782924,19.1624795 C15.6192749,19.1624795 15.9767018,18.8049591 15.9767018,18.3640702 C15.9767018,17.9231813 15.6192749,17.5656608 15.1782924,17.5656608 Z"></path>
                            <path d="M32.7440468,15.9688421 L40.7284211,15.9688421 C41.1694035,15.9688421 41.5268304,15.6113216 41.5268304,15.1704327 C41.5268304,14.7294503 41.1693099,14.3720234 40.7284211,14.3720234 L32.7440468,14.3720234 C32.3030643,14.3720234 31.9456374,14.7295439 31.9456374,15.1704327 C31.9455439,15.6113216 32.3030643,15.9688421 32.7440468,15.9688421 Z"></path>
                            <path d="M36.7361871,17.5656608 L32.7439532,17.5656608 C32.3029708,17.5656608 31.9455439,17.9231813 31.9455439,18.3640702 C31.9455439,18.8049591 32.3030643,19.1624795 32.7439532,19.1624795 L36.7361871,19.1624795 C37.1771696,19.1624795 37.5345965,18.8049591 37.5345965,18.3640702 C37.5345965,17.9231813 37.1771696,17.5656608 36.7361871,17.5656608 Z"></path>
                            <path d="M25.5580819,33.5345029 L24.7596725,33.5345029 L24.7596725,30.3407719 C24.7596725,29.8997895 24.402152,29.5423626 23.9612632,29.5423626 C23.5202807,29.5423626 23.1628538,29.899883 23.1628538,30.3407719 L23.1628538,34.3330058 C23.1628538,34.7739883 23.5203743,35.1314152 23.9612632,35.1314152 L25.5581754,35.1314152 C25.9991579,35.1314152 26.3565848,34.7739883 26.3565848,34.3330058 C26.3565848,33.8920234 25.9989708,33.5345029 25.5580819,33.5345029 Z"></path>
                            <path d="M32.9252865,29.1142924 C32.0290058,27.5568655 30.7364678,26.2643275 29.1790409,25.3680468 C29.1679064,25.3616842 29.1622924,25.3504561 29.1510643,25.3440936 C29.1399298,25.337731 29.1311345,25.3384795 29.1214971,25.3337076 C25.9277661,23.4930526 21.9954152,23.4930526 18.8016842,25.3337076 C18.7921404,25.3384795 18.7809123,25.3384795 18.7713684,25.3440936 C18.7618246,25.3497076 18.7537778,25.3616842 18.7426433,25.3688889 C17.1852164,26.2649825 15.8928655,27.5575205 14.9971462,29.1151345 C14.9899415,29.126269 14.978807,29.131883 14.9723509,29.1431111 C14.9659883,29.1542456 14.9667368,29.1630409 14.9619649,29.1726784 C13.1213099,32.3664094 13.1213099,36.2987602 14.9619649,39.4924912 C14.9667368,39.5020351 14.9667368,39.5132632 14.9723509,39.522807 C14.9833918,39.5389006 14.995462,39.5543392 15.0082807,39.5691228 C15.9035322,41.1190643 17.1919532,42.4052398 18.7433918,43.2978713 C18.7545263,43.3042339 18.7601404,43.315462 18.7713684,43.3218246 C18.7825965,43.3281871 18.799345,43.3322105 18.8129123,43.3394152 C22.0003743,45.1704327 25.9205614,45.1704327 29.1080234,43.3394152 C29.1227135,43.3343626 29.1371228,43.3285614 29.1511579,43.3218246 C29.1622924,43.315462 29.1687485,43.3042339 29.179883,43.2970292 C30.7313216,42.4044912 32.0197427,41.1182222 32.9149942,39.5682807 C32.9261287,39.5522807 32.940538,39.5395556 32.9500819,39.522807 C32.9596257,39.5060585 32.9556959,39.5028772 32.9604678,39.4932398 C34.8011228,36.2995088 34.8011228,32.3671579 32.9604678,29.1734269 C32.9556959,29.163883 32.9556959,29.152655 32.9500819,29.1431111 C32.9443743,29.1334737 32.9323977,29.1255205 32.9252865,29.1142924 Z M29.0225029,41.5029708 L28.6448655,40.8482807 C28.5032982,40.5992047 28.2390643,40.4450994 27.9525614,40.4444444 C27.6660585,40.4437895 27.4011696,40.5967719 27.2584795,40.845193 C27.1157895,41.093614 27.1170994,41.3994854 27.2620351,41.6466901 L27.6405146,42.3022222 C26.7319766,42.7242105 25.7573801,42.9862924 24.7597661,43.0766784 L24.7597661,42.3173801 C24.7597661,41.8763977 24.4022456,41.5189708 23.9613567,41.5189708 C23.5203743,41.5189708 23.1629474,41.8763977 23.1629474,42.3173801 L23.1629474,43.0766784 C22.1652398,42.9861988 21.1907368,42.7242105 20.2821988,42.3022222 L20.6606784,41.6466901 C20.8775673,41.2651228 20.7459181,40.7800702 20.365848,40.5605614 C19.9857778,40.3411462 19.4997895,40.469614 19.277848,40.8481871 L18.8993684,41.5028772 C18.490386,41.2163743 18.1062924,40.8958129 17.7512047,40.5447485 C17.3997661,40.1897544 17.0792047,39.8052865 16.793076,39.3958363 L17.4477661,39.0181988 C17.6968421,38.8766316 17.8509474,38.6123977 17.8516023,38.3258947 C17.8522573,38.0393918 17.6992749,37.7745029 17.4508538,37.6318129 C17.2024327,37.4891228 16.8965614,37.4904327 16.6493567,37.6353684 L15.9938246,38.013848 C15.5710877,37.1049357 15.308538,36.1297778 15.2177778,35.1315088 L15.977076,35.1315088 C16.4180585,35.1315088 16.7754854,34.7740819 16.7754854,34.3330994 C16.7754854,33.892117 16.4179649,33.5346901 15.977076,33.5346901 L15.2177778,33.5346901 C15.3082573,32.5369825 15.5702456,31.5624795 15.9922339,30.6539415 L16.6477661,31.0324211 C16.8949708,31.1773567 17.2008421,31.1786667 17.4492632,31.0359766 C17.6976842,30.8932865 17.8506667,30.6283977 17.8500117,30.3418947 C17.8493567,30.0553918 17.6952515,29.7911579 17.4461754,29.6495906 L16.7914854,29.2711111 C17.0779883,28.8621287 17.3985497,28.4780351 17.749614,28.1229474 C18.1046082,27.7715088 18.489076,27.4509474 18.8985263,27.1648187 L19.2761637,27.8195088 C19.417731,28.0685848 19.6819649,28.2226901 19.9684678,28.223345 C20.2549708,28.224 20.5198596,28.0710175 20.6625497,27.8225965 C20.8052398,27.5741754 20.8039298,27.2683041 20.6589942,27.0210994 L20.2805146,26.3655673 C21.1894269,25.9428304 22.1645848,25.6802807 23.1628538,25.5895205 L23.1628538,26.3488187 C23.1628538,26.7898012 23.5203743,27.1472281 23.9612632,27.1472281 C24.4022456,27.1472281 24.7596725,26.7897076 24.7596725,26.3488187 L24.7596725,25.5895205 C25.7573801,25.68 26.731883,25.9419883 27.6404211,26.3639766 L27.2619415,27.0195088 C27.1170058,27.2667135 27.1156959,27.5725848 27.258386,27.8210058 C27.401076,28.0694269 27.6659649,28.2224094 27.9524678,28.2217544 C28.2389708,28.2210994 28.5032047,28.0669942 28.6447719,27.8179181 L29.0232515,27.1632281 C29.4322339,27.449731 29.8163275,27.7702924 30.1714152,28.1213567 C30.5228538,28.4763509 30.8434152,28.8607251 31.1295439,29.270269 L30.4748538,29.6479064 C30.2257778,29.7894737 30.0716725,30.0537076 30.0710175,30.3402105 C30.0703626,30.6267135 30.223345,30.8916023 30.4717661,31.0342924 C30.7201871,31.1769825 31.0260585,31.1756725 31.2732632,31.0307368 L31.9287953,30.6522573 C32.3515322,31.5611696 32.6140819,32.5363275 32.7048421,33.5345965 L31.9455439,33.5345965 C31.5045614,33.5345965 31.1471345,33.8920234 31.1471345,34.3330058 C31.1471345,34.7739883 31.5045614,35.1314152 31.9455439,35.1314152 L32.7048421,35.1314152 C32.6143626,36.1291228 32.3523743,37.1036257 31.930386,38.0121637 L31.2748538,37.6336842 C30.8932865,37.4167953 30.4082339,37.5484444 30.1887251,37.9285146 C29.9693099,38.3085848 30.0977778,38.7945731 30.4763509,39.0165146 L31.1310409,39.3949942 C30.844538,39.8039766 30.5239766,40.1880702 30.1729123,40.5431579 C29.8175439,40.895345 29.4326082,41.2163743 29.0225029,41.5029708 Z"></path>
                            <path d="M45.5190643,0 L2.40327485,0 C1.08042105,0 0.00795321637,1.07246784 0.00795321637,2.39532164 L0.00795321637,10.3796959 C0.00795321637,10.8206784 0.365473684,11.1781053 0.806362573,11.1781053 C1.24725146,11.1781053 1.60477193,10.8205848 1.60477193,10.3796959 L1.60477193,7.98437427 L46.3174737,7.98437427 L46.3174737,32.736 C46.3174737,33.1769825 45.9600468,33.5344094 45.5190643,33.5344094 L37.4938947,33.5344094 C37.2156257,28.8163743 34.5041404,24.5824561 30.3350643,22.3562105 L43.1236491,22.3562105 C44.005614,22.3562105 44.7205614,21.6412632 44.7205614,20.7592982 L44.7205614,12.774924 C44.7205614,11.8929591 44.005614,11.1780117 43.1236491,11.1780117 L27.1549006,11.1780117 C26.2729357,11.1780117 25.5579883,11.8929591 25.5579883,12.774924 L25.5579883,15.968655 L22.3642573,15.968655 L22.3642573,12.774924 C22.3642573,11.8929591 21.6493099,11.1780117 20.767345,11.1780117 L4.79859649,11.1780117 C3.91663158,11.1780117 3.20168421,11.8929591 3.20168421,12.774924 L3.20168421,20.7592982 C3.20168421,21.6412632 3.91663158,22.3562105 4.79859649,22.3562105 L17.5871813,22.3562105 C13.4181053,24.5824561 10.7066199,28.8163743 10.4283509,33.5344094 L2.40327485,33.5344094 C1.9622924,33.5344094 1.6048655,33.1768889 1.6048655,32.736 L1.6048655,16.7672515 C1.6048655,16.326269 1.24734503,15.9688421 0.80645614,15.9688421 C0.365567251,15.9688421 0.00804678363,16.3263626 0.00804678363,16.7672515 L0.00804678363,32.7360936 C0.00804678363,34.0589474 1.08051462,35.1314152 2.40336842,35.1314152 L10.428538,35.1314152 C10.8338713,42.3094269 16.7726784,47.9223392 23.9621053,47.9223392 C31.1515322,47.9223392 37.0903392,42.3093333 37.4956725,35.1314152 L45.5191579,35.1314152 C46.8420117,35.1314152 47.9144795,34.0589474 47.9144795,32.7360936 L47.9144795,2.39532164 C47.914386,1.07246784 46.8419181,0 45.5190643,0 Z M43.1237427,20.7594854 L31.1471345,20.7594854 L31.1471345,12.7751111 L43.1237427,12.7751111 L43.1237427,20.7594854 Z M27.1549006,12.7750175 L29.5502222,12.7750175 L29.5502222,20.7593918 L27.1549006,20.7593918 L27.1549006,12.7750175 Z M20.7674386,16.7672515 L20.7674386,20.7594854 L8.79083041,20.7594854 L8.79083041,12.7751111 L20.7674386,12.7751111 L20.7674386,16.7672515 Z M4.79859649,12.7750175 L7.19391813,12.7750175 L7.19391813,20.7593918 L4.79859649,20.7593918 L4.79859649,12.7750175 Z M22.3642573,20.7594854 L22.3642573,17.5657544 L25.5579883,17.5657544 L25.5579883,20.7594854 C25.5579883,20.7954152 25.5659415,20.8281637 25.5683743,20.8632515 C24.5013333,20.7248655 23.4209123,20.7248655 22.3538713,20.8632515 C22.3563041,20.8281637 22.3642573,20.7954152 22.3642573,20.7594854 Z M23.9611696,46.3095205 C17.3467135,46.3095205 11.9845614,40.9473684 11.9845614,34.3329123 C11.9845614,27.7184561 17.3467135,22.3563041 23.9611696,22.3563041 C30.5756257,22.3563041 35.9377778,27.7184561 35.9377778,34.3329123 C35.9302924,40.9443743 30.572538,46.3020351 23.9611696,46.3095205 Z M1.6048655,6.38755556 L1.6048655,2.39532164 C1.6048655,1.95433918 1.96238596,1.59691228 2.40327485,1.59691228 L45.5190643,1.59691228 C45.9600468,1.59691228 46.3174737,1.95443275 46.3174737,2.39532164 L46.3174737,6.38755556 L1.6048655,6.38755556 Z"></path>
                            <path d="M5.59700585,3.19373099 L4.79859649,3.19373099 C4.35761404,3.19373099 4.00018713,3.55125146 4.00018713,3.99214035 C4.00018713,4.43302924 4.3577076,4.79054971 4.79859649,4.79054971 L5.59700585,4.79054971 C6.0379883,4.79054971 6.3954152,4.43302924 6.3954152,3.99214035 C6.3954152,3.55125146 6.0379883,3.19373099 5.59700585,3.19373099 Z"></path>
                            <path d="M9.58923977,3.19373099 L8.79083041,3.19373099 C8.34984795,3.19373099 7.99242105,3.55125146 7.99242105,3.99214035 C7.99242105,4.43302924 8.34994152,4.79054971 8.79083041,4.79054971 L9.58923977,4.79054971 C10.0302222,4.79054971 10.3876491,4.43302924 10.3876491,3.99214035 C10.3876491,3.55125146 10.0302222,3.19373099 9.58923977,3.19373099 Z"></path>
                            <path d="M13.5814737,3.19373099 L12.7830643,3.19373099 C12.3420819,3.19373099 11.984655,3.55125146 11.984655,3.99214035 C11.984655,4.43302924 12.3421754,4.79054971 12.7830643,4.79054971 L13.5814737,4.79054971 C14.0224561,4.79054971 14.379883,4.43302924 14.379883,3.99214035 C14.379883,3.55125146 14.0223626,3.19373099 13.5814737,3.19373099 Z"></path>
                            <path d="M43.1237427,3.19373099 L42.3253333,3.19373099 C41.8843509,3.19373099 41.526924,3.55125146 41.526924,3.99214035 C41.526924,4.43302924 41.8843509,4.79054971 42.3253333,4.79054971 L43.1237427,4.79054971 C43.5647251,4.79054971 43.922152,4.43302924 43.922152,3.99214035 C43.922152,3.55125146 43.5647251,3.19373099 43.1237427,3.19373099 Z"></path>
                        </g>
                    </g>
                </g>
            </g>
        </g>
    </g>
</svg>