<?xml version="1.0" encoding="UTF-8"?>
<svg width="96px" height="96px" viewBox="0 0 96 96" version="1.1" xmlns="http://www.w3.org/2000/svg" xmlns:xlink="http://www.w3.org/1999/xlink">
    <!-- Generator: sketchtool 52.2 (67145) - http://www.bohemiancoding.com/sketch -->
    <title>68F264D2-67EB-4540-BD62-22AE65F27D9E</title>
    <desc>Created with sketchtool.</desc>
    <defs>
        <linearGradient x1="66.1820023%" y1="0%" x2="66.1820023%" y2="135.558712%" id="linearGradient-1">
            <stop stop-color="#4AC2FF" offset="0%"></stop>
            <stop stop-color="#4BB7FF" stop-opacity="0" offset="100%"></stop>
        </linearGradient>
    </defs>
    <g id="01.-Index-Page" stroke="none" stroke-width="1" fill="none" fill-rule="evenodd">
        <g id="bba/-web-1-/-00-landing-design" transform="translate(-973.000000, -546.000000)" fill-rule="nonzero">
            <g id="1.-Title">
                <g id="for" transform="translate(200.000000, 331.000000)">
                    <g id="#6" transform="translate(703.000000, 215.000000)">
                        <g id="Group-11" transform="translate(70.000000, 0.000000)">
                            <g id="Group-17">
                                <path d="M19.5218252,30.3817527 C20.3461549,31.2060824 21.6826574,31.2060824 22.5069871,30.3817527 L30.3817527,22.5069871 C31.2060824,21.6826574 31.2060824,20.3461549 30.3817527,19.5218252 L22.4781748,11.6182473 C21.6538451,10.7939176 20.3173426,10.7939176 19.4930129,11.6182473 L11.6182473,19.4930129 C10.7939176,20.3173426 10.7939176,21.6538451 11.6182473,22.4781748 L19.5218252,30.3817527 Z" id="Rectangle-3" stroke="#D3D9DD" stroke-width="4" opacity="0.556305804"></path>
                                <rect id="Rectangle-3" stroke="#D3D9DD" stroke-width="4" opacity="0.556305804" transform="translate(78.000000, 74.000000) rotate(-90.000000) translate(-78.000000, -74.000000) " x="68" y="64" width="20" height="20" rx="10"></rect>
                                <path d="M44.9989556,21 L50.955535,21 C52.9514968,21 54.5865339,22.5854182 54.6480245,24.5804327 L55,36 L41,36 L41.3060418,24.5951462 C41.3597362,22.5941901 42.9972792,21 44.9989556,21 Z M41,60 L55,60 L54.6480864,71.4195475 C54.5866063,73.41457 52.9515658,75 50.9555962,75 L44.9990168,75 C42.9973481,75 41.3598084,73.4058217 41.3061036,71.4048736 L41,60 Z" id="Combined-Shape" fill="url(#linearGradient-1)"></path>
                                <rect id="Rectangle-21-Copy-2" fill="url(#linearGradient-1)" x="36" y="36" width="24" height="24" rx="4"></rect>
                            </g>
                        </g>
                    </g>
                </g>
            </g>
        </g>
    </g>
</svg>