<?xml version="1.0" encoding="UTF-8"?>
<svg width="96px" height="96px" viewBox="0 0 96 96" version="1.1" xmlns="http://www.w3.org/2000/svg" xmlns:xlink="http://www.w3.org/1999/xlink">
    <!-- Generator: sketchtool 52.2 (67145) - http://www.bohemiancoding.com/sketch -->
    <title>B0D4D3FC-E3A0-4859-BD80-4F7B056899F2</title>
    <desc>Created with sketchtool.</desc>
    <defs>
        <linearGradient x1="50%" y1="-11.5936279%" x2="50%" y2="124.61853%" id="linearGradient-1">
            <stop stop-color="#4AC2FF" offset="0%"></stop>
            <stop stop-color="#4BB7FF" stop-opacity="0" offset="100%"></stop>
        </linearGradient>
    </defs>
    <g id="01.-Index-Page" stroke="none" stroke-width="1" fill="none" fill-rule="evenodd">
        <g id="bba/-web-1-/-00-landing-design" transform="translate(-903.000000, -353.000000)" fill-rule="nonzero">
            <g id="1.-Title">
                <g id="for" transform="translate(200.000000, 331.000000)">
                    <g id="#7" transform="translate(703.000000, 22.000000)">
                        <g id="Rectangle-3">
                            <g id="Group-16">
                                <rect id="Rectangle-3" stroke="#D3D9DD" stroke-width="4" opacity="0.556305804" transform="translate(77.500000, 78.500000) rotate(-360.000000) translate(-77.500000, -78.500000) " x="36" y="48" width="83" height="61" rx="7"></rect>
                                <path d="M46.0887215,19.9207037 C45.1356057,18.967588 45.1202529,17.4376348 46.0544301,16.5034576 C46.9886073,15.5692804 48.5185605,15.5846332 49.4716762,16.537749 L62.8304046,29.8964773 C65.4602981,32.5263708 65.5026603,36.7479084 62.9250234,39.3255454 L49.8317354,52.4188333 C48.8975583,53.3530105 47.367605,53.3376577 46.4144893,52.384542 C45.4613735,51.4314262 45.4460208,49.901473 46.3801979,48.9672958 L59.4734859,35.8740079 C60.1827685,35.1647252 60.1711118,34.0030941 59.4474498,33.2794321 L46.0887215,19.9207037 Z M27.9112785,49.0792963 C28.8643943,50.032412 28.8797471,51.5623652 27.9455699,52.4965424 C27.0113927,53.4307196 25.4814395,53.4153668 24.5283238,52.462251 L11.1695954,39.1035227 C8.5397019,36.4736292 8.49733965,32.2520916 11.0749766,29.6744546 L24.1682646,16.5811667 C25.1024417,15.6469895 26.632395,15.6623423 27.5855107,16.615458 C28.5386265,17.5685738 28.5539792,19.098527 27.6198021,20.0327042 L14.5265141,33.1259921 C13.8172315,33.8352748 13.8288882,34.9969059 14.5525502,35.7205679 L27.9112785,49.0792963 Z" id="Combined-Shape" fill="url(#linearGradient-1)"></path>
                                <path d="M45,59 C43.8954305,59 43,58.1045695 43,57 C43,55.8954305 43.8954305,55 45,55 C46.1045695,55 47,55.8954305 47,57 C47,58.1045695 46.1045695,59 45,59 Z M53,59 C51.8954305,59 51,58.1045695 51,57 C51,55.8954305 51.8954305,55 53,55 C54.1045695,55 55,55.8954305 55,57 C55,58.1045695 54.1045695,59 53,59 Z M61,59 C59.8954305,59 59,58.1045695 59,57 C59,55.8954305 59.8954305,55 61,55 C62.1045695,55 63,55.8954305 63,57 C63,58.1045695 62.1045695,59 61,59 Z" id="Combined-Shape" fill="#89969F"></path>
                            </g>
                        </g>
                    </g>
                </g>
            </g>
        </g>
    </g>
</svg>