<svg width="96" height="96" viewBox="0 0 96 96" xmlns="http://www.w3.org/2000/svg">
    <title>
        E1D97E3F-6892-48C5-95D6-7EE59B70E271
    </title>
    <defs>
        <linearGradient x1="50%" y1="-23.418%" x2="50%" y2="118.071%" id="a">
            <stop stop-color="#4AC2FF" offset="0%"/>
            <stop stop-color="#4BB7FF" stop-opacity="0" offset="100%"/>
        </linearGradient>
    </defs>
    <g fill-rule="nonzero" fill="none">
        <g fill="#89969F">
            <path d="M66.81 72.06a2.3 2.3 0 0 1 3.324 0 6.364 6.364 0 0 0 9.2 0 2.297 2.297 0 0 1 3.325 0 6.364 6.364 0 0 0 9.2 0 2.297 2.297 0 0 1 3.325 0c1.229 1.27 2.863 1.97 4.6 1.97 1.738 0 3.372-.7 4.601-1.97a2.2 2.2 0 0 0 0-3.038 2.03 2.03 0 0 0-2.939 0 2.297 2.297 0 0 1-3.323 0c-1.23-1.27-2.863-1.97-4.6-1.97h-.001c-1.738 0-3.372.7-4.6 1.97a2.299 2.299 0 0 1-3.324 0c-1.23-1.27-2.863-1.97-4.601-1.97s-3.372.7-4.6 1.97a2.299 2.299 0 0 1-3.325 0 6.364 6.364 0 0 0-9.2 0 2.3 2.3 0 0 1-3.325 0 2.03 2.03 0 0 0-2.938 0 2.2 2.2 0 0 0 0 3.038 6.364 6.364 0 0 0 9.2 0z"/>
            <path d="M66.81 83.016a2.3 2.3 0 0 1 3.324 0 6.364 6.364 0 0 0 9.201 0 2.297 2.297 0 0 1 3.324 0 6.364 6.364 0 0 0 9.201 0 2.297 2.297 0 0 1 3.324 0c1.23 1.27 2.863 1.97 4.6 1.97 1.739 0 3.372-.7 4.601-1.97a2.2 2.2 0 0 0 0-3.038 2.03 2.03 0 0 0-2.939 0 2.297 2.297 0 0 1-3.323 0c-1.23-1.27-2.863-1.97-4.6-1.97h-.001c-1.738 0-3.372.7-4.6 1.97a2.299 2.299 0 0 1-3.324 0c-1.23-1.27-2.863-1.97-4.601-1.97s-3.372.7-4.6 1.97a2.299 2.299 0 0 1-3.325 0 6.364 6.364 0 0 0-9.2 0 2.3 2.3 0 0 1-3.325 0 2.03 2.03 0 0 0-2.938 0 2.2 2.2 0 0 0 0 3.038 6.364 6.364 0 0 0 9.2 0z"/>
            <path d="M101.446 90.933a2.297 2.297 0 0 1-3.323 0c-1.23-1.27-2.863-1.97-4.6-1.97h-.001c-1.738 0-3.372.7-4.6 1.97a2.299 2.299 0 0 1-3.324 0c-1.23-1.27-2.863-1.97-4.601-1.97s-3.372.7-4.6 1.97a2.299 2.299 0 0 1-3.325 0 6.364 6.364 0 0 0-9.2 0 2.3 2.3 0 0 1-3.325 0 2.03 2.03 0 0 0-2.938 0 2.2 2.2 0 0 0 0 3.038 6.364 6.364 0 0 0 9.2 0 2.3 2.3 0 0 1 3.325 0 6.364 6.364 0 0 0 9.201 0 2.297 2.297 0 0 1 3.324 0 6.364 6.364 0 0 0 9.201 0 2.297 2.297 0 0 1 3.324 0c1.23 1.27 2.863 1.97 4.6 1.97 1.739 0 3.372-.7 4.601-1.97a2.2 2.2 0 0 0 0-3.038 2.03 2.03 0 0 0-2.939 0z"/>
        </g>
        <path d="M40.157 51.687a2.25 2.25 0 0 1 0 3.51L26.05 66.507a2.249 2.249 0 0 1-3.656-1.755V48.603l-6.73 5.44a2.245 2.245 0 0 1-3.164-.335 2.25 2.25 0 0 1 .335-3.164l9.33-7.541-9.33-7.542a2.25 2.25 0 1 1 2.829-3.498l6.73 5.44V21.249a2.25 2.25 0 0 1 3.656-1.755l14.108 11.309a2.25 2.25 0 0 1 0 3.51L29.32 43l10.837 8.687z" fill="url(#a)"/>
    </g>
</svg>
