<svg width="1440" height="614" viewBox="0 0 1440 614" xmlns="http://www.w3.org/2000/svg" xmlns:xlink="http://www.w3.org/1999/xlink">
    <title>
        3CBAA31C-D698-49C7-AFF3-E0A6BCB4342D
    </title>
    <defs>
        <path d="M0 100c66.274 0 120 53.726 120 120S66.274 340 0 340v100c121.503 0 220-98.497 220-220S121.503 0 0 0v100z" id="a"/>
    </defs>
    <g fill="none" fill-rule="evenodd">
        <path d="M949 520a5 5 0 1 1 0-10 5 5 0 0 1 0 10zm127 0a5 5 0 1 1 0-10 5 5 0 0 1 0 10zm-85 0a5 5 0 1 1 0-10 5 5 0 0 1 0 10zm127 0a5 5 0 1 1 0-10 5 5 0 0 1 0 10zm-85 0a5 5 0 1 1 0-10 5 5 0 0 1 0 10zm127 0a5 5 0 1 1 0-10 5 5 0 0 1 0 10zm-211 44a5 5 0 1 1 0-10 5 5 0 0 1 0 10zm127 0a5 5 0 1 1 0-10 5 5 0 0 1 0 10zm-85 0a5 5 0 1 1 0-10 5 5 0 0 1 0 10zm127 0a5 5 0 1 1 0-10 5 5 0 0 1 0 10zm-85 0a5 5 0 1 1 0-10 5 5 0 0 1 0 10zm127 0a5 5 0 1 1 0-10 5 5 0 0 1 0 10zm-148-22a5 5 0 1 1 0-10 5 5 0 0 1 0 10zm127 0a5 5 0 1 1 0-10 5 5 0 0 1 0 10zm-169 0a5 5 0 1 1 0-10 5 5 0 0 1 0 10zm127 0a5 5 0 1 1 0-10 5 5 0 0 1 0 10zm-169 0a5 5 0 1 1 0-10 5 5 0 0 1 0 10zm127 0a5 5 0 1 1 0-10 5 5 0 0 1 0 10zm-106 66a5 5 0 1 1 0-10 5 5 0 0 1 0 10zm127 0a5 5 0 1 1 0-10 5 5 0 0 1 0 10zm-85 0a5 5 0 1 1 0-10 5 5 0 0 1 0 10zm127 0a5 5 0 1 1 0-10 5 5 0 0 1 0 10zm-85 0a5 5 0 1 1 0-10 5 5 0 0 1 0 10zm127 0a5 5 0 1 1 0-10 5 5 0 0 1 0 10zm-148-22a5 5 0 1 1 0-10 5 5 0 0 1 0 10zm127 0a5 5 0 1 1 0-10 5 5 0 0 1 0 10zm-169 0a5 5 0 1 1 0-10 5 5 0 0 1 0 10zm127 0a5 5 0 1 1 0-10 5 5 0 0 1 0 10zm-169 0a5 5 0 1 1 0-10 5 5 0 0 1 0 10zm127 0a5 5 0 1 1 0-10 5 5 0 0 1 0 10zm148-66a5 5 0 1 1 0-10 5 5 0 0 1 0 10zm127 0a5 5 0 1 1 0-10 5 5 0 0 1 0 10zm-85 0a5 5 0 1 1 0-10 5 5 0 0 1 0 10zm127 0a5 5 0 1 1 0-10 5 5 0 0 1 0 10zm-85 0a5 5 0 1 1 0-10 5 5 0 0 1 0 10zm127 0a5 5 0 1 1 0-10 5 5 0 0 1 0 10zm-211 44a5 5 0 1 1 0-10 5 5 0 0 1 0 10zm127 0a5 5 0 1 1 0-10 5 5 0 0 1 0 10zm-85 0a5 5 0 1 1 0-10 5 5 0 0 1 0 10zm127 0a5 5 0 1 1 0-10 5 5 0 0 1 0 10zm-85 0a5 5 0 1 1 0-10 5 5 0 0 1 0 10zm127 0a5 5 0 1 1 0-10 5 5 0 0 1 0 10zm-148-22a5 5 0 1 1 0-10 5 5 0 0 1 0 10zm127 0a5 5 0 1 1 0-10 5 5 0 0 1 0 10zm-169 0a5 5 0 1 1 0-10 5 5 0 0 1 0 10zm127 0a5 5 0 1 1 0-10 5 5 0 0 1 0 10zm-169 0a5 5 0 1 1 0-10 5 5 0 0 1 0 10zm127 0a5 5 0 1 1 0-10 5 5 0 0 1 0 10zm-106 66a5 5 0 1 1 0-10 5 5 0 0 1 0 10zm127 0a5 5 0 1 1 0-10 5 5 0 0 1 0 10zm-85 0a5 5 0 1 1 0-10 5 5 0 0 1 0 10zm127 0a5 5 0 1 1 0-10 5 5 0 0 1 0 10zm-85 0a5 5 0 1 1 0-10 5 5 0 0 1 0 10zm127 0a5 5 0 1 1 0-10 5 5 0 0 1 0 10zm-148-22a5 5 0 1 1 0-10 5 5 0 0 1 0 10zm127 0a5 5 0 1 1 0-10 5 5 0 0 1 0 10zm-169 0a5 5 0 1 1 0-10 5 5 0 0 1 0 10zm127 0a5 5 0 1 1 0-10 5 5 0 0 1 0 10zm-169 0a5 5 0 1 1 0-10 5 5 0 0 1 0 10zm127 0a5 5 0 1 1 0-10 5 5 0 0 1 0 10z" fill="#176AA2" fill-rule="nonzero"/>
        <rect fill="#176AA2" fill-rule="nonzero" y="54" width="707" height="100" rx="2"/>
        <g transform="translate(0 54)">
            <mask id="b" fill="#fff">
                <use xlink:href="#a"/>
            </mask>
            <use fill="#176AA2" fill-rule="nonzero" xlink:href="#a"/>
            <path d="M-78.5 88.5L76.524-66.524" stroke="#1A6292" stroke-width="16" stroke-linecap="square" fill-rule="nonzero" mask="url(#b)"/>
            <path d="M34.5 166.5L189.524 11.476" stroke="#1A6292" stroke-width="16" stroke-linecap="square" fill-rule="nonzero" mask="url(#b)"/>
            <path d="M-53.5 111.5L101.524-43.524" stroke="#1A6292" stroke-width="16" stroke-linecap="square" fill-rule="nonzero" mask="url(#b)"/>
            <path d="M59.5 189.5L214.524 34.476" stroke="#1A6292" stroke-width="16" stroke-linecap="square" fill-rule="nonzero" mask="url(#b)"/>
            <path d="M-24.5 129.5L130.524-25.524" stroke="#1A6292" stroke-width="16" stroke-linecap="square" fill-rule="nonzero" mask="url(#b)"/>
            <path d="M88.5 207.5L243.524 52.476" stroke="#1A6292" stroke-width="16" stroke-linecap="square" fill-rule="nonzero" mask="url(#b)"/>
            <path d="M11.5 140.5L166.524-14.524" stroke="#1A6292" stroke-width="16" stroke-linecap="square" fill-rule="nonzero" mask="url(#b)"/>
            <path d="M-27.511 374.511L257.524 89.476" stroke="#1A6292" stroke-width="16" stroke-linecap="square" fill-rule="nonzero" mask="url(#b)"/>
            <path d="M-15.002 411.002l260.526-260.526" stroke="#1A6292" stroke-width="16" stroke-linecap="square" fill-rule="nonzero" mask="url(#b)"/>
            <path d="M-3.002 451.002l260.526-260.526" stroke="#1A6292" stroke-width="16" stroke-linecap="square" fill-rule="nonzero" mask="url(#b)"/>
            <path d="M46.998 451.002l260.526-260.526" stroke="#1A6292" stroke-width="16" stroke-linecap="square" fill-rule="nonzero" mask="url(#b)"/>
        </g>
    </g>
</svg>
