<svg width="48" height="48" viewBox="0 0 48 48" xmlns="http://www.w3.org/2000/svg">
    <title>
        F279A596-B0EC-4DE6-80C9-D8A2099F9C5C
    </title>
    <g fill-rule="nonzero" fill="none">
        <g fill="#C2D6E1">
            <path d="M16.776 18.581v1.038a.357.357 0 0 1-.36.36H1.167a.357.357 0 0 1-.359-.36v-1.11a2.917 2.917 0 0 1 1.517-2.555l3.234-1.764c.427-.229.694-.674.694-1.158v-.966A7.222 7.222 0 0 1 4.935 9.35a1.096 1.096 0 0 1-.495-.91V6.988c-.001-.308.13-.602.36-.807v-2.1S4.447 1.44 7.593.904C7.99.843 8.39.814 8.79.816c4.424 0 3.993 3.265 3.993 3.265v2.1c.23.205.36.499.359.807V8.44a1.083 1.083 0 0 1-.766 1.03 7.89 7.89 0 0 1-1.078 2.172c-.12.167-.232.311-.328.423v.998c-.002.5.28.958.727 1.182l3.465 1.732a2.91 2.91 0 0 1 1.613 2.603z"/>
            <path d="M31.946 45.728v1.038a.357.357 0 0 1-.359.36h-15.25a.357.357 0 0 1-.36-.36v-1.11a2.917 2.917 0 0 1 1.517-2.555l3.234-1.764c.427-.23.694-.674.695-1.158v-.966a7.222 7.222 0 0 1-1.318-2.715 1.096 1.096 0 0 1-.495-.91v-1.453c-.001-.308.13-.602.36-.807v-2.1s-.352-2.642 2.794-3.177c.396-.061.797-.09 1.198-.088 4.423 0 3.992 3.265 3.992 3.265v2.1c.23.205.36.499.36.807v1.453a1.083 1.083 0 0 1-.767 1.03 7.89 7.89 0 0 1-1.078 2.172c-.12.167-.232.311-.327.423v.998c-.003.5.279.958.726 1.182l3.465 1.732a2.91 2.91 0 0 1 1.613 2.603z"/>
            <path d="M47.117 18.581v1.038a.357.357 0 0 1-.36.36h-15.25a.357.357 0 0 1-.36-.36v-1.11a2.917 2.917 0 0 1 1.518-2.555l3.234-1.764c.427-.229.693-.674.694-1.158v-.966a7.222 7.222 0 0 1-1.317-2.715 1.096 1.096 0 0 1-.495-.91V6.988c-.002-.308.13-.602.359-.807v-2.1S34.789 1.44 37.935.904c.396-.061.796-.09 1.197-.088 4.424 0 3.992 3.265 3.992 3.265v2.1c.23.205.361.499.36.807V8.44a1.083 1.083 0 0 1-.767 1.03 7.89 7.89 0 0 1-1.078 2.172c-.12.167-.231.311-.327.423v.998c-.002.5.28.958.727 1.182l3.465 1.732a2.91 2.91 0 0 1 1.613 2.603z"/>
        </g>
        <g fill="#F8FDFF">
            <path d="M14.38 18.581v1.038a.357.357 0 0 1-.359.36H1.166a.357.357 0 0 1-.359-.36v-1.11a2.917 2.917 0 0 1 1.517-2.555l3.234-1.764c.427-.229.694-.674.694-1.158v-.966A7.222 7.222 0 0 1 4.935 9.35a1.096 1.096 0 0 1-.495-.91V6.988c-.001-.308.13-.602.36-.807v-2.1S4.447 1.44 7.593.904c3.146.535 2.794 3.177 2.794 3.177v2.1c.23.205.361.499.36.807V8.44a1.083 1.083 0 0 1-.767 1.03 7.89 7.89 0 0 1-1.078 2.172c-.12.167-.231.311-.327.423v.998c-.002.5.28.958.726 1.182l3.466 1.732a2.91 2.91 0 0 1 1.613 2.603z"/>
            <path d="M29.551 45.728v1.038a.357.357 0 0 1-.36.36H16.338a.357.357 0 0 1-.36-.36v-1.11a2.917 2.917 0 0 1 1.517-2.555l3.234-1.764c.427-.23.694-.674.695-1.158v-.966a7.222 7.222 0 0 1-1.318-2.715 1.096 1.096 0 0 1-.495-.91v-1.453c-.001-.308.13-.602.36-.807v-2.1s-.352-2.642 2.794-3.177c3.146.534 2.795 3.177 2.795 3.177v2.1c.23.205.36.499.359.807v1.453a1.083 1.083 0 0 1-.766 1.03 7.89 7.89 0 0 1-1.078 2.172c-.12.167-.232.311-.328.423v.998c-.002.5.28.958.727 1.182l3.465 1.732a2.91 2.91 0 0 1 1.613 2.603z"/>
            <path d="M44.721 18.581v1.038a.357.357 0 0 1-.359.36H31.507a.357.357 0 0 1-.36-.36v-1.11a2.917 2.917 0 0 1 1.518-2.555l3.234-1.764c.427-.229.693-.674.694-1.158v-.966a7.222 7.222 0 0 1-1.317-2.715 1.096 1.096 0 0 1-.495-.91V6.988c-.002-.308.13-.602.359-.807v-2.1S34.789 1.44 37.935.904c3.145.535 2.794 3.177 2.794 3.177v2.1c.23.205.36.499.36.807V8.44a1.083 1.083 0 0 1-.767 1.03 7.89 7.89 0 0 1-1.078 2.172c-.12.167-.232.311-.327.423v.998c-.002.5.28.958.726 1.182l3.465 1.732a2.91 2.91 0 0 1 1.613 2.603z"/>
        </g>
        <g fill="#FFF">
            <path d="M1.166 19.978h2.396a.357.357 0 0 1-.36-.359v-1.11a2.917 2.917 0 0 1 1.517-2.555l3.234-1.764c.427-.229.694-.674.695-1.158v-.966A7.222 7.222 0 0 1 7.33 9.35a1.096 1.096 0 0 1-.495-.91V6.988c-.001-.308.13-.602.36-.807v-2.1S6.849 1.463 9.95.912A7.647 7.647 0 0 0 7.594.903c-3.146.536-2.795 3.178-2.795 3.178v2.1c-.23.205-.36.499-.359.807V8.44c.002.367.188.709.495.91a7.22 7.22 0 0 0 1.318 2.715v.966c-.001.484-.268.93-.695 1.158l-3.234 1.764A2.917 2.917 0 0 0 .807 18.51v1.11a.357.357 0 0 0 .36.36z"/>
            <path d="M33.543 19.62v-1.11a2.917 2.917 0 0 1 1.517-2.556l3.234-1.764c.427-.229.694-.674.695-1.158v-.966A7.222 7.222 0 0 1 37.67 9.35a1.096 1.096 0 0 1-.495-.91V6.988c-.001-.308.13-.602.36-.807v-2.1S37.19 1.463 40.291.912a7.647 7.647 0 0 0-2.357-.009c-3.146.536-2.795 3.178-2.795 3.178v2.1c-.23.205-.36.499-.36.807V8.44c.003.367.189.709.496.91a7.22 7.22 0 0 0 1.317 2.715v.966c0 .484-.267.93-.694 1.158l-3.234 1.764a2.917 2.917 0 0 0-1.517 2.555v1.11a.357.357 0 0 0 .36.36h2.395a.357.357 0 0 1-.36-.36z"/>
            <path d="M20.728 41.337L17.495 43.1a2.917 2.917 0 0 0-1.517 2.555v1.11a.357.357 0 0 0 .359.36h2.395a.357.357 0 0 1-.36-.36v-1.11a2.917 2.917 0 0 1 1.518-2.555l3.234-1.764c.427-.229.693-.674.694-1.158v-.966a7.222 7.222 0 0 1-1.317-2.715 1.096 1.096 0 0 1-.495-.91v-1.453c-.002-.308.13-.602.359-.807v-2.1s-.346-2.618 2.756-3.169a7.647 7.647 0 0 0-2.357-.009c-3.146.536-2.794 3.178-2.794 3.178v2.1c-.23.205-.361.499-.36.807v1.453c.002.367.188.709.495.91a7.22 7.22 0 0 0 1.318 2.715v.966c-.001.484-.268.929-.695 1.158z"/>
        </g>
        <g>
            <path fill="#FFF" d="M16.34 46.327H31.584v1.597H16.34z"/>
            <g fill="#4AC2FF">
                <path d="M25.922 46.327a.798.798 0 1 0 0 1.597h5.661c.641 0 1.16-.52 1.162-1.161V45.73a3.69 3.69 0 0 0-2.05-3.315l-3.468-1.734a.522.522 0 0 1-.29-.469V39.5c.059-.075.12-.16.182-.245a8.735 8.735 0 0 0 1.07-2.05 1.87 1.87 0 0 0 .927-1.619v-1.453a1.88 1.88 0 0 0-.364-1.105V31.27c.072-.97-.24-1.93-.867-2.674a4.978 4.978 0 0 0-3.923-1.433 4.976 4.976 0 0 0-3.924 1.43 3.72 3.72 0 0 0-.867 2.673v1.757a1.88 1.88 0 0 0-.363 1.105v1.452c0 .518.214 1.014.592 1.368a8.173 8.173 0 0 0 1.223 2.53v.694a.522.522 0 0 1-.273.46L17.112 42.4a3.707 3.707 0 0 0-1.933 3.26v1.104c0 .641.52 1.16 1.162 1.16h3.194a.798.798 0 0 0 0-1.596h-2.76v-.668a2.11 2.11 0 0 1 1.102-1.854l3.238-1.766a2.118 2.118 0 0 0 1.105-1.86v-.965a.807.807 0 0 0-.185-.511 6.468 6.468 0 0 1-1.148-2.384.799.799 0 0 0-.346-.492.29.29 0 0 1-.136-.24v-1.454a.292.292 0 0 1 .1-.212.798.798 0 0 0 .263-.593V31.23a.753.753 0 0 0-.007-.104 2.081 2.081 0 0 1 .479-1.478c.74-.67 1.73-.992 2.722-.886a3.523 3.523 0 0 1 2.71.872 2.115 2.115 0 0 1 .484 1.596v2.1c0 .225.095.44.263.592.062.053.098.13.1.212v1.452a.293.293 0 0 1-.21.273.799.799 0 0 0-.524.517 7.15 7.15 0 0 1-.97 1.955 4.387 4.387 0 0 1-.275.356.798.798 0 0 0-.2.528v.997a2.11 2.11 0 0 0 1.177 1.897l3.467 1.733a2.102 2.102 0 0 1 1.164 1.89v.596h-5.226z"/>
                <path d="M22.161 46.559l-.096.12a.604.604 0 0 0-.072.143.478.478 0 0 0-.047.144c-.01.052-.015.106-.016.16a.836.836 0 0 0 .231.566c.318.301.816.301 1.133 0a.825.825 0 0 0 .168-.263.798.798 0 0 0 .065-.304.799.799 0 0 0-1.366-.566z"/>
                <path d="M1.17 20.777H8.89a14.62 14.62 0 0 0-.098 1.597c-.002.875.077 1.749.235 2.61a15.114 15.114 0 0 0 5.063 8.88l-.377.038a.8.8 0 0 0 .08 1.596h.08l2.382-.246a.751.751 0 0 0 .15-.047.729.729 0 0 0 .102-.032c.085-.051.166-.11.24-.177a.792.792 0 0 0 .115-.173.69.69 0 0 0 .044-.08.772.772 0 0 0 .042-.21c0-.027.016-.05.016-.08 0-.012-.004-.023-.005-.035-.001-.012.006-.028.005-.044l-.247-2.382a.798.798 0 1 0-1.588.164l.058.564a13.527 13.527 0 0 1-4.597-8.012c-.14-.77-.207-1.552-.2-2.334.003-.534.04-1.067.109-1.597h5.914c.642 0 1.161-.52 1.162-1.16v-1.033a3.69 3.69 0 0 0-2.05-3.316l-3.468-1.734a.522.522 0 0 1-.289-.468v-.713c.058-.075.119-.16.181-.245a8.735 8.735 0 0 0 1.07-2.05 1.87 1.87 0 0 0 .927-1.619V6.986a1.88 1.88 0 0 0-.363-1.105V4.125a3.723 3.723 0 0 0-.867-2.678A4.977 4.977 0 0 0 8.79.017a4.976 4.976 0 0 0-3.923 1.43 3.72 3.72 0 0 0-.867 2.674v1.76a1.88 1.88 0 0 0-.363 1.105v1.452c0 .518.214 1.014.592 1.368a8.173 8.173 0 0 0 1.223 2.53v.694a.522.522 0 0 1-.273.46l-3.238 1.767a3.707 3.707 0 0 0-1.933 3.256v1.103c0 .641.52 1.16 1.161 1.16zm.436-2.265a2.11 2.11 0 0 1 1.1-1.853l3.238-1.767a2.118 2.118 0 0 0 1.105-1.86v-.965a.807.807 0 0 0-.184-.511 6.468 6.468 0 0 1-1.148-2.384.799.799 0 0 0-.346-.492.29.29 0 0 1-.137-.24V6.986a.292.292 0 0 1 .1-.212.798.798 0 0 0 .264-.593V4.082a.753.753 0 0 0-.007-.104A2.081 2.081 0 0 1 6.07 2.5c.74-.67 1.73-.992 2.721-.886a3.523 3.523 0 0 1 2.71.872 2.115 2.115 0 0 1 .484 1.596v2.1c0 .225.096.44.264.592.061.054.097.13.1.212v1.452a.293.293 0 0 1-.21.273.799.799 0 0 0-.524.517 7.15 7.15 0 0 1-.97 1.956 4.387 4.387 0 0 1-.275.355.798.798 0 0 0-.2.528v.997a2.11 2.11 0 0 0 1.177 1.897l3.466 1.733a2.102 2.102 0 0 1 1.165 1.89v.596H1.606v-.668z"/>
                <path d="M45.865 15.268l-3.467-1.735a.52.52 0 0 1-.29-.47v-.712c.06-.074.119-.16.18-.244a8.676 8.676 0 0 0 1.071-2.05 1.87 1.87 0 0 0 .926-1.62v-1.45a1.88 1.88 0 0 0-.362-1.106V4.125a3.724 3.724 0 0 0-.868-2.678 4.977 4.977 0 0 0-3.923-1.43 4.976 4.976 0 0 0-3.923 1.43 3.72 3.72 0 0 0-.867 2.674v1.76a1.88 1.88 0 0 0-.364 1.105v1.452c0 .518.214 1.014.593 1.368a8.173 8.173 0 0 0 1.222 2.53v.694a.522.522 0 0 1-.273.46l-3.238 1.767a3.707 3.707 0 0 0-1.933 3.256v1.103c.001.641.521 1.16 1.162 1.16h5.915c.069.53.105 1.064.11 1.598a12.63 12.63 0 0 1-.213 2.347 13.564 13.564 0 0 1-4.584 7.985l.058-.56a.798.798 0 0 0-1.588-.163l-.246 2.383c0 .012.004.024 0 .036a.14.14 0 0 0-.006.042c.004.03.01.062.02.092.004.066.017.13.038.193.014.03.03.058.046.085a.784.784 0 0 0 .12.176c.018.02.04.033.06.051.056.05.12.093.187.125.027.012.056.017.085.027a.763.763 0 0 0 .16.05l2.382.246h.08a.8.8 0 1 0 .08-1.597l-.382-.039a15.152 15.152 0 0 0 5.06-8.844c.16-.87.241-1.751.24-2.635a14.62 14.62 0 0 0-.098-1.597h7.72c.64 0 1.16-.52 1.16-1.161v-1.032a3.69 3.69 0 0 0-2.05-3.316zm.453 3.912H31.946v-.668a2.11 2.11 0 0 1 1.101-1.853l3.238-1.767a2.118 2.118 0 0 0 1.105-1.86v-.965a.807.807 0 0 0-.184-.511 6.468 6.468 0 0 1-1.149-2.384.799.799 0 0 0-.345-.492.29.29 0 0 1-.137-.24V6.986a.292.292 0 0 1 .1-.212.798.798 0 0 0 .264-.593V4.082a.753.753 0 0 0-.008-.104 2.081 2.081 0 0 1 .48-1.478c.74-.67 1.73-.992 2.721-.886a3.526 3.526 0 0 1 2.71.871 2.118 2.118 0 0 1 .484 1.597v2.1c0 .225.096.44.263.591a.292.292 0 0 1 .1.213v1.452a.294.294 0 0 1-.21.273.798.798 0 0 0-.524.518 7.144 7.144 0 0 1-.97 1.956c-.101.142-.195.263-.276.356a.798.798 0 0 0-.197.526v.997a2.11 2.11 0 0 0 1.175 1.897l3.467 1.733a2.102 2.102 0 0 1 1.164 1.89v.596z"/>
                <path d="M16.936 7.363a.798.798 0 0 0-.997.532l-.696 2.291v.01a.787.787 0 0 0-.035.224c0 .015.007.027.008.042a.827.827 0 0 0 .029.139c.01.056.026.111.049.164 0 .01 0 .021.009.03.019.028.04.055.064.08.054.094.136.17.234.217a.725.725 0 0 0 .132.07c.015.006.027.018.043.023l2.291.696a.798.798 0 0 0 .464-1.528l-.531-.16a13.501 13.501 0 0 1 11.941.005l-.519.16a.798.798 0 1 0 .464 1.527l2.293-.696c.012 0 .022-.013.035-.018a.759.759 0 0 0 .132-.071.487.487 0 0 0 .208-.18.69.69 0 0 0 .096-.119c.01-.015.008-.033.016-.049a.627.627 0 0 0 .02-.066.787.787 0 0 0 .05-.246v-.013a.748.748 0 0 0-.017-.12.803.803 0 0 0-.011-.114L32.01 7.9a.798.798 0 1 0-1.528.465l.115.378a15.106 15.106 0 0 0-13.244-.012l.11-.366a.798.798 0 0 0-.528-1.003z"/>
            </g>
        </g>
    </g>
</svg>
