<svg width="56" height="56" viewBox="0 0 56 56" xmlns="http://www.w3.org/2000/svg">
    <title>
        30AB8DCA-40AD-4A7F-A307-AA6C82CA18FE
    </title>
    <defs>
        <linearGradient x1="38.561%" y1="50%" y2="50%" id="a">
            <stop stop-color="#4AC2FF" offset="0%"/>
            <stop stop-color="#4BB7FF" stop-opacity="0" offset="100%"/>
        </linearGradient>
        <linearGradient x1="0%" y1="50%" x2="124.565%" y2="50%" id="b">
            <stop stop-color="#4AC2FF" offset="0%"/>
            <stop stop-color="#4BB7FF" stop-opacity="0" offset="100%"/>
        </linearGradient>
    </defs>
    <g transform="translate(4 8)" fill-rule="nonzero" fill="none">
        <path d="M3.313 32.556A16.61 16.61 0 0 1 1 27.638l2.722-2.736a3.808 3.808 0 0 1 5.404 0l5.419 5.446L30.809 14A16.6 16.6 0 0 1 33 19.041L17.247 34.875a3.808 3.808 0 0 1-5.405 0l-5.418-5.446-3.111 3.127z" fill="url(#a)"/>
        <rect stroke="#D3D9DD" stroke-width="3.25" x="1.625" y="10.625" width="28.75" height="28.75" rx="14.375"/>
        <path d="M40.114 5.053h-4.75c-1.382 0-2.502-1.131-2.502-2.527 0-1.395 1.12-2.526 2.502-2.526h12.511v12c0 1.395-1.12 2.526-2.502 2.526-1.382 0-2.502-1.13-2.502-2.526V9.415L17.27 35.26a2.485 2.485 0 0 1-3.538 0 2.544 2.544 0 0 1 0-3.573l26.38-26.634z" fill="url(#b)"/>
    </g>
</svg>
