<svg width="96" height="96" viewBox="0 0 96 96" xmlns="http://www.w3.org/2000/svg">
    <title>
        61C1883E-367E-4600-99E4-50ACB854D145
    </title>
    <defs>
        <linearGradient x1="50%" y1="-10.455%" x2="50%" y2="160.064%" id="a">
            <stop stop-color="#4AC2FF" offset="0%"/>
            <stop stop-color="#4BB7FF" stop-opacity="0" offset="100%"/>
        </linearGradient>
    </defs>
    <g fill="none" fill-rule="evenodd" stroke-linecap="round" stroke-linejoin="round">
        <path stroke="#89969F" stroke-width="4" d="M86 15l21.955 19.897L118 44h-10v33.904H64V44H54z"/>
        <path d="M36.589 28A29.95 29.95 0 0 1 44 47.761c0 7.793-2.968 14.893-7.837 20.239M25.89 38.945a13.558 13.558 0 0 1 3.357 8.947 13.56 13.56 0 0 1-3.55 9.163M12.956 49.95A1.952 1.952 0 0 1 11 48c0-1.076.875-1.949 1.955-1.949s1.954.873 1.954 1.95c0 1.076-.875 1.949-1.954 1.949" stroke="url(#a)" stroke-width="4.444"/>
    </g>
</svg>
