<svg width="96" height="96" viewBox="0 0 96 96" xmlns="http://www.w3.org/2000/svg">
    <title>
        97D71886-B45E-4252-BE65-E53334039FE1
    </title>
    <defs>
        <linearGradient x1="66.182%" y1="0%" x2="66.182%" y2="135.559%" id="a">
            <stop stop-color="#4AC2FF" offset="0%"/>
            <stop stop-color="#4BB7FF" stop-opacity="0" offset="100%"/>
        </linearGradient>
    </defs>
    <g transform="translate(-21)" fill-rule="nonzero" fill="none">
        <rect stroke="#D3D9DD" stroke-width="4" opacity=".556" transform="rotate(-90 30.5 48)" x="-7.5" y="19.5" width="76" height="57" rx="7"/>
        <path d="M69 71V25a7 7 0 0 1 7-7h28a7 7 0 0 1 7 7v46a7 7 0 0 1-7 7H76a7 7 0 0 1-7-7zm17 0a2 2 0 1 0 0 4h8a2 2 0 1 0 0-4h-8zm-1-49a1 1 0 1 0 0 2 1 1 0 0 0 0-2zm3 0a1 1 0 0 0 0 2h5a1 1 0 0 0 0-2h-5z" fill="url(#a)"/>
    </g>
</svg>
