<svg width="48" height="48" viewBox="0 0 48 48" xmlns="http://www.w3.org/2000/svg">
    <title>
        35F76A72-C82F-46CC-BB45-CBD67414B588
    </title>
    <g fill="none" fill-rule="evenodd">
        <path d="M27.946 14.374c0 7.496-6.077 13.573-13.573 13.573a13.574 13.574 0 0 1 0-27.147c7.496 0 13.573 6.077 13.573 13.574z" fill="#C2D6E1"/>
        <path d="M25.55 14.374C25.55 6.908 20.01.856 13.176.856S.8 6.908.8 14.374C.8 21.839 6.34 27.89 13.175 27.89c6.835 0 12.376-6.052 12.376-13.517z" fill="#C5EBFF"/>
        <path d="M47.109 35.133c-.002 6.614-5.363 11.974-11.977 11.977a9.395 9.395 0 0 1-1.173-.064c-.016 0-.032.008-.048 0a11.976 11.976 0 0 1 0-23.826c.016-.008.032 0 .048 0 .389-.045.781-.066 1.173-.064 6.614.003 11.975 5.363 11.977 11.977z" fill="#C2D6E1"/>
        <path d="M44.713 35.133A11.986 11.986 0 0 1 33.96 47.046c-.016 0-.032.008-.048 0a11.976 11.976 0 0 1 0-23.826c.016-.008.032 0 .048 0a11.986 11.986 0 0 1 10.754 11.913z" fill="#C5EBFF"/>
        <path d="M7.654 2.598l-.1.052c.01-.01.021-.02.033-.026.025-.009.042-.026.067-.026z" fill="#5E5F62"/>
        <path d="M2.649 7.555l-.052.1c0-.025.018-.042.026-.067a.113.113 0 0 1 .026-.033z" fill="#5E5F62"/>
        <path d="M26.155 7.655l-.051-.1c.01.01.019.02.025.033.009.025.026.042.026.067z" fill="#5E5F62"/>
        <path d="M21.215 2.674a.605.605 0 0 0-.12-.077c.025 0 .04.017.065.026a.15.15 0 0 1 .055.051z" fill="#5E5F62"/>
        <path d="M3.195 14.374a.798.798 0 0 1-.799.798H.823a13.344 13.344 0 0 1 0-1.597h1.573c.441 0 .799.358.799.799z" fill="#A5A5A4"/>
        <path d="M16.768 14.374a2.396 2.396 0 1 1-4.79 0 2.396 2.396 0 0 1 4.79 0z" fill="#C5EBFF"/>
        <path d="M24.753 35.133a.799.799 0 0 1-.767.799 8.722 8.722 0 0 1-.032-.799c0-.272.008-.535.032-.798.428.017.767.37.767.798z" fill="#F29C1F"/>
        <path d="M26.142 29.943a.791.791 0 0 1-1.062.304c.233-.48.5-.94.798-1.382a.804.804 0 0 1 .264 1.078z" fill="#F29C1F"/>
        <g fill="#FFF">
            <path d="M33.302 17.003a.799.799 0 0 0-1.13 1.129l2.396 2.395a.8.8 0 0 0 .868.174.797.797 0 0 0 .234-.16c.008-.007.017-.009.024-.016l.633-.633-1.762-1.763a.797.797 0 0 1-.231-.562v.468l-1.032-1.032z"/>
            <path d="M34.334 17.567a.799.799 0 0 1 1.363-.564l.234.234v-6.855h-1.597v7.185z"/>
            <path d="M36.73 18.035v-.798l-.4.399z"/>
            <path d="M11.18 27.614c-5.157-2.185-7.985-7.297-7.985-13.24C3.206 6.907 8.929.69 16.369.063c-.4-.033-.794-.061-1.198-.061C7.238.01.808 6.44.8 14.374c0 5.943 2.829 11.055 7.985 13.24"/>
            <path d="M36.202 47.151a11.842 11.842 0 0 1-10.42-9.331c-1.509-6.348 2.908-12.907 9.95-15.122a16.66 16.66 0 0 0-1.177.226c-7.71 1.83-12.692 8.76-11.105 15.45a11.843 11.843 0 0 0 10.422 9.33"/>
        </g>
        <path d="M8.784 27.614v6.72c0 .883.715 1.598 1.596 1.598h7.654l-1.032 1.032a.799.799 0 1 0 1.13 1.129l2.394-2.395a.798.798 0 0 0 0-1.13l-2.395-2.396a.799.799 0 0 0-1.129 1.129l1.032 1.034H10.38V28.17a14.342 14.342 0 0 0 17.79-17.788h6.164v7.653l-1.032-1.032a.799.799 0 0 0-1.13 1.129l2.396 2.395a.8.8 0 0 0 .868.174.797.797 0 0 0 .234-.16c.008-.007.017-.009.024-.016l2.396-2.396A.798.798 0 0 0 36.96 17l-1.03 1.035v-7.653c0-.882-.714-1.597-1.596-1.597h-6.72a14.372 14.372 0 1 0-18.83 18.829zM7.31 3.738l.383.663a.799.799 0 0 0 1.383-.798l-.38-.657a12.676 12.676 0 0 1 4.878-1.307v.758a.799.799 0 0 0 1.597 0v-.758c1.697.104 3.356.548 4.878 1.307l-.38.657a.8.8 0 1 0 1.384.798l.383-.663a12.895 12.895 0 0 1 3.573 3.573l-.664.383a.798.798 0 1 0 .799 1.383l.657-.38a12.668 12.668 0 0 1 1.306 4.878h-.758a.799.799 0 0 0 0 1.597h.758a12.668 12.668 0 0 1-1.306 4.878l-.657-.38a.798.798 0 0 0-.799 1.383l.664.384a12.9 12.9 0 0 1-3.573 3.573l-.383-.664a.799.799 0 0 0-1.383.799l.379.657a12.676 12.676 0 0 1-4.878 1.306v-.758a.798.798 0 0 0-1.597 0v.758a12.676 12.676 0 0 1-4.877-1.306l.379-.657a.799.799 0 0 0-1.383-.799l-.383.664a12.9 12.9 0 0 1-3.573-3.573l.663-.384a.798.798 0 1 0-.798-1.382l-.657.379a12.668 12.668 0 0 1-1.306-4.878h.757a.798.798 0 1 0 0-1.597H1.64a12.668 12.668 0 0 1 1.306-4.877l.657.379A.798.798 0 0 0 4.4 7.694l-.663-.383A12.895 12.895 0 0 1 7.31 3.738z" fill="#4AC2FF" fill-rule="nonzero"/>
        <path d="M14.373 17.567a3.193 3.193 0 0 0 3.08-2.395h3.307a.798.798 0 1 0 0-1.597h-3.307a3.187 3.187 0 0 0-2.282-2.282V5.591a.798.798 0 0 0-1.597 0v5.702a3.188 3.188 0 0 0 .799 6.274zm0-4.79a1.597 1.597 0 1 1 0 3.193 1.597 1.597 0 0 1 0-3.193z" fill="#4AC2FF" fill-rule="nonzero"/>
        <path d="M38.326 31.94a.798.798 0 1 0 1.597 0c0-1.974-1.73-3.614-3.992-3.933v-.858a.798.798 0 1 0-1.597 0v.858c-2.262.32-3.992 1.959-3.992 3.932 0 1.974 1.73 3.614 3.992 3.933v4.765c-1.373-.268-2.395-1.197-2.395-2.31a.798.798 0 0 0-1.597 0c0 1.974 1.73 3.614 3.992 3.932v.859a.798.798 0 0 0 1.597 0v-.859c2.262-.32 3.992-1.958 3.992-3.932s-1.73-3.614-3.992-3.932v-4.766c1.373.268 2.395 1.197 2.395 2.31zm-6.387 0c0-1.114 1.022-2.043 2.395-2.311v4.621c-1.373-.268-2.395-1.198-2.395-2.31zm6.387 6.387c0 1.113-1.022 2.042-2.395 2.31v-4.62c1.373.267 2.395 1.197 2.395 2.31z" fill="#4AC2FF" fill-rule="nonzero"/>
        <path d="M46.196 28.746a.798.798 0 0 0-.055-.063 12.845 12.845 0 0 0-4.559-4.558.688.688 0 0 0-.062-.055.637.637 0 0 0-.063-.022 12.678 12.678 0 0 0-12.65 0 .637.637 0 0 0-.062.022.688.688 0 0 0-.063.055 12.852 12.852 0 0 0-4.558 4.558.638.638 0 0 0-.055.063.537.537 0 0 0-.021.063 12.677 12.677 0 0 0 0 12.649.53.53 0 0 0 .021.062c.024.037.05.071.08.104a12.859 12.859 0 0 0 4.534 4.517c.02.02.04.038.063.055a.757.757 0 0 0 .087.037 12.688 12.688 0 0 0 12.6 0 .72.72 0 0 0 .087-.037.688.688 0 0 0 .062-.055 12.859 12.859 0 0 0 4.535-4.517.807.807 0 0 0 .08-.104.53.53 0 0 0 .02-.062 12.677 12.677 0 0 0 0-12.65.616.616 0 0 0-.021-.062zM41.39 44.39a.792.792 0 0 0-1.375.783 11.093 11.093 0 0 1-4.093 1.098.791.791 0 0 0-1.581 0 11.091 11.091 0 0 1-4.094-1.098.793.793 0 0 0-1.375-.783 11.274 11.274 0 0 1-2.997-2.998.793.793 0 0 0-.783-1.375c-.626-1.28-1-2.67-1.099-4.093a.791.791 0 0 0 0-1.581c.1-1.422.472-2.811 1.098-4.092a.793.793 0 0 0 .784-1.377c.8-1.18 1.817-2.196 2.996-2.996a.793.793 0 0 0 1.376-.784 11.092 11.092 0 0 1 4.094-1.1.791.791 0 0 0 1.58 0c1.423.1 2.813.473 4.094 1.1a.792.792 0 0 0 1.377.784c1.179.8 2.195 1.817 2.996 2.996a.793.793 0 0 0 .784 1.377c.625 1.28.998 2.67 1.097 4.092a.791.791 0 0 0 0 1.58 11.083 11.083 0 0 1-1.098 4.094.792.792 0 0 0-.783 1.375 11.254 11.254 0 0 1-2.998 2.998z" fill="#4AC2FF" fill-rule="nonzero"/>
    </g>
</svg>
