<svg width="48" height="48" viewBox="0 0 48 48" xmlns="http://www.w3.org/2000/svg">
    <title>
        C91CB34C-FB21-43B1-8166-6341AC2E2D5C
    </title>
    <g fill-rule="nonzero" fill="none">
        <path d="M47.116 5.59v27.146a1.602 1.602 0 0 1-1.597 1.597H2.403a1.602 1.602 0 0 1-1.597-1.597V5.589h46.31z" fill="#F8FDFF"/>
        <path d="M44.72 5.59v27.146a1.602 1.602 0 0 1-1.596 1.597H2.404a1.602 1.602 0 0 1-1.598-1.597V5.589h43.915z" fill="#FFF"/>
        <path d="M47.116 2.395v4.791H.806v-4.79A1.602 1.602 0 0 1 2.403.797H45.52c.88.003 1.594.716 1.597 1.597z" fill="#C2D6E1"/>
        <path d="M44.72 2.395v4.791H.807v-4.79A1.602 1.602 0 0 1 2.403.797h40.72c.882.003 1.595.716 1.598 1.597z" fill="#F8FDFF"/>
        <g fill="#C2D6E1">
            <path d="M7.992 11.977v9.58H4.8A.798.798 0 0 1 4 20.76v-7.984c0-.44.358-.798.799-.798h3.193z"/>
            <path d="M21.566 12.775v7.984a.798.798 0 0 1-.799.799H7.992v-9.581h12.775c.441 0 .799.357.799.798z"/>
            <path d="M30.349 11.977v9.58h-3.194a.798.798 0 0 1-.798-.798v-7.984c0-.44.357-.798.798-.798h3.194z"/>
            <path d="M43.922 12.775v7.984a.798.798 0 0 1-.798.799H30.349v-9.581h12.775c.44 0 .798.357.798.798z"/>
        </g>
        <g fill="#F8FDFF">
            <path d="M19.17 12.775v7.984a.798.798 0 0 1-.798.799H7.992v-9.581h10.38c.441 0 .799.357.799.798z"/>
            <path d="M41.527 12.775v7.984a.798.798 0 0 1-.799.799h-10.38v-9.581h10.38c.441 0 .799.357.799.798z"/>
        </g>
        <path d="M36.736 34.333c-.006 7.053-5.722 12.77-12.775 12.775a12.775 12.775 0 0 1 0-25.55c7.053.006 12.77 5.722 12.775 12.775z" fill="#C2D6E1"/>
        <path d="M34.34 34.333a12.788 12.788 0 0 1-11.576 12.72 12.775 12.775 0 0 1 0-25.44 12.788 12.788 0 0 1 11.577 12.72z" fill="#F8FDFF"/>
        <path d="M33.542 34.333a9.605 9.605 0 0 1-.902 4.08v.008a10.154 10.154 0 0 1-1.9 2.683c-.404.403-.842.772-1.31 1.101-.437.306-.9.576-1.38.807h-.009a9.603 9.603 0 0 1-4.08.902 8.78 8.78 0 0 1-.798-.032 3.388 3.388 0 0 1-.4-.048 9.412 9.412 0 0 1-2.882-.822h-.008a10.154 10.154 0 0 1-2.682-1.9 9.568 9.568 0 0 1-1.909-2.7 9.605 9.605 0 0 1-.902-4.08 9.605 9.605 0 0 1 .902-4.08 10.021 10.021 0 0 1 1.9-2.69c.405-.404.843-.772 1.31-1.102.438-.305.9-.575 1.381-.806h.008a9.41 9.41 0 0 1 2.883-.822c.132-.024.265-.04.399-.048a8.78 8.78 0 0 1 .798-.032 9.605 9.605 0 0 1 4.08.902h.008a10.154 10.154 0 0 1 2.683 1.9c.404.405.772.843 1.102 1.31.305.438.575.9.806 1.381v.008a9.605 9.605 0 0 1 .902 4.08z" fill="#C2D6E1"/>
        <path d="M31.147 34.333a9.605 9.605 0 0 1-.902 4.08v.008a10.154 10.154 0 0 1-1.9 2.683c-.405.403-.843.772-1.31 1.101-.438.306-.9.576-1.381.807h-.008a9.41 9.41 0 0 1-2.882.822 9.412 9.412 0 0 1-2.883-.822h-.008a10.154 10.154 0 0 1-2.682-1.9 9.568 9.568 0 0 1-1.909-2.7 9.605 9.605 0 0 1-.902-4.08 9.605 9.605 0 0 1 .902-4.08 10.021 10.021 0 0 1 1.9-2.69c.405-.404.843-.772 1.31-1.102.438-.305.9-.575 1.381-.806h.008a9.41 9.41 0 0 1 2.883-.822 9.412 9.412 0 0 1 2.882.822h.008a10.154 10.154 0 0 1 2.683 1.9c.403.405.772.843 1.102 1.31.305.438.575.9.806 1.381v.008a9.605 9.605 0 0 1 .902 4.08z" fill="#F4F4F4"/>
        <path d="M2.403 34.333H4.8a1.602 1.602 0 0 1-1.597-1.597V2.396A1.602 1.602 0 0 1 4.799.797H2.403A1.602 1.602 0 0 0 .806 2.395v30.341c.003.88.716 1.594 1.597 1.597z" fill="#FFF"/>
        <g>
            <path fill="#FFF" d="M1.605 7.186v25.55H.008V7.186z"/>
            <g fill="#4AC2FF">
                <path d="M.806 14.372a.84.84 0 0 0 .567-.232.81.81 0 0 0 0-1.133l-.12-.096a.608.608 0 0 0-.143-.072.51.51 0 0 0-.144-.048 1.203 1.203 0 0 0-.16-.016.84.84 0 0 0-.567.232.825.825 0 0 0 0 1.133c.077.072.166.13.264.168.096.041.199.063.303.064z"/>
                <path d="M11.186 15.969h7.186a.798.798 0 0 0 0-1.597h-7.186a.798.798 0 0 0 0 1.597z"/>
                <path d="M15.178 17.566h-3.992a.798.798 0 0 0 0 1.596h3.992a.798.798 0 0 0 0-1.596z"/>
                <path d="M32.744 15.969h7.984a.798.798 0 0 0 0-1.597h-7.984a.798.798 0 0 0 0 1.597z"/>
                <path d="M36.736 17.566h-3.992a.798.798 0 0 0 0 1.596h3.992a.798.798 0 0 0 0-1.596z"/>
                <path d="M25.558 33.535h-.798V30.34a.798.798 0 0 0-1.597 0v3.992c0 .441.357.798.798.798h1.597a.798.798 0 1 0 0-1.596z"/>
                <path d="M32.925 29.114a10.182 10.182 0 0 0-3.746-3.746c-.011-.006-.017-.018-.028-.024-.011-.006-.02-.006-.03-.01a10.333 10.333 0 0 0-10.32 0c-.009.004-.02.004-.03.01-.01.006-.017.018-.028.025a10.173 10.173 0 0 0-3.746 3.746c-.007.011-.018.017-.025.028-.006.011-.005.02-.01.03a10.333 10.333 0 0 0 0 10.32c.005.009.005.02.01.03a.52.52 0 0 0 .036.046 10.171 10.171 0 0 0 3.735 3.729c.012.006.017.017.028.024.012.006.028.01.042.017a10.334 10.334 0 0 0 10.295 0 .4.4 0 0 0 .043-.017c.011-.007.018-.018.029-.025a10.17 10.17 0 0 0 3.735-3.729c.011-.016.026-.028.035-.045.01-.017.006-.02.01-.03a10.333 10.333 0 0 0 0-10.32c-.004-.01-.004-.02-.01-.03-.006-.01-.018-.017-.025-.029zm-3.902 12.389l-.378-.655a.798.798 0 1 0-1.383.799l.379.655a8.703 8.703 0 0 1-2.881.775v-.76a.798.798 0 0 0-1.597 0v.76a8.705 8.705 0 0 1-2.88-.775l.378-.655a.799.799 0 0 0-1.383-.799l-.379.655a8.88 8.88 0 0 1-1.148-.958 8.789 8.789 0 0 1-.958-1.15l.655-.377a.798.798 0 1 0-.799-1.383l-.655.379a8.704 8.704 0 0 1-.776-2.882h.76a.798.798 0 1 0 0-1.597h-.76c.09-.998.352-1.973.774-2.881l.656.378a.798.798 0 1 0 .798-1.382l-.655-.379a8.88 8.88 0 0 1 .959-1.148c.355-.351.74-.672 1.149-.958l.377.655a.798.798 0 1 0 1.383-.799l-.378-.655a8.704 8.704 0 0 1 2.882-.776v.759a.798.798 0 0 0 1.597 0v-.76c.997.091 1.972.353 2.88.775l-.378.656a.798.798 0 1 0 1.383.798l.378-.655a8.88 8.88 0 0 1 1.148.958c.352.355.672.74.959 1.15l-.655.377a.798.798 0 1 0 .798 1.383l.656-.379c.423.91.685 1.884.776 2.883h-.76a.798.798 0 1 0 0 1.596h.76a8.705 8.705 0 0 1-.775 2.881l-.655-.378a.799.799 0 0 0-.799 1.383l.655.378a8.88 8.88 0 0 1-.958 1.148c-.355.352-.74.673-1.15.96z"/>
                <path d="M45.52 0H2.402A2.395 2.395 0 0 0 .008 2.395v7.985a.798.798 0 0 0 1.597 0V7.984h44.712v24.752a.798.798 0 0 1-.798.798h-8.025a13.578 13.578 0 0 0-7.159-11.178h12.789c.882 0 1.597-.715 1.597-1.597v-7.984c0-.882-.715-1.597-1.597-1.597h-15.97c-.881 0-1.596.715-1.596 1.597v3.194h-3.194v-3.194c0-.882-.715-1.597-1.597-1.597H4.8c-.882 0-1.597.715-1.597 1.597v7.984c0 .882.715 1.597 1.597 1.597h12.788a13.578 13.578 0 0 0-7.159 11.178H2.403a.798.798 0 0 1-.798-.798V16.767a.798.798 0 0 0-1.597 0v15.97a2.395 2.395 0 0 0 2.395 2.394h8.026c.405 7.178 6.344 12.791 13.533 12.791 7.19 0 13.128-5.613 13.534-12.79h8.023a2.395 2.395 0 0 0 2.395-2.396V2.396A2.396 2.396 0 0 0 45.52 0zm-2.396 20.76H31.147v-7.985h11.977v7.984zm-15.97-7.985h2.396v7.984h-2.395v-7.984zm-6.387 3.992v3.992H8.791v-7.984h11.976v3.992zM4.8 12.775h2.395v7.984H4.799v-7.984zm17.565 7.984v-3.193h3.194v3.193c0 .036.008.07.01.104a12.497 12.497 0 0 0-3.214 0c.002-.035.01-.068.01-.104zm1.597 25.55c-6.614 0-11.976-5.362-11.976-11.976 0-6.615 5.362-11.977 11.976-11.977 6.615 0 11.977 5.362 11.977 11.977-.008 6.611-5.365 11.969-11.977 11.977zM1.605 6.389V2.395c0-.44.357-.798.798-.798H45.52c.441 0 .798.357.798.798v3.993H1.605z"/>
                <path d="M5.597 3.194h-.798a.798.798 0 0 0 0 1.597h.798a.798.798 0 0 0 0-1.597z"/>
                <path d="M9.59 3.194h-.8a.798.798 0 0 0 0 1.597h.8a.798.798 0 0 0 0-1.597z"/>
                <path d="M13.581 3.194h-.798a.798.798 0 0 0 0 1.597h.798a.798.798 0 0 0 0-1.597z"/>
                <path d="M43.124 3.194h-.799a.798.798 0 0 0 0 1.597h.799a.798.798 0 0 0 0-1.597z"/>
            </g>
        </g>
    </g>
</svg>
