<svg width="96" height="96" viewBox="0 0 96 96" xmlns="http://www.w3.org/2000/svg">
    <title>
        30F766C4-4A65-4D1D-8B83-ADCB9DE18FA1
    </title>
    <defs>
        <linearGradient x1="66.182%" y1="0%" x2="66.182%" y2="135.559%" id="a">
            <stop stop-color="#4AC2FF" offset="0%"/>
            <stop stop-color="#4BB7FF" stop-opacity="0" offset="100%"/>
        </linearGradient>
    </defs>
    <g fill-rule="nonzero" fill="none">
        <rect stroke="#89969F" stroke-width="4" x="16" y="24" width="65" height="41" rx="7"/>
        <path d="M21.467 59.245A23.903 23.903 0 0 1 32 56.817c3.664 0 7.136.82 10.243 2.289l6.622-6.623a1.636 1.636 0 0 1 2.315 2.314l-5.975 5.975C51.709 65.066 56 72.44 56 80.817v4.05H8v-4.05c0-8.266 4.178-15.556 10.538-19.872l-6.147-6.148a1.636 1.636 0 0 1 2.314-2.314l6.762 6.762zM8 88.3h48V96H8v-7.7zm35.455-9.483c2.108 0 3.818-1.724 3.818-3.85 0-2.127-1.71-3.85-3.818-3.85-2.11 0-3.819 1.723-3.819 3.85 0 2.126 1.71 3.85 3.819 3.85zm-21.819 0c2.11 0 3.819-1.724 3.819-3.85 0-2.127-1.71-3.85-3.819-3.85-2.108 0-3.818 1.723-3.818 3.85 0 2.126 1.71 3.85 3.818 3.85z" fill="url(#a)"/>
    </g>
</svg>
