<svg width="96" height="96" viewBox="0 0 96 96" xmlns="http://www.w3.org/2000/svg">
    <title>
        9840AFCA-E3DC-49B8-9947-1DFD08E955DE
    </title>
    <defs>
        <linearGradient x1="66.182%" y1="0%" x2="66.182%" y2="135.559%" id="a">
            <stop stop-color="#4AC2FF" offset="0%"/>
            <stop stop-color="#4BB7FF" stop-opacity="0" offset="100%"/>
        </linearGradient>
    </defs>
    <g fill-rule="nonzero" fill="none">
        <rect stroke="#89969F" stroke-width="4" x="10" y="23" width="76" height="51" rx="7"/>
        <path d="M39.787 73.552c2.938-5.068 8.266-8.268 13.906-8.35a8.92 8.92 0 0 1 .17-.002c2.426 0 4.717.902 6.738 1.698 1.512.594 2.817 1.108 3.823 1.108.895 0 2.193-.507 3.696-1.095C70.297 66.06 73.006 65 75.835 65c.362 0 .723.017 1.072.052 2.409.103 8.39.956 12.293 6.621a.533.533 0 0 1-.154.755l-.053.032c-1.133.696-6.788 4.535-6.715 11.785.078 8.923 7.518 12.196 8.367 12.54l.04.017a.536.536 0 0 1 .287.66l-.019.057c-.46 1.465-1.826 5.296-4.549 9.243-2.609 3.78-5.566 8.064-10.383 8.153-2.251.042-3.775-.615-5.254-1.25-1.501-.644-3.053-1.31-5.485-1.31-2.557 0-4.187.688-5.763 1.354-1.403.593-2.855 1.207-4.864 1.286a6.249 6.249 0 0 1-.244.005c-4.276 0-7.398-3.97-10.482-8.394-6.177-8.847-9.729-23.439-4.142-33.054zM76.38 49a.537.537 0 0 1 .55.48c.39 3.591-.896 7.6-3.439 10.724C71.076 63.163 67.538 65 64.259 65c-.23 0-.461-.01-.688-.027a.535.535 0 0 1-.486-.466c-.526-4.03 1.47-8.027 3.514-10.425 2.405-2.852 6.428-4.943 9.782-5.082z" fill="url(#a)"/>
    </g>
</svg>
