<svg width="186" height="9" viewBox="0 0 186 9" xmlns="http://www.w3.org/2000/svg">
    <title>
        DC406408-B269-45C0-8B1C-05ABBCBA8BEA
    </title>
    <defs>
        <linearGradient x1="98.422%" y1="50%" x2="-6.524%" y2="50%" id="a">
            <stop stop-color="#4AC2FF" offset="0%"/>
            <stop stop-color="#4BB7FF" stop-opacity="0" offset="100%"/>
        </linearGradient>
    </defs>
    <g fill-rule="nonzero" fill="none">
        <path d="M3.5 3h21a1.5 1.5 0 0 1 0 3h-21a1.5 1.5 0 0 1 0-3zm56 0h21a1.5 1.5 0 0 1 0 3h-21a1.5 1.5 0 0 1 0-3zm-28 0h21a1.5 1.5 0 0 1 0 3h-21a1.5 1.5 0 0 1 0-3zm56 0h97a1.5 1.5 0 0 1 0 3h-97a1.5 1.5 0 0 1 0-3z" fill="url(#a)"/>
        <g fill="#4AC2FF">
            <path d="M185.804 5.25c-.405.717-1.3.963-2 .549l-5.072-3a1.52 1.52 0 0 1-.536-2.049 1.445 1.445 0 0 1 2-.549l5.072 3c.7.414.94 1.331.536 2.049z"/>
            <path d="M178.196 8.25c.405.717 1.3.963 2 .549l5.072-3c.7-.414.94-1.331.536-2.049a1.445 1.445 0 0 0-2-.549l-5.072 3a1.52 1.52 0 0 0-.536 2.049z"/>
        </g>
    </g>
</svg>
