<svg width="24" height="24" viewBox="0 0 24 24" xmlns="http://www.w3.org/2000/svg">
    <title>
        AF07659D-BE31-4ECC-BE05-FEBAB83BB56D
    </title>
    <path d="M5.206 24a4.203 4.203 0 0 1-3.886-2.598 4.213 4.213 0 0 1 .912-4.588L12.851 6.181a2.8 2.8 0 0 1 3.96.003 2.81 2.81 0 0 1 .004 3.967L8.887 18.09a.4.4 0 1 1-.567-.567l7.928-7.94c.78-.783.78-2.051-.001-2.833a2 2 0 0 0-2.83-.002L2.799 17.381a3.412 3.412 0 0 0 .003 4.817 3.4 3.4 0 0 0 4.81.004L20.78 9.017a4.817 4.817 0 0 0-.003-6.803 4.8 4.8 0 0 0-6.793-.003L3.507 12.703a.4.4 0 1 1-.567-.567L13.417 1.644a5.6 5.6 0 0 1 7.928 0 5.62 5.62 0 0 1 0 7.94L8.178 22.769A4.187 4.187 0 0 1 5.206 24z" fill="#D3D9DD" fill-rule="nonzero"/>
</svg>
