<svg width="48" height="48" viewBox="0 0 48 48" xmlns="http://www.w3.org/2000/svg">
    <title>
        C6F586DE-0706-40E0-AE5A-A93AB4D5648B
    </title>
    <g fill="none" fill-rule="evenodd">
        <g transform="translate(.762 .855)">
            <path d="M14.41 46.34H.86a.794.794 0 0 1-.791-.925c.511-2.521 3.045-4.85 5.93-5.37.394-.072.792-.11 1.192-.111 3.717 0 7.218 3.207 7.218 6.406z" fill="#C5EBFF"/>
            <path d="M12.011 46.34H.86a.794.794 0 0 1-.791-.925c.511-2.521 3.045-4.85 5.93-5.37 3.238.591 6.012 3.447 6.012 6.295z" fill="#FFF"/>
            <path d="M32.06 46.34H14.41c0-2.816 3.317-6.254 7.21-7.044a8.395 8.395 0 0 1 1.614-.16c4.541 0 8.826 4.005 8.826 7.204z" fill="#C5EBFF"/>
            <path d="M29.63 46.34H14.41c0-2.816 3.5-6.254 7.61-7.044 4.108.79 7.61 4.228 7.61 7.044z" fill="#FFF"/>
            <path d="M45.609 46.34h-13.55c0-2.848 2.774-5.704 6.012-6.294.398-.074.802-.111 1.207-.112 3.357 0 6.539 2.617 7.122 5.48a.79.79 0 0 1-.791.926z" fill="#C5EBFF"/>
            <path d="M43.21 46.34H32.06c0-2.848 2.773-5.704 6.01-6.294 2.887.518 5.42 2.848 5.932 5.369a.79.79 0 0 1-.791.925z" fill="#FFF"/>
            <path d="M26.432 4.823h-6.395c0-2.553 3.197-4.787 3.197-4.787s3.198 2.234 3.198 4.787z" fill="#C5EBFF"/>
            <path fill="#C5EBFF" d="M20.037 4.823h6.395v9.573h-6.395z"/>
            <path fill="#F5F5F5" d="M20.037 4.823h3.997v9.573h-3.997z"/>
            <g fill="#E3E7F2">
                <path d="M20.037 10.408v7.124l-3.198 3.247V13.6z"/>
                <path d="M29.63 13.599v7.18l-3.198-3.247v-7.124z"/>
                <path d="M26.432 18.378c0 1.276-3.198 5.592-3.198 5.592s-3.197-4.316-3.197-5.592c-.001-.27.065-.536.192-.774h6.011c.127.238.193.504.192.774z"/>
            </g>
            <path fill="#C5EBFF" d="M20.037 14.397h6.395v3.191h-6.395z"/>
            <path fill="#E3E7F2" d="M20.037 14.397h3.997v3.191h-3.997z"/>
            <g fill="#C5EBFF">
                <path d="M44.818 34.357a5.575 5.575 0 0 1-1.638 3.95 5.597 5.597 0 0 1-3.958 1.635 5.59 5.59 0 0 1-5.596-5.585 5.59 5.59 0 0 1 5.596-5.584 5.597 5.597 0 0 1 3.958 1.634 5.575 5.575 0 0 1 1.638 3.95z"/>
                <path d="M29.63 32.762a6.374 6.374 0 0 1-1.873 4.513 6.4 6.4 0 0 1-5.722 1.758 6.387 6.387 0 0 1-5.196-6.271 6.387 6.387 0 0 1 6.395-6.382 6.4 6.4 0 0 1 4.523 1.869 6.374 6.374 0 0 1 1.872 4.513z"/>
            </g>
            <ellipse fill="#FFF" cx="22.035" cy="32.762" rx="5.196" ry="6.271"/>
            <path d="M12.843 34.357a5.575 5.575 0 0 1-1.638 3.95 5.597 5.597 0 0 1-3.958 1.635 5.59 5.59 0 0 1-5.596-5.585 5.59 5.59 0 0 1 5.596-5.584 5.597 5.597 0 0 1 3.958 1.634 5.575 5.575 0 0 1 1.638 3.95z" fill="#C5EBFF"/>
            <g transform="translate(1.619 28.895)" fill="#FFF">
                <ellipse cx="36.404" cy="5.462" rx="4.397" ry="5.457"/>
                <ellipse cx="4.429" cy="5.462" rx="4.397" ry="5.457"/>
            </g>
        </g>
        <g fill="#FFF">
            <path d="M23.2 18.463v-.059l-.057.06z"/>
            <path d="M20 14.47l3.197-3.19V5.694c0-1.492 1.09-2.872 1.999-3.763a10.73 10.73 0 0 0-1.2-1.024S20.8 3.142 20.8 5.695v5.584l-3.198 3.191v7.18L20 19.215V14.47z"/>
            <path d="M1.622 47.212H4.02a.794.794 0 0 1-.791-.926c.51-2.512 3.028-4.833 5.9-5.362a6.745 6.745 0 0 0-1.072-.113 5.638 5.638 0 0 0 1.144-.127 5.589 5.589 0 0 1-4.39-5.456c0-2.62 1.826-4.889 4.39-5.454a5.627 5.627 0 0 0-2.391-.002 5.59 5.59 0 0 0-4.397 5.457 5.59 5.59 0 0 0 4.397 5.457c.36.074.728.115 1.096.122-.384.003-.767.04-1.144.11-2.886.518-5.42 2.847-5.931 5.368a.79.79 0 0 0 .79.926z"/>
        </g>
        <path d="M1.623 47.993H46.37c.486 0 .946-.218 1.253-.594.297-.36.416-.833.324-1.29a8.066 8.066 0 0 0-4.73-5.415 6.367 6.367 0 0 0-2.434-11.823v-7.236a3.998 3.998 0 0 0-3.997-3.989h-5.595v-3.19a.797.797 0 0 0-.234-.565l-2.964-2.957V5.679c0-2.931-3.393-5.339-3.538-5.44a.8.8 0 0 0-.917 0C23.393.34 20 2.748 20 5.68v5.255l-2.964 2.957a.797.797 0 0 0-.234.564v3.191h-5.596a3.998 3.998 0 0 0-3.996 3.99v7.235a6.367 6.367 0 1 0-2.434 11.824 8.067 8.067 0 0 0-4.73 5.415c-.092.456.027.93.324 1.289.306.376.767.594 1.253.594zm14.452-1.596c.648-2.602 4.248-5.61 7.921-5.61 3.674 0 7.274 3.008 7.922 5.61H16.075zm5.523-30.346h4.796v1.595h-4.796v-1.595zm4.796-4.787v3.191h-4.796V6.477h4.796v4.787zm0 7.993c-.04.561-1.171 2.45-2.398 4.202-1.226-1.751-2.357-3.64-2.397-4.202h4.794zm-2.398 8.76a5.59 5.59 0 0 1 5.596 5.585 5.59 5.59 0 0 1-5.596 5.585 5.59 5.59 0 0 1-5.595-5.585 5.596 5.596 0 0 1 5.595-5.584zm22.39 18.372a.025.025 0 0 1-.016.008H33.702c.518-2.531 3.403-4.809 6.337-4.809 2.852 0 5.815 2.262 6.347 4.801zM44.78 35.198a4.792 4.792 0 0 1-4.796 4.787 4.792 4.792 0 0 1-4.796-4.787 4.792 4.792 0 0 1 4.796-4.787 4.797 4.797 0 0 1 4.796 4.787zm-7.994-15.956a2.398 2.398 0 0 1 2.398 2.393v7.236a6.368 6.368 0 1 0-2.397 11.846 8.538 8.538 0 0 0-4.012 3.648 10.782 10.782 0 0 0-5.3-4.482 7.17 7.17 0 0 0-2.68-13.414v-1.381a26.155 26.155 0 0 0 2.993-4.96l2.033 2.066a.8.8 0 0 0 1.37-.559v-2.393h5.595zm-7.194-4.457v4.9l-1.599-1.625v-4.87l1.599 1.595zM23.998 1.9a7.269 7.269 0 0 1 2.253 2.982h-4.508A7.323 7.323 0 0 1 23.998 1.9zM18.4 14.785L20 13.19v4.87l-1.6 1.624v-4.899zm-7.195 4.457h5.596v2.393a.798.798 0 0 0 1.37.56l2.033-2.067a26.15 26.15 0 0 0 2.992 4.96v1.381a7.17 7.17 0 1 0-2.678 13.414 10.782 10.782 0 0 0-5.302 4.482 8.538 8.538 0 0 0-4.012-3.648 6.368 6.368 0 0 0-2.397-11.846v-7.236a2.398 2.398 0 0 1 2.398-2.393zM3.213 35.198a4.792 4.792 0 0 1 4.796-4.787 4.791 4.791 0 0 1 4.796 4.787 4.792 4.792 0 0 1-4.796 4.787 4.797 4.797 0 0 1-4.796-4.787zm4.74 6.39c2.935 0 5.82 2.28 6.338 4.811l-12.678.029c.526-2.578 3.489-4.84 6.34-4.84z" fill="#4AC2FF" fill-rule="nonzero"/>
    </g>
</svg>
