<svg width="48" height="48" viewBox="0 0 48 48" xmlns="http://www.w3.org/2000/svg">
    <title>
        FC97C5D7-E847-498D-8499-FEDA87A234D6
    </title>
    <g fill-rule="nonzero" fill="none">
        <path d="M47.203 2.4v3.197L5.597 40.003H2.4A1.615 1.615 0 0 1 .797 38.4v-36c0-.881.722-1.594 1.603-1.603h43.2A1.62 1.62 0 0 1 47.203 2.4z" fill="#C2D6E1"/>
        <path d="M44.803 2.4v3.197H.797V2.4c0-.881.722-1.594 1.603-1.603h40.8A1.62 1.62 0 0 1 44.803 2.4z" fill="#F8FDFF"/>
        <path d="M47.203 5.597V38.4c0 .881-.722 1.594-1.603 1.603H5.597V5.597h41.606z" fill="#C2D6E1"/>
        <path d="M44.804 5.597V38.4a1.565 1.565 0 0 1-1.51 1.603H5.606V5.597h39.198z" fill="#F8FDFF"/>
        <path d="M5.597.797v4.8h-4.8V2.4c0-.881.722-1.594 1.603-1.603h3.197z" fill="#FFF"/>
        <g fill="#C2D6E1">
            <path d="M9.6 8.803h7.997c.44 0 .797.356.797.797v3.197c0 .44-.356.797-.797.797H9.6a.796.796 0 0 1-.797-.797V9.6c0-.44.356-.797.797-.797z"/>
            <path d="M22.397 8.803h7.997c.44 0 .797.356.797.797v3.197c0 .44-.357.797-.797.797h-7.997a.796.796 0 0 1-.797-.797V9.6c0-.44.356-.797.797-.797z"/>
            <path d="M35.203 8.803H43.2c.44 0 .797.356.797.797v3.197c0 .44-.356.797-.797.797h-7.997a.796.796 0 0 1-.797-.797V9.6a.79.79 0 0 1 .797-.797z"/>
            <path d="M9.6 16.8h7.997c.44 0 .797.356.797.797v3.197c0 .44-.356.797-.797.797H9.6a.796.796 0 0 1-.797-.797v-3.197c0-.44.356-.797.797-.797z"/>
            <path d="M9.6 24.797h7.997c.44 0 .797.356.797.797v3.197c0 .44-.356.796-.797.796H9.6a.796.796 0 0 1-.797-.796v-3.197c0-.431.356-.797.797-.797z"/>
            <path d="M35.203 24.797H43.2c.44 0 .797.356.797.797v3.197c0 .44-.356.796-.797.796h-7.997a.796.796 0 0 1-.797-.796v-3.197a.796.796 0 0 1 .797-.797z"/>
            <path d="M22.397 16.8h7.997c.44 0 .797.356.797.797v3.197c0 .44-.357.797-.797.797h-7.997a.796.796 0 0 1-.797-.797v-3.197c0-.44.356-.797.797-.797z"/>
            <path d="M35.203 16.8H43.2c.44 0 .797.356.797.797v3.197c0 .44-.356.797-.797.797h-7.997a.796.796 0 0 1-.797-.797v-3.197a.79.79 0 0 1 .797-.797z"/>
        </g>
        <g fill="#FFF">
            <path d="M9.6 8.803h5.597c.44 0 .797.356.797.797v3.197c0 .44-.356.797-.797.797H9.6a.796.796 0 0 1-.797-.797V9.6c0-.44.356-.797.797-.797z"/>
            <path d="M22.397 8.803h5.597c.44 0 .797.356.797.797v3.197c0 .44-.357.797-.797.797h-5.597a.796.796 0 0 1-.797-.797V9.6c0-.44.356-.797.797-.797z"/>
            <path d="M35.203 8.803H40.8c.44 0 .797.356.797.797v3.197c0 .44-.356.797-.797.797h-5.597a.796.796 0 0 1-.797-.797V9.6a.79.79 0 0 1 .797-.797z"/>
            <path d="M9.6 16.8h5.597c.44 0 .797.356.797.797v3.197c0 .44-.356.797-.797.797H9.6a.796.796 0 0 1-.797-.797v-3.197c0-.44.356-.797.797-.797z"/>
            <path d="M9.6 24.797h5.597c.44 0 .797.356.797.797v3.197c0 .44-.356.796-.797.796H9.6a.796.796 0 0 1-.797-.796v-3.197c0-.431.356-.797.797-.797z"/>
            <path d="M35.203 24.797H40.8c.44 0 .797.356.797.797v3.197c0 .44-.356.796-.797.796h-5.597a.796.796 0 0 1-.797-.796v-3.197a.796.796 0 0 1 .797-.797z"/>
            <path d="M22.397 16.8h5.597c.44 0 .797.356.797.797v3.197c0 .44-.357.797-.797.797h-5.597a.796.796 0 0 1-.797-.797v-3.197c0-.44.356-.797.797-.797z"/>
            <path d="M35.203 16.8H40.8c.44 0 .797.356.797.797v3.197c0 .44-.356.797-.797.797h-5.597a.796.796 0 0 1-.797-.797v-3.197a.79.79 0 0 1 .797-.797z"/>
        </g>
        <path d="M39.197 34.397c-.01 7.069-5.738 12.797-12.797 12.797-.403 0-.797-.019-1.2-.056-6.581-.61-11.606-6.132-11.606-12.741 0-6.61 5.025-12.122 11.606-12.74a12.85 12.85 0 0 1 1.2-.057c7.069.01 12.797 5.737 12.797 12.797z" fill="#C2D6E1"/>
        <path d="M36.797 34.397c-.01 6.6-5.025 12.122-11.597 12.74-6.581-.609-11.606-6.13-11.606-12.74s5.025-12.122 11.606-12.74c6.572.627 11.597 6.14 11.597 12.74z" fill="#F8FDFF"/>
        <path d="M36 34.397c0 .272-.01.534-.028.797a9.567 9.567 0 0 1-.872 3.29v.01a10.226 10.226 0 0 1-1.903 2.69 9.876 9.876 0 0 1-1.313 1.107c-.44.309-.9.572-1.387.806h-.01a9.511 9.511 0 0 1-3.29.872c-.263.028-.525.028-.797.028s-.534-.01-.797-.028a5.897 5.897 0 0 1-.403-.047 9.36 9.36 0 0 1-2.887-.825h-.01a10.226 10.226 0 0 1-2.69-1.903 9.748 9.748 0 0 1-1.913-2.7 9.511 9.511 0 0 1-.872-3.29c-.028-.263-.028-.526-.028-.798s.01-.534.028-.797a9.567 9.567 0 0 1 .872-3.29 10.06 10.06 0 0 1 1.903-2.7 9.876 9.876 0 0 1 1.313-1.107c.44-.309.9-.571 1.387-.806h.01a9.36 9.36 0 0 1 2.887-.825 2.79 2.79 0 0 1 .403-.047c.263-.028.525-.028.797-.028s.534.01.797.028a9.567 9.567 0 0 1 3.29.872h.01a10.226 10.226 0 0 1 2.69 1.903c.404.403.779.844 1.107 1.313.31.44.572.9.806 1.387v.01a9.511 9.511 0 0 1 .9 4.078z" fill="#C2D6E1"/>
        <path d="M33.6 34.397c0 .272-.01.534-.028.797a9.567 9.567 0 0 1-.872 3.29v.01a10.226 10.226 0 0 1-1.903 2.69 9.876 9.876 0 0 1-1.313 1.107c-.44.309-.9.572-1.387.806h-.01a9.36 9.36 0 0 1-2.887.825 9.36 9.36 0 0 1-2.887-.825h-.01a10.226 10.226 0 0 1-2.69-1.903 9.748 9.748 0 0 1-1.913-2.7 9.511 9.511 0 0 1-.872-3.29c-.028-.263-.028-.526-.028-.798s.01-.534.028-.797a9.567 9.567 0 0 1 .872-3.29 10.06 10.06 0 0 1 1.903-2.7 9.876 9.876 0 0 1 1.313-1.107c.44-.309.9-.571 1.387-.806h.01a9.36 9.36 0 0 1 2.887-.825 9.36 9.36 0 0 1 2.887.825h.01a10.226 10.226 0 0 1 2.69 1.903c.404.403.779.844 1.107 1.313.31.44.572.9.806 1.387v.01a9.511 9.511 0 0 1 .9 4.078z" fill="#FFF"/>
        <g fill="#FFF">
            <path d="M2.4 40.003h2.4A1.615 1.615 0 0 1 3.197 38.4v-36c0-.881.722-1.594 1.603-1.603H2.4C1.519.797.806 1.519.797 2.4v36A1.62 1.62 0 0 0 2.4 40.003z"/>
            <path d="M0 38.4v-36h1.603v36z"/>
        </g>
        <g fill="#4AC2FF">
            <path d="M.497 32.737a.825.825 0 0 0 .14.047c.057.01.104.02.16.02a.825.825 0 0 0 .572-.235.786.786 0 0 0 .169-.263.81.81 0 0 0-.17-.872.786.786 0 0 0-.262-.168.82.82 0 0 0-.3-.066.825.825 0 0 0-.572.234.81.81 0 0 0 0 1.135l.122.093a.497.497 0 0 0 .14.075z"/>
            <path d="M45.6 0H2.4A2.405 2.405 0 0 0 0 2.4v26.4a.796.796 0 1 0 1.594 0V6.403H4.79v32.803H2.4a.796.796 0 0 1-.797-.797v-3.197a.796.796 0 0 0-.797-.796.796.796 0 0 0-.806.787V38.4c0 1.322 1.078 2.4 2.4 2.4h12.01A13.576 13.576 0 0 0 26.4 48c5.025 0 9.628-2.766 11.99-7.2h7.21c1.322 0 2.4-1.078 2.4-2.4v-36C48 1.078 46.922 0 45.6 0zm.797 2.4v2.4H6.403V1.603H45.6c.44 0 .797.356.797.797zM1.603 4.8V2.4c0-.44.356-.797.797-.797h2.4V4.8H1.603zM26.4 46.397c-6.628 0-12-5.372-12-12s5.372-12 12-12 12 5.372 12 12c-.01 6.628-5.372 12-12 12zm-4.003-25.594v-3.197h7.997v3.197h-7.997zM45.6 39.197h-6.488c2.625-6.863-.712-14.569-7.5-17.363a1.58 1.58 0 0 0 .394-1.04v-3.197c0-.881-.712-1.603-1.603-1.603h-7.997c-.881 0-1.603.712-1.603 1.603v3.197c0 .384.14.75.394 1.04-6.797 2.794-10.125 10.5-7.5 17.363H6.403V6.403h40.003V38.4a.81.81 0 0 1-.806.797z"/>
            <path d="M17.597 7.997H9.6c-.881 0-1.603.712-1.603 1.603v3.197c0 .881.712 1.603 1.603 1.603h7.997c.881 0 1.603-.713 1.603-1.603V9.6c0-.881-.712-1.603-1.603-1.603zm-7.997 4.8V9.6h7.997v3.197H9.6z"/>
            <path d="M30.403 7.997h-7.997c-.881 0-1.603.712-1.603 1.603v3.197c0 .881.713 1.603 1.603 1.603h7.997c.881 0 1.603-.713 1.603-1.603V9.6a1.615 1.615 0 0 0-1.603-1.603zm-8.006 4.8V9.6h7.997v3.197h-7.997z"/>
            <path d="M43.2 7.997h-7.997c-.881 0-1.603.712-1.603 1.603v3.197c0 .881.712 1.603 1.603 1.603H43.2c.881 0 1.603-.713 1.603-1.603V9.6c0-.881-.722-1.603-1.603-1.603zm-7.997 4.8V9.6H43.2v3.197h-7.997z"/>
            <path d="M17.597 16.003H9.6c-.881 0-1.603.713-1.603 1.603v3.197c0 .881.712 1.603 1.603 1.603h7.997c.881 0 1.603-.712 1.603-1.603v-3.197c0-.89-.712-1.603-1.603-1.603zm-7.997 4.8v-3.197h7.997v3.197H9.6z"/>
            <path d="M43.2 16.003h-7.997c-.881 0-1.603.713-1.603 1.603v3.197c0 .881.712 1.603 1.603 1.603H43.2c.881 0 1.603-.712 1.603-1.603v-3.197c0-.89-.722-1.603-1.603-1.603zm-7.997 4.8v-3.197H43.2v3.197h-7.997z"/>
            <path d="M14.4 24H9.6c-.881 0-1.603.712-1.603 1.603V28.8c0 .881.712 1.603 1.603 1.603h1.603a.796.796 0 1 0 0-1.594H9.6v-3.197h4.8c.44 0 .797-.356.797-.796A.812.812 0 0 0 14.4 24z"/>
            <path d="M43.2 24h-4.8a.796.796 0 1 0 0 1.594h4.8v3.197h-1.603a.796.796 0 1 0 0 1.593H43.2c.881 0 1.603-.712 1.603-1.603v-3.197c0-.872-.722-1.584-1.603-1.584z"/>
            <path d="M28.003 33.6h-.797v-3.197a.796.796 0 1 0-1.593 0v4.003c0 .44.356.797.796.797h1.604c.44 0 .796-.356.796-.797a.812.812 0 0 0-.806-.806z"/>
            <path d="M35.419 39.572a10.342 10.342 0 0 0 0-10.34c-.01-.01-.01-.02-.01-.029l-.028-.028a10.205 10.205 0 0 0-3.75-3.75l-.028-.028c-.01-.01-.019-.01-.028-.01a10.342 10.342 0 0 0-10.34 0c-.01.01-.02.01-.029.01-.01 0-.018.019-.028.028-1.556.9-2.86 2.194-3.75 3.75l-.028.028c-.01.01-.01.019-.01.028a10.342 10.342 0 0 0 0 10.34c.01.01.01.02.01.029.01.019.019.028.038.047.9 1.556 2.184 2.84 3.74 3.74l.028.029c.01.009.028.009.038.018a10.335 10.335 0 0 0 10.312 0c.019-.009.028-.009.047-.018l.028-.028a10.086 10.086 0 0 0 3.74-3.741c.01-.019.029-.028.038-.047.01-.019 0-.019.01-.028zm-3.947 2.015l-.375-.656a.785.785 0 0 0-.694-.403c-.29 0-.553.15-.694.403a.823.823 0 0 0 0 .806l.375.657a8.8 8.8 0 0 1-2.887.778v-.76a.796.796 0 1 0-1.594 0v.76a8.8 8.8 0 0 1-2.887-.778l.375-.657a.797.797 0 0 0-.3-1.087.795.795 0 0 0-1.088.29l-.375.657a9.459 9.459 0 0 1-1.153-.956 8.006 8.006 0 0 1-.956-1.154l.656-.375a.807.807 0 0 0 .29-1.087.797.797 0 0 0-1.087-.3l-.656.375a8.8 8.8 0 0 1-.778-2.888h.76a.796.796 0 1 0 0-1.593h-.76a8.8 8.8 0 0 1 .778-2.888l.656.375a.8.8 0 0 0 .806 0 .796.796 0 0 0 .404-.694.815.815 0 0 0-.404-.693l-.656-.375c.29-.413.61-.797.956-1.153.357-.357.741-.675 1.153-.957l.375.657a.807.807 0 0 0 1.088.29.797.797 0 0 0 .3-1.087l-.375-.657a8.8 8.8 0 0 1 2.887-.778v.76a.796.796 0 1 0 1.594 0v-.76a8.8 8.8 0 0 1 2.888.779l-.375.656a.8.8 0 0 0 0 .806c.14.253.412.403.694.403.28 0 .553-.16.693-.403l.375-.656c.413.29.797.61 1.153.956.357.356.675.74.957 1.153l-.657.375a.785.785 0 0 0-.403.694c0 .29.15.553.403.694.254.14.553.14.807 0l.656-.375a8.8 8.8 0 0 1 .778 2.887h-.76a.796.796 0 1 0 0 1.594h.76a8.8 8.8 0 0 1-.778 2.887l-.656-.375a.797.797 0 0 0-1.088.3.795.795 0 0 0 .29 1.088l.657.375c-.29.412-.61.797-.956 1.153-.375.328-.76.647-1.172.938z"/>
        </g>
    </g>
</svg>
