<svg width="48" height="48" viewBox="0 0 48 48" xmlns="http://www.w3.org/2000/svg">
    <title>
        38B4F701-F3C8-42D6-B970-8881AD01C974
    </title>
    <g fill-rule="nonzero" fill="none">
        <path fill="#F8FDFF" d="M.89 6.4h46.22v36.8H.89z"/>
        <path fill="#FFF" d="M.89 6.4h43.83v36.8H.89z"/>
        <path d="M47.11 42.4v3.2a1.602 1.602 0 0 1-1.594 1.6H2.484A1.602 1.602 0 0 1 .89 45.6v-3.2h46.22z" fill="#C2D6E1"/>
        <path d="M44.72 42.4v3.2c.019.86-.656 1.574-1.512 1.6H2.402A1.562 1.562 0 0 1 .89 45.6v-3.2h43.83z" fill="#F8FDFF"/>
        <path d="M47.11 2.4v4.8H.89V2.4A1.602 1.602 0 0 1 2.484.8h43.032c.88.003 1.591.717 1.594 1.6z" fill="#C2D6E1"/>
        <path d="M44.72 2.4v4.8H.89V2.4A1.602 1.602 0 0 1 2.484.8h40.641c.88.003 1.592.717 1.594 1.6z" fill="#F8FDFF"/>
        <path d="M38.344 33.144V32a1.522 1.522 0 0 0-1.418-1.6h-9.914a1.522 1.522 0 0 0-1.418 1.6v1.6a1.522 1.522 0 0 0 1.418 1.6h9.914c.428-.004.829-.216 1.075-.568" fill="#FFF"/>
        <path fill="#F5F5F5" d="M22.476 23.986l-.563 6.224-6.199 6.222v-5.657l-3.38 1.131-3.382-3.394 1.127-3.394H4.444l6.199-6.223 6.199-.565z"/>
        <g fill="#C5EBFF">
            <path d="M11.967 31.539a1.948 1.948 0 0 1-.398.57c-.802.804-4.307 1.494-4.307 1.494s.688-3.518 1.49-4.323c.163-.167.355-.302.567-.4"/>
            <path d="M15.714 30.774l-.006 5.538.006.006.073.04 6.126-6.15.563-6.222-5.634-5.657-6.2.566-6.124 6.149.04.074.005.005 5.516-.005z"/>
        </g>
        <path d="M28.111 18.33l-5.635-5.658c.08-.079.158-.158.242-.232 1.91-1.668 5.066-1.985 6.66-2.036.61-.011.987.006.987.006s.293 5.362-2.254 7.92z" fill="#C2D6E1"/>
        <path d="M26.42 16.632l-3.944-3.96c.08-.079.158-.158.242-.232 1.91-1.669 5.066-1.985 6.66-2.036-.292 1.425-1.087 4.35-2.957 6.228z" fill="#C5EBFF"/>
        <path fill="#F8FDFF" d="M28.12 18.35L15.723 30.748l-5.657-5.656 12.397-12.397z"/>
        <path fill="#F5F5F5" d="M26.428 16.657L14.032 29.053l-3.96-3.96 12.397-12.396z"/>
        <path fill="#C2D6E1" d="M18.536 27.952l-2.818 2.818-1.697-1.697 2.818-2.818z"/>
        <path fill="#C5EBFF" d="M16.85 26.254l-2.817 2.818-3.96-3.96 2.817-2.817z"/>
        <path d="M2.484 47.216h2.308a1.562 1.562 0 0 1-1.511-1.6v-43.2a1.602 1.602 0 0 1 1.594-1.6h-2.39a1.602 1.602 0 0 0-1.595 1.6v43.2c-.02.86.656 1.574 1.512 1.6h.082z" fill="#FFF"/>
        <g>
            <path fill="#FFF" d="M.093 42.4v-40h1.594v40z"/>
            <g fill="#4AC2FF">
                <path d="M.588 36.736c.045.023.093.04.143.048.053.009.106.014.16.016a.835.835 0 0 0 .565-.232c.3-.318.3-.817 0-1.136a.823.823 0 0 0-.263-.168.794.794 0 0 0-.303-.064.838.838 0 0 0-.566.232.813.813 0 0 0 0 1.136l.12.096c.044.03.093.055.144.072z"/>
                <path d="M45.516 0H2.484a2.398 2.398 0 0 0-2.39 2.4v30.4c0 .442.356.8.796.8.44 0 .797-.358.797-.8V8h44.626v33.6H1.687v-2.4c0-.442-.357-.8-.797-.8a.798.798 0 0 0-.797.8v6.4A2.398 2.398 0 0 0 2.484 48h43.032a2.398 2.398 0 0 0 2.39-2.4V2.4a2.398 2.398 0 0 0-2.39-2.4zM1.687 6.4v-4a.8.8 0 0 1 .797-.8h43.032a.8.8 0 0 1 .797.8v4H1.687zm43.829 40H2.484a.8.8 0 0 1-.797-.8v-2.4h44.626v2.4a.8.8 0 0 1-.797.8z"/>
                <path d="M36.926 29.6h-9.914a2.316 2.316 0 0 0-2.215 2.4v1.6a2.316 2.316 0 0 0 2.215 2.4h9.914c.195-.002.388-.032.574-.09l.868 3.484a.795.795 0 1 0 1.337.371l1.428-1.434 1.429 1.435a.795.795 0 0 0 1.122-.005.802.802 0 0 0 .005-1.127l-1.43-1.434 1.43-1.434a.802.802 0 0 0-.25-1.301l-4.298-1.85V32a2.316 2.316 0 0 0-2.215-2.4zm0 4.8h-9.914a.738.738 0 0 1-.621-.8V32a.738.738 0 0 1 .621-.8h9.914c.385.06.658.41.621.8v.007a.786.786 0 0 0-.773.987l.338 1.357a.482.482 0 0 1-.186.05zm2.647 3.235l-.863-3.464 3.02 1.299-2.157 2.165z"/>
                <path d="M43.125 26.4H26.391a.798.798 0 0 0-.797.8c0 .442.357.8.797.8h16.734c.44 0 .797-.358.797-.8 0-.442-.356-.8-.797-.8z"/>
                <path d="M27.984 24c0 .442.357.8.797.8h14.344c.44 0 .797-.358.797-.8 0-.442-.357-.8-.797-.8H28.781a.798.798 0 0 0-.797.8z"/>
                <path d="M43.125 21.6c.44 0 .797-.358.797-.8 0-.442-.357-.8-.797-.8h-10.36a.798.798 0 0 0-.796.8c0 .442.357.8.797.8h10.36z"/>
                <path d="M30.409 9.611c-.235-.014-5.73-.281-8.496 2.496l-5.43 5.452-5.913.54a.796.796 0 0 0-.49.231L3.88 24.552a.802.802 0 0 0 .564 1.366h4.529l-.777 2.341a.8.8 0 0 0-.012.458c-.902.91-1.533 3.852-1.705 4.733a.803.803 0 0 0 .782.954.817.817 0 0 0 .153-.015c.878-.173 3.814-.808 4.717-1.715l.006-.006a.642.642 0 0 0 .448-.003l2.332-.78v4.547a.795.795 0 1 0 1.36.566l6.198-6.223a.802.802 0 0 0 .23-.493l.538-5.935 5.43-5.452c2.766-2.776 2.5-8.295 2.487-8.529a.798.798 0 0 0-.752-.755zM6.369 24.318l4.633-4.652 3.72-.34-2.388 2.398-2.585 2.594H6.37zm6.18 6.673l-2.685-2.695.564-1.697 3.811 3.826-1.69.566zm3.165-1.347l-4.508-4.526 1.691-1.697 4.508 4.525-1.69 1.698zm-6.469.293l1.67 1.676c-.82.428-1.694.741-2.598.932.19-.908.501-1.785.928-2.608zm11.9-.088L16.511 34.5v-3.394l2.584-2.594 2.388-2.397-.338 3.734zm-2.613-3.034l-4.508-4.525 8.452-8.486 4.508 4.526-8.452 8.485zm9.521-9.675l-4.392-4.409c1.816-1.278 4.592-1.502 5.915-1.527-.025 1.326-.245 4.111-1.523 5.936z"/>
                <path d="M21.913 16.633a.801.801 0 0 0 0 1.131l1.127 1.131a.795.795 0 0 0 1.127 0 .802.802 0 0 0 0-1.131l-1.127-1.131a.795.795 0 0 0-1.127 0z"/>
                <path d="M20.786 18.896a.795.795 0 0 0-1.127 0 .802.802 0 0 0 0 1.131l1.127 1.131a.795.795 0 0 0 1.127 0 .802.802 0 0 0 0-1.13l-1.127-1.132z"/>
                <ellipse cx="4.875" cy="4" rx="1" ry="1"/>
                <ellipse cx="8.062" cy="4" rx="1" ry="1"/>
                <ellipse cx="11.25" cy="4" rx="1" ry="1"/>
            </g>
        </g>
    </g>
</svg>
