<svg width="48" height="48" viewBox="0 0 48 48" xmlns="http://www.w3.org/2000/svg">
    <title>
        AA34482A-C2EA-4598-9F05-8AC3A9427D3A
    </title>
    <g fill-rule="nonzero" fill="none">
        <g fill="#C2D6E1">
            <path d="M11.56 47.183a6.015 6.015 0 0 0-2.11-1.77A6.388 6.388 0 0 0 4.302 38.5a4.796 4.796 0 0 0-3.503-5.56v14.253l10.76-.01z"/>
            <path d="M36.38 47.183a6.015 6.015 0 0 1 2.11-1.77 6.388 6.388 0 0 1 5.148-6.913 4.786 4.786 0 0 1 3.504-5.56v14.253l-10.762-.01z"/>
        </g>
        <path fill="#F8FDFF" d="M17.566 11.193H30.34v20.8H17.566z"/>
        <path fill="#F5F5F5" d="M17.566 11.193h10.38v20.8h-10.38z"/>
        <path d="M30.341 11.193H17.566a6.47 6.47 0 0 1 .096-1.856.072.072 0 0 0 .008-.04c.351-1.944 1.573-5.112 5.637-8.056.207-.144.423-.296.646-.448 7.186 4.8 6.388 10.4 6.388 10.4z" fill="#C2D6E1"/>
        <path d="M27.978 11.193H17.59a8.437 8.437 0 0 1 .072-1.856.072.072 0 0 0 .008-.04c.351-1.944 1.573-5.112 5.637-8.056 5.277 4.696 4.67 9.952 4.67 9.952z" fill="#F8FDFF"/>
        <path fill="#C2D6E1" d="M17.566 31.993H30.34v4.8H17.566z"/>
        <g transform="translate(11.977 17.531)">
            <path fill="#F8FDFF" d="M5.59 14.462h10.379v4.8H5.589z"/>
            <path d="M5.59 5.662L.394 11.609A1.602 1.602 0 0 0 0 12.663v9.66a.8.8 0 0 0 1.318.607l4.271-3.668v-13.6z" fill="#C5EBFF"/>
            <path d="M18.364 5.662l5.194 5.947c.255.292.395.667.395 1.054v9.66a.8.8 0 0 1-1.318.607l-4.27-3.668v-13.6z" fill="#C5EBFF"/>
            <ellipse fill="#C5EBFF" cx="11.977" cy="3.262" rx="3.194" ry="3.2"/>
        </g>
        <path fill="#C5EBFF" d="M29.942 36.793l-3.194 4h-3.194.799-3.194l-3.194-4z"/>
        <path d="M26.775 40.793a1.356 1.356 0 0 1 .826 2.263l-3.05 3.458a.798.798 0 0 1-1.196 0l-3.049-3.458a1.356 1.356 0 0 1 .826-2.263h5.643z" fill="#C5EBFF"/>
        <g fill="#FFF">
            <path d="M23.527 40.81h.027l-3.194-4h-.399l-1.184 1.016 2.382 2.983h-.027a1.356 1.356 0 0 0-.826 2.263l3.049 3.458a.798.798 0 0 0 1.197 0l.599-.68-2.45-2.778a1.356 1.356 0 0 1 .826-2.263z"/>
            <path d="M3.194 34.45a4.785 4.785 0 0 0-2.395-1.494V47.21l2.395-.002V34.45z"/>
            <path d="M13.295 40.477l1.077-.925V30.21c0-.387.14-.762.395-1.053l5.194-5.948v-12a6.47 6.47 0 0 1 .096-1.856.072.072 0 0 0 .008-.04c.335-1.852 1.466-4.816 5.088-7.639-.373-.29-.772-.579-1.2-.865-.223.152-.439.304-.646.448-4.064 2.944-5.286 6.112-5.637 8.056a.072.072 0 0 1-.008.04 6.47 6.47 0 0 0-.096 1.856v12l-5.194 5.948a1.602 1.602 0 0 0-.395 1.053v9.66a.8.8 0 0 0 1.318.607z"/>
        </g>
        <g>
            <path fill="#FFF" d="M18.364 11.193v20.8h-1.597v-20.8z"/>
            <g fill="#4AC2FF">
                <path d="M35.71 46.7a.801.801 0 0 0 .158 1.118c.35.266.85.198 1.116-.152a5.245 5.245 0 0 1 1.829-1.537c.004-.002.007-.007.011-.01a.782.782 0 0 0 .148-.114.819.819 0 0 0 .096-.08c.051-.088.1-.177.147-.267a.826.826 0 0 0 .016-.118.784.784 0 0 0 .02-.192v-.014a5.589 5.589 0 0 1 4.503-6.048h.002a.758.758 0 0 0 .131-.055.823.823 0 0 0 .162-.066.78.78 0 0 0 .107-.106.801.801 0 0 0 .11-.11.813.813 0 0 0 .062-.146.78.78 0 0 0 .058-.136.828.828 0 0 0 .002-.16.758.758 0 0 0 .001-.157v-.002a3.994 3.994 0 0 1 2.919-4.634.8.8 0 0 0-.4-1.548 5.594 5.594 0 0 0-4.191 5.417c0 .103.01.208.015.313a7.192 7.192 0 0 0-5.105 6.88c0 .063.008.125.01.188a6.913 6.913 0 0 0-1.927 1.737z"/>
                <path d="M46.988 42.294a5.865 5.865 0 0 0-4.798 4.774.8.8 0 0 0 .79.925.8.8 0 0 0 .787-.674 4.285 4.285 0 0 1 3.461-3.443.8.8 0 0 0-.24-1.582z"/>
                <path d="M.599 33.715a3.995 3.995 0 0 1 2.919 4.634v.002a.758.758 0 0 0 .001.156.828.828 0 0 0 .002.16.786.786 0 0 0 .058.136c.016.05.037.1.062.146.033.04.07.077.11.11a.78.78 0 0 0 .107.106c.052.028.106.05.162.067.041.022.085.04.13.054h.002a5.589 5.589 0 0 1 4.503 6.048l.002.014a.784.784 0 0 0 .019.192c.002.04.008.08.016.119.047.09.096.179.147.266.03.03.062.056.096.08a.779.779 0 0 0 .148.115c.004.002.007.007.011.01.72.364 1.345.89 1.829 1.536a.798.798 0 0 0 1.116.153.801.801 0 0 0 .158-1.118 6.91 6.91 0 0 0-1.926-1.736c.001-.064.01-.126.01-.19a7.192 7.192 0 0 0-5.106-6.88c.006-.104.015-.209.015-.311a5.594 5.594 0 0 0-4.192-5.418.8.8 0 0 0-.4 1.55z"/>
                <path d="M.919 42.294a.8.8 0 1 0-.24 1.582 4.285 4.285 0 0 1 3.46 3.443.8.8 0 1 0 1.578-.251A5.865 5.865 0 0 0 .92 42.294z"/>
                <path d="M17.566 18.393a.802.802 0 0 0 .567-1.368l-.12-.096a.608.608 0 0 0-.144-.072.503.503 0 0 0-.144-.048 1.152 1.152 0 0 0-.16-.016.837.837 0 0 0-.566.232.79.79 0 0 0 .263 1.304c.096.041.2.063.304.064z"/>
                <path d="M11.643 42.32c.284.13.617.084.854-.12l4.962-4.261 1.997 2.502c-.29.226-.516.524-.656.864a2.096 2.096 0 0 0 .46 2.317l4.129 4.137a.797.797 0 0 0 1.129 0l4.129-4.137a2.127 2.127 0 0 0-.748-3.49l2.027-2.539h.12l5.364 4.608a.797.797 0 0 0 1.318-.608v-12a.8.8 0 0 0-.197-.527l-5.392-6.174V11.238c.077-.7.447-6.308-6.743-11.11a.798.798 0 0 0-.29-.12 15.195 15.195 0 0 0-.306 0 .798.798 0 0 0-.289.12c-7.19 4.802-6.82 10.41-6.744 11.11v3.155a.8.8 0 1 0 1.597 0v-2.4h11.178v19.2H18.364v-10.4a.8.8 0 1 0-1.596 0v2.1l-5.392 6.173a.801.801 0 0 0-.198.527v12a.8.8 0 0 0 .465.727zm15.875.17l-3.565 3.572-3.564-3.572a.526.526 0 0 1 .37-.897h6.388a.524.524 0 0 1 .37.897zm-1.553-2.497h-4.822l-1.916-2.4h8.654l-1.916 2.4zm9.167-10.1v9.96l-3.993-3.428V25.322l3.993 4.572zm-16.786-19.5c.067-1.491.774-5.192 5.608-8.615 4.857 3.437 5.554 7.118 5.612 8.615h-11.22zm11.197 25.6H18.364v-3.2h11.179v3.2zm-16.768-6.1l3.993-4.57v11.102l-3.993 3.429v-9.96z"/>
                <path d="M27.946 20.793c0-2.209-1.788-4-3.993-4a3.996 3.996 0 0 0-3.992 4c0 2.21 1.788 4 3.992 4a4 4 0 0 0 3.993-4zm-6.388 0c0-1.325 1.073-2.4 2.395-2.4a2.398 2.398 0 0 1 2.396 2.4c0 1.326-1.073 2.4-2.396 2.4a2.4 2.4 0 0 1-2.395-2.4z"/>
            </g>
        </g>
    </g>
</svg>
