<svg width="48" height="48" viewBox="0 0 48 48" xmlns="http://www.w3.org/2000/svg">
    <title>
        73D446B6-2DDF-4AD8-A67C-611C9901C162
    </title>
    <g fill-rule="nonzero" fill="none">
        <g fill="#C2D6E1">
            <path d="M4.322 21.108h3.68v12.79h-3.68a1.916 1.916 0 0 1-1.916-1.916v-8.959c0-1.058.858-1.915 1.916-1.915z"/>
            <path d="M33.582 47.163H14.397c0-2.854 3.66-5.212 8.393-5.547.392-.032.792-.048 1.2-.048 5.3 0 9.592 2.502 9.592 5.595z"/>
        </g>
        <path d="M31.184 47.163H14.397c0-2.854 3.66-5.212 8.393-5.547 4.732.335 8.394 2.693 8.394 5.547z" fill="#C2D6E1"/>
        <path d="M14.397 21.108l2.495 2.495c.45.45 1.06.702 1.696.702h3.003a2.398 2.398 0 0 1 0 4.796H16.99a2.398 2.398 0 0 1-1.696-.702l-7.291-7.291h6.395z" fill="#C2D6E1"/>
        <path d="M23.99 26.707a2.402 2.402 0 0 1-2.399 2.398h-2.398a2.398 2.398 0 0 0 0-4.796h2.398a2.395 2.395 0 0 1 2.398 2.398z" fill="#C2D6E1"/>
        <g fill="#C2D6E1">
            <path d="M14.397 33.758v10.535a2.872 2.872 0 0 1-2.87 2.87h-.655a2.872 2.872 0 0 1-2.87-2.87V33.758h6.395z"/>
            <path d="M14.397 27.506v6.252H8.002V21.112z"/>
        </g>
        <path d="M42.375 6.331h-5.596V3.134a.77.77 0 0 0-.8-.736H24.79a.77.77 0 0 0-.8.736v5.723a.77.77 0 0 0 .8.735h6.395v3.997a.778.778 0 0 0 .256.584.789.789 0 0 0 .543.216h10.392a.802.802 0 0 0 .8-.8V7.13a.802.802 0 0 0-.8-.799z" fill="#C2D6E1"/>
        <path d="M36.78 3.134v6.458H24.788a.77.77 0 0 1-.8-.735V3.134a.77.77 0 0 1 .8-.736h11.19a.77.77 0 0 1 .8.736z" fill="#C2D6E1"/>
        <path d="M43.174 7.13v6.46a.802.802 0 0 1-.799.799H31.983a.789.789 0 0 1-.544-.216l5.34-4.58V6.33h5.596a.802.802 0 0 1 .8.8z" fill="#C2D6E1"/>
        <path d="M40.776 7.13v6.46a.802.802 0 0 1-.8.799h-7.993a.789.789 0 0 1-.544-.216l5.34-4.58V6.33h3.198a.802.802 0 0 1 .8.8z" fill="#C2D6E1"/>
        <path d="M18.394 13.853a7.196 7.196 0 0 1-7.403 7.194 7.28 7.28 0 0 1-6.986-6.986 7.192 7.192 0 0 1 6.763-7.386c.143-.008.287-.016.431-.016v5.595a1.599 1.599 0 0 0 1.599 1.599h5.596z" fill="#C2D6E1"/>
        <path d="M11.2 6.661v5.596c0 .883.715 1.599 1.598 1.599h5.596a7.194 7.194 0 0 0-7.195-7.195z" fill="#F8FDFF"/>
        <path d="M47.171 47.963H.807a.8.8 0 1 1 0-1.6h46.364a.8.8 0 1 1 0 1.6z" fill="#4AC2FF"/>
        <path d="M17.594 13.59c0 .087 0 .175-.008.263h-1.598c.008-.088.008-.176.008-.264a7.179 7.179 0 0 0-4.797-6.778v-.152c-.144 0-.288.008-.431.016A6.287 6.287 0 0 0 9.6 6.443c.265-.032.532-.048.799-.048a7.195 7.195 0 0 1 7.194 7.194z" fill="#C2D6E1"/>
        <path d="M11.2 6.81a3.005 3.005 0 0 0-.432-.135c.144-.008.287-.016.431-.016v.152z" fill="#A4C2F7"/>
        <path d="M18.394 13.853c0 5.332-4.11 6.93-7.994 6.93-.267 0-.534-.015-.8-.047a7.188 7.188 0 0 0 6.388-6.883h2.406z" fill="#C2D6E1"/>
        <g fill="#FFF">
            <path d="M10.4 44.31V33.913H8.002v10.395c0 .784.323 1.532.892 2.07h2.398a2.856 2.856 0 0 1-.892-2.07z"/>
            <path d="M2.406 23.04v8.958c0 1.058.858 1.916 1.916 1.916H6.72a1.916 1.916 0 0 1-1.916-1.916v-8.959c0-1.058.858-1.915 1.916-1.915H4.322a1.916 1.916 0 0 0-1.916 1.915z"/>
            <path d="M4.005 14.077a7.189 7.189 0 0 0 8.417 6.883 7.29 7.29 0 0 1-6.019-6.883 7.19 7.19 0 0 1 6.171-7.322A7.132 7.132 0 0 0 10.4 6.41c-.267 0-.534.016-.8.048.396.04.787.118 1.168.232a7.192 7.192 0 0 0-6.763 7.386z"/>
            <path d="M27.187 2.414h-2.398a.77.77 0 0 0-.8.736v5.723a.77.77 0 0 0 .8.735h2.398a.77.77 0 0 1-.8-.735V3.15a.77.77 0 0 1 .8-.736z"/>
            <path d="M2.406 47.18a.8.8 0 0 1 .8-.8H.807a.8.8 0 1 0 0 1.598h2.398a.8.8 0 0 1-.799-.799z"/>
        </g>
        <g>
            <path fill="#FFF" d="M7.202 44.29V21.107h1.6V44.289z"/>
            <g fill="#4AC2FF">
                <path d="M47.171 46.364H34.295c-.59-3.034-4.5-5.347-9.506-5.572v-30.4h5.595v3.197a1.6 1.6 0 0 0 1.599 1.6h10.392a1.6 1.6 0 0 0 1.599-1.6V7.133a1.6 1.6 0 0 0-1.6-1.6H37.58V3.137a1.57 1.57 0 0 0-1.6-1.537H24.79v-.8a.8.8 0 1 0-1.599 0v23.152a3.161 3.161 0 0 0-1.599-.445h-3.004a1.608 1.608 0 0 1-1.13-.469L15.23 20.81a8.036 8.036 0 0 0 1.542-1.166A7.994 7.994 0 1 0 5.47 8.34a7.934 7.934 0 0 0-2.26 5.8 8.033 8.033 0 0 0 3.262 6.168h-2.15a2.718 2.718 0 0 0-2.714 2.715v8.959a2.718 2.718 0 0 0 2.715 2.715h2.88a.8.8 0 0 0 1.599 0v-.14h4.796v9.733a2.077 2.077 0 0 1-2.074 2.074h-.648a2.077 2.077 0 0 1-2.074-2.074v-3.198a.8.8 0 1 0-1.599 0v3.198c0 .74.226 1.464.647 2.074H.807a.8.8 0 1 0 0 1.599h46.364a.8.8 0 1 0 0-1.6zM15.196 43.72V29.347c.53.359 1.153.551 1.792.554h4.603a3.162 3.162 0 0 0 1.599-.445v11.336c-3.406.153-6.301 1.272-7.994 2.928zM34.62 10.392l-2.637 2.262v-2.262h2.637zm7.755-3.26v6.457h-9.027L37.3 10.2c.009-.008.014-.018.023-.026.064-.07.12-.147.166-.229a.772.772 0 0 0 .08-.302c0-.018.01-.032.01-.05v-2.46h4.796zM35.98 3.137v5.657h-4.796a.762.762 0 0 0-.147.03l-6.248.032V3.198l11.19-.062zM18.587 25.105h3.004a1.599 1.599 0 0 1 0 3.197h-4.603a1.608 1.608 0 0 1-1.13-.468l-.896-.896-5.03-5.031h4.134l2.26 2.26c.601.599 1.414.935 2.261.938zm-1.043-11.991h-4.746a.8.8 0 0 1-.8-.8V7.569a6.408 6.408 0 0 1 5.546 5.546zm-12.737.98A6.398 6.398 0 0 1 10.4 7.568v4.748a2.4 2.4 0 0 0 2.398 2.398h4.747a6.397 6.397 0 0 1-6.528 5.593 6.47 6.47 0 0 1-6.21-6.211zM3.206 31.983v-8.959c0-.616.5-1.115 1.116-1.116h2.88v11.191h-2.88c-.617 0-1.116-.5-1.116-1.116zm5.595.977v-9.922l4.796 4.797v5.125H8.801zm6.523 13.405c.722-2.236 4.397-3.997 8.665-3.997 4.269 0 7.944 1.761 8.665 3.997h-17.33z"/>
                <path d="M7.698 38.63a.506.506 0 0 0 .144.048c.053.009.106.014.16.016a.84.84 0 0 0 .567-.232.788.788 0 0 0-.263-1.303.799.799 0 0 0-.304-.064.802.802 0 0 0-.568 1.367l.12.096c.045.03.093.055.144.072z"/>
            </g>
        </g>
    </g>
</svg>
