<svg width="56" height="56" viewBox="0 0 56 56" xmlns="http://www.w3.org/2000/svg">
    <title>
        9D842407-106F-4D76-9327-D8E6E57D5994
    </title>
    <defs>
        <linearGradient x1="0%" y1="50%" y2="50%" id="a">
            <stop stop-color="#4AC2FF" offset="0%"/>
            <stop stop-color="#4BB7FF" stop-opacity="0" offset="100%"/>
        </linearGradient>
    </defs>
    <g transform="translate(7 6)" fill-rule="nonzero" fill="none">
        <rect stroke="#D3D9DD" stroke-width="3.25" x="18.625" y="19.625" width="22.75" height="22.75" rx="8.125"/>
        <path d="M17 29.492l-8.278 3.345a2.245 2.245 0 0 1-2.93-1.277 2.313 2.313 0 0 1-.155-.995l.58-9.014-5.696-6.946a2.307 2.307 0 0 1 .292-3.218c.258-.217.561-.374.886-.458l8.637-2.225 4.757-7.638a2.237 2.237 0 0 1 3.813 0l4.757 7.638L32.3 10.93c1.207.311 1.937 1.555 1.63 2.778-.083.33-.237.637-.451.898l-5.697 6.946.58 9.014c.082 1.26-.86 2.347-2.102 2.43a2.227 2.227 0 0 1-.982-.158L17 29.492z" fill="url(#a)"/>
    </g>
</svg>
