<?xml version="1.0" encoding="UTF-8"?><!DOCTYPE svg PUBLIC "-//W3C//DTD SVG 1.1//EN" "http://www.w3.org/Graphics/SVG/1.1/DTD/svg11.dtd"><svg xmlns="http://www.w3.org/2000/svg"><symbol id="icon-citates" viewBox="0 0 40 40">
    <title>
        EE4D6D4A-FFA8-4640-91C9-1951C01EBCA0
    </title>
    <path d="M26.947 34c-4.31 0-7.558-2-9.748-6l-.212-1.862v-.62h.424v.413l.212-.207h.423v1.035l-.212.207v.206c.389 0 .813.897 1.272 2.69 1.271 1.241 2.049 1.862 2.331 1.862-.777-.965-1.554-2.758-2.331-5.38h.424c.141.966.424 1.45.847 1.45v-.415c-.282-.241-.494-1.276-.635-3.103h.847v-.207h-.847c-.389 1.241-.742 1.862-1.06 1.862v-.207l1.06-2.69-.212-.206 1.06-.621V22h-.213l-.847.207-.212-.207-.848 2.069h-.212l-.424-.414c.424 0 .636-.552.636-1.655l2.12-2.483c-.707 0-1.06-.138-1.06-.414l.212-1.448.635.414h.212v-.414h-.635v-.207l.423-.414.636.414.212-.827h-.212l-.636.207-.211-.207v-.207c.459-1.62 1.66-3.414 3.602-5.38h1.272v-.206h-1.06v-.207c.742-1.38 1.73-2.07 2.967-2.07v-.206h-.636v-.207l3.18-2.483h.423l.212.207.212-.207h3.39l.848.828-.636.414-.635-.207.212.207v.206c-.566.69-1.201 1.035-1.908 1.035l-.212-.207h-.212l-.423.414-.424-.414-.212.62h.848v.208l-2.12 1.448c0 .414-.424.62-1.271.62v.207h.636v.414c-.566 0-1.06.621-1.484 1.862H26.1l.212.207v.207l-.212.207h-.212l.212.207v.207l-.424.414h-.423c-.318 0-.53-.345-.636-1.035h.424v.62h.424l.211-1.034H23.98l.424.621h-1.06l.424.62v.208l-1.271.207.424.827 1.483-1.034c.848.275 1.271.551 1.271.827l-.635.62.212.622-.424.413-.636-.207-.636.207-.424-.413h-.847l-.848.413v.207h1.272c0 .414.14.621.423.621h.212l-.212-.207v-.414h1.484c.282 0 .424.276.424.828l.212-.207h.212l.211.207.212-.207h.636l4.45 1.034v.414h-.423l-.212-.207h-.212v.207l.424.414h1.907c.989.724 1.483 1.345 1.483 1.862h-1.06l-.211-.207h-.212V22l1.483.207h.636v.207l-.424.62c.424 0 .636.138.636.414h-.212l.212.207v.207c0 .552-.353.828-1.06.828v.207h1.06l-.212.206.212.207v.414h-.636c0 .276.283.414.848.414-.706 2.552-1.272 4-1.695 4.345v-.414l.212-.62c-.99 0-1.484.482-1.484 1.448l-.212.206h-.212l-.212-.206-1.271 1.862h.212l.424-.414.212.207c.6-.104 1.306-.724 2.119-1.862v.413c0 1.138-2.049 2.104-6.146 2.897zm.212-.414l-.212-.207v-.207c1.342 0 2.331-.413 2.967-1.241v-.207c-.812.69-1.59 1.035-2.331 1.035v-.414l1.907-.62v-.208l-1.06-.207-.635.207-3.18-.414v-.413h2.332l-.424-.414-2.543.207c-.53 0-1.59-.966-3.179-2.897v.62L20.59 28h-.423a5.797 5.797 0 0 0 1.695 2.897h-.212l-.212-.207h-.212c1.378 1.93 3.356 2.896 5.934 2.896zm-.424-.414h-.424l-.424-.413v-.207h.636l.212.62zm-2.12-.413c0-.38-.423-.656-1.27-.828l.211-.207v-.207l-.212-.207h.212l1.696 1.242-.212.207h-.424zm4.663-1.656l-.212-.827h-.424v.207l.212.207v.207l-.212.206h.636zm-6.781.207h-.424v-.207h.424v.207zm5.722-.827v-.207l-.424.414v.207l.424-.414zm1.695.207v-.414l-.424.414h.424zm-.212-.621l-.424-.414h-.424v.414h.848zm-7.417.207h-.424v-.414l.424.414zm8.477-.414v-.207h-.636v.207h.636zm-9.113-.207l-.636-.62v-.414c.318 0 .53.345.636 1.034zm7.205-.414l-.212-.207v-.206l-.847.206v.207h1.06zm-4.238 0v-.207h-.424v.207h.424zm-.636 0v-.207h-.424v.207h.424zm5.51-.207l-.424-.413v.413h.424zm4.45-.413v-.207h-.847v.207h.847zm-3.178 0v-.207h-.636v.207h.636zm-1.908 0v-.414h-.635v.207l.635.207zm-1.06 0v-.207h-.635v.207h.636zm-3.814 0v-.207h-1.695v.207h1.695zm.212-.414V28h-.424v.207h.424zm-1.695 0V28h-.424v.207h.424zM33.94 28v-.414h-.212V28h.212zm-8.265-1.034h-.423l-.212.206h-.212l.212.828c.247 0 .459-.345.635-1.034zm5.087.62v-.207h-.424v.207h.424zm-.212-.62l.212-.207v-.207h-5.087l.424.414.848-.207.212.207h.212l.212-.207 1.06.207.847-.207 1.06.207zm-5.298-.207v-.207h-2.755v-.414l-.848-.207c-.389.035-.671.38-.848 1.035h.636l-.212-.207v-.207l.212-.207h.636c0 .414.353.62 1.06.62h.635l1.484-.206zm-6.57-.414h-.424v.62h.424v-.62zm-1.483.414v-.207h.424v.207h-.424zm16.53-.828v-.207h-1.484l.424.414 1.06-.207zm-3.603 0v-.207h-1.06v.207h1.06zm-1.484-.207v-.414l-.847-.207-1.908.414h-3.39l-1.272-.207-.848.207.212.207v.207l1.06-.207h2.12l1.695.207 1.695-.207h.636l.212.207.635-.207zm4.663-.827l-.424-.414h-1.272l-.424.414h2.12zm-2.967 0v-.207h-.636v.207h.636zm-2.755 0v-.207l-2.755-.207h-.424v.207l1.483.207h1.696zm-4.027 0l.212-.621h-.847c0 .276-.212.414-.636.414v.207h1.271zm-5.298-.207c-.282 0-.424-.276-.424-.828l-.423.414v.62l.635.207h.212v-.413zm10.172-.207v-.414h-.211v.414h.211zm-6.357 0v-.207h-.424v.207h.424zm12.291-.828v-.207h-1.271v.207h1.271zm-1.483 0l-.212-.207v-.207l-1.272.207v.207h1.484zm-3.39 0l-.425-.414h-1.271v.414h1.695zm-2.12 0v-.414l-.636-.207-1.06.414v.207h.848v-.414h.212l.636.414zm-3.179 0v-.414l-.212.207-1.06-.207h-1.483v.207l1.484.207h1.271zm-4.238-.207v-.207h.423v.207h-.423zm6.357-.414v-.206h-.424v.206h.424zm7.206-.206v-.207h-.848v.207h.848zm-1.484 0v-.414h-1.06v.207l1.06.207zm-2.331 0c0-.242-.636-.587-1.907-1.035l-.212-.207h-2.755c0-.276-.283-.414-.848-.414v-.413h3.603l-.212-.207v-.207l-.212.207h-3.815l.212.207v.207l-.212.206c.636 0 1.201.276 1.696.828h-.212l.212.62h.424v-.413L25.252 22v-.207h2.543v.828h-.212v-.414h-1.484c0 .414.919.62 2.755.62h.848zm.636-.207v-.207h-.424v.207h.424zm-5.934 0c0-.414-.777-.621-2.331-.621v.207l-.212.207v.207h2.543zm-2.967-.207V22h-.212l-.424.414h.636zm9.96-.62v-.208h-.635v.207h.635zm-7.84 0v-.208h-.636v.207h.635zm-1.484-.622v-.206l-.424.413v.207l.424-.414zm10.384-.62v-.207l-1.483-.207v.414l.635.207.848-.207zm-1.907.207v-.207h-.424v.207h.424zm-1.484 0v-.207h-1.06v.207h1.06zm-6.145 0v-.414h-.212v.414h.212zm-1.272 0v-.414h-.848l.424.414h.424zm-1.06-.414h-.423v.414l.423-.414zm5.722-.207v-.414l1.696.207h.212v-.207l-2.12-.414-2.33.207.423.414h.848l.212-.207 1.06.414zm3.18-.207l-.637-.62h-.635v.206l.847.414h.424zm-9.75.207h-.423v-.207h.424v.207zm3.18-.414v-.207h-1.272v.207h1.272zm-1.484 0v-.207h-.424v.207h.424zm6.146-1.034v-.207h-.636v.207h.636zm-5.722-2.07h-.424v.414l.424-.413zm.212-2.275v-.207h-.424v.207h.424zm1.271-.828v-.207h-1.271v.207h1.271zm3.603-1.448v-.207h-3.179v.207h3.179zm0-1.035v-.206h-.424v.206h.424zm-.636 0v-.206l-.847-.414h-.636v.207l.424.413h1.06zm.424-.413v-.207h-.424v.207h.424zm2.331-2.07v-.206h-.424v.207h.424zm-.847 0v-.206h-.636v.207h.636zm3.39-.827V7.31h-.424l.424.414zm1.272-.62v-.207l-1.06-.207v.413h1.06zm.212-2.07v-.413h-.212l-.636.413h-1.06v-.413L32.881 4l.636.828-.212.206h-.212zM12.96 34c-4.309 0-7.558-2-9.748-6L3 26.138v-.62h.424v.413l.212-.207h.424v1.035l-.212.207v.206c.353 0 .777.897 1.271 2.69 1.236 1.241 2.013 1.862 2.331 1.862-.777-.965-1.554-2.758-2.33-5.38h.423c.141.966.424 1.45.848 1.45v-.415c-.283-.241-.495-1.276-.636-3.103h.848v-.207h-.848c-.389 1.241-.742 1.862-1.06 1.862v-.207l1.06-2.69-.212-.206 1.06-.621V22H6.39l-.848.207L5.331 22l-.848 2.069h-.211l-.424-.414c.424 0 .635-.552.635-1.655l2.12-2.483c-.707 0-1.06-.138-1.06-.414l.212-1.448.636.414h.212v-.414h-.636v-.207l.424-.414.635.414.212-.827h-.212l-.635.207-.212-.207v-.207c.459-1.62 1.66-3.414 3.602-5.38h1.272v-.206h-1.06v-.207c.742-1.38 1.731-2.07 2.967-2.07v-.206h-.635v-.207l3.178-2.483h.424l.212.207.212-.207h3.39l.848.828-.635.414-.636-.207.212.207v.206c-.565.69-1.201 1.035-1.907 1.035l-.212-.207h-.212l-.424.414-.424-.414-.212.62h.848v.208l-2.12 1.448c0 .414-.423.62-1.271.62v.207h.636v.414c-.565 0-1.06.621-1.484 1.862h-.635l.212.207v.207l-.212.207H11.9l.212.207v.207l-.424.414h-.424c-.318 0-.53-.345-.636-1.035h.424v.62h.424l.212-1.034H9.993l.424.621h-1.06l.424.62v.208l-1.271.207.424.827 1.483-1.034c.848.275 1.272.551 1.272.827l-.636.62.212.622-.424.413-.636-.207-.635.207-.424-.413h-.848l-.848.413v.207h1.272c0 .414.141.621.424.621h.212l-.212-.207v-.414h1.483c.283 0 .424.276.424.828l.212-.207h.212l.212.207.212-.207h.635l4.45 1.034v.414h-.423l-.212-.207h-.212v.207l.424.414h1.907c.99.724 1.484 1.345 1.484 1.862h-1.06l-.212-.207h-.212V22l1.484.207h.635v.207l-.423.62c.423 0 .635.138.635.414h-.212l.212.207v.207c0 .552-.353.828-1.06.828v.207h1.06l-.212.206.212.207v.414h-.635c0 .276.282.414.847.414-.706 2.552-1.271 4-1.695 4.345v-.414l.212-.62c-.99 0-1.484.482-1.484 1.448l-.212.206h-.211l-.212-.206-1.272 1.862h.212l.424-.414.212.207c.6-.104 1.307-.724 2.119-1.862v.413c0 1.138-2.049 2.104-6.146 2.897zm.212-.414l-.212-.207v-.207c1.342 0 2.331-.413 2.967-1.241v-.207c-.812.69-1.59 1.035-2.331 1.035v-.414l1.907-.62v-.208l-1.06-.207-.635.207-3.179-.414v-.413h2.331l-.424-.414-2.543.207c-.53 0-1.589-.966-3.178-2.897v.62L6.603 28h-.424a5.797 5.797 0 0 0 1.695 2.897h-.212l-.212-.207h-.212c1.343 1.93 3.32 2.896 5.934 2.896zm-.424-.414h-.423l-.424-.413v-.207h.635l.212.62zm-2.119-.413c0-.38-.424-.656-1.271-.828l.212-.207v-.207l-.212-.207h.212l1.695 1.242-.212.207h-.424zm4.662-1.656l-.212-.827h-.423v.207l.212.207v.207l-.212.206h.635zm-6.781.207h-.424v-.207h.424v.207zm5.722-.827v-.207l-.424.414v.207l.424-.414zm1.695.207v-.414l-.424.414h.424zm-.212-.621l-.424-.414h-.423v.414h.847zm-7.417.207h-.424v-.414l.424.414zm8.477-.414v-.207h-.636v.207h.636zm-9.113-.207l-.636-.62v-.414c.318 0 .53.345.636 1.034zm7.206-.414l-.212-.207v-.206l-.848.206v.207h1.06zm-4.239 0v-.207h-.424v.207h.424zm-.636 0v-.207H9.57v.207h.423zm5.51-.207l-.424-.413v.413h.424zm4.45-.413v-.207h-.847v.207h.848zm-3.178 0v-.207h-.636v.207h.636zm-1.907 0v-.414h-.636v.207l.636.207zm-1.06 0v-.207h-.636v.207h.636zm-3.815 0v-.207H8.298v.207h1.695zm.212-.414V28h-.424v.207h.424zm-1.695 0V28h-.424v.207h.424zM19.742 28v-.414h.212V28h-.212zm-8.053-1.034h-.424l-.212.206h-.212l.212.828c.247 0 .46-.345.636-1.034zm5.086.62v-.207h-.424v.207h.424zm-.212-.62l.212-.207v-.207h-5.086l.424.414.847-.207.212.207h.212l.212-.207 1.06.207.847-.207 1.06.207zm-5.298-.207v-.207H8.51v-.414l-.848-.207c-.388.069-.67.414-.847 1.035h.635l-.212-.207v-.207l.212-.207h.636c0 .414.353.62 1.06.62h.635l1.484-.206zm-6.57.207h-.423v-.621h.423v.62zm-1.06-.207v-.207h-.423v.207h.424zm16.107-.828v-.207h-1.484l.424.414 1.06-.207zm-3.603 0v-.207h-1.06v.207h1.06zm-1.483-.207v-.414l-.848-.207-1.907.414H8.51l-1.272-.207-.847.207.212.207v.207l1.06-.207H9.78l1.696.207 1.695-.207h.636l.212.207.636-.207zm4.662-.827l-.424-.414h-1.271l-.424.414h2.119zm-2.967 0v-.207h-.636v.207h.636zm-2.755 0v-.207l-2.755-.207h-.424v.207l1.484.207h1.695zm-4.026 0l.211-.621h-.847c0 .276-.212.414-.636.414v.207H9.57zm-5.298.206H4.06l-.636-.206v-.621l.424-.414c0 .552.141.828.424.828v.413zm10.172-.62v-.414h-.212v.414h.212zm-6.358 0v-.207h-.424v.207h.424zm12.291-.828v-.207h-1.271v.207h1.271zm-1.483 0l-.212-.207v-.207l-1.271.207v.207h1.483zm-3.39 0l-.425-.414h-1.271v.414h1.695zm-2.12 0v-.414l-.636-.207-1.06.414v.207h.848v-.414h.212l.636.414zm-3.179 0v-.414l-.212.207-1.06-.207H7.45v.207l1.484.207h1.271zm-3.814-.207v-.207h-.424v.207h.424zm5.934-.414v-.206H11.9v.206h.424zm7.205-.206v-.207h-.848v.207h.848zm-1.484 0v-.414h-1.06v.207l1.06.207zm-2.33 0c0-.242-.637-.587-1.908-1.035l-.212-.207h-2.755c0-.276-.282-.414-.848-.414v-.413h3.603l-.212-.207v-.207l-.212.207H9.358l.212.207v.207l-.212.206c.6 0 1.165.276 1.695.828h-.212l.212.62h.424v-.413L11.265 22v-.207h2.543v.828h-.212v-.414h-1.483c0 .414.918.62 2.755.62h.847zm.635-.207v-.207h-.424v.207h.424zm-5.934 0c0-.414-.777-.621-2.33-.621v.207l-.213.207v.207h2.543zm-2.967-.207V22h-.212l-.423.414h.635zm9.96-.62v-.208h-.635v.207h.636zm-7.84 0v-.208h-.636v.207h.636zm-1.484-.622v-.206l-.424.413v.207l.424-.414zm10.384-.62v-.207l-1.483-.207v.414l.636.207.847-.207zm-1.907.207v-.207h-.424v.207h.424zm-1.484 0v-.207h-1.06v.207h1.06zm-6.145 0v-.414h-.212v.414h.212zm-1.272 0v-.414h-.847l.423.414h.424zm-1.06-.414H6.18v.414l.424-.414zm5.723-.207v-.414l1.695.207h.212v-.207l-2.12-.414-2.33.207.423.414h.848l.212-.207 1.06.414zm3.178-.207l-.635-.62h-.636v.206l.847.414h.424zm-9.748.207h-.424v-.207h.424v.207zm3.179-.414v-.207H7.662v.207h1.272zm-1.484 0v-.207h-.424v.207h.424zm6.146-1.034v-.207h-.636v.207h.636zm-5.722-2.07H7.45v.414l.424-.413zm.212-2.275v-.207h-.424v.207h.424zm1.272-.828v-.207H8.086v.207h1.272zm3.602-1.448v-.207H9.781v.207h3.18zm0-1.035v-.206h-.424v.206h.424zm-.635 0v-.206l-.848-.414h-.636v.207l.424.413h1.06zm.423-.413v-.207h-.423v.207h.423zm2.331-2.07v-.206h-.423v.207h.423zm-.847 0v-.206h-.636v.207h.636zm3.39-.827V7.31H17.2l.424.414zm1.272-.62v-.207l-1.06-.207v.413h1.06zm.212-2.07v-.413h-.212l-.636.413h-1.06v-.413L18.895 4l.636.828-.212.206h-.212z" fill-rule="evenodd" opacity=".504"/>
</symbol><symbol id="icon-facebook" viewBox="0 0 56 56">
    <title>
        1D98C83E-F3E4-493E-B096-1F5C2E24A57F
    </title>
    <g fill-rule="evenodd">
        <path d="M1.947 28C1.947 42.39 13.61 54.053 28 54.053S54.053 42.39 54.053 28 42.39 1.947 28 1.947 1.947 13.61 1.947 28zM1 28C1 13.087 13.086 1 28 1c14.913 0 27 12.086 27 27 0 14.913-12.086 27-27 27C13.087 55 1 42.914 1 28z" fill-rule="nonzero"/>
        <path d="M34.132 27.713H30.01v14.69h-6.107v-14.69H21v-5.192h2.903v-3.358c0-2.405 1.143-6.163 6.163-6.163l4.526.017v5.04h-3.285c-.535 0-1.295.267-1.295 1.414v3.051h4.653l-.533 5.191z"/>
    </g>
</symbol><symbol id="icon-github" viewBox="0 0 56 56">
    <title>
        BDB82C53-5540-4AB0-8383-D6DD45832102
    </title>
    <g fill-rule="nonzero">
        <path d="M1.964 28C1.964 42.381 13.62 54.036 28 54.036c14.381 0 26.036-11.656 26.036-26.036C54.036 13.619 42.38 1.964 28 1.964 13.619 1.964 1.964 13.62 1.964 28zM1 28C1 13.088 13.085 1 28 1c14.912 0 27 12.085 27 27 0 14.912-12.085 27-27 27C13.088 55 1 42.915 1 28z"/>
        <path d="M34.813 53.955c-.147-2.034.01-6.062 0-7.082-.064-.783-.147-2.774-2.011-4.046 7.4-.628 10.921-4.777 11.174-10.259.212-3.122-1.012-5.867-3.185-8.082.11-2.37-.07-5.179-.22-6.413-1.67-.487-5.56 1.597-6.648 2.488-2.293-.903-7.906-1.22-11.317 0-2.418-1.725-5.171-2.79-6.671-2.493-1.386 3.114-.495 6.057-.225 6.408-1.784 1.654-4.272 3.689-3.597 7.953 1.085 6.251 5.421 9.624 12.403 10.449-1.489.308-1.74 1.436-1.865 1.925-4.69 1.962-6.03-1.212-6.622-2.039-1.968-2.47-3.735-1.754-3.844-1.715-.105.039-.185.195-.174.27.1.532 1.17 1.073 1.223 1.117 1.453 1.098 1.99 3.081 2.322 3.646 2.084 3.475 6.926 2.034 6.973 2.063.003.304.15 3.82.122 5.81 1.152 0 3.501 1.045 5.946 1.045s4.892-1.045 6.216-1.045z"/>
    </g>
</symbol><symbol id="icon-linkedin" viewBox="0 0 56 56">
    <title>
        5E00C07A-3EBB-459D-9398-FD63179B863E
    </title>
    <g fill-rule="evenodd">
        <path d="M1.964 28C1.964 42.381 13.62 54.036 28 54.036c14.381 0 26.036-11.656 26.036-26.036C54.036 13.619 42.38 1.964 28 1.964 13.619 1.964 1.964 13.62 1.964 28zM1 28C1 13.088 13.085 1 28 1c14.912 0 27 12.085 27 27 0 14.912-12.085 27-27 27C13.088 55 1 42.915 1 28z" fill-rule="nonzero"/>
        <path d="M36.07 21.712c4.049 0 7.086 2.647 7.09 8.33v10.62h-6.157v-9.907c0-2.492-.89-4.19-3.117-4.19-1.701 0-2.713 1.146-3.16 2.254-.166.395-.2.95-.2 1.502v10.346H24.37s.08-16.784 0-18.518h6.155v2.62c.817-1.26 2.276-3.057 5.544-3.057zm-21.266.437h6.155v18.518h-6.155V22.149zm3.12-8.928c2.106 0 3.4 1.383 3.441 3.199 0 1.776-1.336 3.199-3.483 3.199h-.04c-2.064 0-3.4-1.423-3.4-3.2 0-1.817 1.377-3.198 3.481-3.198z"/>
    </g>
</symbol><symbol id="icon-mail" viewBox="0 0 24 24">
    <title>
        E3AC833B-F963-49E8-974B-CFD9FA211E59
    </title>
    <path d="M20 4H4c-1.1 0-1.99.9-1.99 2L2 18c0 1.1.9 2 2 2h16c1.1 0 2-.9 2-2V6c0-1.1-.9-2-2-2zm0 4l-8 5-8-5V6l8 5 8-5v2z" fill-rule="evenodd"/>
</symbol><symbol id="icon-medium" viewBox="0 0 56 56">
    <style>
        .st0{fill:#fff}
    </style>
    <title>
        C48651A9-004C-44E6-9A69-C035D6889A57
    </title>
    <g id="Symbols">
        <g id="ic-_x2F_-footer-_x2F_-medium">
            <path class="st0" d="M28 56C12.6 56 0 43.4 0 28S12.6 0 28 0s28 12.6 28 28-12.6 28-28 28zm0-55C13.1 1 1 13.1 1 28s12.1 27 27 27 27-12.1 27-27S42.9 1 28 1z" id="Rectangle-7-Copy-3"/>
            <g id="medium" transform="translate(12 14)">
                <path class="st0" d="M32.9 5.1s.1.1 0 .2l-10 16.3-7.2-11.7L21.4.6c.3-.4.6-.6 1-.6h.3c.1 0 .1 0 .2.1l10 5zM12.6 7.7L22 23.1l-9.4-4.7V7.7zm10.8 16.1L33 8.2v18.7c0 .9-.8 1.3-1.8.8l-7.8-3.9zM10.9 5.1c.1.1.1.1 0 0l.1 21.8c0 .7-.4 1.1-.9 1.1-.2 0-.4-.1-.6-.2L.9 23.5c-.5-.2-.9-.9-.9-1.4V1C0 .4.3.1.7.1c.2 0 .3 0 .5.1l9.7 4.9z" id="Combined-Shape"/>
            </g>
        </g>
    </g>
</symbol><symbol id="icon-phone" viewBox="0 0 24 24">
    <title>
        8CE7BB96-8E20-4A11-A264-9F6372A1C7EA
    </title>
    <path d="M16.284 2.01L7.707 2C6.763 2 6 2.818 6 3.818v16.364c0 1 .763 1.818 1.707 1.818h8.577c.944 0 1.716-.818 1.716-1.818V3.818c0-1-.772-1.809-1.716-1.809zM7.707 5.635h8.577v12.728H7.707V5.636z" fill-rule="evenodd"/>
</symbol><symbol id="icon-skype" viewBox="0 0 24 24">
    <title>
        6133C4E3-266C-4041-8678-E0A8AF769CC8
    </title>
    <path d="M20.482 14.972a3.919 3.919 0 0 1 1.518 3.1A3.933 3.933 0 0 1 18.072 22a3.938 3.938 0 0 1-3.191-1.645 9.012 9.012 0 0 1-2.881.477c-2.422 0-4.7-.943-6.411-2.655a9.007 9.007 0 0 1-2.655-6.41c0-.962.156-1.915.464-2.837A3.936 3.936 0 0 1 2 5.928 3.933 3.933 0 0 1 5.928 2c1.113 0 2.15.461 2.893 1.276A8.968 8.968 0 0 1 12 2.701c2.422 0 4.699.942 6.411 2.654a9.007 9.007 0 0 1 2.655 6.411c0 1.104-.196 2.18-.584 3.206zm-7.852-4.54c-2.944-.573-3.135-1.472-2.426-2.1.709-.626 2.815-.908 3.407.191.573 1.063.982 1.5 1.772 1.308.755-.182.863-1.226.546-1.853-.257-.506-1.418-1.8-3.708-1.8s-4.689.846-4.689 2.945c0 2.099 2.181 3.026 4.28 3.326 2.099.3 2.59 1.2 2.318 1.854-.273.653-1.173 1.28-2.536 1.144-1.363-.136-1.992-1.277-2.181-1.854-.182-.554-.817-.627-1.117-.6-.3.028-1.255.41-.819 1.745.437 1.336 1.855 2.4 4.69 2.4 2.834 0 4.497-1.746 4.497-3.408 0-1.663-1.09-2.726-4.034-3.299z" fill-rule="nonzero"/>
</symbol><symbol id="icon-twitter" viewBox="0 0 56 56">
    <title>
        17E89218-4EE8-42E2-8862-64BD0F046A76
    </title>
    <g fill-rule="evenodd">
        <path d="M1.964 28C1.964 42.381 13.62 54.036 28 54.036c14.381 0 26.036-11.656 26.036-26.036C54.036 13.619 42.38 1.964 28 1.964 13.619 1.964 1.964 13.62 1.964 28zM1 28C1 13.088 13.085 1 28 1c14.912 0 27 12.085 27 27 0 14.912-12.085 27-27 27C13.088 55 1 42.915 1 28z" fill-rule="nonzero"/>
        <path d="M39.93 23.13c.011.247.018.495.018.744 0 7.579-5.767 16.314-16.319 16.314-3.238 0-6.253-.946-8.79-2.574.448.053.905.08 1.367.08 2.688 0 5.16-.917 7.123-2.454a5.74 5.74 0 0 1-5.357-3.984 5.78 5.78 0 0 0 2.59-.096 5.736 5.736 0 0 1-4.6-5.696 5.711 5.711 0 0 0 2.597.717 5.73 5.73 0 0 1-2.55-4.773c0-1.051.282-2.037.776-2.884a16.284 16.284 0 0 0 11.82 5.994 5.728 5.728 0 0 1-.148-1.308 5.735 5.735 0 0 1 9.92-3.924 11.447 11.447 0 0 0 3.643-1.392 5.76 5.76 0 0 1-2.525 3.173 11.401 11.401 0 0 0 3.294-.902 11.536 11.536 0 0 1-2.859 2.965z"/>
    </g>
</symbol></svg>