<?xml version="1.0" encoding="UTF-8"?><!DOCTYPE svg PUBLIC "-//W3C//DTD SVG 1.1//EN" "http://www.w3.org/Graphics/SVG/1.1/DTD/svg11.dtd"><svg xmlns="http://www.w3.org/2000/svg"><symbol id="icon-citates" viewBox="0 0 40 40">
    <title>
        EE4D6D4A-FFA8-4640-91C9-1951C01EBCA0
    </title>
    <path d="M26.947 34c-4.31 0-7.558-2-9.748-6l-.212-1.862v-.62h.424v.413l.212-.207h.423v1.035l-.212.207v.206c.389 0 .813.897 1.272 2.69 1.271 1.241 2.049 1.862 2.331 1.862-.777-.965-1.554-2.758-2.331-5.38h.424c.141.966.424 1.45.847 1.45v-.415c-.282-.241-.494-1.276-.635-3.103h.847v-.207h-.847c-.389 1.241-.742 1.862-1.06 1.862v-.207l1.06-2.69-.212-.206 1.06-.621V22h-.213l-.847.207-.212-.207-.848 2.069h-.212l-.424-.414c.424 0 .636-.552.636-1.655l2.12-2.483c-.707 0-1.06-.138-1.06-.414l.212-1.448.635.414h.212v-.414h-.635v-.207l.423-.414.636.414.212-.827h-.212l-.636.207-.211-.207v-.207c.459-1.62 1.66-3.414 3.602-5.38h1.272v-.206h-1.06v-.207c.742-1.38 1.73-2.07 2.967-2.07v-.206h-.636v-.207l3.18-2.483h.423l.212.207.212-.207h3.39l.848.828-.636.414-.635-.207.212.207v.206c-.566.69-1.201 1.035-1.908 1.035l-.212-.207h-.212l-.423.414-.424-.414-.212.62h.848v.208l-2.12 1.448c0 .414-.424.62-1.271.62v.207h.636v.414c-.566 0-1.06.621-1.484 1.862H26.1l.212.207v.207l-.212.207h-.212l.212.207v.207l-.424.414h-.423c-.318 0-.53-.345-.636-1.035h.424v.62h.424l.211-1.034H23.98l.424.621h-1.06l.424.62v.208l-1.271.207.424.827 1.483-1.034c.848.275 1.271.551 1.271.827l-.635.62.212.622-.424.413-.636-.207-.636.207-.424-.413h-.847l-.848.413v.207h1.272c0 .414.14.621.423.621h.212l-.212-.207v-.414h1.484c.282 0 .424.276.424.828l.212-.207h.212l.211.207.212-.207h.636l4.45 1.034v.414h-.423l-.212-.207h-.212v.207l.424.414h1.907c.989.724 1.483 1.345 1.483 1.862h-1.06l-.211-.207h-.212V22l1.483.207h.636v.207l-.424.62c.424 0 .636.138.636.414h-.212l.212.207v.207c0 .552-.353.828-1.06.828v.207h1.06l-.212.206.212.207v.414h-.636c0 .276.283.414.848.414-.706 2.552-1.272 4-1.695 4.345v-.414l.212-.62c-.99 0-1.484.482-1.484 1.448l-.212.206h-.212l-.212-.206-1.271 1.862h.212l.424-.414.212.207c.6-.104 1.306-.724 2.119-1.862v.413c0 1.138-2.049 2.104-6.146 2.897zm.212-.414l-.212-.207v-.207c1.342 0 2.331-.413 2.967-1.241v-.207c-.812.69-1.59 1.035-2.331 1.035v-.414l1.907-.62v-.208l-1.06-.207-.635.207-3.18-.414v-.413h2.332l-.424-.414-2.543.207c-.53 0-1.59-.966-3.179-2.897v.62L20.59 28h-.423a5.797 5.797 0 0 0 1.695 2.897h-.212l-.212-.207h-.212c1.378 1.93 3.356 2.896 5.934 2.896zm-.424-.414h-.424l-.424-.413v-.207h.636l.212.62zm-2.12-.413c0-.38-.423-.656-1.27-.828l.211-.207v-.207l-.212-.207h.212l1.696 1.242-.212.207h-.424zm4.663-1.656l-.212-.827h-.424v.207l.212.207v.207l-.212.206h.636zm-6.781.207h-.424v-.207h.424v.207zm5.722-.827v-.207l-.424.414v.207l.424-.414zm1.695.207v-.414l-.424.414h.424zm-.212-.621l-.424-.414h-.424v.414h.848zm-7.417.207h-.424v-.414l.424.414zm8.477-.414v-.207h-.636v.207h.636zm-9.113-.207l-.636-.62v-.414c.318 0 .53.345.636 1.034zm7.205-.414l-.212-.207v-.206l-.847.206v.207h1.06zm-4.238 0v-.207h-.424v.207h.424zm-.636 0v-.207h-.424v.207h.424zm5.51-.207l-.424-.413v.413h.424zm4.45-.413v-.207h-.847v.207h.847zm-3.178 0v-.207h-.636v.207h.636zm-1.908 0v-.414h-.635v.207l.635.207zm-1.06 0v-.207h-.635v.207h.636zm-3.814 0v-.207h-1.695v.207h1.695zm.212-.414V28h-.424v.207h.424zm-1.695 0V28h-.424v.207h.424zM33.94 28v-.414h-.212V28h.212zm-8.265-1.034h-.423l-.212.206h-.212l.212.828c.247 0 .459-.345.635-1.034zm5.087.62v-.207h-.424v.207h.424zm-.212-.62l.212-.207v-.207h-5.087l.424.414.848-.207.212.207h.212l.212-.207 1.06.207.847-.207 1.06.207zm-5.298-.207v-.207h-2.755v-.414l-.848-.207c-.389.035-.671.38-.848 1.035h.636l-.212-.207v-.207l.212-.207h.636c0 .414.353.62 1.06.62h.635l1.484-.206zm-6.57-.414h-.424v.62h.424v-.62zm-1.483.414v-.207h.424v.207h-.424zm16.53-.828v-.207h-1.484l.424.414 1.06-.207zm-3.603 0v-.207h-1.06v.207h1.06zm-1.484-.207v-.414l-.847-.207-1.908.414h-3.39l-1.272-.207-.848.207.212.207v.207l1.06-.207h2.12l1.695.207 1.695-.207h.636l.212.207.635-.207zm4.663-.827l-.424-.414h-1.272l-.424.414h2.12zm-2.967 0v-.207h-.636v.207h.636zm-2.755 0v-.207l-2.755-.207h-.424v.207l1.483.207h1.696zm-4.027 0l.212-.621h-.847c0 .276-.212.414-.636.414v.207h1.271zm-5.298-.207c-.282 0-.424-.276-.424-.828l-.423.414v.62l.635.207h.212v-.413zm10.172-.207v-.414h-.211v.414h.211zm-6.357 0v-.207h-.424v.207h.424zm12.291-.828v-.207h-1.271v.207h1.271zm-1.483 0l-.212-.207v-.207l-1.272.207v.207h1.484zm-3.39 0l-.425-.414h-1.271v.414h1.695zm-2.12 0v-.414l-.636-.207-1.06.414v.207h.848v-.414h.212l.636.414zm-3.179 0v-.414l-.212.207-1.06-.207h-1.483v.207l1.484.207h1.271zm-4.238-.207v-.207h.423v.207h-.423zm6.357-.414v-.206h-.424v.206h.424zm7.206-.206v-.207h-.848v.207h.848zm-1.484 0v-.414h-1.06v.207l1.06.207zm-2.331 0c0-.242-.636-.587-1.907-1.035l-.212-.207h-2.755c0-.276-.283-.414-.848-.414v-.413h3.603l-.212-.207v-.207l-.212.207h-3.815l.212.207v.207l-.212.206c.636 0 1.201.276 1.696.828h-.212l.212.62h.424v-.413L25.252 22v-.207h2.543v.828h-.212v-.414h-1.484c0 .414.919.62 2.755.62h.848zm.636-.207v-.207h-.424v.207h.424zm-5.934 0c0-.414-.777-.621-2.331-.621v.207l-.212.207v.207h2.543zm-2.967-.207V22h-.212l-.424.414h.636zm9.96-.62v-.208h-.635v.207h.635zm-7.84 0v-.208h-.636v.207h.635zm-1.484-.622v-.206l-.424.413v.207l.424-.414zm10.384-.62v-.207l-1.483-.207v.414l.635.207.848-.207zm-1.907.207v-.207h-.424v.207h.424zm-1.484 0v-.207h-1.06v.207h1.06zm-6.145 0v-.414h-.212v.414h.212zm-1.272 0v-.414h-.848l.424.414h.424zm-1.06-.414h-.423v.414l.423-.414zm5.722-.207v-.414l1.696.207h.212v-.207l-2.12-.414-2.33.207.423.414h.848l.212-.207 1.06.414zm3.18-.207l-.637-.62h-.635v.206l.847.414h.424zm-9.75.207h-.423v-.207h.424v.207zm3.18-.414v-.207h-1.272v.207h1.272zm-1.484 0v-.207h-.424v.207h.424zm6.146-1.034v-.207h-.636v.207h.636zm-5.722-2.07h-.424v.414l.424-.413zm.212-2.275v-.207h-.424v.207h.424zm1.271-.828v-.207h-1.271v.207h1.271zm3.603-1.448v-.207h-3.179v.207h3.179zm0-1.035v-.206h-.424v.206h.424zm-.636 0v-.206l-.847-.414h-.636v.207l.424.413h1.06zm.424-.413v-.207h-.424v.207h.424zm2.331-2.07v-.206h-.424v.207h.424zm-.847 0v-.206h-.636v.207h.636zm3.39-.827V7.31h-.424l.424.414zm1.272-.62v-.207l-1.06-.207v.413h1.06zm.212-2.07v-.413h-.212l-.636.413h-1.06v-.413L32.881 4l.636.828-.212.206h-.212zM12.96 34c-4.309 0-7.558-2-9.748-6L3 26.138v-.62h.424v.413l.212-.207h.424v1.035l-.212.207v.206c.353 0 .777.897 1.271 2.69 1.236 1.241 2.013 1.862 2.331 1.862-.777-.965-1.554-2.758-2.33-5.38h.423c.141.966.424 1.45.848 1.45v-.415c-.283-.241-.495-1.276-.636-3.103h.848v-.207h-.848c-.389 1.241-.742 1.862-1.06 1.862v-.207l1.06-2.69-.212-.206 1.06-.621V22H6.39l-.848.207L5.331 22l-.848 2.069h-.211l-.424-.414c.424 0 .635-.552.635-1.655l2.12-2.483c-.707 0-1.06-.138-1.06-.414l.212-1.448.636.414h.212v-.414h-.636v-.207l.424-.414.635.414.212-.827h-.212l-.635.207-.212-.207v-.207c.459-1.62 1.66-3.414 3.602-5.38h1.272v-.206h-1.06v-.207c.742-1.38 1.731-2.07 2.967-2.07v-.206h-.635v-.207l3.178-2.483h.424l.212.207.212-.207h3.39l.848.828-.635.414-.636-.207.212.207v.206c-.565.69-1.201 1.035-1.907 1.035l-.212-.207h-.212l-.424.414-.424-.414-.212.62h.848v.208l-2.12 1.448c0 .414-.423.62-1.271.62v.207h.636v.414c-.565 0-1.06.621-1.484 1.862h-.635l.212.207v.207l-.212.207H11.9l.212.207v.207l-.424.414h-.424c-.318 0-.53-.345-.636-1.035h.424v.62h.424l.212-1.034H9.993l.424.621h-1.06l.424.62v.208l-1.271.207.424.827 1.483-1.034c.848.275 1.272.551 1.272.827l-.636.62.212.622-.424.413-.636-.207-.635.207-.424-.413h-.848l-.848.413v.207h1.272c0 .414.141.621.424.621h.212l-.212-.207v-.414h1.483c.283 0 .424.276.424.828l.212-.207h.212l.212.207.212-.207h.635l4.45 1.034v.414h-.423l-.212-.207h-.212v.207l.424.414h1.907c.99.724 1.484 1.345 1.484 1.862h-1.06l-.212-.207h-.212V22l1.484.207h.635v.207l-.423.62c.423 0 .635.138.635.414h-.212l.212.207v.207c0 .552-.353.828-1.06.828v.207h1.06l-.212.206.212.207v.414h-.635c0 .276.282.414.847.414-.706 2.552-1.271 4-1.695 4.345v-.414l.212-.62c-.99 0-1.484.482-1.484 1.448l-.212.206h-.211l-.212-.206-1.272 1.862h.212l.424-.414.212.207c.6-.104 1.307-.724 2.119-1.862v.413c0 1.138-2.049 2.104-6.146 2.897zm.212-.414l-.212-.207v-.207c1.342 0 2.331-.413 2.967-1.241v-.207c-.812.69-1.59 1.035-2.331 1.035v-.414l1.907-.62v-.208l-1.06-.207-.635.207-3.179-.414v-.413h2.331l-.424-.414-2.543.207c-.53 0-1.589-.966-3.178-2.897v.62L6.603 28h-.424a5.797 5.797 0 0 0 1.695 2.897h-.212l-.212-.207h-.212c1.343 1.93 3.32 2.896 5.934 2.896zm-.424-.414h-.423l-.424-.413v-.207h.635l.212.62zm-2.119-.413c0-.38-.424-.656-1.271-.828l.212-.207v-.207l-.212-.207h.212l1.695 1.242-.212.207h-.424zm4.662-1.656l-.212-.827h-.423v.207l.212.207v.207l-.212.206h.635zm-6.781.207h-.424v-.207h.424v.207zm5.722-.827v-.207l-.424.414v.207l.424-.414zm1.695.207v-.414l-.424.414h.424zm-.212-.621l-.424-.414h-.423v.414h.847zm-7.417.207h-.424v-.414l.424.414zm8.477-.414v-.207h-.636v.207h.636zm-9.113-.207l-.636-.62v-.414c.318 0 .53.345.636 1.034zm7.206-.414l-.212-.207v-.206l-.848.206v.207h1.06zm-4.239 0v-.207h-.424v.207h.424zm-.636 0v-.207H9.57v.207h.423zm5.51-.207l-.424-.413v.413h.424zm4.45-.413v-.207h-.847v.207h.848zm-3.178 0v-.207h-.636v.207h.636zm-1.907 0v-.414h-.636v.207l.636.207zm-1.06 0v-.207h-.636v.207h.636zm-3.815 0v-.207H8.298v.207h1.695zm.212-.414V28h-.424v.207h.424zm-1.695 0V28h-.424v.207h.424zM19.742 28v-.414h.212V28h-.212zm-8.053-1.034h-.424l-.212.206h-.212l.212.828c.247 0 .46-.345.636-1.034zm5.086.62v-.207h-.424v.207h.424zm-.212-.62l.212-.207v-.207h-5.086l.424.414.847-.207.212.207h.212l.212-.207 1.06.207.847-.207 1.06.207zm-5.298-.207v-.207H8.51v-.414l-.848-.207c-.388.069-.67.414-.847 1.035h.635l-.212-.207v-.207l.212-.207h.636c0 .414.353.62 1.06.62h.635l1.484-.206zm-6.57.207h-.423v-.621h.423v.62zm-1.06-.207v-.207h-.423v.207h.424zm16.107-.828v-.207h-1.484l.424.414 1.06-.207zm-3.603 0v-.207h-1.06v.207h1.06zm-1.483-.207v-.414l-.848-.207-1.907.414H8.51l-1.272-.207-.847.207.212.207v.207l1.06-.207H9.78l1.696.207 1.695-.207h.636l.212.207.636-.207zm4.662-.827l-.424-.414h-1.271l-.424.414h2.119zm-2.967 0v-.207h-.636v.207h.636zm-2.755 0v-.207l-2.755-.207h-.424v.207l1.484.207h1.695zm-4.026 0l.211-.621h-.847c0 .276-.212.414-.636.414v.207H9.57zm-5.298.206H4.06l-.636-.206v-.621l.424-.414c0 .552.141.828.424.828v.413zm10.172-.62v-.414h-.212v.414h.212zm-6.358 0v-.207h-.424v.207h.424zm12.291-.828v-.207h-1.271v.207h1.271zm-1.483 0l-.212-.207v-.207l-1.271.207v.207h1.483zm-3.39 0l-.425-.414h-1.271v.414h1.695zm-2.12 0v-.414l-.636-.207-1.06.414v.207h.848v-.414h.212l.636.414zm-3.179 0v-.414l-.212.207-1.06-.207H7.45v.207l1.484.207h1.271zm-3.814-.207v-.207h-.424v.207h.424zm5.934-.414v-.206H11.9v.206h.424zm7.205-.206v-.207h-.848v.207h.848zm-1.484 0v-.414h-1.06v.207l1.06.207zm-2.33 0c0-.242-.637-.587-1.908-1.035l-.212-.207h-2.755c0-.276-.282-.414-.848-.414v-.413h3.603l-.212-.207v-.207l-.212.207H9.358l.212.207v.207l-.212.206c.6 0 1.165.276 1.695.828h-.212l.212.62h.424v-.413L11.265 22v-.207h2.543v.828h-.212v-.414h-1.483c0 .414.918.62 2.755.62h.847zm.635-.207v-.207h-.424v.207h.424zm-5.934 0c0-.414-.777-.621-2.33-.621v.207l-.213.207v.207h2.543zm-2.967-.207V22h-.212l-.423.414h.635zm9.96-.62v-.208h-.635v.207h.636zm-7.84 0v-.208h-.636v.207h.636zm-1.484-.622v-.206l-.424.413v.207l.424-.414zm10.384-.62v-.207l-1.483-.207v.414l.636.207.847-.207zm-1.907.207v-.207h-.424v.207h.424zm-1.484 0v-.207h-1.06v.207h1.06zm-6.145 0v-.414h-.212v.414h.212zm-1.272 0v-.414h-.847l.423.414h.424zm-1.06-.414H6.18v.414l.424-.414zm5.723-.207v-.414l1.695.207h.212v-.207l-2.12-.414-2.33.207.423.414h.848l.212-.207 1.06.414zm3.178-.207l-.635-.62h-.636v.206l.847.414h.424zm-9.748.207h-.424v-.207h.424v.207zm3.179-.414v-.207H7.662v.207h1.272zm-1.484 0v-.207h-.424v.207h.424zm6.146-1.034v-.207h-.636v.207h.636zm-5.722-2.07H7.45v.414l.424-.413zm.212-2.275v-.207h-.424v.207h.424zm1.272-.828v-.207H8.086v.207h1.272zm3.602-1.448v-.207H9.781v.207h3.18zm0-1.035v-.206h-.424v.206h.424zm-.635 0v-.206l-.848-.414h-.636v.207l.424.413h1.06zm.423-.413v-.207h-.423v.207h.423zm2.331-2.07v-.206h-.423v.207h.423zm-.847 0v-.206h-.636v.207h.636zm3.39-.827V7.31H17.2l.424.414zm1.272-.62v-.207l-1.06-.207v.413h1.06zm.212-2.07v-.413h-.212l-.636.413h-1.06v-.413L18.895 4l.636.828-.212.206h-.212z" fill-rule="evenodd" opacity=".504"/>
</symbol></svg>