<svg width="96" height="96" viewBox="0 0 96 96" xmlns="http://www.w3.org/2000/svg">
    <title>
        68F264D2-67EB-4540-BD62-22AE65F27D9E
    </title>
    <defs>
        <linearGradient x1="66.182%" y1="0%" x2="66.182%" y2="135.559%" id="a">
            <stop stop-color="#4AC2FF" offset="0%"/>
            <stop stop-color="#4BB7FF" stop-opacity="0" offset="100%"/>
        </linearGradient>
    </defs>
    <g fill-rule="nonzero" fill="none">
        <path d="M19.522 30.382a2.11 2.11 0 0 0 2.985 0l7.875-7.875a2.11 2.11 0 0 0 0-2.985l-7.904-7.904a2.11 2.11 0 0 0-2.985 0l-7.875 7.875a2.11 2.11 0 0 0 0 2.985l7.904 7.904z" stroke="#D3D9DD" stroke-width="4" opacity=".556"/>
        <rect stroke="#D3D9DD" stroke-width="4" opacity=".556" transform="rotate(-90 78 74)" x="68" y="64" width="20" height="20" rx="10"/>
        <path d="M44.999 21h5.957a3.694 3.694 0 0 1 3.692 3.58L55 36H41l.306-11.405A3.694 3.694 0 0 1 44.999 21zM41 60h14l-.352 11.42A3.694 3.694 0 0 1 50.956 75h-5.957a3.694 3.694 0 0 1-3.693-3.595L41 60z" fill="url(#a)"/>
        <rect fill="url(#a)" x="36" y="36" width="24" height="24" rx="4"/>
    </g>
</svg>
