<svg width="96" height="96" viewBox="0 0 96 96" xmlns="http://www.w3.org/2000/svg">
    <title>
        B0D4D3FC-E3A0-4859-BD80-4F7B056899F2
    </title>
    <defs>
        <linearGradient x1="50%" y1="-11.594%" x2="50%" y2="124.619%" id="a">
            <stop stop-color="#4AC2FF" offset="0%"/>
            <stop stop-color="#4BB7FF" stop-opacity="0" offset="100%"/>
        </linearGradient>
    </defs>
    <g fill-rule="nonzero" fill="none">
        <rect stroke="#D3D9DD" stroke-width="4" opacity=".556" x="36" y="48" width="83" height="61" rx="7"/>
        <path d="M46.089 19.92c-.953-.952-.969-2.482-.035-3.417.935-.934 2.465-.918 3.418.035L62.83 29.896c2.63 2.63 2.673 6.852.095 9.43L49.832 52.419c-.934.934-2.464.919-3.418-.034-.953-.954-.968-2.484-.034-3.418l13.093-13.093c.71-.71.698-1.87-.026-2.595L46.09 19.921zM27.91 49.08c.953.952.969 2.482.035 3.417-.935.934-2.465.918-3.418-.035L11.17 39.104c-2.63-2.63-2.673-6.852-.095-9.43l13.093-13.093c.934-.934 2.464-.919 3.418.034.953.954.968 2.484.034 3.418L14.527 33.126c-.71.71-.698 1.87.026 2.595L27.91 49.079z" fill="url(#a)"/>
        <path d="M45 59a2 2 0 1 1 0-4 2 2 0 0 1 0 4zm8 0a2 2 0 1 1 0-4 2 2 0 0 1 0 4zm8 0a2 2 0 1 1 0-4 2 2 0 0 1 0 4z" fill="#89969F"/>
    </g>
</svg>
